<svg viewBox="0 0 479.03 81.88" xmlns="http://www.w3.org/2000/svg"><g fill="#fff"><path d="m117.58 0 6.09 1.9v11c-9.61 1.33-16.7 8.69-16.7 18.73v50.25l-6.27-.13-.12-.28-12-.26v-51.46a14.91 14.91 0 0 0 -7-12.82l-.25.18a13.58 13.58 0 0 0 -4.94.53c-7.56 2.15-12.2 8.63-12.2 16.79v46.57l-6.19-.17-.28-.29-10.14-.22v-47.85a14.51 14.51 0 0 0 -5.85-11.82l-.21.18h-.06c-8.16-.32-14.3 7.11-14.3 16.05v43.28l-6.16-.16-.24-.29-7-.15v-67.69l20.18-2.26 83.35-9.3.06-.28z" fill-rule="evenodd" opacity=".4"/><path d="m0 13.12 33.91-3.78 83.67-9.34v11c-9.34 1.07-16.71 9-16.71 17.9v52.85l-12.52-.27v-51.73c0-8.8-7.07-15.33-15.49-14.54-8.18.77-14.72 8.2-14.72 16.55v49.07l-10.8-.24v-48.12c0-8.18-6.12-14.3-13.41-13.61-7.1.67-12.8 7.57-12.8 15.36v45.78l-9.43-.21c0-7.46 0-14.92 0-22.39v-22.55c0-7.63-5.32-13.36-11.7-12.85z" fill-rule="evenodd"/><path d="m430.28 64.07c.28 0 .55-.28.83-.83a6.56 6.56 0 0 0 .41-2.71v-28.29a6.34 6.34 0 0 0 -.41-2.68c-.28-.53-.55-.82-.83-.86h13.91c-.23 0-.34.35-.32.92a7.84 7.84 0 0 0 1 2.74q.54.95 1.62 3.21t2.48 5.25l2.83 6.18 2.77 5.92h.06c.9-1.81 1.85-3.75 2.86-5.84l2.94-6.1c1-2 1.81-3.75 2.54-5.3s1.22-2.68 1.5-3.39a10.24 10.24 0 0 0 .89-2.71c0-.55-.05-.83-.24-.83h13.88c-.28 0-.55.28-.83.83a6.76 6.76 0 0 0 -.41 2.77v28.18a6.56 6.56 0 0 0 .41 2.71c.28.55.55.83.83.83h-11.35c.28 0 .54-.28.8-.83a7 7 0 0 0 .38-2.71v-19.1h-.12c-.74 1.5-1.58 3.14-2.5 4.93s-1.83 3.58-2.71 5.39l-2.45 5c-.74 1.53-1.33 2.79-1.77 3.77a8.27 8.27 0 0 0 -.85 2.65c0 .55.07.85.26.89h-8.25c.2 0 .29-.34.27-.89a8.36 8.36 0 0 0 -.86-2.65c-.39-.9-.94-2.11-1.65-3.62s-1.49-3.18-2.36-5-1.73-3.63-2.62-5.46-1.7-3.5-2.44-5h-.18v19.1a6.56 6.56 0 0 0 .41 2.71c.28.55.55.83.83.83zm-25.83.59q-9 0-13.11-4.22t-4.16-11.64v-16.62a6.61 6.61 0 0 0 -.38-2.68c-.25-.53-.52-.8-.79-.8h11.31c-.27 0-.54.32-.79.83a6.35 6.35 0 0 0 -.39 2.65v16.5a13.12 13.12 0 0 0 1.06 5.84 5.74 5.74 0 0 0 2.95 2.83 11.54 11.54 0 0 0 4.36.77h.65a11.57 11.57 0 0 0 4.39-.74 5.3 5.3 0 0 0 2.77-2.8 14.2 14.2 0 0 0 1-5.9v-16.5a6.58 6.58 0 0 0 -.39-2.68c-.25-.53-.52-.8-.79-.8h11.31c-.27 0-.54.33-.79.86a6.61 6.61 0 0 0 -.38 2.68v16.56q0 7.43-4.22 11.64t-13 4.22zm-36.67-.59c.28 0 .54-.27.8-.8a7 7 0 0 0 .38-2.74v-28.29a7 7 0 0 0 -.38-2.71c-.26-.55-.52-.83-.8-.83h11.38c-.28 0-.55.27-.83.8a6.74 6.74 0 0 0 -.41 2.8v28.23a6.56 6.56 0 0 0 .41 2.71c.28.55.55.83.83.83zm-31-18.33h4.84q3.7 0 5.36-1.33c1.1-.88 1.65-2.35 1.65-4.39a4.45 4.45 0 0 0 -1.35-3.36c-.91-.86-2.6-1.3-5.07-1.3h-5.43a6.5 6.5 0 0 0 -2.12.18c-.2.12-.29.57-.29 1.36v7.25c0 .78.09 1.24.29 1.38a5.62 5.62 0 0 0 2.1.21zm-12.63 18.33c.27 0 .54-.28.79-.83a6.81 6.81 0 0 0 .39-2.71v-28.29a6.34 6.34 0 0 0 -.41-2.68c-.28-.53-.55-.82-.83-.86h19.33q7.72 0 10.94 2.89t3.21 8.41a9.9 9.9 0 0 1 -2.15 6.57 10.14 10.14 0 0 1 -5.34 3.43v.18a14.56 14.56 0 0 1 5 3.68 37.31 37.31 0 0 1 4.65 6.1 13.43 13.43 0 0 0 2.48 3.13 3.75 3.75 0 0 0 1.71 1h-14.92a1.45 1.45 0 0 0 1.15-.8c.3-.49.19-1.3-.32-2.44a16.93 16.93 0 0 0 -4.83-6.71 11.74 11.74 0 0 0 -7.55-2.45h-.65a4.06 4.06 0 0 0 -2.12.3c-.2.19-.29.68-.29 1.47v7.07a6.4 6.4 0 0 0 .41 2.71c.27.55.55.83.82.83zm-42 0c.27 0 .55-.28.83-.83a6.56 6.56 0 0 0 .41-2.71v-28.29a6.34 6.34 0 0 0 -.41-2.68c-.28-.53-.56-.82-.83-.86h34.42v1.77l1.18 6.84a28 28 0 0 0 -5.19-1.39 46.84 46.84 0 0 0 -8.95-.73h-8.71a4.65 4.65 0 0 0 -2.09.26c-.22.18-.33.68-.33 1.51v4.36q0 1.29.33 1.53a4.72 4.72 0 0 0 2 .24h8.49a31.19 31.19 0 0 0 5.51-.39 8.92 8.92 0 0 0 2.74-.79l-.53 2.59c-.19 1-.35 1.92-.47 2.83a17.58 17.58 0 0 0 -.18 2.24h-15.53a5.34 5.34 0 0 0 -2 .21q-.33.19-.33 1.56v4.36q0 1.35.3 1.59a4.7 4.7 0 0 0 2.06.24h15.92a15.82 15.82 0 0 0 5.51-.8 7 7 0 0 0 2.7-1.56l-1.18 7.07v1.83zm-55.6 0c.28 0 .56-.28.83-.83a6.56 6.56 0 0 0 .41-2.71v-28.29a6.34 6.34 0 0 0 -.41-2.68c-.27-.53-.55-.82-.83-.86h13.92c-.24 0-.35.35-.33.92a7.84 7.84 0 0 0 1 2.74c.36.63.9 1.7 1.63 3.21s1.55 3.26 2.47 5.25l2.85 6.18c1 2.1 1.91 4.07 2.77 5.92h.06c.9-1.81 1.86-3.75 2.86-5.84s2-4.11 3-6.1 1.8-3.75 2.53-5.3 1.23-2.68 1.5-3.39a9.87 9.87 0 0 0 .89-2.71c0-.55 0-.83-.24-.83h13.91c-.27 0-.55.28-.83.83a6.76 6.76 0 0 0 -.41 2.77v28.18a6.56 6.56 0 0 0 .41 2.71c.28.55.56.83.83.83h-11.43c.28 0 .55-.28.8-.83a6.85 6.85 0 0 0 .38-2.71v-19.1h-.12q-1.12 2.25-2.51 4.93c-.92 1.78-1.83 3.58-2.71 5.39l-2.45 5c-.74 1.53-1.33 2.79-1.77 3.77a8.27 8.27 0 0 0 -.85 2.65c0 .55.07.85.27.89h-8.26c.2 0 .29-.34.27-.89a8.36 8.36 0 0 0 -.86-2.65c-.39-.9-.94-2.11-1.65-3.62s-1.49-3.18-2.35-5-1.74-3.63-2.63-5.46-1.7-3.5-2.44-5h-.18v19.1a6.56 6.56 0 0 0 .41 2.71c.28.55.55.83.83.83zm-26.35-5.95h.64q5.43 0 8-2.72c1.69-1.8 2.54-4.87 2.54-9.19s-.87-7.19-2.6-9-4.36-2.65-7.9-2.65h-.64q-5.55 0-8.17 2.74c-1.75 1.83-2.62 4.78-2.62 8.87 0 4.32.9 7.39 2.71 9.19s4.48 2.76 8.06 2.76zm-.59 6.54q-10.14 0-14.65-4.86t-4.51-13.59a21.84 21.84 0 0 1 2-9.64 13.86 13.86 0 0 1 6.19-6.25q4.22-2.2 11-2.21h1.82a23.33 23.33 0 0 1 10.82 2.18 13.57 13.57 0 0 1 6.1 6.25 22.19 22.19 0 0 1 1.94 9.67q0 8.72-4.47 13.59t-14.39 4.86zm-45.26-18.33h2.94a19.38 19.38 0 0 0 5.4-.59 4.59 4.59 0 0 0 2.68-1.83 6.09 6.09 0 0 0 .76-3.24c0-2-.6-3.34-1.82-4.13s-3.36-1.18-6.43-1.18h-3.53a5.65 5.65 0 0 0 -2.13.21c-.19.14-.29.6-.29 1.39v7.72c0 .78.1 1.25.29 1.41a5 5 0 0 0 2.13.24zm-12.68 17.74c.28 0 .54-.28.8-.83a7 7 0 0 0 .38-2.71v-28.29a6.34 6.34 0 0 0 -.41-2.68c-.28-.53-.55-.82-.83-.86h19.39q7.49 0 10.81 3.19t3.33 8.78q0 5.71-3.33 8.93t-10.81 3.21h-9v7.72a6.56 6.56 0 0 0 .41 2.71c.28.55.55.83.83.83z"/></g></svg>