<svg fill="none" height="28" viewBox="0 0 161 28" width="161" xmlns="http://www.w3.org/2000/svg" xmlns:xlink="http://www.w3.org/1999/xlink"><clipPath id="a"><path d="m0 .454102h161v27.5462h-161z"/></clipPath><g clip-path="url(#a)"><g fill="#6f43e7"><path d="m5.71009 27.3796c-.5711-.0729-1.3366.243-1.67683-.158-.32808-.3888-.08506-1.13-.09721-1.7133 0-4.35 0-8.7.01215-13.0622 0-1.0936-.18226-2.1386-.83841-3.04992-.63185-.87486-1.48242-1.47026-2.624607-1.51886-.4009814-.01216-.4981889-.15797-.48603797-.53465.02430187-.6683.02430187-1.3366 0-2.0049-.01215093-.34023.07290567-.51034.43743397-.54679 1.932001-.19442 3.864001-.41314 5.783851-.63185 2.75826-.30378 5.50437-.6197 8.26267-.92347 2.7096-.30378 5.4193-.5954 8.1411-.89917 2.6732-.29163 5.3464-.58325 8.0196-.88702 2.9527-.32808 5.9054-.668305 8.8581-.99638.0729-.012151.1458.036453.2187.060755.243.218717.2916.510335.3038.826265 0 .6683.0121 1.3366 0 2.0049-.0243.88702-.1094.99638-.9478 1.22725-.7291.19441-1.4338.43743-2.0535.87487-1.7498 1.21509-2.6854 2.87977-2.6975 5.01837-.0243 5.4436 0 10.8751-.0122 16.3187 0 .4131.0972.8627-.2916 1.1908-1.2151-.0122-2.4302-.0365-3.6453-.0243-.4982.0121-.5954-.1823-.5954-.6319.0122-5.5651 0-11.1302.0122-16.6954 0-1.56744-.4982-2.87974-1.6769-3.93688-.2308-.19441-.4496-.40098-.7533-.48603-.9235-.19442-1.847-.40099-2.7947-.29163-2.2844.25517-4.265 2.17502-4.5567 4.44724-.0972.7169-.1458 1.446-.1458 2.175.0122 4.6903.0122 9.3806 0 14.0708 0 .3888.1094.8263-.3159 1.1058-.0729 0-.1336 0-.2066 0-.7776-.1216-1.5553.0364-2.3329-.0851-1.045-.0365-1.045-.0365-1.045-1.0693 0-4.994-.0122-9.9881 0-14.9699 0-1.5797-.4861-2.92842-1.7376-3.9491-.1094-.08506-.243-.14581-.3645-.20657-1.2637-.29162-2.5396-.54679-3.7668.10936-1.72545.89917-2.58817 2.39374-2.61247 4.32571-.03646 4.6538-.01215 9.2955-.01215 13.9493 0 .3038 0 .6076-.01215.9113-.01216.2552-.07291.4739-.29163.644-.48604.1094-.97207.0608-1.45811.0122z"/><path d="m79.5888 14.7074c.0972 2.4545-.1458 4.909.158 7.3878-1.0693 0-2.2115 0-3.3415 0 .3037-1.9441.1336-3.9126.1336-5.881 0-1.9685.158-3.9491-.1336-5.9905h4.1191c.0973 0 .2066 0 .2066.1458 0 .7048.4374 1.2516.7169 1.847.8627 1.8469 1.7376 3.6939 2.6125 5.5287.085.1701.1093.3888.3524.5225.3159-.644.6196-1.2637.9234-1.8956.8384-1.7497 1.7376-3.463 2.4667-5.2613.1093-.2674.085-.7291.2551-.8263.2917-.1458.7048-.0729 1.0693-.0729h3.1593c.0364 0 .0729.0243.1336.0364-.2187.4253-.2308.8992-.2308 1.3609v9.174c0 .4374.0121.887.2308 1.3245-1.1665 0-2.2965 0-3.4265 0 .1822-.8385.2794-6.2456.1215-7.3878-.2066.0243-.2066.2187-.2674.3524-.9842 1.8955-1.9563 3.8032-2.8433 5.7474-.0729.1701-.2065.3402-.2065.4981.0243.9235-.6076.7777-1.203.8263-.9478.0608-1.5067-.0364-1.9077-1.1786-.7776-2.175-1.9198-4.2164-2.9041-6.3064-.0729.0365-.1336.0365-.1944.0486z"/><path d="m153.138 18.3527c1.179-2.5031 2.503-4.8483 3.427-7.3635.255-.6926.547-.7777 1.142-.7655 1.13.0364 2.26.0121 3.281.0121-.073 3.9613-.073 7.8982.012 11.8837-.984 0-2.102 0-3.22 0 .292-2.4424.049-4.909.158-7.3757-.255 0-.255.158-.304.2552-.935 1.8834-1.871 3.7547-2.794 5.6381-.098.1944-.207.4009-.268.6075-.085.2795-.073.7534-.231.8263-.328.1458-.741.0729-1.13.085-.425 0-.899.1094-1.263-.0364-.365-.1458-.231-.6926-.401-1.045-1.021-2.1264-2.017-4.265-3.099-6.3793-.024 2.4788-.206 4.9333.037 7.4364-1.058 0-2.2 0-3.22 0 .085-3.9369.097-7.8859-.013-11.8836h3.998c.17 0 .231.0364.243.2309.024.2794.109.5589.231.8141 1.069 2.2844 2.163 4.5566 3.244 6.841.025.0243.073.0729.17.2187z"/><path d="m95.2515 10.2358h3.6574c2.3211 0 4.6541.0121 6.9751-.0122.473 0 .656.0729.68.6076.024.7412.207 1.4702.328 2.2722-1.154-.3402-2.272-.5589-3.414-.6318-1.531-.0973-3.075-.0365-4.6056-.0365-.328 0-.4738.158-.4738.486.0121.5468.0121 1.0936 0 1.6404-.0122.401.1701.5468.5467.5347 1.9317-.0608 3.8767.1944 5.8207-.3281-.11.7655-.219 1.4946-.304 2.2358-.037.3523-.292.2794-.498.2794-1.604 0-3.196.0243-4.7999-.0121-.6319-.0122-.8263.2065-.7777.8019.0365.4861.0122.9721.0122 1.4582 0 .2551.0972.4252.3888.4252 2.3206-.0486 4.6536.1215 6.9746-.0972.535-.0486.996-.3037 1.531-.5954-.134.96-.231 1.8591-.377 2.734-.048.2795-.34.1458-.51.1458-2.612.0122-5.225 0-7.8252 0-1.1543 0-2.2965 0-3.3172 0 .0729-3.9855.0729-7.9346-.0121-11.9079z"/><path d="m130.112 10.248h3.415c-.268 1.4217-.097 2.8677-.134 4.3015-.024.9721-.012 1.9441.012 2.9162.049 1.7497.814 2.5396 2.528 2.6975.546.0486 1.093-.0121 1.628-.1458.911-.2187 1.519-.9842 1.543-2.1507.049-2.3087.024-4.6052.012-6.9139 0-.2309-.097-.4617-.158-.7048h3.439c-.389 1.0572-.195 2.1508-.231 3.22-.049 1.5918.146 3.1957-.097 4.7875-.34 2.2115-1.677 3.5238-3.864 3.9491-1.47.2916-2.941.2673-4.387-.1094-2.09-.5468-3.402-2.2601-3.451-4.508-.036-1.9441-.012-3.8883-.012-5.8203.012-.5225-.024-1.0207-.243-1.5189z"/></g><path d="m34.0225 27.9636c0-5.8203.0121-11.6406.0121-17.473 0-3.06207 2.0171-5.57731 5.0184-6.22131.486-.10936.6683-.27947.6561-.78981-.0365-.98423.0122-1.98061.0243-2.964832.5711.060755 1.0814.315925 1.6282.449585.2674.060757.3403.255167.3281.498187 0 .94778-.0121 1.9077 0 2.85547.0122.46174-.2916.49819-.6197.5711-2.2358.55894-3.8275 1.85909-4.6417 4.04626-.2551.69261-.3523 1.40955-.3523 2.13855.0121 5.3829 0 10.7658 0 16.1486 0 .7777 0 .7777-.7898.7412-.4132.0122-.8385.0122-1.2637 0z" fill="#c5b7dd"/><path d="m19.5508 27.6962c.0972-.2795.0729-.5589.0729-.8384 0-5.1034.0121-10.2068 0-15.3102 0-2.01707.7047-3.6696 2.2965-4.92114 1.6161-1.2637 3.8519-1.43382 5.4558-.43744-2.9284-.10936-5.711 2.21147-5.7231 5.91748-.0122 4.9333 0 9.8545 0 14.7877 0 .8384 0 .8384-.8263.8263-.4253-.0122-.8505-.0122-1.2758-.0243z" fill="#c5b7dd"/><path d="m7.16896 27.3558c-.01216-2.2479-.02431-4.4837-.02431-6.7316 0-2.9284-.0243-5.8689.01216-8.7973.0243-2.33298 1.59177-4.41079 3.71819-4.90898 1.0571-.25517 2.09-.17011 3.0134.49819-2.7339.08505-4.32571 2.30868-4.62948 4.48369-.08506.644-.10936 1.288-.10936 1.932.01215 4.2771 0 8.5664 0 12.8436 0 .7898 0 .7898-.76551.7655-.40098 0-.80196-.0486-1.21509-.0851z" fill="#c5b7dd"/><path d="m127.463 22.1312c-1.203 0-2.321 0-3.305 0 .049-3.9612.049-7.8981 0-11.8714h3.317c-.267.5103-.255 1.0571-.255 1.5917v8.7487c-.012.5104 0 1.0085.243 1.531z" fill="#6f43e7"/><path d="m17.0112 27.624c.7777-.0365 1.5553-.0486 2.333.085-.7777.0486-1.5675.0729-2.333-.085z" fill="#c5b7dd"/><path d="m5.71094 27.3807c.48603-.0121.97207-.0121 1.45811-.0243-.47389.2552-.97208.1094-1.45811.0243z" fill="#c5b7dd"/><g fill="#6f43e7"><path d="m122.141 22.107c-1.458-1.5432-2.248-3.6575-4.325-4.6539.182-.085.291-.1336.4-.1822 1.483-.6319 2.261-1.9199 2.127-3.5238-.158-1.8955-.911-2.9284-2.661-3.2807-2.795-.55899-5.638-.0973-8.311-.2674.17 4.0098.121 7.9467.024 11.908h3.305c-.352-1.2394-.134-2.4788-.182-3.7061-.012-.3524.255-.401.546-.4131 2.127-.1337 3.634.8141 4.594 2.8798.194.4009.328.8019.121 1.2394zm-5.905-6.3064c-1.13.3159-2.284.1458-3.439.1337-.279 0-.291-.2309-.291-.4375 0-.8505 0-1.7011 0-2.5395 0-.3038.121-.4496.425-.4496h1.458v.0243c.51 0 1.008-.0364 1.507.0122.862.0729 1.324.5589 1.421 1.3852.098.887-.303 1.6525-1.081 1.8712z"/><path d="m73.7928 14.1721c-.5103-2.2358-1.932-3.5238-4.1556-3.9369-1.6039-.30379-3.22-.30379-4.8239.0364-2.1021.4496-3.4995 1.7012-4.022 3.8154-.3402 1.3731-.3402 2.7704 0 4.1435.5225 2.1143 1.8105 3.463 3.9855 3.9126.8384.1701 1.6768.2552 2.6003.2309.6076.0364 1.2637-.0365 1.932-.1215 2.2236-.2674 3.8397-1.6161 4.4108-3.7668.3888-1.4217.4131-2.8676.0729-4.3136zm-3.062 3.9733c-.2552.8749-.802 1.4946-1.6769 1.7619-1.215.3767-2.4301.3767-3.6209-.0729-.7412-.2794-1.2637-.8019-1.5068-1.5553-.4374-1.3366-.4617-2.6975-.0486-4.0463.2674-.8991.8628-1.4945 1.7498-1.774 1.0085-.3159 2.0413-.3281 3.0499-.0972 1.4338.3281 2.1385 1.288 2.2843 2.9648.0243.2795 0 .5711 0 .8506.0365.6683-.0486 1.3244-.2308 1.9684z"/><path d="m58.689 13.4924c-.1945-1.4945-1.1058-2.5881-2.5517-2.9891-.644-.1823-1.3002-.2673-1.9806-.2673-2.0049 0-4.0098 0-6.0147 0-.1701 0-.3524-.0608-.4496 0 .3402 2.017.1458 3.9976.1579 5.9661 0 1.9685.1702 3.9491-.1336 5.9175h3.4265c-.3888-1.0936-.1579-2.1507-.2308-3.1957-.0365-.4496.0972-.5832.5589-.5832 1.3366 0 2.6732.085 3.9977-.0972 1.6646-.2309 2.8919-1.3245 3.1835-2.9527.1094-.5954.1215-1.1908.0365-1.7984zm-3.9855 2.4302c-1.1179.3646-2.2723.2673-3.4266.243-.3159-.0121-.3645-.2673-.3645-.5346 0-.4496 0-.887 0-1.3366s0-.887 0-1.3366c0-.243.0607-.4496.3645-.4496 1.1057-.0243 2.2236-.1215 3.3172.158.7412.1944 1.0814.6804 1.13 1.5188.0486.8749-.3037 1.5068-1.0206 1.7376z"/></g></g></svg>