<svg xmlns="http://www.w3.org/2000/svg" xmlns:xlink="http://www.w3.org/1999/xlink" width="686" height="596" viewBox="-0.5 -0.5 686 596" style="background-color:#fff"><path d="M143 30q82 0 82 118.63" fill="none" stroke="#666" stroke-miterlimit="10" pointer-events="stroke"/><path d="m225 153.88-3.5-7 3.5 1.75 3.5-1.75Z" fill="#666" stroke="#666" stroke-miterlimit="10" pointer-events="all"/><path d="M324.75 30Q225 30 225 148.63" fill="none" stroke="#666" stroke-miterlimit="10" pointer-events="stroke"/><path d="m225 153.88-3.5-7 3.5 1.75 3.5-1.75Z" fill="#666" stroke="#666" stroke-miterlimit="10" pointer-events="all"/><path d="m618 275 8-5.8-33.07-53.2-8.53 4.74Zm-64 0h64l-33.6-54.26-30.4 53.72Z" fill="#036897" stroke="#fff" stroke-width="2" stroke-linejoin="round" stroke-miterlimit="10" pointer-events="all"/><path d="M584.93 258.14c2.14 0 4.27-2.1 4.27-4.74 0-2.1-2.13-4.22-4.27-4.22-2.66 0-4.8 2.12-4.8 4.22 0 2.64 2.14 4.74 4.8 4.74m0-16.86c2.14 0 4.27-2.1 4.27-4.2 0-2.64-2.13-4.74-4.27-4.74-2.66 0-4.8 2.1-4.8 4.74 0 2.1 2.14 4.2 4.8 4.2m12.27 28.98c2.67 0 4.8-1.58 4.8-4.22s-2.13-4.74-4.8-4.74-4.8 2.1-4.8 4.74 2.13 4.22 4.8 4.22m-25.07 0c2.67 0 4.8-2.12 4.8-4.22 0-2.64-2.13-4.74-4.8-4.74-2.13 0-4.26 2.1-4.26 4.74 0 2.1 2.13 4.22 4.26 4.22" fill="#fff" pointer-events="all"/><path d="M584.4 237.6v15.8l-12.27 12.64m12.27-12.12 11.73 11.6" fill="none" stroke="#fff" stroke-width="2.1" stroke-miterlimit="10" pointer-events="all"/><switch transform="translate(-.5 -.5)"><foreignObject pointer-events="none" width="100%" height="100%" requiredFeatures="http://www.w3.org/TR/SVG11/feature#Extensibility" style="overflow:visible;text-align:left"><div xmlns="http://www.w3.org/1999/xhtml" style="display:flex;align-items:unsafe center;justify-content:unsafe flex-start;width:1px;height:1px;padding-top:246px;margin-left:628px"><div data-drawio-colors="color: rgb(0, 0, 0);" style="box-sizing:border-box;font-size:0;text-align:left"><div style="display:inline-block;font-size:9px;font-family:Helvetica;color:#000;line-height:1.2;pointer-events:all;font-weight:700;white-space:nowrap"><span style="font-size:14px">Identity<br/>Provider<br/></span></div></div></div></foreignObject><text x="628" y="248" font-family="Helvetica" font-size="9" font-weight="bold">Identity...</text></switch><path fill="none" pointer-events="all" d="M21.62 10h47v50h-47z"/><path d="M35.06 24.39c-.08-3.78 1.18-7.43 3.49-10.14 2.3-2.7 5.46-4.24 8.76-4.25 7.36.08 13.36 6.48 13.63 14.54.28 3.7-.83 7.37-3.08 10.15-2.24 2.77-5.41 4.41-8.78 4.54-7.45.16-13.67-6.42-14.02-14.84M21.62 60c.3-7.03 2.88-13.58 7.14-18.06 3.37-3.38 8.07-3.58 11.61-.5 2.02 1.51 4.24 2.73 6.6 3.62 2.41 1.06 5.06.88 7.38-.5a10 10 0 0 0 3.3-2.62c.89-1.08 2.44-1.3 3.59-.5 2.02 1.37 3.84 3.8 5.26 7.04 1.38 3.68 2.1 7.57 2.12 11.51Z" fill="#7d7d7d" pointer-events="all"/><path fill="none" pointer-events="all" d="M68.62 0h65v60h-65z"/><path d="M80.66 12.5c-2.51 0-4.54 2.01-4.54 4.5v26.97c0 2.49 2.03 4.48 4.54 4.48h15.97v4.78h-4.57v4.27h18.06v-4.27h-4.6v-4.78h16.06c2.51 0 4.54-1.99 4.54-4.48V17c0-2.49-2.03-4.5-4.54-4.5Z" fill="#757575" pointer-events="all"/><path d="M80.5 16.84h41.11V44.1H80.5Z" fill="#fff" pointer-events="all"/><path fill="none" pointer-events="all" d="M320.75 15h50v30h-50z"/><path d="M324.99 38.27V16.35c.31-.73.97-1.24 1.75-1.35h37.87c.96.11 1.74.81 1.95 1.74v21.53l4.01 4.34c.18.54.01 1.1-.47 1.55-.47.46-1.21.76-2.03.84h-44.59c-.83-.07-1.58-.37-2.07-.82-.48-.46-.66-1.03-.48-1.57Zm1.65 0 38.42.05V17.19c-.18-.53-.65-.91-1.21-.99h-36.2c-.55.18-.94.67-1.01 1.24Zm15.25 2.94-1.36 1.95h9.43l-1.05-1.95Z" fill="#7d7d7d" pointer-events="all"/><path fill="none" pointer-events="all" d="M428.37 10h-47v50h47z"/><path d="M414.93 24.39c.08-3.78-1.18-7.43-3.49-10.14-2.3-2.7-5.46-4.24-8.76-4.25-7.36.08-13.36 6.48-13.63 14.54-.28 3.7.83 7.37 3.08 10.15 2.24 2.77 5.41 4.41 8.78 4.54 7.45.16 13.67-6.42 14.02-14.84M428.37 60c-.3-7.03-2.88-13.58-7.14-18.06-3.37-3.38-8.07-3.58-11.61-.5a26.8 26.8 0 0 1-6.6 3.62c-2.41 1.06-5.06.88-7.38-.5a10 10 0 0 1-3.3-2.62 2.663 2.663 0 0 0-3.59-.5c-2.02 1.37-3.84 3.8-5.26 7.04-1.38 3.68-2.1 7.57-2.12 11.51Z" fill="#7d7d7d" pointer-events="all"/><path fill="none" pointer-events="all" d="M205 25h40v20h-40z"/><switch transform="translate(-.5 -.5)"><foreignObject pointer-events="none" width="100%" height="100%" requiredFeatures="http://www.w3.org/TR/SVG11/feature#Extensibility" style="overflow:visible;text-align:left"><div xmlns="http://www.w3.org/1999/xhtml" style="display:flex;align-items:unsafe center;justify-content:unsafe center;width:38px;height:1px;padding-top:35px;margin-left:206px"><div data-drawio-colors="color: rgb(0, 0, 0);" style="box-sizing:border-box;font-size:0;text-align:center"><div style="display:inline-block;font-size:25px;font-family:Helvetica;color:#000;line-height:1.2;pointer-events:all;white-space:normal;overflow-wrap:normal"><font style="font-size:10px">Request</font></div></div></div></foreignObject><text x="225" y="43" font-family="Helvetica" font-size="25" text-anchor="middle">Req...</text></switch><path d="M85.62 325h278.76" fill="none" stroke="#666" stroke-miterlimit="10" stroke-dasharray="3 3" pointer-events="stroke"/><path d="m80.37 325 7-3.5-1.75 3.5 1.75 3.5Zm289.26 0-7 3.5 1.75-3.5-1.75-3.5Z" fill="#666" stroke="#666" stroke-miterlimit="10" pointer-events="all"/><switch transform="translate(-.5 -.5)"><foreignObject pointer-events="none" width="100%" height="100%" requiredFeatures="http://www.w3.org/TR/SVG11/feature#Extensibility" style="overflow:visible;text-align:left"><div xmlns="http://www.w3.org/1999/xhtml" style="display:flex;align-items:unsafe center;justify-content:unsafe center;width:1px;height:1px;padding-top:320px;margin-left:149px"><div data-drawio-colors="color: rgb(0, 0, 0); background-color: rgb(255, 255, 255);" style="box-sizing:border-box;font-size:0;text-align:center"><div style="display:inline-block;font-size:11px;font-family:Helvetica;color:#000;line-height:1.2;pointer-events:all;background-color:#fff;white-space:nowrap">Session / Identity<br/>Data Sync</div></div></div></foreignObject><text x="149" y="323" font-family="Helvetica" font-size="11" text-anchor="middle">Session / Identity...</text></switch><ellipse cx="45.13" cy="325" rx="34.125" ry="35" fill="#63f" stroke="#000" pointer-events="all"/><switch transform="translate(-.5 -.5)"><foreignObject pointer-events="none" width="100%" height="100%" requiredFeatures="http://www.w3.org/TR/SVG11/feature#Extensibility" style="overflow:visible;text-align:left"><div xmlns="http://www.w3.org/1999/xhtml" style="display:flex;align-items:unsafe center;justify-content:unsafe center;width:66px;height:1px;padding-top:325px;margin-left:12px"><div data-drawio-colors="color: #FFFFFF;" style="box-sizing:border-box;font-size:0;text-align:center"><div style="display:inline-block;font-size:12px;font-family:Helvetica;color:#fff;line-height:1.2;pointer-events:all;white-space:normal;overflow-wrap:normal">Authorize</div></div></div></foreignObject><text x="45" y="329" fill="#fff" font-family="Helvetica" font-size="12" text-anchor="middle">Authorize</text></switch><path d="M259.13 190h105.25" fill="none" stroke="#666" stroke-miterlimit="10" stroke-dasharray="3 3" pointer-events="stroke"/><path d="m369.63 190-7 3.5 1.75-3.5-1.75-3.5Z" fill="#666" stroke="#666" stroke-miterlimit="10" pointer-events="all"/><switch transform="translate(-.5 -.5)"><foreignObject pointer-events="none" width="100%" height="100%" requiredFeatures="http://www.w3.org/TR/SVG11/feature#Extensibility" style="overflow:visible;text-align:left"><div xmlns="http://www.w3.org/1999/xhtml" style="display:flex;align-items:unsafe center;justify-content:unsafe center;width:1px;height:1px;padding-top:190px;margin-left:315px"><div data-drawio-colors="color: rgb(0, 0, 0); background-color: rgb(255, 255, 255);" style="box-sizing:border-box;font-size:0;text-align:center"><div style="display:inline-block;font-size:11px;font-family:Helvetica;color:#000;line-height:1.2;pointer-events:all;background-color:#fff;white-space:nowrap">Identify<br/>User</div></div></div></foreignObject><text x="315" y="193" font-family="Helvetica" font-size="11" text-anchor="middle">Identify...</text></switch><path d="M190.88 190H55.1q-10 0-10 10l.02 83.63" fill="none" stroke="#666" stroke-miterlimit="10" stroke-dasharray="3 3" pointer-events="stroke"/><path d="m45.12 288.88-3.5-7 3.5 1.75 3.5-1.75Z" fill="#666" stroke="#666" stroke-miterlimit="10" pointer-events="all"/><switch transform="translate(-.5 -.5)"><foreignObject pointer-events="none" width="100%" height="100%" requiredFeatures="http://www.w3.org/TR/SVG11/feature#Extensibility" style="overflow:visible;text-align:left"><div xmlns="http://www.w3.org/1999/xhtml" style="display:flex;align-items:unsafe center;justify-content:unsafe center;width:1px;height:1px;padding-top:185px;margin-left:134px"><div data-drawio-colors="color: rgb(0, 0, 0); background-color: rgb(255, 255, 255);" style="box-sizing:border-box;font-size:0;text-align:center"><div style="display:inline-block;font-size:11px;font-family:Helvetica;color:#000;line-height:1.2;pointer-events:all;background-color:#fff;white-space:nowrap">Check<br/>Authorization</div></div></div></foreignObject><text x="134" y="188" font-family="Helvetica" font-size="11" text-anchor="middle">Check...</text></switch><path d="M225 225v190q0 10-10 10H55q-10 0-10 10v28.63" fill="none" stroke="#666" stroke-miterlimit="10" pointer-events="stroke"/><path d="m45 468.88-3.5-7 3.5 1.75 3.5-1.75Z" fill="#666" stroke="#666" stroke-miterlimit="10" pointer-events="all"/><path d="M225 225v190q0 10 10 10h160q10 0 10 10v28.63" fill="none" stroke="#666" stroke-miterlimit="10" pointer-events="stroke"/><path d="m405 468.88-3.5-7 3.5 1.75 3.5-1.75Z" fill="#666" stroke="#666" stroke-miterlimit="10" pointer-events="all"/><path d="M225 225v238.63" fill="none" stroke="#666" stroke-miterlimit="10" pointer-events="stroke"/><path d="m225 468.88-3.5-7 3.5 1.75 3.5-1.75Z" fill="#666" stroke="#666" stroke-miterlimit="10" pointer-events="all"/><switch transform="translate(-.5 -.5)"><foreignObject pointer-events="none" width="100%" height="100%" requiredFeatures="http://www.w3.org/TR/SVG11/feature#Extensibility" style="overflow:visible;text-align:left"><div xmlns="http://www.w3.org/1999/xhtml" style="display:flex;align-items:unsafe center;justify-content:unsafe center;width:1px;height:1px;padding-top:260px;margin-left:239px"><div data-drawio-colors="color: rgb(0, 0, 0); background-color: #ffffff;" style="box-sizing:border-box;font-size:0;text-align:center"><div style="display:inline-block;font-size:11px;font-family:Helvetica;color:#000;line-height:1.2;pointer-events:all;background-color:#fff;white-space:nowrap">Authorized<br/>Request</div></div></div></foreignObject><text x="239" y="263" font-family="Helvetica" font-size="11" text-anchor="middle">Authorized...</text></switch><path d="m249.09 214.79 55.91.01q10 0 10 10V301q0 10 10 10h39.65" fill="none" stroke="#666" stroke-miterlimit="10" stroke-dasharray="3 3" pointer-events="stroke"/><path d="m369.9 311-7 3.5 1.75-3.5-1.75-3.5Z" fill="#666" stroke="#666" stroke-miterlimit="10" pointer-events="all"/><ellipse cx="225" cy="190" rx="34.125" ry="35" fill="#63f" stroke="#000" pointer-events="all"/><switch transform="translate(-.5 -.5)"><foreignObject pointer-events="none" width="100%" height="100%" requiredFeatures="http://www.w3.org/TR/SVG11/feature#Extensibility" style="overflow:visible;text-align:left"><div xmlns="http://www.w3.org/1999/xhtml" style="display:flex;align-items:unsafe center;justify-content:unsafe center;width:66px;height:1px;padding-top:190px;margin-left:192px"><div data-drawio-colors="color: #FFFFFF;" style="box-sizing:border-box;font-size:0;text-align:center"><div style="display:inline-block;font-size:12px;font-family:Helvetica;color:#fff;line-height:1.2;pointer-events:all;white-space:normal;overflow-wrap:normal">Proxy</div></div></div></foreignObject><text x="225" y="194" fill="#fff" font-family="Helvetica" font-size="12" text-anchor="middle">Proxy</text></switch><path d="M445.37 325H580q10 0 10-10v-34.22" fill="none" stroke="#666" stroke-miterlimit="10" stroke-dasharray="3 3" pointer-events="stroke"/><path d="m440.12 325 7-3.5-1.75 3.5 1.75 3.5ZM590 275.53l3.5 7-3.5-1.75-3.5 1.75Z" fill="#666" stroke="#666" stroke-miterlimit="10" pointer-events="all"/><switch transform="translate(-.5 -.5)"><foreignObject pointer-events="none" width="100%" height="100%" requiredFeatures="http://www.w3.org/TR/SVG11/feature#Extensibility" style="overflow:visible;text-align:left"><div xmlns="http://www.w3.org/1999/xhtml" style="display:flex;align-items:unsafe center;justify-content:unsafe center;width:1px;height:1px;padding-top:325px;margin-left:518px"><div data-drawio-colors="color: rgb(0, 0, 0); background-color: rgb(255, 255, 255);" style="box-sizing:border-box;font-size:0;text-align:center"><div style="display:inline-block;font-size:11px;font-family:Helvetica;color:#000;line-height:1.2;pointer-events:all;background-color:#fff;white-space:nowrap">Session / Identity<br/>Refresh</div></div></div></foreignObject><text x="518" y="328" font-family="Helvetica" font-size="11" text-anchor="middle">Session / Identity...</text></switch><ellipse cx="404.88" cy="325" rx="34.125" ry="35" fill="#63f" stroke="#000" pointer-events="all"/><switch transform="translate(-.5 -.5)"><foreignObject pointer-events="none" width="100%" height="100%" requiredFeatures="http://www.w3.org/TR/SVG11/feature#Extensibility" style="overflow:visible;text-align:left"><div xmlns="http://www.w3.org/1999/xhtml" style="display:flex;align-items:unsafe center;justify-content:unsafe center;width:66px;height:1px;padding-top:325px;margin-left:372px"><div data-drawio-colors="color: #FFFFFF;" style="box-sizing:border-box;font-size:0;text-align:center"><div style="display:inline-block;font-size:12px;font-family:Helvetica;color:#fff;line-height:1.2;pointer-events:all;white-space:normal;overflow-wrap:normal">Databroker</div></div></div></foreignObject><text x="405" y="329" fill="#fff" font-family="Helvetica" font-size="12" text-anchor="middle">Databroker</text></switch><path d="M445.37 190H574q10 0 10.01 9.82l.01 9.81" fill="none" stroke="#666" stroke-miterlimit="10" stroke-dasharray="3 3" pointer-events="stroke"/><path d="m440.12 190 7-3.5-1.75 3.5 1.75 3.5Zm143.9 24.88-3.5-6.99 3.5 1.74 3.5-1.75Z" fill="#666" stroke="#666" stroke-miterlimit="10" pointer-events="all"/><switch transform="translate(-.5 -.5)"><foreignObject pointer-events="none" width="100%" height="100%" requiredFeatures="http://www.w3.org/TR/SVG11/feature#Extensibility" style="overflow:visible;text-align:left"><div xmlns="http://www.w3.org/1999/xhtml" style="display:flex;align-items:unsafe center;justify-content:unsafe center;width:1px;height:1px;padding-top:190px;margin-left:525px"><div data-drawio-colors="color: rgb(0, 0, 0); background-color: rgb(255, 255, 255);" style="box-sizing:border-box;font-size:0;text-align:center"><div style="display:inline-block;font-size:11px;font-family:Helvetica;color:#000;line-height:1.2;pointer-events:all;background-color:#fff;white-space:nowrap"><span>Establish<br/>Identity</span></div></div></div></foreignObject><text x="525" y="193" font-family="Helvetica" font-size="11" text-anchor="middle">Establish...</text></switch><ellipse cx="404.88" cy="190" rx="34.125" ry="35" fill="#63f" stroke="#000" pointer-events="all"/><switch transform="translate(-.5 -.5)"><foreignObject pointer-events="none" width="100%" height="100%" requiredFeatures="http://www.w3.org/TR/SVG11/feature#Extensibility" style="overflow:visible;text-align:left"><div xmlns="http://www.w3.org/1999/xhtml" style="display:flex;align-items:unsafe center;justify-content:unsafe center;width:66px;height:1px;padding-top:190px;margin-left:372px"><div data-drawio-colors="color: #FFFFFF;" style="box-sizing:border-box;font-size:0;text-align:center"><div style="display:inline-block;font-size:12px;font-family:Helvetica;color:#fff;line-height:1.2;pointer-events:all;white-space:normal;overflow-wrap:normal">Authenticate</div></div></div></foreignObject><text x="405" y="194" fill="#fff" font-family="Helvetica" font-size="12" text-anchor="middle">Authenticate</text></switch><path fill="none" pointer-events="all" d="M180 470h90v89h-90z"/><path d="M238.64 483.43h21.81v-3.38h-21.81Zm-9.55 3.47v-12.6c0-1.91 2.11-4.3 5.47-4.3h30.02c3.2 0 5.42 2.31 5.42 4.37v64.35h-20.45v-9.01h10.9v-3.38h-10.9v-5.63h10.9v-3.38h-10.9v-22.58c0-4.6-4.64-7.84-9.35-7.84Zm-39.8-3.47h22.13l-.17-3.38h-22.29ZM180 538.72v-64.33c0-2.35 2.58-4.39 5.25-4.39h30.35c2.62 0 5.31 1.92 5.31 4.42v12.48h-11.04c-5.67 0-9.42 3.96-9.42 7.73v22.69h-10.9v3.38h10.9v5.63h-10.9v3.38h10.9v9.03Zm34.09-34.92h21.82v-3.38h-21.82Zm0 37.17h21.82v-3.38h-21.82Zm0 9.02h21.82v-3.38h-21.82Zm-9.54 9.01v-64.32c0-2.43 2.65-4.4 5.27-4.4h30.2c3.03 0 5.43 2.13 5.43 4.41V559Z" fill="#7d7d7d" pointer-events="all"/><switch transform="translate(-.5 -.5)"><foreignObject pointer-events="none" width="100%" height="100%" requiredFeatures="http://www.w3.org/TR/SVG11/feature#Extensibility" style="overflow:visible;text-align:left"><div xmlns="http://www.w3.org/1999/xhtml" style="display:flex;align-items:unsafe flex-start;justify-content:unsafe center;width:1px;height:1px;padding-top:566px;margin-left:225px"><div data-drawio-colors="color: rgb(0, 0, 0);" style="box-sizing:border-box;font-size:0;text-align:center"><div style="display:inline-block;font-size:12px;font-family:Helvetica;color:#000;line-height:1.2;pointer-events:all;font-weight:700;white-space:nowrap">Secured<br/>Application</div></div></div></foreignObject><text x="225" y="578" font-family="Helvetica" font-size="12" text-anchor="middle" font-weight="bold">Secured...</text></switch><path fill="none" pointer-events="all" d="M.13 470h90v89h-90z"/><path d="M58.77 483.43h21.81v-3.38H58.77Zm-9.55 3.47v-12.6c0-1.91 2.11-4.3 5.47-4.3h30.02c3.2 0 5.42 2.31 5.42 4.37v64.35H69.68v-9.01h10.9v-3.38h-10.9v-5.63h10.9v-3.38h-10.9v-22.58c0-4.6-4.64-7.84-9.35-7.84Zm-39.8-3.47h22.13l-.17-3.38H9.09ZM.13 538.72v-64.33c0-2.35 2.58-4.39 5.25-4.39h30.35c2.62 0 5.31 1.92 5.31 4.42v12.48H30c-5.67 0-9.42 3.96-9.42 7.73v22.69H9.68v3.38h10.9v5.63H9.68v3.38h10.9v9.03Zm34.09-34.92h21.82v-3.38H34.22Zm0 37.17h21.82v-3.38H34.22Zm0 9.02h21.82v-3.38H34.22ZM24.68 559v-64.32c0-2.43 2.65-4.4 5.27-4.4h30.2c3.03 0 5.43 2.13 5.43 4.41V559Z" fill="#7d7d7d" pointer-events="all"/><switch transform="translate(-.5 -.5)"><foreignObject pointer-events="none" width="100%" height="100%" requiredFeatures="http://www.w3.org/TR/SVG11/feature#Extensibility" style="overflow:visible;text-align:left"><div xmlns="http://www.w3.org/1999/xhtml" style="display:flex;align-items:unsafe flex-start;justify-content:unsafe center;width:1px;height:1px;padding-top:566px;margin-left:45px"><div data-drawio-colors="color: rgb(0, 0, 0);" style="box-sizing:border-box;font-size:0;text-align:center"><div style="display:inline-block;font-size:12px;font-family:Helvetica;color:#000;line-height:1.2;pointer-events:all;font-weight:700;white-space:nowrap">Secured<br/>Application</div></div></div></foreignObject><text x="45" y="578" font-family="Helvetica" font-size="12" text-anchor="middle" font-weight="bold">Secured...</text></switch><path fill="none" pointer-events="all" d="M359.87 470h90v89h-90z"/><path d="M418.51 483.43h21.81v-3.38h-21.81Zm-9.55 3.47v-12.6c0-1.91 2.11-4.3 5.47-4.3h30.02c3.2 0 5.42 2.31 5.42 4.37v64.35h-20.45v-9.01h10.9v-3.38h-10.9v-5.63h10.9v-3.38h-10.9v-22.58c0-4.6-4.64-7.84-9.35-7.84Zm-39.8-3.47h22.13l-.17-3.38h-22.29Zm-9.29 55.29v-64.33c0-2.35 2.58-4.39 5.25-4.39h30.35c2.62 0 5.31 1.92 5.31 4.42v12.48h-11.04c-5.67 0-9.42 3.96-9.42 7.73v22.69h-10.9v3.38h10.9v5.63h-10.9v3.38h10.9v9.03Zm34.09-34.92h21.82v-3.38h-21.82Zm0 37.17h21.82v-3.38h-21.82Zm0 9.02h21.82v-3.38h-21.82Zm-9.54 9.01v-64.32c0-2.43 2.65-4.4 5.27-4.4h30.2c3.03 0 5.43 2.13 5.43 4.41V559Z" fill="#7d7d7d" pointer-events="all"/><switch transform="translate(-.5 -.5)"><foreignObject pointer-events="none" width="100%" height="100%" requiredFeatures="http://www.w3.org/TR/SVG11/feature#Extensibility" style="overflow:visible;text-align:left"><div xmlns="http://www.w3.org/1999/xhtml" style="display:flex;align-items:unsafe flex-start;justify-content:unsafe center;width:1px;height:1px;padding-top:566px;margin-left:405px"><div data-drawio-colors="color: rgb(0, 0, 0);" style="box-sizing:border-box;font-size:0;text-align:center"><div style="display:inline-block;font-size:12px;font-family:Helvetica;color:#000;line-height:1.2;pointer-events:all;font-weight:700;white-space:nowrap">Secured<br/>Application</div></div></div></foreignObject><text x="405" y="578" font-family="Helvetica" font-size="12" text-anchor="middle" font-weight="bold">Secured...</text></switch><rect x="284" y="240" width="60" height="40" rx="6" ry="6" fill="none" pointer-events="all"/><switch transform="translate(-.5 -.5)"><foreignObject pointer-events="none" width="100%" height="100%" requiredFeatures="http://www.w3.org/TR/SVG11/feature#Extensibility" style="overflow:visible;text-align:left"><div xmlns="http://www.w3.org/1999/xhtml" style="display:flex;align-items:unsafe center;justify-content:unsafe center;width:58px;height:1px;padding-top:260px;margin-left:285px"><div data-drawio-colors="color: rgb(0, 0, 0); background-color: #FFFFFF;" style="box-sizing:border-box;font-size:0;text-align:center"><div style="display:inline-block;font-size:11px;font-family:Helvetica;color:#000;line-height:1.2;pointer-events:all;background-color:#fff;white-space:normal;overflow-wrap:normal">Stores Session</div></div></div></foreignObject><text x="314" y="263" font-family="Helvetica" font-size="11" text-anchor="middle">Stores Sess...</text></switch><switch><g requiredFeatures="http://www.w3.org/TR/SVG11/feature#Extensibility"/><a transform="translate(0 -5)" xlink:href="https://www.diagrams.net/doc/faq/svg-export-text-problems" target="_blank"><text text-anchor="middle" font-size="10" x="50%" y="100%">Text is not SVG - cannot display</text></a></switch></svg>