<svg xmlns="http://www.w3.org/2000/svg" xmlns:xlink="http://www.w3.org/1999/xlink" xmlns:lucid="lucid" width="792" height="341"><g transform="translate(-2389 -340)" lucid:page-tab-id="0_0"><path d="M2000 0h1500v1000H2000z" fill="#fff"/><path d="M2430 378a8 8 0 0 1 8-8h184a8 8 0 0 1 8 8v71.2a8 8 0 0 1-8 8h-184a8 8 0 0 1-8-8z" stroke="#000" stroke-width="2" fill-opacity="0"/><use xlink:href="#a" transform="matrix(1,0,0,1,2438,378) translate(31.577907986111107 17.65863715277778)"/><use xlink:href="#b" transform="matrix(1,0,0,1,2438,378) translate(107.53276909722223 17.65863715277778)"/><use xlink:href="#c" transform="matrix(1,0,0,1,2438,378) translate(146.09505208333334 17.65863715277778)"/><path d="M2430 478a8 8 0 0 1 8-8h184a8 8 0 0 1 8 8v71.2a8 8 0 0 1-8 8h-184a8 8 0 0 1-8-8z" stroke="#000" stroke-width="2" fill-opacity="0"/><use xlink:href="#a" transform="matrix(1,0,0,1,2438,478) translate(29.998046875 17.65863715277778)"/><use xlink:href="#b" transform="matrix(1,0,0,1,2438,478) translate(105.95290798611111 17.65863715277778)"/><use xlink:href="#d" transform="matrix(1,0,0,1,2438,478) translate(144.51519097222223 17.65863715277778)"/><path d="M2980 378a8 8 0 0 1 8-8h144a8 8 0 0 1 8 8v89.43a8 8 0 0 1-8 8h-144a8 8 0 0 1-8-8z" stroke="#000" stroke-width="2" fill-opacity="0"/><path d="M2680 376a6 6 0 0 1 6-6h228a6 6 0 0 1 6 6v178a6 6 0 0 1-6 6h-228a6 6 0 0 1-6-6z" stroke="#282c33" stroke-width="2" fill="#fbf0ff"/><use xlink:href="#e" transform="matrix(1,0,0,1,2685,375) translate(61.73936631944445 21.52777777777778)"/><path d="M2700.25 448.3h-38.6a11.65 11.65 0 0 1-11.65-11.65 11.65 11.65 0 0 0-11.66-11.65h-28.6" stroke="#3a414a" fill="none"/><path d="M2707.88 448.3l-7.13 2.33V446zM2602.12 425l7.13-2.32v4.64z" stroke="#3a414a" fill="#3a414a"/><path d="M2460 411a6 6 0 0 1 6-6h128a6 6 0 0 1 6 6v28a6 6 0 0 1-6 6h-128a6 6 0 0 1-6-6z" stroke="#282c33" fill="#f2f2ff"/><use xlink:href="#f" transform="matrix(1,0,0,1,2465,410) translate(16.76649305555555 21.46701388888889)"/><use xlink:href="#g" transform="matrix(1,0,0,1,2465,410) translate(57.79079861111111 21.46701388888889)"/><path d="M2700.25 448.3H2662a12 12 0 0 0-12 12V513a12 12 0 0 1-12 12h-28.25" stroke="#3a414a" fill="none"/><path d="M2707.88 448.3l-7.13 2.33V446zM2602.12 525l7.13-2.32v4.64z" stroke="#3a414a" fill="#3a414a"/><path d="M2460 511a6 6 0 0 1 6-6h128a6 6 0 0 1 6 6v28a6 6 0 0 1-6 6h-128a6 6 0 0 1-6-6z" stroke="#282c33" fill="#f2f2ff"/><use xlink:href="#f" transform="matrix(1,0,0,1,2465,510) translate(16.76649305555555 21.46701388888889)"/><use xlink:href="#g" transform="matrix(1,0,0,1,2465,510) translate(57.79079861111111 21.46701388888889)"/><path d="M3000 438.62a6 6 0 0 1 6-6h108a6 6 0 0 1 6 6V458a6 6 0 0 1-6 6h-108a6 6 0 0 1-6-6z" stroke="#282c33" fill="#f2f2ff"/><use xlink:href="#h" transform="matrix(1,0,0,1,3005,437.6156529017857) translate(15.928819444444443 16.65863715277778)"/><use xlink:href="#i" transform="matrix(1,0,0,1,3005,437.6156529017857) translate(51.82508680555556 16.65863715277778)"/><path d="M2990.25 448.3h-90.5" stroke="#3a414a" fill="none"/><path d="M2997.88 448.3l-7.13 2.33V446zM2892.12 448.3l7.13-2.3v4.63z" stroke="#3a414a" fill="#3a414a"/><path d="M2715 592.25a6 6 0 0 1 6-6h158a6 6 0 0 1 6 6v28a6 6 0 0 1-6 6h-158a6 6 0 0 1-6-6z" stroke="#282c33" fill="#f2f2ff"/><use xlink:href="#j" transform="matrix(1,0,0,1,2720,591.25) translate(10.946180555555543 21.46701388888889)"/><use xlink:href="#k" transform="matrix(1,0,0,1,2720,591.25) translate(78.74999999999999 21.46701388888889)"/><path d="M2710 436a6 6 0 0 1 6-6h168a6 6 0 0 1 6 6v24.62a6 6 0 0 1-6 6h-168a6 6 0 0 1-6-6z" stroke="#282c33" fill="#fff3d9"/><use xlink:href="#l" transform="matrix(1,0,0,1,2715,435) translate(39.68153211805555 19.15863715277778)"/><use xlink:href="#m" transform="matrix(1,0,0,1,2715,435) translate(88.57367621527777 19.15863715277778)"/><path d="M2710 509.8a6 6 0 0 1 6-6h168a6 6 0 0 1 6 6v23.58a6 6 0 0 1-6 6h-168a6 6 0 0 1-6-6z" stroke="#282c33" fill="#ffd9d9"/><use xlink:href="#n" transform="matrix(1,0,0,1,2715,508.8095703125) translate(5.949978298611114 18.65863715277778)"/><use xlink:href="#o" transform="matrix(1,0,0,1,2715,508.8095703125) translate(108.43587239583333 18.65863715277778)"/><path d="M2800 476.37v17.7" stroke="#3a414a" fill="none"/><path d="M2800 468.74l2.32 7.13h-4.64zM2800 501.7l-2.32-7.14h4.64z" stroke="#3a414a" fill="#3a414a"/><path d="M2800 540.38v36.12" stroke="#3a414a" fill="none"/><path d="M2800.47 540.4h-.94v-.52h.94z" stroke="#3a414a" stroke-width=".05" fill="#3a414a"/><path d="M2800 584.13l-2.32-7.13h4.64z" stroke="#3a414a" fill="#3a414a"/><path d="M2590 580.5a8 8 0 0 1 8-8h65a8 8 0 0 1 8 8v49.38c-13.53-9.6-21.95-9.6-27.05-9.6-8.1 0-18.88 9.6-26.98 9.6-5.02 0-13.52 0-26.97-9.6z" stroke="#000" fill="#fff"/><path d="M2594.5 585.56a8 8 0 0 1 8-8h65a8 8 0 0 1 8 8v49.38c-13.53-9.58-21.95-9.58-27.05-9.58-8.1 0-18.88 9.58-26.98 9.58-5.02 0-13.52 0-26.97-9.58z" stroke="#000" fill="#fff"/><path d="M2599 590.63a8 8 0 0 1 8-8h65a8 8 0 0 1 8 8V640c-13.53-9.58-21.95-9.58-27.05-9.58-8.1 0-18.88 9.58-26.98 9.58-5.02 0-13.52 0-26.97-9.58z" stroke="#000" fill="#fff"/><use xlink:href="#p" transform="matrix(1,0,0,1,2604,587.625) translate(3.543619791666668 14.170572916666664)"/><use xlink:href="#q" transform="matrix(1,0,0,1,2604,587.625) translate(16.626302083333332 33.529947916666664)"/><path d="M2681 606.25h2l1.88-.15 1.83-.44 1.75-.72.53-.33m4.38-4.37l.33-.53.7-1.74.45-1.83.15-1.88v-5.05m0-5.06v-10.1m0-5.06v-10.1m0-5.07v-10.1m0-5.05v-5.05l.15-1.88.44-1.83.7-1.75.34-.54m4.38-4.37l.53-.33 1.74-.72 1.82-.44 1.88-.14h2" stroke="#3a414a" fill="none"/><path d="M2681 606.73h-.5v-.96h.5zM2709.5 522.07h-.5v-.95h.5zM3060.47 594.27l-.15 1.93-.45 1.9-.75 1.8-1.03 1.68-1.28 1.5-1.5 1.26-1.66 1.03-1.8.75-1.9.45-1.94.15h-153.27v-.95h153.23l1.82-.14 1.76-.42 1.67-.68 1.54-.95 1.38-1.17 1.17-1.38.95-1.54.7-1.67.4-1.75.16-1.82v-29.8h.94zm0-54.96h-.94v-62.37h.94z" stroke="#3a414a" stroke-width=".05" fill="#3a414a"/><path d="M2894.25 608.57l-7.13-2.32 7.13-2.32z" fill="#3a414a"/><path d="M2894.73 609.22l-9.15-2.97 9.15-2.97zm-6.07-2.97l5.12 1.66v-3.3z" stroke="#3a414a" stroke-width=".05" fill="#3a414a"/><path d="M3060.47 476.94h-.94v-.5h.94z" fill="#3a414a"/><path stroke="#3a414a" stroke-width=".05" fill="#3a414a"/><path d="M3028.47 551.88a12.07 12.07 0 0 1 12.06-12.07h38.94a12.07 12.07 0 0 1 12.07 12.08 12.07 12.07 0 0 1-12.07 12.06h-38.94a12.07 12.07 0 0 1-12.07-12.06z" stroke="#3a414a" fill-opacity="0"/><g><use xlink:href="#r" transform="matrix(1,0,0,1,3040.4654947916665,543.8114135578479) translate(0.004999999999999005 12.916666666666668)"/></g><path d="M3077.54 421.62h-35.08c-.4 0-.77-.35-.77-.78v-2.34c0-8.33 5.45-15.3 13.5-17.26.22-.04.4-.02.6.08 2.7 1.47 5.7 1.47 8.4 0 .2-.1.38-.12.56-.08 8.1 1.96 13.55 8.93 13.55 17.26v2.34c0 .43-.36.78-.76.78zm-34.28-1.57h33.47v-1.55c.04-7.5-4.83-13.77-12.04-15.65-1.55.75-2.98 1.1-4.7 1.1-1.72 0-3.15-.32-4.7-1.1-7.2 1.88-12.07 8.16-12.04 15.65z" stroke="#fff" stroke-opacity="0" fill="#232f3e"/><path d="M3060 403.9c-1.68 0-3.1-.35-4.6-1.17-4.55-2.55-6.17-8.33-3.62-12.9 2.55-4.55 8.32-6.17 12.86-3.62 3.08 1.73 4.83 4.74 4.83 8.27 0 3.55-1.8 6.58-4.9 8.26-1.5.8-2.9 1.17-4.57 1.17zm0-17.3c-3.02-.1-5.6 1.44-7.07 4.1-2.06 3.83-.64 8.6 3.18 10.67 2.5 1.34 5.2 1.34 7.68 0 2.6-1.42 4.13-3.97 4.1-6.96 0-4.33-3.55-7.83-7.88-7.8z" stroke="#fff" stroke-opacity="0" fill="#232f3e"/><defs><path d="M763 24c-353 0-583-224-583-531v-983h190v968c0 214 149 370 393 370 243 0 391-156 391-370v-968h190v983c0 307-230 531-581 531" id="s"/><path d="M158 418v-1536h174v179h20c37-59 106-193 324-193 279 0 474 222 474 576 0 356-194 580-473 580-213 0-288-135-325-197h-14v591H158zm492-555c209 0 317-186 317-421 0-232-105-413-317-413-206 0-314 166-314 413 0 249 111 421 314 421" id="t"/><path d="M538 24C308 24 148-78 108-271l171-41c32 123 123 178 257 178 156 0 256-77 256-169 0-77-54-128-164-154l-186-44c-203-48-300-148-300-305 0-192 176-326 414-326 230 0 351 112 402 269l-163 42c-31-80-94-158-238-158-133 0-233 69-233 162 0 83 57 129 188 160l169 40c203 48 298 149 298 302 0 196-179 339-441 339" id="u"/><path d="M598-1118v154H368v674c0 100 37 144 132 144 23 0 62-6 92-12L629-6c-37 13-88 20-134 20-193 0-307-107-307-290v-688H20v-154h168v-266h180v266h230" id="v"/><path d="M158 0v-1118h174v172h12c41-113 157-188 290-188 26 0 70 2 91 3v181c-11-2-60-10-108-10-161 0-279 109-279 260V0H158" id="w"/><path d="M628 24c-324 0-524-230-524-574 0-343 198-582 503-582 237 0 487 146 487 559v75H286c9 234 145 362 343 362 132 0 231-58 273-172l174 48C1024-91 857 24 628 24zM287-650h624c-17-190-120-322-304-322-192 0-309 151-320 322" id="x"/><path d="M471 26C259 26 90-98 90-318c0-256 228-303 435-329 202-27 287-16 287-108 0-139-79-219-234-219-161 0-248 86-283 164l-173-57c86-203 278-265 451-265 150 0 419 46 419 395V0H815v-152h-12C765-73 660 26 471 26zm31-159c199 0 310-134 310-271v-155c-30 35-226 55-295 64-131 17-246 59-246 186 0 116 97 176 231 176" id="y"/><path d="M158 0v-1118h175l1 205c55-151 181-225 313-225 147 0 245 90 285 228 53-141 190-228 352-228 194 0 352 125 352 384V0h-181v-749c0-161-105-225-225-225-151 0-243 103-243 244V0H807v-767c0-124-93-207-219-207-131 0-250 92-250 270V0H158" id="z"/><g id="a"><use transform="matrix(0.007595486111111112,0,0,0.007595486111111112,0,0)" xlink:href="#s"/><use transform="matrix(0.007595486111111112,0,0,0.007595486111111112,11.575520833333334,0)" xlink:href="#t"/><use transform="matrix(0.007595486111111112,0,0,0.007595486111111112,21.100260416666668,0)" xlink:href="#u"/><use transform="matrix(0.007595486111111112,0,0,0.007595486111111112,29.31098090277778,0)" xlink:href="#v"/><use transform="matrix(0.007595486111111112,0,0,0.007595486111111112,34.39995659722222,0)" xlink:href="#w"/><use transform="matrix(0.007595486111111112,0,0,0.007595486111111112,39.99782986111111,0)" xlink:href="#x"/><use transform="matrix(0.007595486111111112,0,0,0.007595486111111112,49.21875,0)" xlink:href="#y"/><use transform="matrix(0.007595486111111112,0,0,0.007595486111111112,57.95355902777778,0)" xlink:href="#z"/></g><path d="M180 0v-1490h190v644h782v-644h190V0h-190v-678H370V0H180" id="A"/><path d="M613 24c-304 0-509-231-509-576 0-350 205-580 509-580 305 0 511 230 511 580 0 345-206 576-511 576zm0-161c226 0 329-195 329-415 0-222-103-419-329-419-223 0-326 196-326 419 0 220 103 415 326 415" id="B"/><g id="b"><use transform="matrix(0.007595486111111112,0,0,0.007595486111111112,0,0)" xlink:href="#A"/><use transform="matrix(0.007595486111111112,0,0,0.007595486111111112,11.560329861111112,0)" xlink:href="#B"/><use transform="matrix(0.007595486111111112,0,0,0.007595486111111112,20.887586805555557,0)" xlink:href="#u"/><use transform="matrix(0.007595486111111112,0,0,0.007595486111111112,29.09830729166667,0)" xlink:href="#v"/></g><path d="M653-1490V0H466v-1314h-10L96-1047v-204l324-239h233" id="C"/><use transform="matrix(0.007595486111111112,0,0,0.007595486111111112,0,0)" xlink:href="#C" id="c"/><path d="M154 0v-137l495-537c165-179 249-281 249-418 0-156-121-253-280-253-170 0-278 110-278 278H158c0-264 200-443 465-443 266 0 455 183 455 416 0 161-73 288-336 568L416-179v12h687V0H154" id="D"/><use transform="matrix(0.007595486111111112,0,0,0.007595486111111112,0,0)" xlink:href="#D" id="d"/><path d="M180 0v-1490h510c348 0 508 209 508 474 0 266-160 477-507 477H370V0H180zm190-706h312c236 0 327-133 327-310 0-176-91-307-329-307H370v617" id="E"/><path d="M158 0v-1118h180V0H158zm91-1301c-68 0-125-53-125-119s57-119 125-119c69 0 126 53 126 119s-57 119-126 119" id="F"/><path d="M537 14c-226 0-379-139-379-422v-710h180v695c0 172 97 275 253 275 160 0 281-109 281-300v-670h181V0H879v-209C806-46 684 14 537 14" id="G"/><g id="e"><use transform="matrix(0.010850694444444444,0,0,0.010850694444444444,0,0)" xlink:href="#E"/><use transform="matrix(0.010850694444444444,0,0,0.010850694444444444,14.073350694444445,0)" xlink:href="#B"/><use transform="matrix(0.010850694444444444,0,0,0.010850694444444444,27.39800347222222,0)" xlink:href="#z"/><use transform="matrix(0.010850694444444444,0,0,0.010850694444444444,46.86414930555556,0)" xlink:href="#x"/><use transform="matrix(0.010850694444444444,0,0,0.010850694444444444,59.81987847222222,0)" xlink:href="#w"/><use transform="matrix(0.010850694444444444,0,0,0.010850694444444444,68.53298611111111,0)" xlink:href="#F"/><use transform="matrix(0.010850694444444444,0,0,0.010850694444444444,73.91493055555556,0)" xlink:href="#G"/><use transform="matrix(0.010850694444444444,0,0,0.010850694444444444,87.05512152777777,0)" xlink:href="#z"/></g><path d="M657 26c-323 0-524-166-541-416h195c15 169 171 246 346 246 202 0 356-106 356-265 5-203-294-238-475-293-239-73-380-191-380-389 0-252 224-419 512-419 294 0 499 171 508 396H992c-17-145-151-228-328-228-193 0-321 102-321 242 0 156 175 211 284 241l149 41c160 44 422 134 422 412 0 244-197 432-541 432" id="H"/><g id="f"><use transform="matrix(0.008680555555555556,0,0,0.008680555555555556,0,0)" xlink:href="#H"/><use transform="matrix(0.008680555555555556,0,0,0.008680555555555556,11.40625,0)" xlink:href="#H"/><use transform="matrix(0.008680555555555556,0,0,0.008680555555555556,22.8125,0)" xlink:href="#A"/></g><path d="M481 0L54-1118h197c107 314 236 620 325 951 87-331 217-637 324-951h197L670 0H481" id="I"/><g id="g"><use transform="matrix(0.008680555555555556,0,0,0.008680555555555556,0,0)" xlink:href="#H"/><use transform="matrix(0.008680555555555556,0,0,0.008680555555555556,11.40625,0)" xlink:href="#x"/><use transform="matrix(0.008680555555555556,0,0,0.008680555555555556,21.770833333333336,0)" xlink:href="#w"/><use transform="matrix(0.008680555555555556,0,0,0.008680555555555556,28.74131944444445,0)" xlink:href="#I"/><use transform="matrix(0.008680555555555556,0,0,0.008680555555555556,38.38541666666667,0)" xlink:href="#x"/><use transform="matrix(0.008680555555555556,0,0,0.008680555555555556,48.75000000000001,0)" xlink:href="#w"/></g><g id="h"><use transform="matrix(0.007595486111111112,0,0,0.007595486111111112,0,0)" xlink:href="#H"/><use transform="matrix(0.007595486111111112,0,0,0.007595486111111112,9.980468750000002,0)" xlink:href="#H"/><use transform="matrix(0.007595486111111112,0,0,0.007595486111111112,19.960937500000004,0)" xlink:href="#A"/></g><path d="M783 20c-382 0-661-292-661-764 0-473 279-766 661-766 302 0 548 182 601 489h-190c-42-204-217-313-411-313-268 0-476 208-476 590 0 381 209 588 476 588 195 0 369-110 411-313h190c-52 303-296 489-601 489" id="J"/><path d="M338-1490V0H158v-1490h180" id="K"/><path d="M338-670V0H158v-1118h173l1 207c72-158 192-221 342-221 226 0 378 139 378 422V0H872v-695c0-172-96-275-252-275-161 0-282 109-282 300" id="L"/><g id="i"><use transform="matrix(0.007595486111111112,0,0,0.007595486111111112,0,0)" xlink:href="#J"/><use transform="matrix(0.007595486111111112,0,0,0.007595486111111112,11.362847222222223,0)" xlink:href="#K"/><use transform="matrix(0.007595486111111112,0,0,0.007595486111111112,15.130208333333336,0)" xlink:href="#F"/><use transform="matrix(0.007595486111111112,0,0,0.007595486111111112,18.897569444444446,0)" xlink:href="#x"/><use transform="matrix(0.007595486111111112,0,0,0.007595486111111112,27.966579861111114,0)" xlink:href="#L"/><use transform="matrix(0.007595486111111112,0,0,0.007595486111111112,37.15711805555556,0)" xlink:href="#v"/></g><path d="M370-1490V0H180v-1490h190" id="M"/><path d="M577 24c-279 0-473-224-473-580 0-354 195-576 474-576 218 0 287 134 324 193h14v-551h180V0H922v-173h-20C865-111 790 24 577 24zm27-161c203 0 314-172 314-421 0-247-108-413-314-413-212 0-317 181-317 413 0 235 108 421 317 421" id="N"/><path d="M140 405l46-156c120 36 205 19 263-150l32-93L54-1118h197c107 313 237 620 324 950 87-331 219-637 326-950h196L606 167c-68 178-176 259-334 259-64 0-113-12-132-21" id="O"/><g id="j"><use transform="matrix(0.008680555555555556,0,0,0.008680555555555556,0,0)" xlink:href="#M"/><use transform="matrix(0.008680555555555556,0,0,0.008680555555555556,4.774305555555555,0)" xlink:href="#N"/><use transform="matrix(0.008680555555555556,0,0,0.008680555555555556,15.659722222222223,0)" xlink:href="#x"/><use transform="matrix(0.008680555555555556,0,0,0.008680555555555556,26.024305555555557,0)" xlink:href="#L"/><use transform="matrix(0.008680555555555556,0,0,0.008680555555555556,36.52777777777778,0)" xlink:href="#v"/><use transform="matrix(0.008680555555555556,0,0,0.008680555555555556,42.34375,0)" xlink:href="#F"/><use transform="matrix(0.008680555555555556,0,0,0.008680555555555556,46.64930555555556,0)" xlink:href="#v"/><use transform="matrix(0.008680555555555556,0,0,0.008680555555555556,52.8125,0)" xlink:href="#O"/></g><g id="k"><use transform="matrix(0.008680555555555556,0,0,0.008680555555555556,0,0)" xlink:href="#E"/><use transform="matrix(0.008680555555555556,0,0,0.008680555555555556,11.354166666666668,0)" xlink:href="#w"/><use transform="matrix(0.008680555555555556,0,0,0.008680555555555556,17.751736111111114,0)" xlink:href="#B"/><use transform="matrix(0.008680555555555556,0,0,0.008680555555555556,28.06423611111111,0)" xlink:href="#I"/><use transform="matrix(0.008680555555555556,0,0,0.008680555555555556,38.05555555555556,0)" xlink:href="#F"/><use transform="matrix(0.008680555555555556,0,0,0.008680555555555556,42.361111111111114,0)" xlink:href="#N"/><use transform="matrix(0.008680555555555556,0,0,0.008680555555555556,53.246527777777786,0)" xlink:href="#x"/><use transform="matrix(0.008680555555555556,0,0,0.008680555555555556,63.61111111111112,0)" xlink:href="#w"/></g><path d="M180 0v-1490h908v168H370v486h669v168H370v500h727V0H180" id="P"/><g id="l"><use transform="matrix(0.007595486111111112,0,0,0.007595486111111112,0,0)" xlink:href="#P"/><use transform="matrix(0.007595486111111112,0,0,0.007595486111111112,9.350043402777779,0)" xlink:href="#L"/><use transform="matrix(0.007595486111111112,0,0,0.007595486111111112,18.31271701388889,0)" xlink:href="#I"/><use transform="matrix(0.007595486111111112,0,0,0.007595486111111112,26.751302083333336,0)" xlink:href="#B"/><use transform="matrix(0.007595486111111112,0,0,0.007595486111111112,35.774739583333336,0)" xlink:href="#O"/></g><path d="M65 0l393-574-370-544h210c88 136 192 297 267 435 67-142 176-302 264-435h206L661-564 1053 0H844c-94-144-206-310-287-458C484-308 366-142 273 0H65" id="Q"/><g id="m"><use transform="matrix(0.007595486111111112,0,0,0.007595486111111112,0,0)" xlink:href="#E"/><use transform="matrix(0.007595486111111112,0,0,0.007595486111111112,9.934895833333334,0)" xlink:href="#w"/><use transform="matrix(0.007595486111111112,0,0,0.007595486111111112,15.532769097222221,0)" xlink:href="#B"/><use transform="matrix(0.007595486111111112,0,0,0.007595486111111112,24.510633680555557,0)" xlink:href="#Q"/><use transform="matrix(0.007595486111111112,0,0,0.007595486111111112,33.00238715277778,0)" xlink:href="#O"/></g><path d="M52 0l541-1490h220L1361 0h-200l-149-416H398L254 0H52zm404-582h497c-103-290-145-390-251-756-108 377-145 460-246 756" id="R"/><path d="M338-670V0H158v-1490h180v566c73-149 190-208 336-208 226 0 379 139 379 422V0H872v-695c0-172-96-275-252-275-161 0-282 109-282 300" id="S"/><path d="M126 0v-134l627-806v-11H146v-167h839v143L376-178v11h629V0H126" id="T"/><g id="n"><use transform="matrix(0.007595486111111112,0,0,0.007595486111111112,0,0)" xlink:href="#R"/><use transform="matrix(0.007595486111111112,0,0,0.007595486111111112,10.732421875000002,0)" xlink:href="#G"/><use transform="matrix(0.007595486111111112,0,0,0.007595486111111112,19.930555555555557,0)" xlink:href="#v"/><use transform="matrix(0.007595486111111112,0,0,0.007595486111111112,25.01953125,0)" xlink:href="#S"/><use transform="matrix(0.007595486111111112,0,0,0.007595486111111112,34.21766493055556,0)" xlink:href="#B"/><use transform="matrix(0.007595486111111112,0,0,0.007595486111111112,43.544921875,0)" xlink:href="#w"/><use transform="matrix(0.007595486111111112,0,0,0.007595486111111112,49.64409722222222,0)" xlink:href="#F"/><use transform="matrix(0.007595486111111112,0,0,0.007595486111111112,53.411458333333336,0)" xlink:href="#T"/><use transform="matrix(0.007595486111111112,0,0,0.007595486111111112,62.001953125,0)" xlink:href="#y"/><use transform="matrix(0.007595486111111112,0,0,0.007595486111111112,70.73676215277777,0)" xlink:href="#v"/><use transform="matrix(0.007595486111111112,0,0,0.007595486111111112,75.82573784722221,0)" xlink:href="#F"/><use transform="matrix(0.007595486111111112,0,0,0.007595486111111112,79.59309895833333,0)" xlink:href="#B"/><use transform="matrix(0.007595486111111112,0,0,0.007595486111111112,88.92035590277777,0)" xlink:href="#L"/></g><path d="M613 24c-304 0-509-231-509-576 0-350 205-580 509-580 216 0 392 114 453 309l-173 49c-33-115-133-197-280-197-223 0-326 196-326 419 0 220 103 415 326 415 150 0 252-85 285-206l172 49C1010-95 832 24 613 24" id="U"/><g id="o"><use transform="matrix(0.007595486111111112,0,0,0.007595486111111112,0,0)" xlink:href="#H"/><use transform="matrix(0.007595486111111112,0,0,0.007595486111111112,9.980468750000002,0)" xlink:href="#x"/><use transform="matrix(0.007595486111111112,0,0,0.007595486111111112,19.04947916666667,0)" xlink:href="#w"/><use transform="matrix(0.007595486111111112,0,0,0.007595486111111112,25.148654513888896,0)" xlink:href="#I"/><use transform="matrix(0.007595486111111112,0,0,0.007595486111111112,33.891059027777786,0)" xlink:href="#F"/><use transform="matrix(0.007595486111111112,0,0,0.007595486111111112,37.6584201388889,0)" xlink:href="#U"/><use transform="matrix(0.007595486111111112,0,0,0.007595486111111112,46.5451388888889,0)" xlink:href="#x"/></g><g id="p"><use transform="matrix(0.006510416666666667,0,0,0.006510416666666667,0,0)" xlink:href="#E"/><use transform="matrix(0.006510416666666667,0,0,0.006510416666666667,8.444010416666666,0)" xlink:href="#B"/><use transform="matrix(0.006510416666666667,0,0,0.006510416666666667,16.438802083333332,0)" xlink:href="#z"/><use transform="matrix(0.006510416666666667,0,0,0.006510416666666667,28.118489583333336,0)" xlink:href="#x"/><use transform="matrix(0.006510416666666667,0,0,0.006510416666666667,35.89192708333333,0)" xlink:href="#w"/><use transform="matrix(0.006510416666666667,0,0,0.006510416666666667,41.119791666666664,0)" xlink:href="#F"/><use transform="matrix(0.006510416666666667,0,0,0.006510416666666667,44.34895833333333,0)" xlink:href="#G"/><use transform="matrix(0.006510416666666667,0,0,0.006510416666666667,52.233072916666664,0)" xlink:href="#z"/></g><g id="q"><use transform="matrix(0.006510416666666667,0,0,0.006510416666666667,0,0)" xlink:href="#E"/><use transform="matrix(0.006510416666666667,0,0,0.006510416666666667,8.444010416666666,0)" xlink:href="#B"/><use transform="matrix(0.006510416666666667,0,0,0.006510416666666667,16.438802083333332,0)" xlink:href="#K"/><use transform="matrix(0.006510416666666667,0,0,0.006510416666666667,19.66796875,0)" xlink:href="#F"/><use transform="matrix(0.006510416666666667,0,0,0.006510416666666667,22.897135416666668,0)" xlink:href="#U"/><use transform="matrix(0.006510416666666667,0,0,0.006510416666666667,30.25390625,0)" xlink:href="#O"/></g><path d="M784 20c-382 0-662-292-662-764 0-473 280-766 662-766s660 293 660 766c0 472-278 764-660 764zm0-176c266 0 475-207 475-588 0-383-209-590-475-590-268 0-477 208-477 590 0 380 209 588 477 588" id="V"/><g id="r"><use transform="matrix(0.006510416666666667,0,0,0.006510416666666667,0,0)" xlink:href="#V"/><use transform="matrix(0.006510416666666667,0,0,0.006510416666666667,9.739583333333334,0)" xlink:href="#R"/><use transform="matrix(0.006510416666666667,0,0,0.006510416666666667,18.938802083333336,0)" xlink:href="#G"/><use transform="matrix(0.006510416666666667,0,0,0.006510416666666667,26.822916666666675,0)" xlink:href="#v"/><use transform="matrix(0.006510416666666667,0,0,0.006510416666666667,31.18489583333334,0)" xlink:href="#S"/></g></defs></g></svg>