<svg xmlns="http://www.w3.org/2000/svg" xmlns:xlink="http://www.w3.org/1999/xlink" xmlns:lucid="lucid" width="320" height="190"><g transform="translate(-1270 -1220)" lucid:page-tab-id="gNvCF1D5Ur08"><path d="M500 500h1500v2000H500z" fill="#fff"/><path d="M1270 1258a8 8 0 0 1 8-8h304a8 8 0 0 1 8 8v24a8 8 0 0 1-8 8h-304a8 8 0 0 1-8-8z" fill="none"/><use xlink:href="#a" transform="matrix(1,0,0,1,1275,1255) translate(0 22.423828125)"/><use xlink:href="#b" transform="matrix(1,0,0,1,1275,1255) translate(36.123046875 22.423828125)"/><path d="M1270 1298a8 8 0 0 1 8-8h304a8 8 0 0 1 8 8v24a8 8 0 0 1-8 8h-304a8 8 0 0 1-8-8z" fill="none"/><use xlink:href="#c" transform="matrix(1,0,0,1,1275,1295) translate(0 22.423828125)"/><use xlink:href="#d" transform="matrix(1,0,0,1,1275,1295) translate(108.369140625 22.423828125)"/><path d="M1270 1338a8 8 0 0 1 8-8h304a8 8 0 0 1 8 8v24a8 8 0 0 1-8 8h-304a8 8 0 0 1-8-8z" fill="none"/><use xlink:href="#a" transform="matrix(1,0,0,1,1275,1335) translate(0 22.423828125)"/><use xlink:href="#e" transform="matrix(1,0,0,1,1275,1335) translate(36.123046875 22.423828125)"/><path d="M1270 1378.85a8 8 0 0 1 8-8h304a8 8 0 0 1 8 8V1402a8 8 0 0 1-8 8h-304a8 8 0 0 1-8-8z" fill="none"/><use xlink:href="#f" transform="matrix(1,0,0,1,1275,1375.8541406250001) translate(0 21.923828125)"/><use xlink:href="#g" transform="matrix(1,0,0,1,1275,1375.8541406250001) translate(108.369140625 21.923828125)"/><g fill="none"><path d="M1434.5 1232.02a8 8 0 0 1 8 8V1252a8 8 0 0 1-8 8h-114a8 8 0 0 1-8-8v-11.98a8 8 0 0 1 8-8z"/><path d="M1312.5 1260c0-5.52 4.48-10 10-10h45c5.52 0 10-4.48 10-10 0 5.52 4.48 10 10 10h45c5.52 0 10 4.48 10 10" stroke="#6db1ff"/></g><g fill="none"><path d="M1566.8 1233.33a8 8 0 0 1 8 8V1252a8 8 0 0 1-8 8h-104a8 8 0 0 1-8-8v-10.67a8 8 0 0 1 8-8z"/><path d="M1454.8 1260c0-5.52 4.46-10 10-10h40c5.5 0 10-4.48 10-10 0 5.52 4.46 10 10 10h40c5.5 0 10 4.48 10 10" stroke="#fe7070"/></g><path d="M1325 1228a8 8 0 0 1 8-8h89a8 8 0 0 1 8 8v1.5a8 8 0 0 1-8 8h-89a8 8 0 0 1-8-8z" fill="none"/><g><use xlink:href="#h" transform="matrix(1,0,0,1,1324.9999999999998,1220) translate(1.1184895833333428 13.850260416666668)"/><use xlink:href="#i" transform="matrix(1,0,0,1,1324.9999999999998,1220) translate(52.70703125000001 13.850260416666668)"/></g><path d="M1467.5 1228a8 8 0 0 1 8-8h89a8 8 0 0 1 8 8v1.5a8 8 0 0 1-8 8h-89a8 8 0 0 1-8-8z" fill="none"/><g><use xlink:href="#j" transform="matrix(1,0,0,1,1467.5,1220) translate(8.0390625 13.850260416666668)"/><use xlink:href="#i" transform="matrix(1,0,0,1,1467.5,1220) translate(45.786458333333336 13.850260416666668)"/></g><defs><path d="M301-735h631v291H301v-291" id="k"/><path d="M1098-1059c3 207-106 332-291 354 91 28 105 67 156 168L1233 0H909c-67-140-135-280-201-421-53-112-115-169-186-169h-94V0H133v-1493h426c359 3 534 98 539 434zm-305 17c0-153-68-201-226-203H428v407h139c157-1 226-51 226-204" id="l"/><g id="a"><use transform="matrix(0.009765625,0,0,0.009765625,0,0)" xlink:href="#k"/><use transform="matrix(0.009765625,0,0,0.009765625,12.041015625,0)" xlink:href="#l"/></g><path fill="#1071e5" d="M915-1147c102 0 174 26 240 70v188c-71-55-140-88-254-88-243 0-354 165-354 420V0H362v-1120h185v219c55-146 178-246 368-246" id="m"/><path fill="#1071e5" d="M651-1147c298 0 466 229 461 541v90H315c-4 242 129 392 365 389 156-2 268-51 389-113v183C949-8 828 27 678 29c-351 3-555-232-555-588 0-338 200-588 528-588zm277 487c-4-201-91-331-285-331-193 0-305 144-321 332" id="n"/><path fill="#1071e5" d="M471-1147c112 0 171 55 205 141 41-85 99-141 213-141 90 0 154 35 191 105s55 200 55 393V0H967v-641c0-158-12-256-27-295-31-81-176-72-206 4-17 42-29 138-29 291V0H537v-641c0-160-10-259-29-296s-53-56-102-56-83 20-102 61-28 138-28 291V0H109v-1120h167v96c38-70 97-123 195-123" id="o"/><path fill="#1071e5" d="M616-991c-93 0-161 39-212 109-92 126-92 520 0 646 52 70 119 109 212 109 94 0 161-39 213-109 93-126 92-520 0-646-52-70-119-109-213-109zM137-559c0-353 146-588 479-588s480 235 480 588c0 355-145 588-480 588-334 0-479-234-479-588" id="p"/><path fill="#1071e5" d="M807 0C529-4 430-92 430-369v-608H131v-143h299v-318h184v318h418v143H614v608c2 165 49 222 211 222h207V0H807" id="q"/><path fill="#1071e5" d="M489-1063h252v303H489v-303zm0 758h252V0H489v-305" id="r"/><path fill="#1071e5" d="M578 29c-148 0-231-65-285-170L182 426H-2l301-1546h184l-28 143c71-96 180-169 333-170 226-2 344 160 340 395-6 320-124 596-326 720-67 42-143 61-224 61zM354-383c-2 153 70 256 215 256 217 0 288-197 337-381 20-77 28-154 28-229 0-157-58-254-205-254-220 0-297 193-347 380-20 76-28 152-28 228" id="s"/><path fill="#1071e5" d="M920-733c0-164-67-257-224-258-109 0-201 57-274 171S313-561 313-385c0 164 67 257 224 258 109 0 200-57 273-171s110-259 110-435zM506 29c-255 1-395-161-389-422 7-315 137-577 347-694 74-41 158-60 249-60 265 0 406 151 401 420-6 318-136 581-348 697-75 41-162 59-260 59" id="t"/><path fill="#1071e5" d="M578-901c86-172 296-293 544-227 39 10 70 30 97 53l-35 186c-57-55-132-88-240-88-248 0-391 198-436 428L401 0H217l217-1120h184" id="u"/><path fill="#1071e5" d="M682 0C462 3 330-71 362-288c34-234 89-459 132-689H195l28-143h299l62-318h184l-61 318h417l-28 143H678c-42 222-93 438-128 663-21 131 38 167 177 167h207L905 0H682" id="v"/><path d="M449-1063h333v365H449v-365zm0 696h333V0H449v-367" id="w"/><path fill="#e81313" d="M801 0C570 0 455-164 455-406v-1017H160v-144h479v1161c0 147 46 250 180 250h215V0H801" id="x"/><path fill="#e81313" d="M616-991c-93 0-161 39-212 109-92 126-92 520 0 646 52 70 119 109 212 109 94 0 161-39 213-109 93-126 92-520 0-646-52-70-119-109-213-109zM137-559c0-353 146-588 479-588s480 235 480 588c0 355-145 588-480 588-334 0-479-234-479-588" id="y"/><path fill="#e81313" d="M748-127c144 0 233-46 313-121v191C974-6 875 28 748 29c-351 3-553-232-553-588 0-357 202-591 553-588 129 2 222 35 313 86v193c-88-76-165-123-313-123-245 0-359 174-359 432 0 257 115 432 359 432" id="z"/><path fill="#e81313" d="M547-125c229-2 340-186 327-438H641c-189 0-321 55-324 225-3 137 91 215 230 213zm-332-944c167-71 431-115 615-37 106 45 186 120 213 246 11 49 16 123 16 221V0H874v-166C800-42 695 26 508 29c-220 3-378-138-375-355 4-274 199-382 494-381h247c6-204-80-285-282-284-149 1-272 46-377 106v-184" id="A"/><path fill="#e81313" d="M489-1063h252v303H489v-303zm0 758h252V0H489v-305" id="B"/><path fill="#e81313" d="M578 29c-148 0-231-65-285-170L182 426H-2l301-1546h184l-28 143c71-96 180-169 333-170 226-2 344 160 340 395-6 320-124 596-326 720-67 42-143 61-224 61zM354-383c-2 153 70 256 215 256 217 0 288-197 337-381 20-77 28-154 28-229 0-157-58-254-205-254-220 0-297 193-347 380-20 76-28 152-28 228" id="C"/><path fill="#e81313" d="M920-733c0-164-67-257-224-258-109 0-201 57-274 171S313-561 313-385c0 164 67 257 224 258 109 0 200-57 273-171s110-259 110-435zM506 29c-255 1-395-161-389-422 7-315 137-577 347-694 74-41 158-60 249-60 265 0 406 151 401 420-6 318-136 581-348 697-75 41-162 59-260 59" id="D"/><path fill="#e81313" d="M578-901c86-172 296-293 544-227 39 10 70 30 97 53l-35 186c-57-55-132-88-240-88-248 0-391 198-436 428L401 0H217l217-1120h184" id="E"/><path fill="#e81313" d="M682 0C462 3 330-71 362-288c34-234 89-459 132-689H195l28-143h299l62-318h184l-61 318h417l-28 143H678c-42 222-93 438-128 663-21 131 38 167 177 167h207L905 0H682" id="F"/><g id="b"><use transform="matrix(0.009765625,0,0,0.009765625,0,0)" xlink:href="#m"/><use transform="matrix(0.009765625,0,0,0.009765625,12.041015625,0)" xlink:href="#n"/><use transform="matrix(0.009765625,0,0,0.009765625,24.08203125,0)" xlink:href="#o"/><use transform="matrix(0.009765625,0,0,0.009765625,36.123046875,0)" xlink:href="#p"/><use transform="matrix(0.009765625,0,0,0.009765625,48.1640625,0)" xlink:href="#q"/><use transform="matrix(0.009765625,0,0,0.009765625,60.205078125,0)" xlink:href="#n"/><use transform="matrix(0.009765625,0,0,0.009765625,72.24609375,0)" xlink:href="#r"/><use transform="matrix(0.009765625,0,0,0.009765625,84.287109375,0)" xlink:href="#s"/><use transform="matrix(0.009765625,0,0,0.009765625,96.328125,0)" xlink:href="#t"/><use transform="matrix(0.009765625,0,0,0.009765625,108.369140625,0)" xlink:href="#u"/><use transform="matrix(0.009765625,0,0,0.009765625,120.41015625,0)" xlink:href="#v"/><use transform="matrix(0.009765625,0,0,0.009765625,132.451171875,0)" xlink:href="#w"/><use transform="matrix(0.009765625,0,0,0.009765625,144.4921875,0)" xlink:href="#x"/><use transform="matrix(0.009765625,0,0,0.009765625,156.533203125,0)" xlink:href="#y"/><use transform="matrix(0.009765625,0,0,0.009765625,168.57421875,0)" xlink:href="#z"/><use transform="matrix(0.009765625,0,0,0.009765625,180.615234375,0)" xlink:href="#A"/><use transform="matrix(0.009765625,0,0,0.009765625,192.65625,0)" xlink:href="#x"/><use transform="matrix(0.009765625,0,0,0.009765625,204.697265625,0)" xlink:href="#B"/><use transform="matrix(0.009765625,0,0,0.009765625,216.73828125,0)" xlink:href="#C"/><use transform="matrix(0.009765625,0,0,0.009765625,228.779296875,0)" xlink:href="#D"/><use transform="matrix(0.009765625,0,0,0.009765625,240.8203125,0)" xlink:href="#E"/><use transform="matrix(0.009765625,0,0,0.009765625,252.861328125,0)" xlink:href="#F"/></g><g id="c"><use transform="matrix(0.009765625,0,0,0.009765625,0,0)" xlink:href="#k"/><use transform="matrix(0.009765625,0,0,0.009765625,12.041015625,0)" xlink:href="#l"/></g><path fill="#6db1ff" d="M489-1063h252v303H489v-303zm0 758h252V0H489v-305" id="G"/><g id="d"><use transform="matrix(0.009765625,0,0,0.009765625,0,0)" xlink:href="#G"/><use transform="matrix(0.009765625,0,0,0.009765625,12.041015625,0)" xlink:href="#s"/><use transform="matrix(0.009765625,0,0,0.009765625,24.08203125,0)" xlink:href="#t"/><use transform="matrix(0.009765625,0,0,0.009765625,36.123046875,0)" xlink:href="#u"/><use transform="matrix(0.009765625,0,0,0.009765625,48.1640625,0)" xlink:href="#v"/><use transform="matrix(0.009765625,0,0,0.009765625,60.205078125,0)" xlink:href="#w"/><use transform="matrix(0.009765625,0,0,0.009765625,72.24609375,0)" xlink:href="#x"/><use transform="matrix(0.009765625,0,0,0.009765625,84.287109375,0)" xlink:href="#y"/><use transform="matrix(0.009765625,0,0,0.009765625,96.328125,0)" xlink:href="#z"/><use transform="matrix(0.009765625,0,0,0.009765625,108.369140625,0)" xlink:href="#A"/><use transform="matrix(0.009765625,0,0,0.009765625,120.41015625,0)" xlink:href="#x"/><use transform="matrix(0.009765625,0,0,0.009765625,132.451171875,0)" xlink:href="#B"/><use transform="matrix(0.009765625,0,0,0.009765625,144.4921875,0)" xlink:href="#C"/><use transform="matrix(0.009765625,0,0,0.009765625,156.533203125,0)" xlink:href="#D"/><use transform="matrix(0.009765625,0,0,0.009765625,168.57421875,0)" xlink:href="#E"/><use transform="matrix(0.009765625,0,0,0.009765625,180.615234375,0)" xlink:href="#F"/></g><g id="e"><use transform="matrix(0.009765625,0,0,0.009765625,0,0)" xlink:href="#m"/><use transform="matrix(0.009765625,0,0,0.009765625,12.041015625,0)" xlink:href="#n"/><use transform="matrix(0.009765625,0,0,0.009765625,24.08203125,0)" xlink:href="#o"/><use transform="matrix(0.009765625,0,0,0.009765625,36.123046875,0)" xlink:href="#p"/><use transform="matrix(0.009765625,0,0,0.009765625,48.1640625,0)" xlink:href="#q"/><use transform="matrix(0.009765625,0,0,0.009765625,60.205078125,0)" xlink:href="#n"/><use transform="matrix(0.009765625,0,0,0.009765625,72.24609375,0)" xlink:href="#r"/><use transform="matrix(0.009765625,0,0,0.009765625,84.287109375,0)" xlink:href="#s"/><use transform="matrix(0.009765625,0,0,0.009765625,96.328125,0)" xlink:href="#t"/><use transform="matrix(0.009765625,0,0,0.009765625,108.369140625,0)" xlink:href="#u"/><use transform="matrix(0.009765625,0,0,0.009765625,120.41015625,0)" xlink:href="#v"/></g><g id="f"><use transform="matrix(0.009765625,0,0,0.009765625,0,0)" xlink:href="#k"/><use transform="matrix(0.009765625,0,0,0.009765625,12.041015625,0)" xlink:href="#l"/></g><g id="g"><use transform="matrix(0.009765625,0,0,0.009765625,0,0)" xlink:href="#G"/><use transform="matrix(0.009765625,0,0,0.009765625,12.041015625,0)" xlink:href="#s"/><use transform="matrix(0.009765625,0,0,0.009765625,24.08203125,0)" xlink:href="#t"/><use transform="matrix(0.009765625,0,0,0.009765625,36.123046875,0)" xlink:href="#u"/><use transform="matrix(0.009765625,0,0,0.009765625,48.1640625,0)" xlink:href="#v"/></g><path d="M180 0v-1490h510c348 0 508 194 508 460 0 198-88 351-276 417L1256 0h-220L726-579c-117 2-238 0-356 1V0H180zm190-747h312c235 0 327-108 327-283 0-177-92-293-329-293H370v576" id="H"/><path d="M628 24c-324 0-524-230-524-574 0-343 198-582 503-582 237 0 487 146 487 559v75H286c9 234 145 362 343 362 132 0 231-58 273-172l174 48C1024-91 857 24 628 24zM287-650h624c-17-190-120-322-304-322-192 0-309 151-320 322" id="I"/><path d="M158 0v-1118h175l1 205c55-151 181-225 313-225 147 0 245 90 285 228 53-141 190-228 352-228 194 0 352 125 352 384V0h-181v-749c0-161-105-225-225-225-151 0-243 103-243 244V0H807v-767c0-124-93-207-219-207-131 0-250 92-250 270V0H158" id="J"/><path d="M613 24c-304 0-509-231-509-576 0-350 205-580 509-580 305 0 511 230 511 580 0 345-206 576-511 576zm0-161c226 0 329-195 329-415 0-222-103-419-329-419-223 0-326 196-326 419 0 220 103 415 326 415" id="K"/><path d="M598-1118v154H368v674c0 100 37 144 132 144 23 0 62-6 92-12L629-6c-37 13-88 20-134 20-193 0-307-107-307-290v-688H20v-154h168v-266h180v266h230" id="L"/><g id="h"><use transform="matrix(0.006510416666666667,0,0,0.006510416666666667,0,0)" xlink:href="#H"/><use transform="matrix(0.006510416666666667,0,0,0.006510416666666667,8.385416666666668,0)" xlink:href="#I"/><use transform="matrix(0.006510416666666667,0,0,0.006510416666666667,16.158854166666668,0)" xlink:href="#J"/><use transform="matrix(0.006510416666666667,0,0,0.006510416666666667,27.838541666666668,0)" xlink:href="#K"/><use transform="matrix(0.006510416666666667,0,0,0.006510416666666667,35.833333333333336,0)" xlink:href="#L"/><use transform="matrix(0.006510416666666667,0,0,0.006510416666666667,40.065104166666664,0)" xlink:href="#I"/></g><path d="M52 0l541-1490h220L1361 0h-200l-149-416H398L254 0H52zm404-582h497c-103-290-145-390-251-756-108 377-145 460-246 756" id="M"/><path d="M577 24c-279 0-473-224-473-580 0-354 195-576 474-576 218 0 287 134 324 193h14v-551h180V0H922v-173h-20C865-111 790 24 577 24zm27-161c203 0 314-172 314-421 0-247-108-413-314-413-212 0-317 181-317 413 0 235 108 421 317 421" id="N"/><path d="M158 0v-1118h174v172h12c41-113 157-188 290-188 26 0 70 2 91 3v181c-11-2-60-10-108-10-161 0-279 109-279 260V0H158" id="O"/><path d="M538 24C308 24 148-78 108-271l171-41c32 123 123 178 257 178 156 0 256-77 256-169 0-77-54-128-164-154l-186-44c-203-48-300-148-300-305 0-192 176-326 414-326 230 0 351 112 402 269l-163 42c-31-80-94-158-238-158-133 0-233 69-233 162 0 83 57 129 188 160l169 40c203 48 298 149 298 302 0 196-179 339-441 339" id="P"/><g id="i"><use transform="matrix(0.006510416666666667,0,0,0.006510416666666667,0,0)" xlink:href="#M"/><use transform="matrix(0.006510416666666667,0,0,0.006510416666666667,9.19921875,0)" xlink:href="#N"/><use transform="matrix(0.006510416666666667,0,0,0.006510416666666667,17.36328125,0)" xlink:href="#N"/><use transform="matrix(0.006510416666666667,0,0,0.006510416666666667,25.52734375,0)" xlink:href="#O"/><use transform="matrix(0.006510416666666667,0,0,0.006510416666666667,30.325520833333336,0)" xlink:href="#I"/><use transform="matrix(0.006510416666666667,0,0,0.006510416666666667,38.09895833333333,0)" xlink:href="#P"/><use transform="matrix(0.006510416666666667,0,0,0.006510416666666667,45.13671874999999,0)" xlink:href="#P"/></g><path d="M180 0v-1490h190v1322h690V0H180" id="Q"/><path d="M613 24c-304 0-509-231-509-576 0-350 205-580 509-580 216 0 392 114 453 309l-173 49c-33-115-133-197-280-197-223 0-326 196-326 419 0 220 103 415 326 415 150 0 252-85 285-206l172 49C1010-95 832 24 613 24" id="R"/><path d="M471 26C259 26 90-98 90-318c0-256 228-303 435-329 202-27 287-16 287-108 0-139-79-219-234-219-161 0-248 86-283 164l-173-57c86-203 278-265 451-265 150 0 419 46 419 395V0H815v-152h-12C765-73 660 26 471 26zm31-159c199 0 310-134 310-271v-155c-30 35-226 55-295 64-131 17-246 59-246 186 0 116 97 176 231 176" id="S"/><path d="M338-1490V0H158v-1490h180" id="T"/><g id="j"><use transform="matrix(0.006510416666666667,0,0,0.006510416666666667,0,0)" xlink:href="#Q"/><use transform="matrix(0.006510416666666667,0,0,0.006510416666666667,7.5390625,0)" xlink:href="#K"/><use transform="matrix(0.006510416666666667,0,0,0.006510416666666667,15.533854166666668,0)" xlink:href="#R"/><use transform="matrix(0.006510416666666667,0,0,0.006510416666666667,23.28125,0)" xlink:href="#S"/><use transform="matrix(0.006510416666666667,0,0,0.006510416666666667,30.768229166666668,0)" xlink:href="#T"/></g></defs></g></svg>