<svg xmlns="http://www.w3.org/2000/svg" xmlns:xlink="http://www.w3.org/1999/xlink" xmlns:lucid="lucid" width="868.08" height="314.32"><g transform="translate(-952.9166666666665 -379)" lucid:page-tab-id="S7oAnNvjMmV9"><path d="M500 0h1500v1000H500z" fill="#fff"/><path d="M953.92 388a8 8 0 0 1 8-8h184a8 8 0 0 1 8 8v200.25a8 8 0 0 1-8 8h-184a8 8 0 0 1-8-8z" stroke="#000" stroke-width="2" fill-opacity="0"/><use xlink:href="#a" transform="matrix(1,0,0,1,961.9166666666665,388) translate(32.89952256944444 15.365668402777775)"/><use xlink:href="#b" transform="matrix(1,0,0,1,961.9166666666665,388) translate(108.85438368055556 15.365668402777775)"/><use xlink:href="#c" transform="matrix(1,0,0,1,961.9166666666665,388) translate(13.918402777777771 37.95160590277778)"/><use xlink:href="#d" transform="matrix(1,0,0,1,961.9166666666665,388) translate(97.99283854166667 37.95160590277778)"/><use xlink:href="#e" transform="matrix(1,0,0,1,961.9166666666665,388) translate(122.85286458333334 37.95160590277778)"/><path d="M1660 430.35a8 8 0 0 1 8-8h144a8 8 0 0 1 8 8v89.42a8 8 0 0 1-8 8h-144a8 8 0 0 1-8-8z" stroke="#000" stroke-width="2" fill-opacity="0"/><path d="M1290 428.35a6 6 0 0 1 6-6h208a6 6 0 0 1 6 6v178a6 6 0 0 1-6 6h-208a6 6 0 0 1-6-6z" stroke="#282c33" stroke-width="2" fill="#fbf0ff"/><use xlink:href="#f" transform="matrix(1,0,0,1,1295,427.3498866422948) translate(51.73936631944445 21.52777777777778)"/><path d="M1092.52 491.38l.38 1.6.63 1.5.86 1.4 1.05 1.25 1.24 1.06 1.4.85 1.5.62 1.6.38 1.64.13h57.9l-.03.48.05.47h-57.94l-1.76-.13-1.73-.42-1.64-.7-1.53-.92-1.36-1.16-1.15-1.36-.94-1.52-.68-1.65-.42-1.74-.14-1.74.95-.1zm216.8 8.8v.95h-37.07l.04-.47-.05-.48z" stroke="#3a414a" stroke-width=".05" fill="#3a414a"/><path d="M1309.83 501.13h-.5v-.95h.5z" fill="#3a414a"/><path stroke="#3a414a" stroke-width=".05" fill="#3a414a"/><path d="M1094.23 489.25h-4.63l2.32-7.13z" fill="#3a414a"/><path d="M1094.9 489.73h-5.96l2.98-9.15zm-4.65-.95h3.33l-1.66-5.13z" stroke="#3a414a" stroke-width=".05" fill="#3a414a"/><path d="M1161.22 500.66a12.07 12.07 0 0 1 12.06-12.07h86.44a12.07 12.07 0 0 1 12.07 12.06 12.07 12.07 0 0 1-12.08 12.07h-86.44a12.07 12.07 0 0 1-12.06-12.07z" stroke="#3a414a" fill="none"/><use xlink:href="#g" transform="matrix(1,0,0,1,1173.2155535417771,492.5930507047948) translate(0.005000000000002558 12.916666666666668)"/><path d="M983.92 446a6 6 0 0 1 6-6h128a6 6 0 0 1 6 6v28a6 6 0 0 1-6 6h-128a6 6 0 0 1-6-6z" stroke="#282c33" fill="#f2f2ff"/><use xlink:href="#h" transform="matrix(1,0,0,1,988.9166666666665,445) translate(20.34722222222222 21.46701388888889)"/><use xlink:href="#i" transform="matrix(1,0,0,1,988.9166666666665,445) translate(61.37152777777778 21.46701388888889)"/><path d="M1680 490.97a6 6 0 0 1 6-6h108a6 6 0 0 1 6 6v19.38a6 6 0 0 1-6 6h-108a6 6 0 0 1-6-6z" stroke="#282c33" fill="#f2f2ff"/><use xlink:href="#j" transform="matrix(1,0,0,1,1685,489.9655395440805) translate(24.65603298611111 16.65863715277778)"/><path d="M1519.2 500.66l.04.47h-19.16v-.95h19.16zm159.8.47h-27.9l.03-.47-.04-.48h27.9z" stroke="#3a414a" stroke-width=".05" fill="#3a414a"/><path d="M1679.5 501.13h-.5v-.95h.5z" fill="#3a414a"/><path stroke="#3a414a" stroke-width=".05" fill="#3a414a"/><path d="M1499.58 502.98l-7.13-2.32 7.13-2.32z" fill="#3a414a"/><path d="M1500.06 503.63l-9.15-2.97 9.16-2.97zm-6.07-2.97l5.1 1.66V499z" stroke="#3a414a" stroke-width=".05" fill="#3a414a"/><path d="M1519.7 500.66a12.07 12.07 0 0 1 12.07-12.07h106.8a12.07 12.07 0 0 1 12.06 12.06 12.07 12.07 0 0 1-12.07 12.07h-106.8a12.07 12.07 0 0 1-12.05-12.07z" stroke="#3a414a" fill="none"/><use xlink:href="#k" transform="matrix(1,0,0,1,1531.7063802083333,492.5930507047948) translate(0.005000000000002558 12.916666666666668)"/><path d="M1315.33 644.6a6 6 0 0 1 6-6h158a6 6 0 0 1 6 6v28a6 6 0 0 1-6 6h-158a6 6 0 0 1-6-6z" stroke="#282c33" fill="#f2f2ff"/><use xlink:href="#l" transform="matrix(1,0,0,1,1320.3333333333333,643.5998866422948) translate(10.946180555555543 21.46701388888889)"/><use xlink:href="#m" transform="matrix(1,0,0,1,1320.3333333333333,643.5998866422948) translate(78.74999999999999 21.46701388888889)"/><path d="M1310.33 488.35a6 6 0 0 1 6-6h168a6 6 0 0 1 6 6v24.62a6 6 0 0 1-6 6h-168a6 6 0 0 1-6-6z" stroke="#282c33" fill="#fff3d9"/><use xlink:href="#n" transform="matrix(1,0,0,1,1315.3333333333333,487.3498866422948) translate(39.68153211805555 19.15863715277778)"/><use xlink:href="#o" transform="matrix(1,0,0,1,1315.3333333333333,487.3498866422948) translate(88.57367621527777 19.15863715277778)"/><path d="M1310.33 562.16a6 6 0 0 1 6-6h168a6 6 0 0 1 6 6v23.57a6 6 0 0 1-6 6h-168a6 6 0 0 1-6-6z" stroke="#282c33" fill="#ffd9d9"/><use xlink:href="#p" transform="matrix(1,0,0,1,1315.3333333333333,561.1594569547948) translate(5.949978298611114 18.65863715277778)"/><use xlink:href="#q" transform="matrix(1,0,0,1,1315.3333333333333,561.1594569547948) translate(108.43587239583333 18.65863715277778)"/><path d="M1400.33 528.72v17.7" stroke="#3a414a" fill="none"/><path d="M1400.33 521.1l2.32 7.12h-4.63zM1400.33 554.04l-2.3-7.13h4.62z" stroke="#3a414a" fill="#3a414a"/><path d="M1400.33 592.73v36.12" stroke="#3a414a" fill="none"/><path d="M1400.8 592.74h-.94v-.5h.95z" stroke="#3a414a" stroke-width=".05" fill="#3a414a"/><path d="M1400.33 636.48l-2.3-7.13h4.62z" stroke="#3a414a" fill="#3a414a"/><path d="M1190.33 632.85a8 8 0 0 1 8-8h65a8 8 0 0 1 8 8v49.38c-13.52-9.6-21.95-9.6-27.05-9.6-8.1 0-18.87 9.6-26.97 9.6-5.02 0-13.52 0-26.97-9.6z" stroke="#000" fill="#fff"/><path d="M1194.83 637.9a8 8 0 0 1 8-8h65a8 8 0 0 1 8 8v49.4c-13.52-9.6-21.95-9.6-27.05-9.6-8.1 0-18.87 9.6-26.97 9.6-5.02 0-13.52 0-26.97-9.6z" stroke="#000" fill="#fff"/><path d="M1199.33 642.98a8 8 0 0 1 8-8h65a8 8 0 0 1 8 8v49.37c-13.52-9.58-21.95-9.58-27.05-9.58-8.1 0-18.87 9.58-26.97 9.58-5.02 0-13.52 0-26.97-9.58z" stroke="#000" fill="#fff"/><use xlink:href="#r" transform="matrix(1,0,0,1,1204.3333333333333,639.9748866422948) translate(3.543619791666668 14.170572916666664)"/><use xlink:href="#s" transform="matrix(1,0,0,1,1204.3333333333333,639.9748866422948) translate(16.626302083333332 33.529947916666664)"/><path d="M1281.33 658.6h2l1.88-.15 1.84-.44 1.74-.7.54-.34m4.38-4.38l.33-.53.72-1.74.44-1.82.13-1.88v-5.06m0-5.05v-10.12m0-5.05v-10.1m0-5.07v-10.1m0-5.06v-5.05l.15-1.88.44-1.83.72-1.74.33-.54m4.38-4.38l.54-.33 1.72-.72 1.84-.44 1.87-.15h2" stroke="#3a414a" fill="none"/><path d="M1281.35 659.08h-.52v-.96h.52zM1309.83 574.42h-.5v-.95h.5zM1740.47 646.62l-.15 1.93-.45 1.9-.75 1.8-1.03 1.68-1.28 1.5-1.5 1.26-1.66 1.02-1.8.75-1.9.45-1.94.16h-232.94v-.96h232.9l1.82-.14 1.76-.42 1.67-.7 1.54-.94 1.38-1.17 1.17-1.38.95-1.54.7-1.67.4-1.76.16-1.82v-10.03h.94zm0-35.2h-.94v-82.14h.94z" stroke="#3a414a" stroke-width=".05" fill="#3a414a"/><path d="M1494.58 660.92l-7.13-2.32 7.13-2.32z" fill="#3a414a"/><path d="M1495.06 661.57l-9.15-2.97 9.16-2.97zm-6.07-2.97l5.1 1.66v-3.32z" stroke="#3a414a" stroke-width=".05" fill="#3a414a"/><path d="M1740.47 529.3h-.94v-.52h.94z" fill="#3a414a"/><path stroke="#3a414a" stroke-width=".05" fill="#3a414a"/><path d="M1708.46 623.98a12.07 12.07 0 0 1 12.07-12.07h38.94a12.07 12.07 0 0 1 12.07 12.08 12.07 12.07 0 0 1-12.07 12.07h-38.94a12.07 12.07 0 0 1-12.07-12.07z" stroke="#3a414a" fill="none"/><use xlink:href="#t" transform="matrix(1,0,0,1,1720.4654947916667,615.9134433459623) translate(0.004999999999999005 12.916666666666668)"/><path d="M1757.54 473.97h-35.08c-.4 0-.77-.35-.77-.78v-2.35c0-8.33 5.45-15.3 13.5-17.26.22-.05.4-.03.6.07 2.7 1.47 5.7 1.47 8.4 0 .2-.1.38-.12.56-.08 8.1 1.95 13.55 8.92 13.55 17.25v2.34c0 .42-.36.77-.76.77zm-34.27-1.57h33.46v-1.55c.04-7.5-4.83-13.77-12.04-15.65-1.55.75-2.98 1.1-4.7 1.1-1.72 0-3.15-.32-4.7-1.1-7.2 1.88-12.07 8.16-12.03 15.65z" stroke="#fff" stroke-opacity="0" fill="#232f3e"/><path d="M1740 456.25c-1.68 0-3.12-.36-4.6-1.17-4.55-2.55-6.17-8.33-3.62-12.9 2.55-4.55 8.32-6.17 12.86-3.62 3.08 1.72 4.83 4.73 4.83 8.26 0 3.56-1.8 6.58-4.9 8.26-1.48.8-2.9 1.17-4.57 1.17zm0-17.3c-3.02-.1-5.6 1.44-7.07 4.1-2.06 3.83-.64 8.6 3.18 10.67 2.5 1.34 5.2 1.34 7.68 0 2.6-1.42 4.13-3.97 4.1-6.96 0-4.34-3.55-7.84-7.88-7.82z" stroke="#fff" stroke-opacity="0" fill="#232f3e"/><path d="M1053.92 489.75v30.46" stroke="#3a414a" fill="none"/><path d="M1053.92 482.12l2.3 7.13h-4.62zM1053.92 527.84l-2.32-7.13h4.63z" stroke="#3a414a" fill="#3a414a"/><path d="M980 535.96a6 6 0 0 1 6-6h135.83a6 6 0 0 1 6 6v28a6 6 0 0 1-6 6H986a6 6 0 0 1-6-6z" stroke="#282c33" fill="#f2f2ff"/><g><use xlink:href="#u" transform="matrix(1,0,0,1,984.9999999999999,534.9596836702052) translate(9.5029296875 22.275390625)"/><use xlink:href="#v" transform="matrix(1,0,0,1,984.9999999999999,534.9596836702052) translate(66.1240234375 22.275390625)"/></g><path d="M1324.45 450.18l1.9.45 1.8.75 1.68 1.03 1.5 1.28 1.26 1.5 1.02 1.66.75 1.8.45 1.9.15 1.94v10.12h-.94v-10.08l-.15-1.82-.42-1.76-.7-1.67-.94-1.54-1.17-1.38-1.38-1.17-1.54-.95-1.67-.7-1.76-.4-1.82-.15h-69.18l.04-.48-.04-.48h69.22zm-151.78.8h-47.75v-.96h47.75l-.04.48z" stroke="#3a414a" stroke-width=".05" fill="#3a414a"/><path d="M1124.93 450.98h-.5v-.96h.5z" fill="#3a414a"/><path stroke="#3a414a" stroke-width=".05" fill="#3a414a"/><path d="M1334.5 480.23l-2.32-7.13h4.64z" fill="#3a414a"/><path d="M1334.5 481.77l-2.97-9.15h5.94zm-1.66-8.2l1.66 5.13 1.66-5.13z" stroke="#3a414a" stroke-width=".05" fill="#3a414a"/><path d="M1173.14 450.5a12.07 12.07 0 0 1 12.06-12.07h55.57a12.07 12.07 0 0 1 12.06 12.07 12.07 12.07 0 0 1-12.06 12.07h-55.57a12.07 12.07 0 0 1-12.06-12.07z" stroke="#3a414a" fill="none"/><g><use xlink:href="#w" transform="matrix(1,0,0,1,1185.1368087693174,442.4335824407629) translate(0.004999999999999005 12.916666666666668)"/><use xlink:href="#x" transform="matrix(1,0,0,1,1185.1368087693174,442.4335824407629) translate(25.714635416666667 12.916666666666668)"/><use xlink:href="#y" transform="matrix(1,0,0,1,1185.1368087693174,442.4335824407629) translate(44.17817708333334 12.916666666666668)"/></g><defs><path d="M763 24c-353 0-583-224-583-531v-983h190v968c0 214 149 370 393 370 243 0 391-156 391-370v-968h190v983c0 307-230 531-581 531" id="z"/><path d="M158 418v-1536h174v179h20c37-59 106-193 324-193 279 0 474 222 474 576 0 356-194 580-473 580-213 0-288-135-325-197h-14v591H158zm492-555c209 0 317-186 317-421 0-232-105-413-317-413-206 0-314 166-314 413 0 249 111 421 314 421" id="A"/><path d="M538 24C308 24 148-78 108-271l171-41c32 123 123 178 257 178 156 0 256-77 256-169 0-77-54-128-164-154l-186-44c-203-48-300-148-300-305 0-192 176-326 414-326 230 0 351 112 402 269l-163 42c-31-80-94-158-238-158-133 0-233 69-233 162 0 83 57 129 188 160l169 40c203 48 298 149 298 302 0 196-179 339-441 339" id="B"/><path d="M598-1118v154H368v674c0 100 37 144 132 144 23 0 62-6 92-12L629-6c-37 13-88 20-134 20-193 0-307-107-307-290v-688H20v-154h168v-266h180v266h230" id="C"/><path d="M158 0v-1118h174v172h12c41-113 157-188 290-188 26 0 70 2 91 3v181c-11-2-60-10-108-10-161 0-279 109-279 260V0H158" id="D"/><path d="M628 24c-324 0-524-230-524-574 0-343 198-582 503-582 237 0 487 146 487 559v75H286c9 234 145 362 343 362 132 0 231-58 273-172l174 48C1024-91 857 24 628 24zM287-650h624c-17-190-120-322-304-322-192 0-309 151-320 322" id="E"/><path d="M471 26C259 26 90-98 90-318c0-256 228-303 435-329 202-27 287-16 287-108 0-139-79-219-234-219-161 0-248 86-283 164l-173-57c86-203 278-265 451-265 150 0 419 46 419 395V0H815v-152h-12C765-73 660 26 471 26zm31-159c199 0 310-134 310-271v-155c-30 35-226 55-295 64-131 17-246 59-246 186 0 116 97 176 231 176" id="F"/><path d="M158 0v-1118h175l1 205c55-151 181-225 313-225 147 0 245 90 285 228 53-141 190-228 352-228 194 0 352 125 352 384V0h-181v-749c0-161-105-225-225-225-151 0-243 103-243 244V0H807v-767c0-124-93-207-219-207-131 0-250 92-250 270V0H158" id="G"/><g id="a"><use transform="matrix(0.007595486111111112,0,0,0.007595486111111112,0,0)" xlink:href="#z"/><use transform="matrix(0.007595486111111112,0,0,0.007595486111111112,11.575520833333334,0)" xlink:href="#A"/><use transform="matrix(0.007595486111111112,0,0,0.007595486111111112,21.100260416666668,0)" xlink:href="#B"/><use transform="matrix(0.007595486111111112,0,0,0.007595486111111112,29.31098090277778,0)" xlink:href="#C"/><use transform="matrix(0.007595486111111112,0,0,0.007595486111111112,34.39995659722222,0)" xlink:href="#D"/><use transform="matrix(0.007595486111111112,0,0,0.007595486111111112,39.99782986111111,0)" xlink:href="#E"/><use transform="matrix(0.007595486111111112,0,0,0.007595486111111112,49.21875,0)" xlink:href="#F"/><use transform="matrix(0.007595486111111112,0,0,0.007595486111111112,57.95355902777778,0)" xlink:href="#G"/></g><path d="M783 20c-382 0-661-292-661-764 0-473 279-766 661-766 302 0 548 182 601 489h-190c-42-204-217-313-411-313-268 0-476 208-476 590 0 381 209 588 476 588 195 0 369-110 411-313h190c-52 303-296 489-601 489" id="H"/><path d="M338-1490V0H158v-1490h180" id="I"/><path d="M158 0v-1118h180V0H158zm91-1301c-68 0-125-53-125-119s57-119 125-119c69 0 126 53 126 119s-57 119-126 119" id="J"/><path d="M338-670V0H158v-1118h173l1 207c72-158 192-221 342-221 226 0 378 139 378 422V0H872v-695c0-172-96-275-252-275-161 0-282 109-282 300" id="K"/><g id="b"><use transform="matrix(0.007595486111111112,0,0,0.007595486111111112,0,0)" xlink:href="#H"/><use transform="matrix(0.007595486111111112,0,0,0.007595486111111112,11.362847222222223,0)" xlink:href="#I"/><use transform="matrix(0.007595486111111112,0,0,0.007595486111111112,15.130208333333336,0)" xlink:href="#J"/><use transform="matrix(0.007595486111111112,0,0,0.007595486111111112,18.897569444444446,0)" xlink:href="#E"/><use transform="matrix(0.007595486111111112,0,0,0.007595486111111112,27.966579861111114,0)" xlink:href="#K"/><use transform="matrix(0.007595486111111112,0,0,0.007595486111111112,37.15711805555556,0)" xlink:href="#C"/></g><path d="M678-1118v154H420V0H240v-964H20v-154h220v-149c0-194 155-293 318-293 85 0 141 18 168 30l-50 154c-19-6-47-17-97-17-111 0-159 58-159 166v109h258" id="L"/><path d="M613 24c-304 0-509-231-509-576 0-350 205-580 509-580 305 0 511 230 511 580 0 345-206 576-511 576zm0-161c226 0 329-195 329-415 0-222-103-419-329-419-223 0-326 196-326 419 0 220 103 415 326 415" id="M"/><path d="M409 0L70-1118h191c89 329 165 560 243 925 75-353 154-601 240-925h192c85 325 161 564 235 922 77-354 157-598 244-922h191L1267 0h-179c-86-307-176-590-250-913C763-588 675-308 588 0H409" id="N"/><path d="M577 24c-279 0-473-224-473-580 0-354 195-576 474-576 218 0 287 134 324 193h14v-551h180V0H922v-173h-20C865-111 790 24 577 24zm27-161c203 0 314-172 314-421 0-247-108-413-314-413-212 0-317 181-317 413 0 235 108 421 317 421" id="O"/><path d="M611 442c-248 0-391-105-460-228l146-94c47 65 117 165 314 165 178 0 307-82 307-266v-224h-17C863-141 792-18 576-18c-268 0-472-195-472-546 0-346 197-568 476-568 216 0 288 133 326 193h17v-179h175V29c0 289-215 413-487 413zm-5-620c203 0 314-146 314-390 0-237-108-403-314-403-213 0-319 180-319 403 0 230 109 390 319 390" id="P"/><g id="c"><use transform="matrix(0.007595486111111112,0,0,0.007595486111111112,0,0)" xlink:href="#L"/><use transform="matrix(0.007595486111111112,0,0,0.007595486111111112,5.301649305555556,0)" xlink:href="#M"/><use transform="matrix(0.007595486111111112,0,0,0.007595486111111112,14.62890625,0)" xlink:href="#D"/><use transform="matrix(0.007595486111111112,0,0,0.007595486111111112,20.614149305555557,0)" xlink:href="#N"/><use transform="matrix(0.007595486111111112,0,0,0.007595486111111112,33.34418402777778,0)" xlink:href="#F"/><use transform="matrix(0.007595486111111112,0,0,0.007595486111111112,42.07899305555556,0)" xlink:href="#D"/><use transform="matrix(0.007595486111111112,0,0,0.007595486111111112,47.67686631944444,0)" xlink:href="#O"/><use transform="matrix(0.007595486111111112,0,0,0.007595486111111112,57.20160590277778,0)" xlink:href="#J"/><use transform="matrix(0.007595486111111112,0,0,0.007595486111111112,60.96896701388889,0)" xlink:href="#K"/><use transform="matrix(0.007595486111111112,0,0,0.007595486111111112,70.15950520833334,0)" xlink:href="#P"/></g><g id="d"><use transform="matrix(0.007595486111111112,0,0,0.007595486111111112,0,0)" xlink:href="#L"/><use transform="matrix(0.007595486111111112,0,0,0.007595486111111112,5.301649305555556,0)" xlink:href="#M"/><use transform="matrix(0.007595486111111112,0,0,0.007595486111111112,14.62890625,0)" xlink:href="#D"/></g><path d="M232-923l-22-567h194l-22 567H232" id="Q"/><path d="M537 14c-226 0-379-139-379-422v-710h180v695c0 172 97 275 253 275 160 0 281-109 281-300v-670h181V0H879v-209C806-46 684 14 537 14" id="R"/><g id="e"><use transform="matrix(0.007595486111111112,0,0,0.007595486111111112,0,0)" xlink:href="#Q"/><use transform="matrix(0.007595486111111112,0,0,0.007595486111111112,4.663628472222222,0)" xlink:href="#D"/><use transform="matrix(0.007595486111111112,0,0,0.007595486111111112,10.26150173611111,0)" xlink:href="#M"/><use transform="matrix(0.007595486111111112,0,0,0.007595486111111112,19.588758680555557,0)" xlink:href="#R"/><use transform="matrix(0.007595486111111112,0,0,0.007595486111111112,28.786892361111114,0)" xlink:href="#C"/><use transform="matrix(0.007595486111111112,0,0,0.007595486111111112,33.723958333333336,0)" xlink:href="#E"/><use transform="matrix(0.007595486111111112,0,0,0.007595486111111112,42.56510416666667,0)" xlink:href="#Q"/></g><path d="M180 0v-1490h510c348 0 508 209 508 474 0 266-160 477-507 477H370V0H180zm190-706h312c236 0 327-133 327-310 0-176-91-307-329-307H370v617" id="S"/><g id="f"><use transform="matrix(0.010850694444444444,0,0,0.010850694444444444,0,0)" xlink:href="#S"/><use transform="matrix(0.010850694444444444,0,0,0.010850694444444444,14.073350694444445,0)" xlink:href="#M"/><use transform="matrix(0.010850694444444444,0,0,0.010850694444444444,27.39800347222222,0)" xlink:href="#G"/><use transform="matrix(0.010850694444444444,0,0,0.010850694444444444,46.86414930555556,0)" xlink:href="#E"/><use transform="matrix(0.010850694444444444,0,0,0.010850694444444444,59.81987847222222,0)" xlink:href="#D"/><use transform="matrix(0.010850694444444444,0,0,0.010850694444444444,68.53298611111111,0)" xlink:href="#J"/><use transform="matrix(0.010850694444444444,0,0,0.010850694444444444,73.91493055555556,0)" xlink:href="#R"/><use transform="matrix(0.010850694444444444,0,0,0.010850694444444444,87.05512152777777,0)" xlink:href="#G"/></g><path d="M613 24c-304 0-509-231-509-576 0-350 205-580 509-580 216 0 392 114 453 309l-173 49c-33-115-133-197-280-197-223 0-326 196-326 419 0 220 103 415 326 415 150 0 252-85 285-206l172 49C1010-95 832 24 613 24" id="T"/><path d="M798-719v166H144v-166h654" id="U"/><g id="g"><use transform="matrix(0.006510416666666667,0,0,0.006510416666666667,0,0)" xlink:href="#C"/><use transform="matrix(0.006510416666666667,0,0,0.006510416666666667,4.231770833333334,0)" xlink:href="#T"/><use transform="matrix(0.006510416666666667,0,0,0.006510416666666667,11.848958333333334,0)" xlink:href="#A"/><use transform="matrix(0.006510416666666667,0,0,0.006510416666666667,20.013020833333336,0)" xlink:href="#J"/><use transform="matrix(0.006510416666666667,0,0,0.006510416666666667,23.242187500000004,0)" xlink:href="#A"/><use transform="matrix(0.006510416666666667,0,0,0.006510416666666667,31.40625,0)" xlink:href="#U"/><use transform="matrix(0.006510416666666667,0,0,0.006510416666666667,37.5390625,0)" xlink:href="#L"/><use transform="matrix(0.006510416666666667,0,0,0.006510416666666667,42.083333333333336,0)" xlink:href="#M"/><use transform="matrix(0.006510416666666667,0,0,0.006510416666666667,50.078125,0)" xlink:href="#D"/><use transform="matrix(0.006510416666666667,0,0,0.006510416666666667,55.208333333333336,0)" xlink:href="#N"/><use transform="matrix(0.006510416666666667,0,0,0.006510416666666667,66.11979166666667,0)" xlink:href="#F"/><use transform="matrix(0.006510416666666667,0,0,0.006510416666666667,73.60677083333334,0)" xlink:href="#D"/><use transform="matrix(0.006510416666666667,0,0,0.006510416666666667,78.40494791666667,0)" xlink:href="#O"/></g><path d="M657 26c-323 0-524-166-541-416h195c15 169 171 246 346 246 202 0 356-106 356-265 5-203-294-238-475-293-239-73-380-191-380-389 0-252 224-419 512-419 294 0 499 171 508 396H992c-17-145-151-228-328-228-193 0-321 102-321 242 0 156 175 211 284 241l149 41c160 44 422 134 422 412 0 244-197 432-541 432" id="V"/><path d="M180 0v-1490h190v644h782v-644h190V0h-190v-678H370V0H180" id="W"/><g id="h"><use transform="matrix(0.008680555555555556,0,0,0.008680555555555556,0,0)" xlink:href="#V"/><use transform="matrix(0.008680555555555556,0,0,0.008680555555555556,11.40625,0)" xlink:href="#V"/><use transform="matrix(0.008680555555555556,0,0,0.008680555555555556,22.8125,0)" xlink:href="#W"/></g><g id="i"><use transform="matrix(0.008680555555555556,0,0,0.008680555555555556,0,0)" xlink:href="#H"/><use transform="matrix(0.008680555555555556,0,0,0.008680555555555556,12.986111111111112,0)" xlink:href="#I"/><use transform="matrix(0.008680555555555556,0,0,0.008680555555555556,17.291666666666668,0)" xlink:href="#J"/><use transform="matrix(0.008680555555555556,0,0,0.008680555555555556,21.59722222222222,0)" xlink:href="#E"/><use transform="matrix(0.008680555555555556,0,0,0.008680555555555556,31.961805555555557,0)" xlink:href="#K"/><use transform="matrix(0.008680555555555556,0,0,0.008680555555555556,42.46527777777778,0)" xlink:href="#C"/></g><path d="M180 0v-1490h528c311 0 458 177 458 395 0 191-114 278-244 313v14c139 9 302 137 302 371 0 225-148 397-499 397H180zm190-168h350c232 0 321-102 321-231 0-149-120-277-311-277H370v508zm0-668h328c160 0 286-101 286-255 0-129-87-231-280-231H370v486" id="X"/><g id="j"><use transform="matrix(0.007595486111111112,0,0,0.007595486111111112,0,0)" xlink:href="#X"/><use transform="matrix(0.007595486111111112,0,0,0.007595486111111112,10.17795138888889,0)" xlink:href="#D"/><use transform="matrix(0.007595486111111112,0,0,0.007595486111111112,15.775824652777779,0)" xlink:href="#M"/><use transform="matrix(0.007595486111111112,0,0,0.007595486111111112,24.822048611111114,0)" xlink:href="#N"/><use transform="matrix(0.007595486111111112,0,0,0.007595486111111112,37.552083333333336,0)" xlink:href="#B"/><use transform="matrix(0.007595486111111112,0,0,0.007595486111111112,45.76280381944445,0)" xlink:href="#E"/><use transform="matrix(0.007595486111111112,0,0,0.007595486111111112,54.831814236111114,0)" xlink:href="#D"/></g><path d="M338-670V0H158v-1490h180v566c73-149 190-208 336-208 226 0 379 139 379 422V0H872v-695c0-172-96-275-252-275-161 0-282 109-282 300" id="Y"/><path d="M295 13c-75 0-135-60-135-135s60-135 135-135 135 60 135 135S370 13 295 13zm0-809c-75 0-135-60-135-135s60-135 135-135 135 60 135 135-60 135-135 135" id="Z"/><path d="M692-1560L212 224H46l480-1784h166" id="aa"/><path d="M120-303v-155l652-1032h231v1020h202v167h-202V0H821v-303H120zm702-167v-782h-12L323-482v12h499" id="ab"/><path d="M635 20c-292 0-500-160-510-396h192c11 142 145 229 315 229 187 0 323-105 323-260 0-161-125-274-346-274H488v-165h121c174 0 294-100 294-254 0-148-104-245-266-245-152 0-291 85-297 230H157c8-234 222-395 484-395 278 0 448 188 448 400 0 168-95 291-247 336v12c190 31 301 169 301 357 0 244-216 425-508 425" id="ac"/><g id="k"><use transform="matrix(0.006510416666666667,0,0,0.006510416666666667,0,0)" xlink:href="#Y"/><use transform="matrix(0.006510416666666667,0,0,0.006510416666666667,7.884114583333334,0)" xlink:href="#C"/><use transform="matrix(0.006510416666666667,0,0,0.006510416666666667,11.920572916666668,0)" xlink:href="#C"/><use transform="matrix(0.006510416666666667,0,0,0.006510416666666667,16.282552083333336,0)" xlink:href="#A"/><use transform="matrix(0.006510416666666667,0,0,0.006510416666666667,24.446614583333336,0)" xlink:href="#B"/><use transform="matrix(0.006510416666666667,0,0,0.006510416666666667,31.484375,0)" xlink:href="#Z"/><use transform="matrix(0.006510416666666667,0,0,0.006510416666666667,35.325520833333336,0)" xlink:href="#aa"/><use transform="matrix(0.006510416666666667,0,0,0.006510416666666667,40.130208333333336,0)" xlink:href="#aa"/><use transform="matrix(0.006510416666666667,0,0,0.006510416666666667,44.934895833333336,0)" xlink:href="#D"/><use transform="matrix(0.006510416666666667,0,0,0.006510416666666667,49.73307291666667,0)" xlink:href="#M"/><use transform="matrix(0.006510416666666667,0,0,0.006510416666666667,57.727864583333336,0)" xlink:href="#R"/><use transform="matrix(0.006510416666666667,0,0,0.006510416666666667,65.61197916666667,0)" xlink:href="#C"/><use transform="matrix(0.006510416666666667,0,0,0.006510416666666667,69.84375000000001,0)" xlink:href="#E"/><use transform="matrix(0.006510416666666667,0,0,0.006510416666666667,77.61718750000001,0)" xlink:href="#Z"/><use transform="matrix(0.006510416666666667,0,0,0.006510416666666667,81.45833333333334,0)" xlink:href="#ab"/><use transform="matrix(0.006510416666666667,0,0,0.006510416666666667,90.07161458333334,0)" xlink:href="#ab"/><use transform="matrix(0.006510416666666667,0,0,0.006510416666666667,98.68489583333334,0)" xlink:href="#ac"/></g><path d="M370-1490V0H180v-1490h190" id="ad"/><path d="M140 405l46-156c120 36 205 19 263-150l32-93L54-1118h197c107 313 237 620 324 950 87-331 219-637 326-950h196L606 167c-68 178-176 259-334 259-64 0-113-12-132-21" id="ae"/><g id="l"><use transform="matrix(0.008680555555555556,0,0,0.008680555555555556,0,0)" xlink:href="#ad"/><use transform="matrix(0.008680555555555556,0,0,0.008680555555555556,4.774305555555555,0)" xlink:href="#O"/><use transform="matrix(0.008680555555555556,0,0,0.008680555555555556,15.659722222222223,0)" xlink:href="#E"/><use transform="matrix(0.008680555555555556,0,0,0.008680555555555556,26.024305555555557,0)" xlink:href="#K"/><use transform="matrix(0.008680555555555556,0,0,0.008680555555555556,36.52777777777778,0)" xlink:href="#C"/><use transform="matrix(0.008680555555555556,0,0,0.008680555555555556,42.34375,0)" xlink:href="#J"/><use transform="matrix(0.008680555555555556,0,0,0.008680555555555556,46.64930555555556,0)" xlink:href="#C"/><use transform="matrix(0.008680555555555556,0,0,0.008680555555555556,52.8125,0)" xlink:href="#ae"/></g><path d="M481 0L54-1118h197c107 314 236 620 325 951 87-331 217-637 324-951h197L670 0H481" id="af"/><g id="m"><use transform="matrix(0.008680555555555556,0,0,0.008680555555555556,0,0)" xlink:href="#S"/><use transform="matrix(0.008680555555555556,0,0,0.008680555555555556,11.354166666666668,0)" xlink:href="#D"/><use transform="matrix(0.008680555555555556,0,0,0.008680555555555556,17.751736111111114,0)" xlink:href="#M"/><use transform="matrix(0.008680555555555556,0,0,0.008680555555555556,28.06423611111111,0)" xlink:href="#af"/><use transform="matrix(0.008680555555555556,0,0,0.008680555555555556,38.05555555555556,0)" xlink:href="#J"/><use transform="matrix(0.008680555555555556,0,0,0.008680555555555556,42.361111111111114,0)" xlink:href="#O"/><use transform="matrix(0.008680555555555556,0,0,0.008680555555555556,53.246527777777786,0)" xlink:href="#E"/><use transform="matrix(0.008680555555555556,0,0,0.008680555555555556,63.61111111111112,0)" xlink:href="#D"/></g><path d="M180 0v-1490h908v168H370v486h669v168H370v500h727V0H180" id="ag"/><g id="n"><use transform="matrix(0.007595486111111112,0,0,0.007595486111111112,0,0)" xlink:href="#ag"/><use transform="matrix(0.007595486111111112,0,0,0.007595486111111112,9.350043402777779,0)" xlink:href="#K"/><use transform="matrix(0.007595486111111112,0,0,0.007595486111111112,18.31271701388889,0)" xlink:href="#af"/><use transform="matrix(0.007595486111111112,0,0,0.007595486111111112,26.751302083333336,0)" xlink:href="#M"/><use transform="matrix(0.007595486111111112,0,0,0.007595486111111112,35.774739583333336,0)" xlink:href="#ae"/></g><path d="M65 0l393-574-370-544h210c88 136 192 297 267 435 67-142 176-302 264-435h206L661-564 1053 0H844c-94-144-206-310-287-458C484-308 366-142 273 0H65" id="ah"/><g id="o"><use transform="matrix(0.007595486111111112,0,0,0.007595486111111112,0,0)" xlink:href="#S"/><use transform="matrix(0.007595486111111112,0,0,0.007595486111111112,9.934895833333334,0)" xlink:href="#D"/><use transform="matrix(0.007595486111111112,0,0,0.007595486111111112,15.532769097222221,0)" xlink:href="#M"/><use transform="matrix(0.007595486111111112,0,0,0.007595486111111112,24.510633680555557,0)" xlink:href="#ah"/><use transform="matrix(0.007595486111111112,0,0,0.007595486111111112,33.00238715277778,0)" xlink:href="#ae"/></g><path d="M52 0l541-1490h220L1361 0h-200l-149-416H398L254 0H52zm404-582h497c-103-290-145-390-251-756-108 377-145 460-246 756" id="ai"/><path d="M126 0v-134l627-806v-11H146v-167h839v143L376-178v11h629V0H126" id="aj"/><g id="p"><use transform="matrix(0.007595486111111112,0,0,0.007595486111111112,0,0)" xlink:href="#ai"/><use transform="matrix(0.007595486111111112,0,0,0.007595486111111112,10.732421875000002,0)" xlink:href="#R"/><use transform="matrix(0.007595486111111112,0,0,0.007595486111111112,19.930555555555557,0)" xlink:href="#C"/><use transform="matrix(0.007595486111111112,0,0,0.007595486111111112,25.01953125,0)" xlink:href="#Y"/><use transform="matrix(0.007595486111111112,0,0,0.007595486111111112,34.21766493055556,0)" xlink:href="#M"/><use transform="matrix(0.007595486111111112,0,0,0.007595486111111112,43.544921875,0)" xlink:href="#D"/><use transform="matrix(0.007595486111111112,0,0,0.007595486111111112,49.64409722222222,0)" xlink:href="#J"/><use transform="matrix(0.007595486111111112,0,0,0.007595486111111112,53.411458333333336,0)" xlink:href="#aj"/><use transform="matrix(0.007595486111111112,0,0,0.007595486111111112,62.001953125,0)" xlink:href="#F"/><use transform="matrix(0.007595486111111112,0,0,0.007595486111111112,70.73676215277777,0)" xlink:href="#C"/><use transform="matrix(0.007595486111111112,0,0,0.007595486111111112,75.82573784722221,0)" xlink:href="#J"/><use transform="matrix(0.007595486111111112,0,0,0.007595486111111112,79.59309895833333,0)" xlink:href="#M"/><use transform="matrix(0.007595486111111112,0,0,0.007595486111111112,88.92035590277777,0)" xlink:href="#K"/></g><g id="q"><use transform="matrix(0.007595486111111112,0,0,0.007595486111111112,0,0)" xlink:href="#V"/><use transform="matrix(0.007595486111111112,0,0,0.007595486111111112,9.980468750000002,0)" xlink:href="#E"/><use transform="matrix(0.007595486111111112,0,0,0.007595486111111112,19.04947916666667,0)" xlink:href="#D"/><use transform="matrix(0.007595486111111112,0,0,0.007595486111111112,25.148654513888896,0)" xlink:href="#af"/><use transform="matrix(0.007595486111111112,0,0,0.007595486111111112,33.891059027777786,0)" xlink:href="#J"/><use transform="matrix(0.007595486111111112,0,0,0.007595486111111112,37.6584201388889,0)" xlink:href="#T"/><use transform="matrix(0.007595486111111112,0,0,0.007595486111111112,46.5451388888889,0)" xlink:href="#E"/></g><g id="r"><use transform="matrix(0.006510416666666667,0,0,0.006510416666666667,0,0)" xlink:href="#S"/><use transform="matrix(0.006510416666666667,0,0,0.006510416666666667,8.444010416666666,0)" xlink:href="#M"/><use transform="matrix(0.006510416666666667,0,0,0.006510416666666667,16.438802083333332,0)" xlink:href="#G"/><use transform="matrix(0.006510416666666667,0,0,0.006510416666666667,28.118489583333336,0)" xlink:href="#E"/><use transform="matrix(0.006510416666666667,0,0,0.006510416666666667,35.89192708333333,0)" xlink:href="#D"/><use transform="matrix(0.006510416666666667,0,0,0.006510416666666667,41.119791666666664,0)" xlink:href="#J"/><use transform="matrix(0.006510416666666667,0,0,0.006510416666666667,44.34895833333333,0)" xlink:href="#R"/><use transform="matrix(0.006510416666666667,0,0,0.006510416666666667,52.233072916666664,0)" xlink:href="#G"/></g><g id="s"><use transform="matrix(0.006510416666666667,0,0,0.006510416666666667,0,0)" xlink:href="#S"/><use transform="matrix(0.006510416666666667,0,0,0.006510416666666667,8.444010416666666,0)" xlink:href="#M"/><use transform="matrix(0.006510416666666667,0,0,0.006510416666666667,16.438802083333332,0)" xlink:href="#I"/><use transform="matrix(0.006510416666666667,0,0,0.006510416666666667,19.66796875,0)" xlink:href="#J"/><use transform="matrix(0.006510416666666667,0,0,0.006510416666666667,22.897135416666668,0)" xlink:href="#T"/><use transform="matrix(0.006510416666666667,0,0,0.006510416666666667,30.25390625,0)" xlink:href="#ae"/></g><path d="M784 20c-382 0-662-292-662-764 0-473 280-766 662-766s660 293 660 766c0 472-278 764-660 764zm0-176c266 0 475-207 475-588 0-383-209-590-475-590-268 0-477 208-477 590 0 380 209 588 477 588" id="ak"/><g id="t"><use transform="matrix(0.006510416666666667,0,0,0.006510416666666667,0,0)" xlink:href="#ak"/><use transform="matrix(0.006510416666666667,0,0,0.006510416666666667,9.739583333333334,0)" xlink:href="#ai"/><use transform="matrix(0.006510416666666667,0,0,0.006510416666666667,18.938802083333336,0)" xlink:href="#R"/><use transform="matrix(0.006510416666666667,0,0,0.006510416666666667,26.822916666666675,0)" xlink:href="#C"/><use transform="matrix(0.006510416666666667,0,0,0.006510416666666667,31.18489583333334,0)" xlink:href="#Y"/></g><path d="M180 0v-1490h190v1322h690V0H180" id="al"/><g id="u"><use transform="matrix(0.009765625,0,0,0.009765625,0,0)" xlink:href="#al"/><use transform="matrix(0.009765625,0,0,0.009765625,11.30859375,0)" xlink:href="#M"/><use transform="matrix(0.009765625,0,0,0.009765625,23.30078125,0)" xlink:href="#T"/><use transform="matrix(0.009765625,0,0,0.009765625,34.921875,0)" xlink:href="#F"/><use transform="matrix(0.009765625,0,0,0.009765625,46.15234375,0)" xlink:href="#I"/></g><g id="v"><use transform="matrix(0.009765625,0,0,0.009765625,0,0)" xlink:href="#V"/><use transform="matrix(0.009765625,0,0,0.009765625,12.83203125,0)" xlink:href="#E"/><use transform="matrix(0.009765625,0,0,0.009765625,24.4921875,0)" xlink:href="#D"/><use transform="matrix(0.009765625,0,0,0.009765625,32.333984375,0)" xlink:href="#af"/><use transform="matrix(0.009765625,0,0,0.009765625,43.18359375,0)" xlink:href="#E"/><use transform="matrix(0.009765625,0,0,0.009765625,54.84375,0)" xlink:href="#D"/></g><g id="w"><use transform="matrix(0.006510416666666667,0,0,0.006510416666666667,0,0)" xlink:href="#B"/><use transform="matrix(0.006510416666666667,0,0,0.006510416666666667,7.037760416666667,0)" xlink:href="#B"/><use transform="matrix(0.006510416666666667,0,0,0.006510416666666667,14.075520833333334,0)" xlink:href="#Y"/></g><path d="M180 0v-1490h510c348 0 508 194 508 460 0 198-88 351-276 417L1256 0h-220L726-579c-117 2-238 0-356 1V0H180zm190-747h312c235 0 327-108 327-283 0-177-92-293-329-293H370v576" id="am"/><g id="x"><use transform="matrix(0.006510416666666667,0,0,0.006510416666666667,0,0)" xlink:href="#U"/><use transform="matrix(0.006510416666666667,0,0,0.006510416666666667,6.1328125,0)" xlink:href="#am"/></g><path d="M295 13c-75 0-135-60-135-135s60-135 135-135 135 60 135 135S370 13 295 13" id="an"/><g id="y"><use transform="matrix(0.006510416666666667,0,0,0.006510416666666667,0,0)" xlink:href="#an"/><use transform="matrix(0.006510416666666667,0,0,0.006510416666666667,3.8411458333333335,0)" xlink:href="#an"/><use transform="matrix(0.006510416666666667,0,0,0.006510416666666667,7.682291666666667,0)" xlink:href="#an"/></g></defs></g></svg>