<svg xmlns="http://www.w3.org/2000/svg" xmlns:xlink="http://www.w3.org/1999/xlink" xmlns:lucid="lucid" width="825.64" height="468.34"><g transform="translate(-759.3471140486112 -2457.9828491071257)" lucid:page-tab-id="S7oAnNvjMmV9"><path d="M500 0h1500v3000H500z" fill="#fff"/><path d="M1086.7 2467.25a6 6 0 0 1 6-6h338a6 6 0 0 1 6 6v132.57a6 6 0 0 1-6 6h-338a6 6 0 0 1-6-6z" fill="#f2f3f5"/><path d="M1090.4 2461.72l.44-.18.92-.22.94-.07h2m4.03 0h4.03m4.02 0h4.03m4.03 0h4.02m4.03 0h4.02m4.02 0h4.03m4.02 0h4.03m4.02 0h4.02m4.03 0h4.02m4.02 0h4.02m4.02 0h4.03m4 0h4.03m4.03 0h4.02m4.03 0h4.03m4.02 0h4.03m4.02 0h4.02m4.03 0h4.02m4.03 0h4.02m4.02 0h4.03m4.02 0h4.02m4.02 0h4.02m4.03 0h4m4.03 0h4.03m4.02 0h4.03m4.03 0h4.02m4.03 0h4.02m4.02 0h4.03m4.02 0h4.03m4.02 0h4.02m4.03 0h4.02m4.02 0h4.02m4.02 0h4.03m4 0h4.03m4.03 0h4.02m4.03 0h4.03m4.02 0h4.03m4.02 0h4.02m4.03 0h4.02m4.03 0h4.02m4.02 0h4.03m4.02 0h4.02m4.02 0h4.02m4.03 0h2l.94.07.9.22.45.18m3.22 3.24l.18.44.22.9.08.95v1.95m0 3.9v3.9m0 3.9v3.9m0 3.9v3.9m0 3.9v3.9m0 3.9v3.9m0 3.9v3.9m0 3.9v3.9m0 3.9v3.9m0 3.9v3.9m0 3.88v3.9m0 3.9v3.9m0 3.9v3.9m0 3.9v3.9m0 3.9v3.9m0 3.9v3.9m0 3.9v3.9m0 3.9v1.94l-.08.94-.2.92-.2.43m-3.23 3.25l-.45.18-.9.22-.95.07h-2m-4.04 0h-4.02m-4.03 0h-4m-4.03 0h-4.03m-4.02 0h-4.02m-4.03 0h-4.02m-4.03 0h-4.02m-4.02 0h-4.03m-4.02 0h-4.02m-4.02 0h-4.02m-4.03 0h-4.02m-4 0h-4.04m-4.02 0h-4.03m-4 0h-4.03m-4.03 0h-4.02m-4.02 0h-4.03m-4.02 0h-4.03m-4.02 0h-4.02m-4.03 0h-4.02m-4.02 0h-4.02m-4.02 0h-4.03m-4.02 0h-4m-4.04 0h-4.02m-4.03 0h-4m-4.03 0h-4.03m-4.02 0h-4.02m-4.03 0h-4.02m-4.03 0h-4.02m-4.02 0h-4.03m-4.02 0h-4.02m-4.02 0h-4.02m-4.03 0h-4.02m-4 0h-4.04m-4.02 0h-4.03m-4 0h-4.03m-4.03 0h-4.02m-4.02 0h-4.03m-4.02 0h-4.03m-4.02 0h-4.02m-4.03 0h-4.02m-4.02 0h-4.02m-4.02 0h-4.03m-4.02 0h-2l-.94-.07-.92-.22-.43-.18m-3.23-3.24l-.18-.42-.23-.92-.07-.94v-1.95m0-3.9v-3.9m0-3.9v-3.9m0-3.9v-3.9m0-3.9v-3.9m0-3.9v-3.9m0-3.9v-3.9m0-3.9v-3.9m0-3.88v-3.9m0-3.9v-3.9m0-3.9v-3.9m0-3.9v-3.9m0-3.9v-3.9m0-3.9v-3.9m0-3.9v-3.9m0-3.9v-3.9m0-3.9v-3.9m0-3.9v-1.95l.07-.94.22-.9.17-.44" stroke="#4c535d" fill="none"/><use xlink:href="#a" transform="matrix(1,0,0,1,1091.6984307497478,2466.25) translate(0 15.069444444444446)"/><use xlink:href="#b" transform="matrix(1,0,0,1,1091.6984307497478,2466.25) translate(66.89344618055556 15.069444444444446)"/><path d="M800 2741.06a6 6 0 0 1 6-6h443.85a6 6 0 0 1 6 6v178.76a6 6 0 0 1-6 6H806a6 6 0 0 1-6-6z" fill="#f2f3f5"/><path d="M803.7 2735.53l.45-.18.9-.22.95-.07h2.02m4.03 0h4.04m4.02 0h4.04m4.03 0h4.03m4.03 0h4.04m4.03 0h4.04m4.03 0h4.04m4.03 0h4.04m4.04 0h4.04m4.03 0h4.05m4.03 0h4.04m4.03 0h4.04m4.02 0h4.04m4.03 0h4.03m4.03 0H921m4.03 0h4.04m4.03 0h4.04m4.03 0h4.04m4.04 0h4.04m4.03 0h4.05m4.03 0h4.04m4.03 0h4.04m4.02 0h4.04m4.03 0h4.03m4.03 0h4.04m4.03 0h4.04m4.03 0h4.04m4.03 0h4.04m4.04 0h4.04m4.03 0h4.05m4.03 0h4.04m4.03 0h4.04m4.02 0h4.04m4.03 0h4.03m4.03 0h4.04m4.03 0h4.04m4.03 0h4.04m4.03 0h4.04m4.04 0h4.04m4.03 0h4.05m4.03 0h4.04m4.03 0h4.04m4.02 0h4.04m4.03 0h4.03m4.03 0h4.04m4.03 0h4.04m4.03 0h4.04m4.03 0h4.04m4.04 0h4.04m4.03 0h4.05m4.03 0h4.04m4.03 0h4.04m4.02 0h4.04m4.03 0h4.03m4.03 0h4.04m4.03 0h2.02l.94.07.9.22.44.18m3.24 3.24l.18.44.22.92.07.94v2.03m0 4.05v4.07m0 4.06v4.06m0 4.07v4.07m0 4.06v4.06m0 4.06v4.06m0 4.06v4.06m0 4.07v4.07m0 4.06v4.07m0 4.06v4.06m0 4.06v4.07m0 4.06v4.07m0 4.07v4.06m0 4.06v4.06m0 4.07v4.05m0 4.06v4.07m0 4.07v4.06m0 4.06v4.07m0 4.06v4.05m0 4.06v4.08m0 4.06v4.06m0 4.07v4.06m0 4.06v2.02l-.07.94-.22.92-.18.43m-3.24 3.25l-.44.18-.9.22-.95.07h-2.02m-4.03 0h-4.04m-4.03 0h-4.04m-4.04 0h-4.04m-4.03 0h-4.05m-4.03 0h-4.04m-4.03 0h-4.04m-4.02 0h-4.04m-4.03 0h-4.03m-4.03 0h-4.04m-4.03 0h-4.04m-4.03 0h-4.04m-4.03 0H1151m-4.04 0h-4.04m-4.03 0h-4.05m-4.03 0h-4.04m-4.03 0h-4.04m-4.02 0h-4.04m-4.03 0h-4.03m-4.03 0h-4.04m-4.03 0h-4.04m-4.03 0h-4.04m-4.03 0h-4.04m-4.04 0h-4.04m-4.03 0h-4.05m-4.03 0h-4.04m-4.03 0H1038m-4.02 0h-4.04m-4.03 0h-4.03m-4.03 0h-4.04m-4.03 0h-4.04m-4.03 0h-4.04m-4.03 0h-4.04m-4.04 0h-4.04m-4.03 0h-4.05m-4.03 0h-4.04m-4.03 0h-4.04m-4.02 0h-4.04m-4.03 0h-4.03m-4.03 0h-4.04m-4.03 0h-4.04m-4.03 0h-4.04m-4.03 0h-4.04m-4.04 0h-4.04m-4.03 0h-4.05m-4.03 0h-4.04m-4.03 0h-4.04m-4.02 0h-4.04m-4.03 0h-4.03m-4.03 0h-4.04m-4.03 0h-4.04m-4.03 0h-4.04m-4.03 0h-4.04m-4.04 0h-4.04m-4.03 0h-4.05m-4.03 0H806l-.94-.07-.9-.22-.45-.18m-3.23-3.24l-.18-.42-.23-.92-.07-.94v-2.03m0-4.07v-4.07m0-4.06v-4.06m0-4.06v-4.07m0-4.05v-4.06m0-4.08v-4.06m0-4.06v-4.06m0-4.07v-4.06m0-4.05v-4.06m0-4.08v-4.06m0-4.06v-4.07m0-4.06v-4.06m0-4.05v-4.07m0-4.06v-4.06m0-4.06v-4.07m0-4.06v-4.06m0-4.06v-4.06m0-4.06v-4.06m0-4.07v-4.07m0-4.06v-4.06m0-4.06v-4.06m0-4.06v-4.07m0-4.06v-2.04l.07-.94.22-.9.17-.45" stroke="#4c535d" fill="none"/><path d="M898.32 2855.82h-76.64c-.88 0-1.68-.76-1.68-1.7V2849c0-18.18 11.92-33.42 29.52-37.7.48-.1.88-.05 1.28.17 5.92 3.2 12.48 3.2 18.4 0 .4-.22.8-.26 1.2-.17 17.68 4.28 29.6 19.52 29.6 37.7v5.13c0 .93-.8 1.7-1.68 1.7zm-74.88-3.43h73.12v-3.4c.08-16.35-10.56-30.08-26.32-34.18-3.36 1.65-6.48 2.4-10.24 2.4s-6.88-.7-10.24-2.4c-15.76 4.1-26.4 17.83-26.32 34.18z" stroke="#fff" stroke-opacity="0" fill="#232f3e"/><path d="M860 2817.12c-3.67 0-6.8-.78-10.03-2.56-9.95-5.57-13.5-18.2-7.93-28.17 5.58-9.96 18.17-13.5 28.1-7.93 6.72 3.75 10.56 10.32 10.56 18.04 0 7.78-3.93 14.4-10.74 18.06-3.22 1.74-6.32 2.56-9.95 2.56zm0-37.83c-6.6-.17-12.26 3.17-15.44 8.95-4.5 8.4-1.4 18.8 6.94 23.34 5.4 2.92 11.36 2.92 16.77 0 5.7-3.1 9-8.7 8.96-15.2-.04-9.5-7.76-17.15-17.22-17.1z" stroke="#fff" stroke-opacity="0" fill="#232f3e"/><use xlink:href="#c" transform="matrix(1,0,0,1,790,2864.8215942257284) translate(51.88856336805555 16.15863715277778)"/><path d="M1166.7 2507.25a6 6 0 0 1 6-6h187.66a6 6 0 0 1 6 6v55.5a6 6 0 0 1-6 6H1172.7a6 6 0 0 1-6-6z" stroke="#282c33" stroke-width="2" fill="#fbf0ff"/><use xlink:href="#d" transform="matrix(1,0,0,1,1171.6984307497478,2506.25) translate(41.73936631944445 37.083767361111114)"/><path d="M1086.7 2861.82a6 6 0 0 1 6-6h138a6 6 0 0 1 6 6v48a6 6 0 0 1-6 6h-138a6 6 0 0 1-6-6z" stroke="#282c33" fill="#fff3d9"/><use xlink:href="#e" transform="matrix(1,0,0,1,1091.6984307497478,2860.8215942257284) translate(26.99055989583333 21.01605902777778)"/><use xlink:href="#f" transform="matrix(1,0,0,1,1091.6984307497478,2860.8215942257284) translate(64.4970703125 21.01605902777778)"/><use xlink:href="#g" transform="matrix(1,0,0,1,1091.6984307497478,2860.8215942257284) translate(13.990885416666679 40.90885416666667)"/><path d="M1204.44 2570.75v98.07a12 12 0 0 1-12 12H1082a12 12 0 0 0-12 12v71.24" stroke="#54c45e" stroke-width="2" fill="none"/><path d="M1205.4 2570.78h-1.94v-1.03h1.95zM1070.97 2765.06h-1.94v-1.03h1.94z" stroke="#54c45e" stroke-width=".05" fill="#54c45e"/><path d="M760.85 2465.48a6 6 0 0 1 6-6h284.7a6 6 0 0 1 6 6v174.16a6 6 0 0 1-6 6h-284.7a6 6 0 0 1-6-6z" fill="#14171a"/><path d="M760.85 2465.48a6 6 0 0 1 6-6h284.7a6 6 0 0 1 6 6v174.16a6 6 0 0 1-6 6h-284.7a6 6 0 0 1-6-6z" stroke="#000" stroke-opacity="0" stroke-width="3" fill="none"/><use xlink:href="#h" transform="matrix(1,0,0,1,792.8471140486112,2469.4828491071257) translate(0 11.100260416666668)"/><use xlink:href="#i" transform="matrix(1,0,0,1,792.8471140486112,2469.4828491071257) translate(0 26.204427083333336)"/><use xlink:href="#j" transform="matrix(1,0,0,1,792.8471140486112,2469.4828491071257) translate(16.002604166666668 26.204427083333336)"/><use xlink:href="#k" transform="matrix(1,0,0,1,792.8471140486112,2469.4828491071257) translate(64.01041666666667 26.204427083333336)"/><use xlink:href="#l" transform="matrix(1,0,0,1,792.8471140486112,2469.4828491071257) translate(0 41.30859375)"/><use xlink:href="#m" transform="matrix(1,0,0,1,792.8471140486112,2469.4828491071257) translate(16.002604166666668 41.30859375)"/><use xlink:href="#n" transform="matrix(1,0,0,1,792.8471140486112,2469.4828491071257) translate(0 56.41276041666667)"/><use xlink:href="#o" transform="matrix(1,0,0,1,792.8471140486112,2469.4828491071257) translate(24.00390625 56.41276041666667)"/><use xlink:href="#p" transform="matrix(1,0,0,1,792.8471140486112,2469.4828491071257) translate(40.00651041666667 56.41276041666667)"/><use xlink:href="#n" transform="matrix(1,0,0,1,792.8471140486112,2469.4828491071257) translate(0 71.51692708333334)"/><use xlink:href="#o" transform="matrix(1,0,0,1,792.8471140486112,2469.4828491071257) translate(24.00390625 71.51692708333334)"/><use xlink:href="#q" transform="matrix(1,0,0,1,792.8471140486112,2469.4828491071257) translate(40.00651041666667 71.51692708333334)"/><use xlink:href="#l" transform="matrix(1,0,0,1,792.8471140486112,2469.4828491071257) translate(0 86.62109375000001)"/><use xlink:href="#r" transform="matrix(1,0,0,1,792.8471140486112,2469.4828491071257) translate(16.002604166666668 86.62109375000001)"/><use xlink:href="#s" transform="matrix(1,0,0,1,792.8471140486112,2469.4828491071257) translate(32.01 101.72526041666669)"/><use xlink:href="#t" transform="matrix(1,0,0,1,792.8471140486112,2469.4828491071257) translate(64.01520833333333 101.72526041666669)"/><use xlink:href="#u" transform="matrix(1,0,0,1,792.8471140486112,2469.4828491071257) translate(80.0178125 101.72526041666669)"/><use xlink:href="#v" transform="matrix(1,0,0,1,792.8471140486112,2469.4828491071257) translate(128.02562500000002 101.72526041666669)"/><use xlink:href="#l" transform="matrix(1,0,0,1,792.8471140486112,2469.4828491071257) translate(0 116.82942708333336)"/><use xlink:href="#w" transform="matrix(1,0,0,1,792.8471140486112,2469.4828491071257) translate(16.002604166666668 116.82942708333336)"/><use xlink:href="#x" transform="matrix(1,0,0,1,792.8471140486112,2469.4828491071257) translate(32.01 131.93359375000003)"/><use xlink:href="#y" transform="matrix(1,0,0,1,792.8471140486112,2469.4828491071257) translate(32.01 147.03776041666669)"/><use xlink:href="#z" transform="matrix(1,0,0,1,792.8471140486112,2469.4828491071257) translate(48.01260416666666 147.03776041666669)"/><use xlink:href="#t" transform="matrix(1,0,0,1,792.8471140486112,2469.4828491071257) translate(80.01781249999999 147.03776041666669)"/><use xlink:href="#u" transform="matrix(1,0,0,1,792.8471140486112,2469.4828491071257) translate(96.02041666666666 147.03776041666669)"/><use xlink:href="#A" transform="matrix(1,0,0,1,792.8471140486112,2469.4828491071257) translate(144.02822916666668 147.03776041666669)"/><use xlink:href="#B" transform="matrix(1,0,0,1,768.8471140486112,2469.4828491071257) translate(7.998697916666666 11.100260416666668)"/><use xlink:href="#C" transform="matrix(1,0,0,1,768.8471140486112,2469.4828491071257) translate(7.998697916666666 26.204427083333336)"/><use xlink:href="#D" transform="matrix(1,0,0,1,768.8471140486112,2469.4828491071257) translate(7.998697916666666 41.30859375)"/><use xlink:href="#E" transform="matrix(1,0,0,1,768.8471140486112,2469.4828491071257) translate(7.998697916666666 56.41276041666667)"/><use xlink:href="#F" transform="matrix(1,0,0,1,768.8471140486112,2469.4828491071257) translate(7.998697916666666 71.51692708333334)"/><use xlink:href="#G" transform="matrix(1,0,0,1,768.8471140486112,2469.4828491071257) translate(7.998697916666666 86.62109375000001)"/><use xlink:href="#H" transform="matrix(1,0,0,1,768.8471140486112,2469.4828491071257) translate(7.998697916666666 101.72526041666669)"/><use xlink:href="#I" transform="matrix(1,0,0,1,768.8471140486112,2469.4828491071257) translate(7.998697916666666 116.82942708333336)"/><use xlink:href="#J" transform="matrix(1,0,0,1,768.8471140486112,2469.4828491071257) translate(7.998697916666666 131.93359375000003)"/><use xlink:href="#K" transform="matrix(1,0,0,1,768.8471140486112,2469.4828491071257) translate(-0.002604166666667851 147.03776041666669)"/><use xlink:href="#L" transform="matrix(1,0,0,1,768.8471140486112,2469.4828491071257) translate(0 162.14192708333334)"/><path d="M1481.5 2733.56h-1.96v-27.22h1.95zm-10.95-199.38l1.98.48 1.88.78 1.75 1.06 1.54 1.32 1.32 1.55 1.06 1.74.78 1.9.48 1.97.15 2v130.55h-1.96v-130.48l-.14-1.76-.4-1.7-.66-1.58-.9-1.48-1.13-1.3-1.3-1.14-1.48-.9-1.6-.66-1.68-.4-1.76-.14h-89.75v-1.95h89.83z" stroke="#000" stroke-width=".05"/><path d="M1481.5 2734.56h-1.96v-1.03h1.95z"/><path stroke="#000" stroke-width=".05"/><path d="M1377.73 2537.32l-7.13-2.32 7.13-2.32z"/><path d="M1378.7 2538.66l-11.25-3.66 11.26-3.66zm-4.94-3.66l3 .98v-1.96z" stroke="#000" stroke-width=".05"/><path d="M1377.05 2691.93a13.4 13.4 0 0 1 13.4-13.4h180.13a13.4 13.4 0 0 1 13.4 13.4 13.4 13.4 0 0 1-13.4 13.4h-180.12a13.4 13.4 0 0 1-13.4-13.4z" stroke="#000" stroke-width="2" fill="none"/><g><use xlink:href="#M" transform="matrix(1,0,0,1,1389.0455441316924,2682.5231205002806) translate(0.0049999999999954525 15.069444444444446)"/></g><path d="M1058.05 2552.56h44.8a8.78 8.78 0 0 0 8.77-8.78 8.78 8.78 0 0 1 8.78-8.78h44.8" stroke="#000" fill="none"/><path d="M1058.06 2553.04h-.5v-.95h.5zM1165.7 2535.47h-.5v-.94h.5z" stroke="#000" stroke-width=".05"/><path d="M1067 2763.56v-70.74a15 15 0 0 1 15-15h110.44a9 9 0 0 0 9-9v-97.57" stroke="#000" stroke-width="3" fill="none"/><path d="M1073 2763.56v-70.74a9 9 0 0 1 9-9h110.44a15 15 0 0 0 15-15v-97.57" stroke="#000" stroke-width="3" fill="none"/><path d="M1068.47 2765.06h-2.94v-1.54h2.94zM1074.47 2765.06h-2.94v-1.54h2.94zM1202.9 2571.3h-2.94v-1.55h2.95zM1208.9 2571.3h-2.94v-1.55h2.95z" stroke="#000" stroke-width=".05"/><path d="M1040 2771.06a6 6 0 0 1 6-6h48a6 6 0 0 1 6 6v28a6 6 0 0 1-6 6h-48a6 6 0 0 1-6-6z" stroke="#000" stroke-opacity="0" stroke-width="3" fill="#6db1ff"/><g><use xlink:href="#N" transform="matrix(1,0,0,1,1052,2777.0598551181242) translate(2.239366319444443 15.069444444444446)"/></g><path d="M1162.67 2843.95h-1.95v-10.84h1.95zm-10.94-59.7l1.98.47 1.9.78 1.73 1.06 1.55 1.32 1.32 1.55 1.06 1.74.78 1.88.48 1.98.15 2v9.94h-1.95v-9.87l-.13-1.76-.42-1.7-.66-1.58-.9-1.48-1.13-1.3-1.32-1.14-1.48-.9-1.6-.66-1.68-.4-1.76-.14H1101v-1.95h48.74z" stroke="#54c45e" stroke-width=".05" fill="#54c45e"/><path d="M1101.03 2786.03H1100v-1.95h1.03z" fill="#54c45e"/><path stroke="#54c45e" stroke-width=".05" fill="#54c45e"/><path d="M1161.7 2852.1l-2.32-7.15h4.64z" fill="#54c45e"/><path d="M1161.7 2855.24l-3.66-11.26h7.32zm-.98-9.3l.98 3 .97-3z" stroke="#54c45e" stroke-width=".05" fill="#54c45e"/><path d="M1102.63 2820.04a12.07 12.07 0 0 1 12.07-12.07h94a12.07 12.07 0 0 1 12.06 12.07 12.07 12.07 0 0 1-12.06 12.07h-94a12.07 12.07 0 0 1-12.07-12.06z" stroke="#54c45e" stroke-width="2" fill="none"/><g><use xlink:href="#O" transform="matrix(1,0,0,1,1114.6346286664145,2811.974672333265) translate(0.005000000000002558 12.916666666666668)"/></g><path d="M1415.85 2741.06a6 6 0 0 1 6-6h117.34a6 6 0 0 1 5.98 6v118a6 6 0 0 1-6 6h-117.33a6 6 0 0 1-6-6z" fill="#f2f3f5"/><path d="M1419.56 2735.53l.44-.18.9-.22.95-.07h1.96m3.92 0h3.9m3.92 0h3.9m3.92 0h3.9m3.92 0h3.92m3.9 0h3.92m3.9 0h3.92m3.9 0h3.92m3.9 0h3.92m3.92 0h3.9m3.92 0h3.9m3.92 0h3.9m3.92 0h3.9m3.92 0h3.92m3.9 0h3.92m3.9 0h1.96l.94.07.92.22.43.18m3.24 3.24l.2.44.2.92.1.94-.02 1.97m0 3.93v3.93m0 3.93v3.93m0 3.93v3.93m0 3.93v3.93m0 3.93v3.93m0 3.93v3.93m0 3.93v3.93m0 3.93v3.93m0 3.93v3.93m0 3.93v3.93m0 3.93v3.93m0 3.93v3.93m0 3.93v3.93m0 3.93v3.93m0 3.93v1.96l-.07.94-.2.9-.2.45m-3.23 3.24l-.43.17-.92.22-.93.06h-1.97m-3.9 0h-3.92m-3.9 0h-3.9m-3.93 0h-3.9m-3.92 0h-3.9m-3.92 0h-3.9m-3.92 0h-3.9m-3.9 0h-3.93m-3.9 0h-3.92m-3.9 0h-3.92m-3.9 0H1459m-3.9 0h-3.9m-3.93 0h-3.9m-3.92 0h-3.9m-3.92 0h-3.9m-3.92 0h-1.95l-.94-.07-.9-.23-.44-.18m-3.23-3.25l-.18-.44-.23-.9-.07-.94v-1.97m0-3.94v-3.93m0-3.94v-3.94m0-3.93v-3.94m0-3.94v-3.93m0-3.94v-3.94m0-3.93v-3.94m0-3.94v-3.93m0-3.94v-3.94m0-3.93v-3.94m0-3.94v-3.93m0-3.94v-3.94m0-3.93v-3.94m0-3.94v-3.93m0-3.94v-3.94m0-3.93v-1.97l.08-.94.2-.9.2-.45" stroke="#4c535d" fill="none"/><path d="M1519.8 2825.06h-76.64c-.88 0-1.68-.76-1.68-1.7v-5.12c0-18.18 11.92-33.43 29.52-37.7.48-.1.88-.05 1.28.17 5.92 3.22 12.48 3.22 18.4 0 .4-.2.8-.25 1.2-.16 17.68 4.27 29.6 19.52 29.6 37.7v5.13c0 .93-.8 1.7-1.68 1.7zm-74.88-3.43h73.12v-3.4c.08-16.35-10.56-30.07-26.32-34.17-3.36 1.64-6.48 2.4-10.24 2.4s-6.88-.7-10.24-2.4c-15.76 4.1-26.4 17.82-26.32 34.18z" stroke="#fff" stroke-opacity="0" fill="#232f3e"/><path d="M1481.5 2786.36c-3.7 0-6.83-.8-10.05-2.56-9.95-5.58-13.5-18.2-7.93-28.17 5.58-9.95 18.17-13.5 28.1-7.93 6.72 3.76 10.56 10.33 10.56 18.05 0 7.76-3.92 14.37-10.74 18.05-3.22 1.73-6.32 2.56-9.95 2.56zm0-37.83c-6.62-.17-12.28 3.18-15.46 8.96-4.5 8.38-1.4 18.78 6.94 23.32 5.4 2.94 11.36 2.94 16.77 0 5.7-3.1 9-8.67 8.96-15.2-.03-9.5-7.76-17.13-17.2-17.1z" stroke="#fff" stroke-opacity="0" fill="#232f3e"/><g><use xlink:href="#P" transform="matrix(1,0,0,1,1411.4802316316923,2834.0598551181242) translate(55.485026041666664 16.15863715277778)"/></g><path d="M907.55 2861.82a6 6 0 0 1 6-6h138a6 6 0 0 1 6 6v48a6 6 0 0 1-6 6h-138a6 6 0 0 1-6-6z" stroke="#282c33" fill="#fff3d9"/><g><use xlink:href="#e" transform="matrix(1,0,0,1,912.5455447983588,2860.8215942257284) translate(26.99055989583333 21.01605902777778)"/><use xlink:href="#f" transform="matrix(1,0,0,1,912.5455447983588,2860.8215942257284) translate(64.4970703125 21.01605902777778)"/><use xlink:href="#Q" transform="matrix(1,0,0,1,912.5455447983588,2860.8215942257284) translate(13.990885416666679 40.90885416666667)"/></g><path d="M983.52 2843.95h-1.95v-9.7h1.95zm55.48-57.9l-44.42-.02-1.76.14-1.68.4-1.6.67-1.47.9-1.32 1.13-1.12 1.3-.9 1.5-.67 1.58-.4 1.7-.14 1.75v11h-1.95v-11.08l.16-2 .47-1.97.78-1.88 1.07-1.74 1.32-1.55 1.55-1.32 1.73-1.06 1.88-.78 2-.48 1.98-.15h44.5z" stroke="#54c45e" stroke-width=".05" fill="#54c45e"/><path d="M1040 2786.03h-1.03v-1.95h1.03z" fill="#54c45e"/><path stroke="#54c45e" stroke-width=".05" fill="#54c45e"/><path d="M982.55 2852.1l-2.32-7.15h4.63z" fill="#54c45e"/><path d="M982.55 2855.24l-3.66-11.26h7.3zm-.98-9.3l.98 3 .97-3z" stroke="#54c45e" stroke-width=".05" fill="#54c45e"/><path d="M924.98 2821.18a12.07 12.07 0 0 1 12.06-12.07h91a12.07 12.07 0 0 1 12.08 12.08 12.07 12.07 0 0 1-12.07 12.06h-91a12.07 12.07 0 0 1-12.07-12.06z" stroke="#54c45e" stroke-width="2" fill="none"/><g><use xlink:href="#R" transform="matrix(1,0,0,1,936.9758833400255,2813.1093297767966) translate(0.005000000000002558 12.916666666666668)"/></g><defs><path fill="#6f7681" d="M180 0v-1490h224l606 953c40 63 108 177 176 312-27-437-7-821-13-1265h190V0h-226C860-448 622-778 356-1262c27 476 11 792 15 1262H180" id="S"/><path fill="#6f7681" d="M628 24c-324 0-524-230-524-574 0-343 198-582 503-582 237 0 487 146 487 559v75H286c9 234 145 362 343 362 132 0 231-58 273-172l174 48C1024-91 857 24 628 24zM287-650h624c-17-190-120-322-304-322-192 0-309 151-320 322" id="T"/><path fill="#6f7681" d="M598-1118v154H368v674c0 100 37 144 132 144 23 0 62-6 92-12L629-6c-37 13-88 20-134 20-193 0-307-107-307-290v-688H20v-154h168v-266h180v266h230" id="U"/><path fill="#6f7681" d="M409 0L70-1118h191c89 329 165 560 243 925 75-353 154-601 240-925h192c85 325 161 564 235 922 77-354 157-598 244-922h191L1267 0h-179c-86-307-176-590-250-913C763-588 675-308 588 0H409" id="V"/><path fill="#6f7681" d="M613 24c-304 0-509-231-509-576 0-350 205-580 509-580 305 0 511 230 511 580 0 345-206 576-511 576zm0-161c226 0 329-195 329-415 0-222-103-419-329-419-223 0-326 196-326 419 0 220 103 415 326 415" id="W"/><path fill="#6f7681" d="M158 0v-1118h174v172h12c41-113 157-188 290-188 26 0 70 2 91 3v181c-11-2-60-10-108-10-161 0-279 109-279 260V0H158" id="X"/><path fill="#6f7681" d="M158 0v-1490h180v865h22l478-493h223L593-638 1096 0H865L456-523 338-412V0H158" id="Y"/><g id="a"><use transform="matrix(0.007595486111111112,0,0,0.007595486111111112,0,0)" xlink:href="#S"/><use transform="matrix(0.007595486111111112,0,0,0.007595486111111112,11.719835069444446,0)" xlink:href="#T"/><use transform="matrix(0.007595486111111112,0,0,0.007595486111111112,20.788845486111114,0)" xlink:href="#U"/><use transform="matrix(0.007595486111111112,0,0,0.007595486111111112,26.105685763888893,0)" xlink:href="#V"/><use transform="matrix(0.007595486111111112,0,0,0.007595486111111112,38.55468750000001,0)" xlink:href="#W"/><use transform="matrix(0.007595486111111112,0,0,0.007595486111111112,47.88194444444445,0)" xlink:href="#X"/><use transform="matrix(0.007595486111111112,0,0,0.007595486111111112,53.98111979166667,0)" xlink:href="#Y"/></g><path fill="#6f7681" d="M180 0v-1490h528c311 0 458 177 458 395 0 191-114 278-244 313v14c139 9 302 137 302 371 0 225-148 397-499 397H180zm190-168h350c232 0 321-102 321-231 0-149-120-277-311-277H370v508zm0-668h328c160 0 286-101 286-255 0-129-87-231-280-231H370v486" id="Z"/><path fill="#6f7681" d="M537 14c-226 0-379-139-379-422v-710h180v695c0 172 97 275 253 275 160 0 281-109 281-300v-670h181V0H879v-209C806-46 684 14 537 14" id="aa"/><path fill="#6f7681" d="M338-670V0H158v-1118h173l1 207c72-158 192-221 342-221 226 0 378 139 378 422V0H872v-695c0-172-96-275-252-275-161 0-282 109-282 300" id="ab"/><path fill="#6f7681" d="M577 24c-279 0-473-224-473-580 0-354 195-576 474-576 218 0 287 134 324 193h14v-551h180V0H922v-173h-20C865-111 790 24 577 24zm27-161c203 0 314-172 314-421 0-247-108-413-314-413-212 0-317 181-317 413 0 235 108 421 317 421" id="ac"/><path fill="#6f7681" d="M471 26C259 26 90-98 90-318c0-256 228-303 435-329 202-27 287-16 287-108 0-139-79-219-234-219-161 0-248 86-283 164l-173-57c86-203 278-265 451-265 150 0 419 46 419 395V0H815v-152h-12C765-73 660 26 471 26zm31-159c199 0 310-134 310-271v-155c-30 35-226 55-295 64-131 17-246 59-246 186 0 116 97 176 231 176" id="ad"/><path fill="#6f7681" d="M140 405l46-156c120 36 205 19 263-150l32-93L54-1118h197c107 313 237 620 324 950 87-331 219-637 326-950h196L606 167c-68 178-176 259-334 259-64 0-113-12-132-21" id="ae"/><g id="b"><use transform="matrix(0.007595486111111112,0,0,0.007595486111111112,0,0)" xlink:href="#Z"/><use transform="matrix(0.007595486111111112,0,0,0.007595486111111112,10.17795138888889,0)" xlink:href="#W"/><use transform="matrix(0.007595486111111112,0,0,0.007595486111111112,19.505208333333336,0)" xlink:href="#aa"/><use transform="matrix(0.007595486111111112,0,0,0.007595486111111112,28.703342013888893,0)" xlink:href="#ab"/><use transform="matrix(0.007595486111111112,0,0,0.007595486111111112,37.893880208333336,0)" xlink:href="#ac"/><use transform="matrix(0.007595486111111112,0,0,0.007595486111111112,47.41861979166667,0)" xlink:href="#ad"/><use transform="matrix(0.007595486111111112,0,0,0.007595486111111112,56.15342881944445,0)" xlink:href="#X"/><use transform="matrix(0.007595486111111112,0,0,0.007595486111111112,62.25260416666667,0)" xlink:href="#ae"/></g><path d="M52 0l541-1490h220L1361 0h-200l-149-416H398L254 0H52zm404-582h497c-103-290-145-390-251-756-108 377-145 460-246 756" id="af"/><path d="M338-1490V0H158v-1490h180" id="ag"/><path d="M158 0v-1118h180V0H158zm91-1301c-68 0-125-53-125-119s57-119 125-119c69 0 126 53 126 119s-57 119-126 119" id="ah"/><path d="M613 24c-304 0-509-231-509-576 0-350 205-580 509-580 216 0 392 114 453 309l-173 49c-33-115-133-197-280-197-223 0-326 196-326 419 0 220 103 415 326 415 150 0 252-85 285-206l172 49C1010-95 832 24 613 24" id="ai"/><path d="M628 24c-324 0-524-230-524-574 0-343 198-582 503-582 237 0 487 146 487 559v75H286c9 234 145 362 343 362 132 0 231-58 273-172l174 48C1024-91 857 24 628 24zM287-650h624c-17-190-120-322-304-322-192 0-309 151-320 322" id="aj"/><g id="c"><use transform="matrix(0.007595486111111112,0,0,0.007595486111111112,0,0)" xlink:href="#af"/><use transform="matrix(0.007595486111111112,0,0,0.007595486111111112,10.732421875000002,0)" xlink:href="#ag"/><use transform="matrix(0.007595486111111112,0,0,0.007595486111111112,14.499782986111114,0)" xlink:href="#ah"/><use transform="matrix(0.007595486111111112,0,0,0.007595486111111112,18.267144097222225,0)" xlink:href="#ai"/><use transform="matrix(0.007595486111111112,0,0,0.007595486111111112,27.15386284722223,0)" xlink:href="#aj"/></g><path d="M180 0v-1490h510c348 0 508 209 508 474 0 266-160 477-507 477H370V0H180zm190-706h312c236 0 327-133 327-310 0-176-91-307-329-307H370v617" id="ak"/><path d="M613 24c-304 0-509-231-509-576 0-350 205-580 509-580 305 0 511 230 511 580 0 345-206 576-511 576zm0-161c226 0 329-195 329-415 0-222-103-419-329-419-223 0-326 196-326 419 0 220 103 415 326 415" id="al"/><path d="M158 0v-1118h175l1 205c55-151 181-225 313-225 147 0 245 90 285 228 53-141 190-228 352-228 194 0 352 125 352 384V0h-181v-749c0-161-105-225-225-225-151 0-243 103-243 244V0H807v-767c0-124-93-207-219-207-131 0-250 92-250 270V0H158" id="am"/><path d="M158 0v-1118h174v172h12c41-113 157-188 290-188 26 0 70 2 91 3v181c-11-2-60-10-108-10-161 0-279 109-279 260V0H158" id="an"/><path d="M537 14c-226 0-379-139-379-422v-710h180v695c0 172 97 275 253 275 160 0 281-109 281-300v-670h181V0H879v-209C806-46 684 14 537 14" id="ao"/><g id="d"><use transform="matrix(0.010850694444444444,0,0,0.010850694444444444,0,0)" xlink:href="#ak"/><use transform="matrix(0.010850694444444444,0,0,0.010850694444444444,14.073350694444445,0)" xlink:href="#al"/><use transform="matrix(0.010850694444444444,0,0,0.010850694444444444,27.39800347222222,0)" xlink:href="#am"/><use transform="matrix(0.010850694444444444,0,0,0.010850694444444444,46.86414930555556,0)" xlink:href="#aj"/><use transform="matrix(0.010850694444444444,0,0,0.010850694444444444,59.81987847222222,0)" xlink:href="#an"/><use transform="matrix(0.010850694444444444,0,0,0.010850694444444444,68.53298611111111,0)" xlink:href="#ah"/><use transform="matrix(0.010850694444444444,0,0,0.010850694444444444,73.91493055555556,0)" xlink:href="#ao"/><use transform="matrix(0.010850694444444444,0,0,0.010850694444444444,87.05512152777777,0)" xlink:href="#am"/></g><path d="M458 0L52-1490h194c108 439 233 855 324 1313 92-459 221-873 331-1313h216c110 438 234 854 330 1307 92-455 216-869 323-1307h196L1558 0h-221l-256-944c-26-95-50-200-73-331-22 122-44 223-73 331L680 0H458" id="ap"/><path d="M677 24c-213 0-288-135-325-197h-20V0H158v-1490h180v551h14c37-59 106-193 324-193 279 0 474 222 474 576 0 356-194 580-473 580zm-27-161c209 0 317-186 317-421 0-232-105-413-317-413-206 0-314 166-314 413 0 249 111 421 314 421" id="aq"/><g id="e"><use transform="matrix(0.007595486111111112,0,0,0.007595486111111112,0,0)" xlink:href="#ap"/><use transform="matrix(0.007595486111111112,0,0,0.007595486111111112,14.537760416666668,0)" xlink:href="#aj"/><use transform="matrix(0.007595486111111112,0,0,0.007595486111111112,23.606770833333336,0)" xlink:href="#aq"/></g><path d="M657 26c-323 0-524-166-541-416h195c15 169 171 246 346 246 202 0 356-106 356-265 5-203-294-238-475-293-239-73-380-191-380-389 0-252 224-419 512-419 294 0 499 171 508 396H992c-17-145-151-228-328-228-193 0-321 102-321 242 0 156 175 211 284 241l149 41c160 44 422 134 422 412 0 244-197 432-541 432" id="ar"/><path d="M481 0L54-1118h197c107 314 236 620 325 951 87-331 217-637 324-951h197L670 0H481" id="as"/><g id="f"><use transform="matrix(0.007595486111111112,0,0,0.007595486111111112,0,0)" xlink:href="#ar"/><use transform="matrix(0.007595486111111112,0,0,0.007595486111111112,9.980468750000002,0)" xlink:href="#aj"/><use transform="matrix(0.007595486111111112,0,0,0.007595486111111112,19.04947916666667,0)" xlink:href="#an"/><use transform="matrix(0.007595486111111112,0,0,0.007595486111111112,25.148654513888896,0)" xlink:href="#as"/><use transform="matrix(0.007595486111111112,0,0,0.007595486111111112,33.58723958333334,0)" xlink:href="#aj"/><use transform="matrix(0.007595486111111112,0,0,0.007595486111111112,42.656250000000014,0)" xlink:href="#an"/></g><path d="M532-1413l-268-21v-122h451v1413l352 20V0H188v-123l344-20v-1270" id="at"/><path d="M1112-551c0 331-186 571-502 571-301 0-495-251-495-571 0-330 184-567 501-567 302 0 496 249 496 567zM614-131c207 0 310-140 310-420 0-277-104-416-312-416-206 0-309 139-309 416 0 280 104 420 311 420" id="au"/><path d="M172-543c0-365 197-575 553-575 119 0 231 20 336 59l-62 158c-100-38-189-57-268-57-247 0-371 138-371 413 0 271 120 406 361 406 105 0 212-21 321-62v160C953 0 843 20 713 20c-347 1-541-210-541-563" id="av"/><path d="M596-1118c288 2 430 92 430 366V0H895l-37-152h-8C752-34 680 17 483 20 272 23 135-98 135-307c0-221 170-337 510-348l203-7c15-197-55-305-244-305-98 0-207 27-328 82l-63-137c131-64 258-96 383-96zm-72 991c194 0 325-116 322-311v-99c-251 15-522-6-522 232 0 119 67 178 200 178" id="aw"/><path d="M887 0v-707c0-173-79-260-238-260-205 0-307 133-307 398V0H160v-1556h182c-2 202 6 416-8 606h10c69-112 181-168 336-168 259 0 389 134 389 401V0H887" id="ax"/><path d="M1026-301c0 225-197 321-448 321-165 0-290-23-375-69v-166c129 57 252 86 370 86 183 0 275-54 275-162 0-38-16-71-49-99s-108-63-226-106c-156-57-253-112-293-160s-61-105-61-171c2-338 524-340 789-217l-60 149c-121-48-228-72-319-72-157 0-236 44-236 133 0 41 17 74 51 98s111 57 232 101c141 51 234 101 280 151s70 111 70 183" id="ay"/><path d="M1020-150v138C933 9 849 20 768 20 527 20 406-95 406-324v-637H139v-94l267-49 77-287h105v293h438v137H588v637c0 130 64 195 192 195 62 0 142-7 240-21" id="az"/><path d="M614-1126c85 0 127 46 127 139s-42 139-127 139-127-46-127-139 42-139 127-139zm0 876c85 0 127 46 127 139S699 29 614 29 487-18 487-111s42-139 127-139" id="aA"/><path d="M614-1485c230 0 412 129 412 352 0 153-87 273-262 359 206 107 309 238 309 393 0 249-200 401-459 401-271 0-458-134-458-393 0-171 94-302 282-393-157-97-235-220-235-369 0-219 188-350 411-350zm-2 152c-137 0-233 71-231 207 0 60 16 110 49 152s95 84 186 126c155-69 232-161 232-278 1-138-96-207-236-207zm-2 1202c171 0 285-85 285-248 0-60-22-112-63-159-43-49-141-111-244-158-169 81-254 189-254 325 0 160 92 240 276 240" id="aB"/><path d="M612 20c-153 0-268-65-347-194S147-489 147-733c0-501 155-752 465-752 155 0 271 64 350 193s119 316 119 559c0 502-156 753-469 753zm0-155c98 0 165-50 216-141 86-153 87-759 0-912-51-91-118-141-216-141-97 0-162 49-212 139-85 152-84 764 0 915 50 90 115 140 212 140" id="aC"/><g id="g"><use transform="matrix(0.006510416666666667,0,0,0.006510416666666667,0,0)" xlink:href="#at"/><use transform="matrix(0.006510416666666667,0,0,0.006510416666666667,8.001302083333334,0)" xlink:href="#au"/><use transform="matrix(0.006510416666666667,0,0,0.006510416666666667,16.002604166666668,0)" xlink:href="#av"/><use transform="matrix(0.006510416666666667,0,0,0.006510416666666667,24.00390625,0)" xlink:href="#aw"/><use transform="matrix(0.006510416666666667,0,0,0.006510416666666667,32.005208333333336,0)" xlink:href="#at"/><use transform="matrix(0.006510416666666667,0,0,0.006510416666666667,40.00651041666667,0)" xlink:href="#ax"/><use transform="matrix(0.006510416666666667,0,0,0.006510416666666667,48.00781250000001,0)" xlink:href="#au"/><use transform="matrix(0.006510416666666667,0,0,0.006510416666666667,56.00911458333335,0)" xlink:href="#ay"/><use transform="matrix(0.006510416666666667,0,0,0.006510416666666667,64.01041666666667,0)" xlink:href="#az"/><use transform="matrix(0.006510416666666667,0,0,0.006510416666666667,72.01171875,0)" xlink:href="#aA"/><use transform="matrix(0.006510416666666667,0,0,0.006510416666666667,80.01302083333333,0)" xlink:href="#aB"/><use transform="matrix(0.006510416666666667,0,0,0.006510416666666667,88.01432291666666,0)" xlink:href="#aC"/><use transform="matrix(0.006510416666666667,0,0,0.006510416666666667,96.01562499999999,0)" xlink:href="#aB"/><use transform="matrix(0.006510416666666667,0,0,0.006510416666666667,104.01692708333331,0)" xlink:href="#aC"/></g><path fill="#e6e6e6" d="M839-1102c70 0 148 7 206 17v167c-112-18-268-36-363 15-129 69-208 203-208 395V0H294c-10-367 32-789-52-1082h171c21 75 41 161 48 250h5c67-152 152-270 373-270" id="aD"/><path fill="#e6e6e6" d="M615-1102c343 0 484 203 482 560-1 347-147 562-488 562-336 0-475-219-479-562-4-349 156-560 485-560zm-8 989c240 0 301-180 301-429 0-245-55-427-290-427-236 0-299 181-299 427 0 243 61 429 288 429" id="aE"/><path fill="#e6e6e6" d="M528 20c-247 0-343-132-343-381v-721h180v686c-4 177 45 284 224 277 194-8 279-136 279-336v-627h181c3 360-6 732 6 1082H885c-4-54-7-126-8-185h-3C809-64 714 20 528 20" id="aF"/><path fill="#e6e6e6" d="M682 16c-209 0-323-80-324-285v-671H190v-142h170l58-282h120v282h432v142H538v652c2 114 60 155 182 155 106 0 209-16 297-34v137C921-4 806 16 682 16" id="aG"/><path fill="#e6e6e6" d="M617-1102c355 0 481 238 477 599H322c5 222 84 388 301 388 144 0 244-59 284-166l158 45C1002-72 854 20 623 20c-342 0-490-220-490-568 0-346 151-554 484-554zm291 461c-18-192-90-328-289-328-194 0-287 128-295 328h584" id="aH"/><path fill="#e6e6e6" d="M873-819c-18-114-119-146-250-146-163 0-245 50-245 151 0 151 170 148 294 185 182 54 388 94 388 320 0 240-189 325-439 329-245 4-410-69-454-268l159-31c24 133 136 168 295 165 144-2 270-31 270-171 0-164-195-160-331-202-167-52-350-87-350-299 0-218 173-315 413-313 220 2 373 77 412 260" id="aI"/><path fill="#e6e6e6" d="M496 0v-299h235V0H496zm0-783v-299h235v299H496" id="aJ"/><g id="h"><use transform="matrix(0.006510416666666667,0,0,0.006510416666666667,0,0)" xlink:href="#aD"/><use transform="matrix(0.006510416666666667,0,0,0.006510416666666667,8.001302083333334,0)" xlink:href="#aE"/><use transform="matrix(0.006510416666666667,0,0,0.006510416666666667,16.002604166666668,0)" xlink:href="#aF"/><use transform="matrix(0.006510416666666667,0,0,0.006510416666666667,24.00390625,0)" xlink:href="#aG"/><use transform="matrix(0.006510416666666667,0,0,0.006510416666666667,32.005208333333336,0)" xlink:href="#aH"/><use transform="matrix(0.006510416666666667,0,0,0.006510416666666667,40.00651041666667,0)" xlink:href="#aI"/><use transform="matrix(0.006510416666666667,0,0,0.006510416666666667,48.00781250000001,0)" xlink:href="#aJ"/></g><path fill="#19f9d8" d="M334-464v-160h560v160H334" id="aK"/><use transform="matrix(0.006510416666666667,0,0,0.006510416666666667,0,0)" xlink:href="#aK" id="i"/><path fill="#e6e6e6" d="M839-1335c-182-6-269 67-259 253h491v142H580V0H400v-940H138v-142h262c-15-293 132-408 418-402 94 2 200 7 281 21v145c-75-10-177-14-260-17" id="aL"/><path fill="#e6e6e6" d="M904-1102c199 0 220 177 220 381V0H956v-686c-3-114 0-215-60-264-70-33-125-4-158 71-26 56-39 140-39 252V0H531v-686c-3-114-1-215-61-264-78-41-136 24-157 84-24 69-39 159-39 259V0H105c-3-360 6-732-6-1082h149c6 50 3 123 8 175 36-100 83-195 216-195 135 0 166 79 196 196 42-105 93-196 236-196" id="aM"/><g id="j"><use transform="matrix(0.006510416666666667,0,0,0.006510416666666667,0,0)" xlink:href="#aL"/><use transform="matrix(0.006510416666666667,0,0,0.006510416666666667,8.001302083333334,0)" xlink:href="#aD"/><use transform="matrix(0.006510416666666667,0,0,0.006510416666666667,16.002604166666668,0)" xlink:href="#aE"/><use transform="matrix(0.006510416666666667,0,0,0.006510416666666667,24.00390625,0)" xlink:href="#aM"/><use transform="matrix(0.006510416666666667,0,0,0.006510416666666667,32.005208333333336,0)" xlink:href="#aJ"/></g><path fill="#19f9d8" d="M648-963c-190 6-283 138-283 336V0H185v-1484h181c-2 197 6 404-9 587h3c62-120 159-205 339-205 242 0 351 135 350 381V0H868v-695c1-168-57-273-220-268" id="aN"/><path fill="#19f9d8" d="M682 16c-209 0-323-80-324-285v-671H190v-142h170l58-282h120v282h432v142H538v652c2 114 60 155 182 155 106 0 209-16 297-34v137C921-4 806 16 682 16" id="aO"/><path fill="#19f9d8" d="M698-1104c312 3 392 244 392 558 0 315-82 566-392 566-169 0-277-65-331-184h-5c8 188 2 394 4 589H185V-858c0-76-1-156-6-224h175c6 52 9 120 10 178h4c58-122 150-202 330-200zm-49 991c225 0 255-203 255-433 0-225-32-419-253-419-236 0-285 192-285 441 0 237 53 411 283 411" id="aP"/><path fill="#19f9d8" d="M873-819c-18-114-119-146-250-146-163 0-245 50-245 151 0 151 170 148 294 185 182 54 388 94 388 320 0 240-189 325-439 329-245 4-410-69-454-268l159-31c24 133 136 168 295 165 144-2 270-31 270-171 0-164-195-160-331-202-167-52-350-87-350-299 0-218 173-315 413-313 220 2 373 77 412 260" id="aQ"/><path fill="#19f9d8" d="M496 0v-299h235V0H496zm0-783v-299h235v299H496" id="aR"/><path fill="#19f9d8" d="M114 20l821-1504h178L296 20H114" id="aS"/><path fill="#19f9d8" d="M1000-272c3 95 12 159 101 161 21 0 41-3 59-7V-6c-44 10-86 16-139 16-141 2-191-84-197-217h-6C748-76 648 20 446 20c-207 0-318-120-318-322 0-266 194-348 454-354l236-4c12-191-40-305-222-305-140 0-220 47-232 172l-188-17c33-204 181-292 423-292 255 0 401 118 401 364v466zm-683-27c0 109 63 184 175 182 166-3 259-96 306-217 24-65 20-120 20-200-232 7-501-28-501 235" id="aT"/><path fill="#19f9d8" d="M496 0v-299h235V0H496" id="aU"/><path fill="#19f9d8" d="M617-1102c355 0 481 238 477 599H322c5 222 84 388 301 388 144 0 244-59 284-166l158 45C1002-72 854 20 623 20c-342 0-490-220-490-568 0-346 151-554 484-554zm291 461c-18-192-90-328-289-328-194 0-287 128-295 328h584" id="aV"/><path fill="#19f9d8" d="M932 0L611-444 288 0H94l415-556-397-526h199l300 421 298-421h201L713-558 1133 0H932" id="aW"/><path fill="#19f9d8" d="M904-1102c199 0 220 177 220 381V0H956v-686c-3-114 0-215-60-264-70-33-125-4-158 71-26 56-39 140-39 252V0H531v-686c-3-114-1-215-61-264-78-41-136 24-157 84-24 69-39 159-39 259V0H105c-3-360 6-732-6-1082h149c6 50 3 123 8 175 36-100 83-195 216-195 135 0 166 79 196 196 42-105 93-196 236-196" id="aX"/><path fill="#19f9d8" d="M736-142h380V0H134v-142h422v-1200H267v-142h469v1342" id="aY"/><path fill="#19f9d8" d="M631 20c-350 0-501-215-501-562 0-355 162-560 502-560 250 0 399 118 446 323l-192 14c-23-124-109-196-262-196-242 0-305 171-305 415 1 245 61 427 304 427 151 0 248-77 267-215l190 12C1039-107 883 20 631 20" id="aZ"/><path fill="#19f9d8" d="M615-1102c343 0 484 203 482 560-1 347-147 562-488 562-336 0-475-219-479-562-4-349 156-560 485-560zm-8 989c240 0 301-180 301-429 0-245-55-427-290-427-236 0-299 181-299 427 0 243 61 429 288 429" id="ba"/><g id="k"><use transform="matrix(0.006510416666666667,0,0,0.006510416666666667,0,0)" xlink:href="#aN"/><use transform="matrix(0.006510416666666667,0,0,0.006510416666666667,8.001302083333334,0)" xlink:href="#aO"/><use transform="matrix(0.006510416666666667,0,0,0.006510416666666667,16.002604166666668,0)" xlink:href="#aO"/><use transform="matrix(0.006510416666666667,0,0,0.006510416666666667,24.00390625,0)" xlink:href="#aP"/><use transform="matrix(0.006510416666666667,0,0,0.006510416666666667,32.005208333333336,0)" xlink:href="#aQ"/><use transform="matrix(0.006510416666666667,0,0,0.006510416666666667,40.00651041666667,0)" xlink:href="#aR"/><use transform="matrix(0.006510416666666667,0,0,0.006510416666666667,48.00781250000001,0)" xlink:href="#aS"/><use transform="matrix(0.006510416666666667,0,0,0.006510416666666667,56.00911458333335,0)" xlink:href="#aS"/><use transform="matrix(0.006510416666666667,0,0,0.006510416666666667,64.01041666666667,0)" xlink:href="#aT"/><use transform="matrix(0.006510416666666667,0,0,0.006510416666666667,72.01171875,0)" xlink:href="#aP"/><use transform="matrix(0.006510416666666667,0,0,0.006510416666666667,80.01302083333333,0)" xlink:href="#aP"/><use transform="matrix(0.006510416666666667,0,0,0.006510416666666667,88.01432291666666,0)" xlink:href="#aU"/><use transform="matrix(0.006510416666666667,0,0,0.006510416666666667,96.01562499999999,0)" xlink:href="#aV"/><use transform="matrix(0.006510416666666667,0,0,0.006510416666666667,104.01692708333331,0)" xlink:href="#aW"/><use transform="matrix(0.006510416666666667,0,0,0.006510416666666667,112.01822916666664,0)" xlink:href="#aT"/><use transform="matrix(0.006510416666666667,0,0,0.006510416666666667,120.01953124999999,0)" xlink:href="#aX"/><use transform="matrix(0.006510416666666667,0,0,0.006510416666666667,128.02083333333331,0)" xlink:href="#aP"/><use transform="matrix(0.006510416666666667,0,0,0.006510416666666667,136.02213541666666,0)" xlink:href="#aY"/><use transform="matrix(0.006510416666666667,0,0,0.006510416666666667,144.0234375,0)" xlink:href="#aV"/><use transform="matrix(0.006510416666666667,0,0,0.006510416666666667,152.02473958333334,0)" xlink:href="#aU"/><use transform="matrix(0.006510416666666667,0,0,0.006510416666666667,160.02604166666669,0)" xlink:href="#aZ"/><use transform="matrix(0.006510416666666667,0,0,0.006510416666666667,168.02734375000003,0)" xlink:href="#ba"/><use transform="matrix(0.006510416666666667,0,0,0.006510416666666667,176.02864583333337,0)" xlink:href="#aX"/></g><g id="m"><use transform="matrix(0.006510416666666667,0,0,0.006510416666666667,0,0)" xlink:href="#aG"/><use transform="matrix(0.006510416666666667,0,0,0.006510416666666667,8.001302083333334,0)" xlink:href="#aE"/><use transform="matrix(0.006510416666666667,0,0,0.006510416666666667,16.002604166666668,0)" xlink:href="#aJ"/></g><use transform="matrix(0.006510416666666667,0,0,0.006510416666666667,0,0)" xlink:href="#aK" id="o"/><path fill="#19f9d8" d="M809-709c168 33 285 134 285 331 0 277-191 398-480 398-287 0-481-120-481-396 0-192 118-296 281-331v-4c-145-39-248-139-248-313 0-238 192-346 444-346 211 0 357 75 422 217 19 41 27 86 27 131 0 172-101 274-250 309v4zm-197-70c168 0 260-73 260-233 0-158-100-224-262-224-160 0-260 68-260 224 0 155 97 232 262 233zm4 664c194 1 291-91 291-280 0-172-115-249-297-249-178 0-291 85-291 253 0 186 106 275 297 276" id="bb"/><path fill="#19f9d8" d="M1065-1013c47 164 49 500-1 665C999-130 875 20 611 20c-377 0-484-300-487-695-2-245 41-425 141-551 77-98 191-144 352-144 261 0 386 140 448 357zM741-155c199-92 203-504 159-785-26-168-96-284-283-284-281 0-308 256-311 549-2 181 18 324 80 428 46 77 115 118 227 120 47 0 90-10 128-28" id="bc"/><g id="p"><use transform="matrix(0.006510416666666667,0,0,0.006510416666666667,0,0)" xlink:href="#aN"/><use transform="matrix(0.006510416666666667,0,0,0.006510416666666667,8.001302083333334,0)" xlink:href="#aO"/><use transform="matrix(0.006510416666666667,0,0,0.006510416666666667,16.002604166666668,0)" xlink:href="#aO"/><use transform="matrix(0.006510416666666667,0,0,0.006510416666666667,24.00390625,0)" xlink:href="#aP"/><use transform="matrix(0.006510416666666667,0,0,0.006510416666666667,32.005208333333336,0)" xlink:href="#aR"/><use transform="matrix(0.006510416666666667,0,0,0.006510416666666667,40.00651041666667,0)" xlink:href="#aS"/><use transform="matrix(0.006510416666666667,0,0,0.006510416666666667,48.00781250000001,0)" xlink:href="#aS"/><use transform="matrix(0.006510416666666667,0,0,0.006510416666666667,56.00911458333335,0)" xlink:href="#aY"/><use transform="matrix(0.006510416666666667,0,0,0.006510416666666667,64.01041666666667,0)" xlink:href="#ba"/><use transform="matrix(0.006510416666666667,0,0,0.006510416666666667,72.01171875,0)" xlink:href="#aZ"/><use transform="matrix(0.006510416666666667,0,0,0.006510416666666667,80.01302083333333,0)" xlink:href="#aT"/><use transform="matrix(0.006510416666666667,0,0,0.006510416666666667,88.01432291666666,0)" xlink:href="#aY"/><use transform="matrix(0.006510416666666667,0,0,0.006510416666666667,96.01562499999999,0)" xlink:href="#aN"/><use transform="matrix(0.006510416666666667,0,0,0.006510416666666667,104.01692708333331,0)" xlink:href="#ba"/><use transform="matrix(0.006510416666666667,0,0,0.006510416666666667,112.01822916666664,0)" xlink:href="#aQ"/><use transform="matrix(0.006510416666666667,0,0,0.006510416666666667,120.01953124999999,0)" xlink:href="#aO"/><use transform="matrix(0.006510416666666667,0,0,0.006510416666666667,128.02083333333331,0)" xlink:href="#aR"/><use transform="matrix(0.006510416666666667,0,0,0.006510416666666667,136.02213541666666,0)" xlink:href="#bb"/><use transform="matrix(0.006510416666666667,0,0,0.006510416666666667,144.0234375,0)" xlink:href="#bc"/><use transform="matrix(0.006510416666666667,0,0,0.006510416666666667,152.02473958333334,0)" xlink:href="#bb"/><use transform="matrix(0.006510416666666667,0,0,0.006510416666666667,160.02604166666669,0)" xlink:href="#bc"/></g><path fill="#19f9d8" d="M148-1120c216-7 379-89 463-229h166v1204h353V0H157v-145h439v-1021c-79 124-254 184-448 194v-148" id="bd"/><g id="q"><use transform="matrix(0.006510416666666667,0,0,0.006510416666666667,0,0)" xlink:href="#aN"/><use transform="matrix(0.006510416666666667,0,0,0.006510416666666667,8.001302083333334,0)" xlink:href="#aO"/><use transform="matrix(0.006510416666666667,0,0,0.006510416666666667,16.002604166666668,0)" xlink:href="#aO"/><use transform="matrix(0.006510416666666667,0,0,0.006510416666666667,24.00390625,0)" xlink:href="#aP"/><use transform="matrix(0.006510416666666667,0,0,0.006510416666666667,32.005208333333336,0)" xlink:href="#aR"/><use transform="matrix(0.006510416666666667,0,0,0.006510416666666667,40.00651041666667,0)" xlink:href="#aS"/><use transform="matrix(0.006510416666666667,0,0,0.006510416666666667,48.00781250000001,0)" xlink:href="#aS"/><use transform="matrix(0.006510416666666667,0,0,0.006510416666666667,56.00911458333335,0)" xlink:href="#aY"/><use transform="matrix(0.006510416666666667,0,0,0.006510416666666667,64.01041666666667,0)" xlink:href="#ba"/><use transform="matrix(0.006510416666666667,0,0,0.006510416666666667,72.01171875,0)" xlink:href="#aZ"/><use transform="matrix(0.006510416666666667,0,0,0.006510416666666667,80.01302083333333,0)" xlink:href="#aT"/><use transform="matrix(0.006510416666666667,0,0,0.006510416666666667,88.01432291666666,0)" xlink:href="#aY"/><use transform="matrix(0.006510416666666667,0,0,0.006510416666666667,96.01562499999999,0)" xlink:href="#aN"/><use transform="matrix(0.006510416666666667,0,0,0.006510416666666667,104.01692708333331,0)" xlink:href="#ba"/><use transform="matrix(0.006510416666666667,0,0,0.006510416666666667,112.01822916666664,0)" xlink:href="#aQ"/><use transform="matrix(0.006510416666666667,0,0,0.006510416666666667,120.01953124999999,0)" xlink:href="#aO"/><use transform="matrix(0.006510416666666667,0,0,0.006510416666666667,128.02083333333331,0)" xlink:href="#aR"/><use transform="matrix(0.006510416666666667,0,0,0.006510416666666667,136.02213541666666,0)" xlink:href="#bb"/><use transform="matrix(0.006510416666666667,0,0,0.006510416666666667,144.0234375,0)" xlink:href="#bc"/><use transform="matrix(0.006510416666666667,0,0,0.006510416666666667,152.02473958333334,0)" xlink:href="#bb"/><use transform="matrix(0.006510416666666667,0,0,0.006510416666666667,160.02604166666669,0)" xlink:href="#bd"/></g><path fill="#e6e6e6" d="M698-1104c312 3 392 244 392 558 0 315-82 566-392 566-169 0-277-65-331-184h-5c8 188 2 394 4 589H185V-858c0-76-1-156-6-224h175c6 52 9 120 10 178h4c58-122 150-202 330-200zm-49 991c225 0 255-203 255-433 0-225-32-419-253-419-236 0-285 192-285 441 0 237 53 411 283 411" id="be"/><path fill="#e6e6e6" d="M736-142h380V0H134v-142h422v-1200H267v-142h469v1342" id="bf"/><path fill="#e6e6e6" d="M745-142h380V0H143v-142h422v-798H246v-142h499v940zM545-1292v-192h200v192H545" id="bg"/><path fill="#e6e6e6" d="M631 20c-350 0-501-215-501-562 0-355 162-560 502-560 250 0 399 118 446 323l-192 14c-23-124-109-196-262-196-242 0-305 171-305 415 1 245 61 427 304 427 151 0 248-77 267-215l190 12C1039-107 883 20 631 20" id="bh"/><path fill="#e6e6e6" d="M168 279c222 39 310-114 368-290L66-1082h192c120 299 249 590 362 896 115-301 235-597 351-896h190L705 0c-65 164-130 320-275 396-67 36-177 35-262 18V279" id="bi"/><g id="r"><use transform="matrix(0.006510416666666667,0,0,0.006510416666666667,0,0)" xlink:href="#be"/><use transform="matrix(0.006510416666666667,0,0,0.006510416666666667,8.001302083333334,0)" xlink:href="#aE"/><use transform="matrix(0.006510416666666667,0,0,0.006510416666666667,16.002604166666668,0)" xlink:href="#bf"/><use transform="matrix(0.006510416666666667,0,0,0.006510416666666667,24.00390625,0)" xlink:href="#bg"/><use transform="matrix(0.006510416666666667,0,0,0.006510416666666667,32.005208333333336,0)" xlink:href="#bh"/><use transform="matrix(0.006510416666666667,0,0,0.006510416666666667,40.00651041666667,0)" xlink:href="#bi"/><use transform="matrix(0.006510416666666667,0,0,0.006510416666666667,48.00781250000001,0)" xlink:href="#aJ"/></g><g id="s"><use transform="matrix(0.006510416666666667,0,0,0.006510416666666667,0,0)" xlink:href="#aU"/><use transform="matrix(0.006510416666666667,0,0,0.006510416666666667,8.001302083333334,0)" xlink:href="#aU"/><use transform="matrix(0.006510416666666667,0,0,0.006510416666666667,16.002604166666668,0)" xlink:href="#aU"/></g><path fill="#bbb" d="M930-833l-67 317h260v108H840L752 0H642l86-408H365L281 0H171l84-408H54v-108h225l67-317H105v-108h263l89-408h110l-88 408h363l88-408h110l-88 408h211v108H930zm-471 0l-69 317h362l67-317H459" id="bj"/><use transform="matrix(0.006510416666666667,0,0,0.006510416666666667,0,0)" xlink:href="#bj" id="t"/><path fill="#bbb" d="M1000-272c3 95 12 159 101 161 21 0 41-3 59-7V-6c-44 10-86 16-139 16-141 2-191-84-197-217h-6C748-76 648 20 446 20c-207 0-318-120-318-322 0-266 194-348 454-354l236-4c12-191-40-305-222-305-140 0-220 47-232 172l-188-17c33-204 181-292 423-292 255 0 401 118 401 364v466zm-683-27c0 109 63 184 175 182 166-3 259-96 306-217 24-65 20-120 20-200-232 7-501-28-501 235" id="bk"/><path fill="#bbb" d="M736-142h380V0H134v-142h422v-1200H267v-142h469v1342" id="bl"/><path fill="#bbb" d="M615-1102c343 0 484 203 482 560-1 347-147 562-488 562-336 0-475-219-479-562-4-349 156-560 485-560zm-8 989c240 0 301-180 301-429 0-245-55-427-290-427-236 0-299 181-299 427 0 243 61 429 288 429" id="bm"/><path fill="#bbb" d="M1018 0H814c-67-224-138-444-200-673C552-442 476-224 407 0H204L21-1082h178c43 310 105 601 126 933 54-225 128-425 193-638h193c63 212 134 415 185 638 22-336 90-622 136-933h176" id="bn"/><g id="u"><use transform="matrix(0.006510416666666667,0,0,0.006510416666666667,0,0)" xlink:href="#bk"/><use transform="matrix(0.006510416666666667,0,0,0.006510416666666667,8.001302083333334,0)" xlink:href="#bl"/><use transform="matrix(0.006510416666666667,0,0,0.006510416666666667,16.002604166666668,0)" xlink:href="#bl"/><use transform="matrix(0.006510416666666667,0,0,0.006510416666666667,24.00390625,0)" xlink:href="#bm"/><use transform="matrix(0.006510416666666667,0,0,0.006510416666666667,32.005208333333336,0)" xlink:href="#bn"/></g><path fill="#bbb" d="M802-711c201 25 350 118 350 331C1152-95 921 0 634 0H162v-1349c401 9 908-74 908 327 0 184-111 275-268 311zm-224-69c174-2 300-51 300-218 0-163-124-198-302-198H353v416h225zM353-153c281-2 612 44 606-244-5-271-329-233-606-234v478" id="bo"/><path fill="#bbb" d="M365-904c58-129 161-200 334-200 130 0 228 46 293 138s98 233 98 420c0 189-34 331-102 425S824 20 698 20c-170 0-275-64-336-184 0 55-3 116-9 164H179c5-68 6-147 6-223v-1261h180c-2 193 4 394-4 580h4zm283 791c221 0 256-197 256-427 0-229-34-425-254-425-236 0-285 195-285 441 0 237 53 411 283 411" id="bp"/><g id="v"><use transform="matrix(0.006510416666666667,0,0,0.006510416666666667,0,0)" xlink:href="#bo"/><use transform="matrix(0.006510416666666667,0,0,0.006510416666666667,8.001302083333334,0)" xlink:href="#bm"/><use transform="matrix(0.006510416666666667,0,0,0.006510416666666667,16.002604166666668,0)" xlink:href="#bp"/></g><path fill="#e6e6e6" d="M1000-272c3 95 12 159 101 161 21 0 41-3 59-7V-6c-44 10-86 16-139 16-141 2-191-84-197-217h-6C748-76 648 20 446 20c-207 0-318-120-318-322 0-266 194-348 454-354l236-4c12-191-40-305-222-305-140 0-220 47-232 172l-188-17c33-204 181-292 423-292 255 0 401 118 401 364v466zm-683-27c0 109 63 184 175 182 166-3 259-96 306-217 24-65 20-120 20-200-232 7-501-28-501 235" id="bq"/><path fill="#e6e6e6" d="M-5 220v-96h1238v96H-5" id="br"/><path fill="#e6e6e6" d="M706-1102c241 0 344 136 343 381V0H868v-695c1-168-57-273-220-268-190 6-283 138-283 336V0H185c-3-360 6-732-6-1082h170c4 54 7 126 8 185h3c63-121 164-204 346-205" id="bs"/><g id="w"><use transform="matrix(0.006510416666666667,0,0,0.006510416666666667,0,0)" xlink:href="#aF"/><use transform="matrix(0.006510416666666667,0,0,0.006510416666666667,8.001302083333334,0)" xlink:href="#be"/><use transform="matrix(0.006510416666666667,0,0,0.006510416666666667,16.002604166666668,0)" xlink:href="#aI"/><use transform="matrix(0.006510416666666667,0,0,0.006510416666666667,24.00390625,0)" xlink:href="#aG"/><use transform="matrix(0.006510416666666667,0,0,0.006510416666666667,32.005208333333336,0)" xlink:href="#aD"/><use transform="matrix(0.006510416666666667,0,0,0.006510416666666667,40.00651041666667,0)" xlink:href="#aH"/><use transform="matrix(0.006510416666666667,0,0,0.006510416666666667,48.00781250000001,0)" xlink:href="#bq"/><use transform="matrix(0.006510416666666667,0,0,0.006510416666666667,56.00911458333335,0)" xlink:href="#aM"/><use transform="matrix(0.006510416666666667,0,0,0.006510416666666667,64.01041666666667,0)" xlink:href="#br"/><use transform="matrix(0.006510416666666667,0,0,0.006510416666666667,72.01171875,0)" xlink:href="#aG"/><use transform="matrix(0.006510416666666667,0,0,0.006510416666666667,80.01302083333333,0)" xlink:href="#aF"/><use transform="matrix(0.006510416666666667,0,0,0.006510416666666667,88.01432291666666,0)" xlink:href="#bs"/><use transform="matrix(0.006510416666666667,0,0,0.006510416666666667,96.01562499999999,0)" xlink:href="#bs"/><use transform="matrix(0.006510416666666667,0,0,0.006510416666666667,104.01692708333331,0)" xlink:href="#aH"/><use transform="matrix(0.006510416666666667,0,0,0.006510416666666667,112.01822916666664,0)" xlink:href="#bf"/><use transform="matrix(0.006510416666666667,0,0,0.006510416666666667,120.01953124999999,0)" xlink:href="#aJ"/></g><path fill="#e6e6e6" d="M648-963c-190 6-283 138-283 336V0H185v-1484h181c-2 197 6 404-9 587h3c62-120 159-205 339-205 242 0 351 135 350 381V0H868v-695c1-168-57-273-220-268" id="bt"/><g id="x"><use transform="matrix(0.006510416666666667,0,0,0.006510416666666667,0,0)" xlink:href="#aI"/><use transform="matrix(0.006510416666666667,0,0,0.006510416666666667,8.001302083333334,0)" xlink:href="#aI"/><use transform="matrix(0.006510416666666667,0,0,0.006510416666666667,16.002604166666668,0)" xlink:href="#bt"/><use transform="matrix(0.006510416666666667,0,0,0.006510416666666667,24.00390625,0)" xlink:href="#br"/><use transform="matrix(0.006510416666666667,0,0,0.006510416666666667,32.005208333333336,0)" xlink:href="#be"/><use transform="matrix(0.006510416666666667,0,0,0.006510416666666667,40.00651041666667,0)" xlink:href="#aE"/><use transform="matrix(0.006510416666666667,0,0,0.006510416666666667,48.00781250000001,0)" xlink:href="#bf"/><use transform="matrix(0.006510416666666667,0,0,0.006510416666666667,56.00911458333335,0)" xlink:href="#bg"/><use transform="matrix(0.006510416666666667,0,0,0.006510416666666667,64.01041666666667,0)" xlink:href="#bh"/><use transform="matrix(0.006510416666666667,0,0,0.006510416666666667,72.01171875,0)" xlink:href="#bi"/><use transform="matrix(0.006510416666666667,0,0,0.006510416666666667,80.01302083333333,0)" xlink:href="#aJ"/></g><g id="z"><use transform="matrix(0.006510416666666667,0,0,0.006510416666666667,0,0)" xlink:href="#aU"/><use transform="matrix(0.006510416666666667,0,0,0.006510416666666667,8.001302083333334,0)" xlink:href="#aU"/><use transform="matrix(0.006510416666666667,0,0,0.006510416666666667,16.002604166666668,0)" xlink:href="#aU"/></g><path fill="#bbb" d="M1034 0L896-382H333L196 0H0l510-1349h217L1228 0h-194zM847-531c-77-225-157-447-231-674-69 231-154 451-232 674h463" id="bu"/><path fill="#bbb" d="M745-142h380V0H143v-142h422v-798H246v-142h499v940zM545-1292v-192h200v192H545" id="bv"/><path fill="#bbb" d="M631 20c-350 0-501-215-501-562 0-355 162-560 502-560 250 0 399 118 446 323l-192 14c-23-124-109-196-262-196-242 0-305 171-305 415 1 245 61 427 304 427 151 0 248-77 267-215l190 12C1039-107 883 20 631 20" id="bw"/><path fill="#bbb" d="M617-1102c355 0 481 238 477 599H322c5 222 84 388 301 388 144 0 244-59 284-166l158 45C1002-72 854 20 623 20c-342 0-490-220-490-568 0-346 151-554 484-554zm291 461c-18-192-90-328-289-328-194 0-287 128-295 328h584" id="bx"/><g id="A"><use transform="matrix(0.006510416666666667,0,0,0.006510416666666667,0,0)" xlink:href="#bu"/><use transform="matrix(0.006510416666666667,0,0,0.006510416666666667,8.001302083333334,0)" xlink:href="#bl"/><use transform="matrix(0.006510416666666667,0,0,0.006510416666666667,16.002604166666668,0)" xlink:href="#bv"/><use transform="matrix(0.006510416666666667,0,0,0.006510416666666667,24.00390625,0)" xlink:href="#bw"/><use transform="matrix(0.006510416666666667,0,0,0.006510416666666667,32.005208333333336,0)" xlink:href="#bx"/></g><path fill="#6f7681" d="M148-1120c216-7 379-89 463-229h166v1204h353V0H157v-145h439v-1021c-79 124-254 184-448 194v-148" id="by"/><use transform="matrix(0.006510416666666667,0,0,0.006510416666666667,0,0)" xlink:href="#by" id="B"/><path fill="#6f7681" d="M611-1370c266 0 451 106 451 368 0 147-77 243-154 327-132 144-316 255-451 395-42 44-75 87-96 134h723V0H144v-117c124-264 387-411 582-603 73-72 151-147 151-271 0-161-104-231-266-231-163 0-249 90-268 238l-184-17c35-233 185-369 452-369" id="bz"/><use transform="matrix(0.006510416666666667,0,0,0.006510416666666667,0,0)" xlink:href="#bz" id="C"/><path fill="#6f7681" d="M1060-1016c0 191-128 285-295 323v4c154 18 262 91 313 209 14 35 21 72 21 110 0 277-194 390-478 390-292 0-457-129-493-382l186-17c24 161 121 250 307 250 172 1 298-80 291-247-8-208-220-239-446-233v-156c217 9 409-34 409-232 0-152-102-225-264-225-159 0-264 88-278 233l-181-14c33-239 196-367 461-367 264 0 447 102 447 354" id="bA"/><use transform="matrix(0.006510416666666667,0,0,0.006510416666666667,0,0)" xlink:href="#bA" id="D"/><path fill="#6f7681" d="M937-319V0H757v-319H103v-140l635-890h199v888h188v142H937zm-180-835L257-461h500v-693" id="bB"/><use transform="matrix(0.006510416666666667,0,0,0.006510416666666667,0,0)" xlink:href="#bB" id="E"/><path fill="#6f7681" d="M353-779c69-51 166-92 291-90 218 3 357 100 423 255 21 52 32 109 32 170 0 305-189 464-500 464-268 0-424-116-471-335l182-21c35 130 124 212 293 209 198-4 309-114 309-313 0-182-118-282-305-282-120 0-198 45-262 101H169l47-728h801v145H382" id="bC"/><use transform="matrix(0.006510416666666667,0,0,0.006510416666666667,0,0)" xlink:href="#bC" id="F"/><path fill="#6f7681" d="M672-881c271 0 424 163 424 435 0 291-160 466-455 466-367 0-490-287-490-662 0-324 85-568 293-680 129-70 351-59 460 16 73 50 125 123 153 223l-172 31c-31-108-107-172-232-172-259 0-316 252-323 529 59-113 178-186 342-186zm-37 756c186 0 278-124 278-313s-96-304-284-304c-163 0-281 93-281 261 0 157 65 270 168 327 35 19 75 29 119 29" id="bD"/><use transform="matrix(0.006510416666666667,0,0,0.006510416666666667,0,0)" xlink:href="#bD" id="G"/><path fill="#6f7681" d="M1069-1210C890-948 720-664 634-316c-25 105-38 210-38 316H408c9-385 153-667 302-925 57-98 120-190 185-279H158v-145h911v139" id="bE"/><use transform="matrix(0.006510416666666667,0,0,0.006510416666666667,0,0)" xlink:href="#bE" id="H"/><path fill="#6f7681" d="M809-709c168 33 285 134 285 331 0 277-191 398-480 398-287 0-481-120-481-396 0-192 118-296 281-331v-4c-145-39-248-139-248-313 0-238 192-346 444-346 211 0 357 75 422 217 19 41 27 86 27 131 0 172-101 274-250 309v4zm-197-70c168 0 260-73 260-233 0-158-100-224-262-224-160 0-260 68-260 224 0 155 97 232 262 233zm4 664c194 1 291-91 291-280 0-172-115-249-297-249-178 0-291 85-291 253 0 186 106 275 297 276" id="bF"/><use transform="matrix(0.006510416666666667,0,0,0.006510416666666667,0,0)" xlink:href="#bF" id="I"/><path fill="#6f7681" d="M141-911c0-296 172-459 469-459 157 0 276 55 356 166s121 278 121 501c-1 324-87 567-297 677-134 70-367 56-475-22-71-52-117-126-145-226l172-27c34 111 103 176 238 176 187 0 261-138 304-298 16-65 24-141 25-227-59 121-177 199-350 199-275 0-418-184-418-460zm461 318c168 0 289-96 289-269 0-158-59-275-163-332-36-20-77-30-124-30-187 0-280 125-280 313s90 318 278 318" id="bG"/><use transform="matrix(0.006510416666666667,0,0,0.006510416666666667,0,0)" xlink:href="#bG" id="J"/><path fill="#6f7681" d="M1065-1013c47 164 49 500-1 665C999-130 875 20 611 20c-377 0-484-300-487-695-2-245 41-425 141-551 77-98 191-144 352-144 261 0 386 140 448 357zM741-155c199-92 203-504 159-785-26-168-96-284-283-284-281 0-308 256-311 549-2 181 18 324 80 428 46 77 115 118 227 120 47 0 90-10 128-28" id="bH"/><g id="K"><use transform="matrix(0.006510416666666667,0,0,0.006510416666666667,0,0)" xlink:href="#by"/><use transform="matrix(0.006510416666666667,0,0,0.006510416666666667,8.001302083333334,0)" xlink:href="#bH"/></g><path d="M338-670V0H158v-1490h180v566c73-149 190-208 336-208 226 0 379 139 379 422V0H872v-695c0-172-96-275-252-275-161 0-282 109-282 300" id="bI"/><path d="M598-1118v154H368v674c0 100 37 144 132 144 23 0 62-6 92-12L629-6c-37 13-88 20-134 20-193 0-307-107-307-290v-688H20v-154h168v-266h180v266h230" id="bJ"/><path d="M158 418v-1536h174v179h20c37-59 106-193 324-193 279 0 474 222 474 576 0 356-194 580-473 580-213 0-288-135-325-197h-14v591H158zm492-555c209 0 317-186 317-421 0-232-105-413-317-413-206 0-314 166-314 413 0 249 111 421 314 421" id="bK"/><path d="M538 24C308 24 148-78 108-271l171-41c32 123 123 178 257 178 156 0 256-77 256-169 0-77-54-128-164-154l-186-44c-203-48-300-148-300-305 0-192 176-326 414-326 230 0 351 112 402 269l-163 42c-31-80-94-158-238-158-133 0-233 69-233 162 0 83 57 129 188 160l169 40c203 48 298 149 298 302 0 196-179 339-441 339" id="bL"/><path d="M295 13c-75 0-135-60-135-135s60-135 135-135 135 60 135 135S370 13 295 13zm0-809c-75 0-135-60-135-135s60-135 135-135 135 60 135 135-60 135-135 135" id="bM"/><path d="M692-1560L212 224H46l480-1784h166" id="bN"/><path d="M471 26C259 26 90-98 90-318c0-256 228-303 435-329 202-27 287-16 287-108 0-139-79-219-234-219-161 0-248 86-283 164l-173-57c86-203 278-265 451-265 150 0 419 46 419 395V0H815v-152h-12C765-73 660 26 471 26zm31-159c199 0 310-134 310-271v-155c-30 35-226 55-295 64-131 17-246 59-246 186 0 116 97 176 231 176" id="bO"/><path d="M295 13c-75 0-135-60-135-135s60-135 135-135 135 60 135 135S370 13 295 13" id="bP"/><path d="M65 0l393-574-370-544h210c88 136 192 297 267 435 67-142 176-302 264-435h206L661-564 1053 0H844c-94-144-206-310-287-458C484-308 366-142 273 0H65" id="bQ"/><g id="M"><use transform="matrix(0.007595486111111112,0,0,0.007595486111111112,0,0)" xlink:href="#bI"/><use transform="matrix(0.007595486111111112,0,0,0.007595486111111112,9.198133680555557,0)" xlink:href="#bJ"/><use transform="matrix(0.007595486111111112,0,0,0.007595486111111112,13.907335069444446,0)" xlink:href="#bJ"/><use transform="matrix(0.007595486111111112,0,0,0.007595486111111112,18.996310763888893,0)" xlink:href="#bK"/><use transform="matrix(0.007595486111111112,0,0,0.007595486111111112,28.52105034722223,0)" xlink:href="#bL"/><use transform="matrix(0.007595486111111112,0,0,0.007595486111111112,36.73177083333334,0)" xlink:href="#bM"/><use transform="matrix(0.007595486111111112,0,0,0.007595486111111112,41.2131076388889,0)" xlink:href="#bN"/><use transform="matrix(0.007595486111111112,0,0,0.007595486111111112,46.8185763888889,0)" xlink:href="#bN"/><use transform="matrix(0.007595486111111112,0,0,0.007595486111111112,52.4240451388889,0)" xlink:href="#bO"/><use transform="matrix(0.007595486111111112,0,0,0.007595486111111112,61.15885416666668,0)" xlink:href="#bK"/><use transform="matrix(0.007595486111111112,0,0,0.007595486111111112,70.68359375000001,0)" xlink:href="#bK"/><use transform="matrix(0.007595486111111112,0,0,0.007595486111111112,80.20833333333334,0)" xlink:href="#bP"/><use transform="matrix(0.007595486111111112,0,0,0.007595486111111112,84.6896701388889,0)" xlink:href="#aj"/><use transform="matrix(0.007595486111111112,0,0,0.007595486111111112,93.40928819444446,0)" xlink:href="#bQ"/><use transform="matrix(0.007595486111111112,0,0,0.007595486111111112,101.90104166666669,0)" xlink:href="#bO"/><use transform="matrix(0.007595486111111112,0,0,0.007595486111111112,110.63585069444446,0)" xlink:href="#am"/><use transform="matrix(0.007595486111111112,0,0,0.007595486111111112,124.26215277777779,0)" xlink:href="#bK"/><use transform="matrix(0.007595486111111112,0,0,0.007595486111111112,133.78689236111111,0)" xlink:href="#ag"/><use transform="matrix(0.007595486111111112,0,0,0.007595486111111112,137.55425347222223,0)" xlink:href="#aj"/><use transform="matrix(0.007595486111111112,0,0,0.007595486111111112,146.62326388888889,0)" xlink:href="#bP"/><use transform="matrix(0.007595486111111112,0,0,0.007595486111111112,151.10460069444443,0)" xlink:href="#ai"/><use transform="matrix(0.007595486111111112,0,0,0.007595486111111112,159.99131944444443,0)" xlink:href="#al"/><use transform="matrix(0.007595486111111112,0,0,0.007595486111111112,169.31857638888889,0)" xlink:href="#am"/></g><path d="M180 0v-1490h190v644h782v-644h190V0h-190v-678H370V0H180" id="bR"/><g id="N"><use transform="matrix(0.007595486111111112,0,0,0.007595486111111112,0,0)" xlink:href="#ar"/><use transform="matrix(0.007595486111111112,0,0,0.007595486111111112,9.980468750000002,0)" xlink:href="#ar"/><use transform="matrix(0.007595486111111112,0,0,0.007595486111111112,19.960937500000004,0)" xlink:href="#bR"/></g><path fill="#008a0e" d="M338-1490V0H158v-1490h180" id="bS"/><path fill="#008a0e" d="M613 24c-304 0-509-231-509-576 0-350 205-580 509-580 305 0 511 230 511 580 0 345-206 576-511 576zm0-161c226 0 329-195 329-415 0-222-103-419-329-419-223 0-326 196-326 419 0 220 103 415 326 415" id="bT"/><path fill="#008a0e" d="M613 24c-304 0-509-231-509-576 0-350 205-580 509-580 216 0 392 114 453 309l-173 49c-33-115-133-197-280-197-223 0-326 196-326 419 0 220 103 415 326 415 150 0 252-85 285-206l172 49C1010-95 832 24 613 24" id="bU"/><path fill="#008a0e" d="M471 26C259 26 90-98 90-318c0-256 228-303 435-329 202-27 287-16 287-108 0-139-79-219-234-219-161 0-248 86-283 164l-173-57c86-203 278-265 451-265 150 0 419 46 419 395V0H815v-152h-12C765-73 660 26 471 26zm31-159c199 0 310-134 310-271v-155c-30 35-226 55-295 64-131 17-246 59-246 186 0 116 97 176 231 176" id="bV"/><path fill="#008a0e" d="M338-670V0H158v-1490h180v566c73-149 190-208 336-208 226 0 379 139 379 422V0H872v-695c0-172-96-275-252-275-161 0-282 109-282 300" id="bW"/><path fill="#008a0e" d="M538 24C308 24 148-78 108-271l171-41c32 123 123 178 257 178 156 0 256-77 256-169 0-77-54-128-164-154l-186-44c-203-48-300-148-300-305 0-192 176-326 414-326 230 0 351 112 402 269l-163 42c-31-80-94-158-238-158-133 0-233 69-233 162 0 83 57 129 188 160l169 40c203 48 298 149 298 302 0 196-179 339-441 339" id="bX"/><path fill="#008a0e" d="M598-1118v154H368v674c0 100 37 144 132 144 23 0 62-6 92-12L629-6c-37 13-88 20-134 20-193 0-307-107-307-290v-688H20v-154h168v-266h180v266h230" id="bY"/><path fill="#008a0e" d="M295 13c-75 0-135-60-135-135s60-135 135-135 135 60 135 135S370 13 295 13zm0-809c-75 0-135-60-135-135s60-135 135-135 135 60 135 135-60 135-135 135" id="bZ"/><path fill="#008a0e" d="M633 20c-303 0-511-173-511-416 0-188 124-348 291-378v-8c-145-37-237-174-237-332 0-227 192-396 457-396 261 0 456 169 456 396 0 158-94 295-235 332v8c162 30 291 190 291 378 0 243-212 416-512 416zm0-165c197 0 322-103 322-261 0-165-138-283-322-283-188 0-324 118-324 283 0 158 123 261 324 261zm0-703c157 0 272-101 272-252 0-149-110-246-272-246-165 0-273 97-273 246 0 151 112 252 273 252" id="ca"/><path fill="#008a0e" d="M646 20c-332 0-524-278-524-764 0-483 194-766 524-766s524 283 524 766c0 485-191 764-524 764zm0-166c218 0 341-220 341-598 0-380-123-601-341-601s-341 222-341 601c0 378 123 598 341 598" id="cb"/><g id="O"><use transform="matrix(0.006510416666666667,0,0,0.006510416666666667,0,0)" xlink:href="#bS"/><use transform="matrix(0.006510416666666667,0,0,0.006510416666666667,3.229166666666667,0)" xlink:href="#bT"/><use transform="matrix(0.006510416666666667,0,0,0.006510416666666667,11.223958333333334,0)" xlink:href="#bU"/><use transform="matrix(0.006510416666666667,0,0,0.006510416666666667,18.971354166666668,0)" xlink:href="#bV"/><use transform="matrix(0.006510416666666667,0,0,0.006510416666666667,26.458333333333336,0)" xlink:href="#bS"/><use transform="matrix(0.006510416666666667,0,0,0.006510416666666667,29.6875,0)" xlink:href="#bW"/><use transform="matrix(0.006510416666666667,0,0,0.006510416666666667,37.571614583333336,0)" xlink:href="#bT"/><use transform="matrix(0.006510416666666667,0,0,0.006510416666666667,45.56640625,0)" xlink:href="#bX"/><use transform="matrix(0.006510416666666667,0,0,0.006510416666666667,52.604166666666664,0)" xlink:href="#bY"/><use transform="matrix(0.006510416666666667,0,0,0.006510416666666667,56.96614583333332,0)" xlink:href="#bZ"/><use transform="matrix(0.006510416666666667,0,0,0.006510416666666667,60.80729166666667,0)" xlink:href="#ca"/><use transform="matrix(0.006510416666666667,0,0,0.006510416666666667,69.05598958333333,0)" xlink:href="#cb"/><use transform="matrix(0.006510416666666667,0,0,0.006510416666666667,77.46744791666666,0)" xlink:href="#ca"/><use transform="matrix(0.006510416666666667,0,0,0.006510416666666667,85.71614583333333,0)" xlink:href="#cb"/></g><path d="M180 0v-1490h528c311 0 458 177 458 395 0 191-114 278-244 313v14c139 9 302 137 302 371 0 225-148 397-499 397H180zm190-168h350c232 0 321-102 321-231 0-149-120-277-311-277H370v508zm0-668h328c160 0 286-101 286-255 0-129-87-231-280-231H370v486" id="cc"/><g id="P"><use transform="matrix(0.007595486111111112,0,0,0.007595486111111112,0,0)" xlink:href="#cc"/><use transform="matrix(0.007595486111111112,0,0,0.007595486111111112,10.17795138888889,0)" xlink:href="#al"/><use transform="matrix(0.007595486111111112,0,0,0.007595486111111112,19.505208333333336,0)" xlink:href="#aq"/></g><path d="M758 0H582c3-449-8-824 8-1274-61 68-188 168-268 234l-97-123 383-299h150V0" id="cd"/><g id="Q"><use transform="matrix(0.006510416666666667,0,0,0.006510416666666667,0,0)" xlink:href="#at"/><use transform="matrix(0.006510416666666667,0,0,0.006510416666666667,8.001302083333334,0)" xlink:href="#au"/><use transform="matrix(0.006510416666666667,0,0,0.006510416666666667,16.002604166666668,0)" xlink:href="#av"/><use transform="matrix(0.006510416666666667,0,0,0.006510416666666667,24.00390625,0)" xlink:href="#aw"/><use transform="matrix(0.006510416666666667,0,0,0.006510416666666667,32.005208333333336,0)" xlink:href="#at"/><use transform="matrix(0.006510416666666667,0,0,0.006510416666666667,40.00651041666667,0)" xlink:href="#ax"/><use transform="matrix(0.006510416666666667,0,0,0.006510416666666667,48.00781250000001,0)" xlink:href="#au"/><use transform="matrix(0.006510416666666667,0,0,0.006510416666666667,56.00911458333335,0)" xlink:href="#ay"/><use transform="matrix(0.006510416666666667,0,0,0.006510416666666667,64.01041666666667,0)" xlink:href="#az"/><use transform="matrix(0.006510416666666667,0,0,0.006510416666666667,72.01171875,0)" xlink:href="#aA"/><use transform="matrix(0.006510416666666667,0,0,0.006510416666666667,80.01302083333333,0)" xlink:href="#aB"/><use transform="matrix(0.006510416666666667,0,0,0.006510416666666667,88.01432291666666,0)" xlink:href="#aC"/><use transform="matrix(0.006510416666666667,0,0,0.006510416666666667,96.01562499999999,0)" xlink:href="#aB"/><use transform="matrix(0.006510416666666667,0,0,0.006510416666666667,104.01692708333331,0)" xlink:href="#cd"/></g><path fill="#008a0e" d="M653-1490V0H466v-1314h-10L96-1047v-204l324-239h233" id="ce"/><g id="R"><use transform="matrix(0.006510416666666667,0,0,0.006510416666666667,0,0)" xlink:href="#bS"/><use transform="matrix(0.006510416666666667,0,0,0.006510416666666667,3.229166666666667,0)" xlink:href="#bT"/><use transform="matrix(0.006510416666666667,0,0,0.006510416666666667,11.223958333333334,0)" xlink:href="#bU"/><use transform="matrix(0.006510416666666667,0,0,0.006510416666666667,18.971354166666668,0)" xlink:href="#bV"/><use transform="matrix(0.006510416666666667,0,0,0.006510416666666667,26.458333333333336,0)" xlink:href="#bS"/><use transform="matrix(0.006510416666666667,0,0,0.006510416666666667,29.6875,0)" xlink:href="#bW"/><use transform="matrix(0.006510416666666667,0,0,0.006510416666666667,37.571614583333336,0)" xlink:href="#bT"/><use transform="matrix(0.006510416666666667,0,0,0.006510416666666667,45.56640625,0)" xlink:href="#bX"/><use transform="matrix(0.006510416666666667,0,0,0.006510416666666667,52.604166666666664,0)" xlink:href="#bY"/><use transform="matrix(0.006510416666666667,0,0,0.006510416666666667,56.96614583333332,0)" xlink:href="#bZ"/><use transform="matrix(0.006510416666666667,0,0,0.006510416666666667,60.80729166666667,0)" xlink:href="#ca"/><use transform="matrix(0.006510416666666667,0,0,0.006510416666666667,69.05598958333333,0)" xlink:href="#cb"/><use transform="matrix(0.006510416666666667,0,0,0.006510416666666667,77.46744791666666,0)" xlink:href="#ca"/><use transform="matrix(0.006510416666666667,0,0,0.006510416666666667,85.71614583333333,0)" xlink:href="#ce"/></g></defs></g></svg>