<svg xmlns="http://www.w3.org/2000/svg" xmlns:xlink="http://www.w3.org/1999/xlink" xmlns:lucid="lucid" width="329" height="146"><g transform="translate(-452 -393)" lucid:page-tab-id="PSaw.X~xNkpe"><path d="M0 0h1000v1000H0z" fill="#fff"/><path d="M455.16 440.08a8 8 0 0 1 8-8H752a8 8 0 0 1 8 8v47.25a8 8 0 0 1-8 8H463.16a8 8 0 0 1-8-8z" fill="none"/><use xlink:href="#a" transform="matrix(1,0,0,1,460.16243489583337,437.08533298343303) translate(0 34.275390625)"/><use xlink:href="#b" transform="matrix(1,0,0,1,460.16243489583337,437.08533298343303) translate(17.568359375 34.275390625)"/><use xlink:href="#c" transform="matrix(1,0,0,1,460.16243489583337,437.08533298343303) translate(57.158203125 34.275390625)"/><use xlink:href="#d" transform="matrix(1,0,0,1,460.16243489583337,437.08533298343303) translate(81.6015625 34.275390625)"/><use xlink:href="#e" transform="matrix(1,0,0,1,460.16243489583337,437.08533298343303) translate(182.67578125 34.275390625)"/><path d="M678.33 510.54v-10.16a4.6 4.6 0 0 0-4.6-4.6 4.6 4.6 0 0 1-4.62-4.62v-1.67M678.33 510.52v1.02" stroke="#cc4e00" stroke-width="2" fill="none"/><path d="M669.1 482l3.76 6.5h-7.5z" stroke="#cc4e00" stroke-width="2" fill="#cc4e00"/><path d="M610 517.92a8 8 0 0 1 8-8h134a8 8 0 0 1 8 8v4a8 8 0 0 1-8 8H618a8 8 0 0 1-8-8z" fill="none"/><use xlink:href="#f" transform="matrix(1,0,0,1,610,509.91894721686606) translate(5.232747395833343 14.041883680555555)"/><use xlink:href="#g" transform="matrix(1,0,0,1,610,509.91894721686606) translate(59.48621961805556 14.041883680555555)"/><use xlink:href="#h" transform="matrix(1,0,0,1,610,509.91894721686606) translate(90.78504774305556 14.041883680555555)"/><path d="M460 518a8 8 0 0 1 8-8h124a8 8 0 0 1 8 8v4a8 8 0 0 1-8 8H468a8 8 0 0 1-8-8z" fill="none"/><use xlink:href="#i" transform="matrix(1,0,0,1,460,510) translate(1.1794704861111143 14.041883680555555)"/><use xlink:href="#j" transform="matrix(1,0,0,1,460,510) translate(57.565104166666664 14.041883680555555)"/><use xlink:href="#k" transform="matrix(1,0,0,1,460,510) translate(95.341796875 14.041883680555555)"/><path d="M713.42 417.26v9.7a6.06 6.06 0 0 0 6.06 6.06 6.06 6.06 0 0 1 6.06 6.06v1.2M713.42 417.3v-1.04" stroke="#1071e5" stroke-width="2" fill="none"/><path d="M725.54 447.77l-3.75-6.5h7.5z" stroke="#1071e5" stroke-width="2" fill="#1071e5"/><path d="M643.46 408a8 8 0 0 1 8-8h114a8 8 0 0 1 8 8v1.5a8 8 0 0 1-8 8h-114a8 8 0 0 1-8-8z" fill="none"/><g><use xlink:href="#i" transform="matrix(1,0,0,1,643.458834893757,400) translate(4.721679687500007 13.041883680555555)"/><use xlink:href="#l" transform="matrix(1,0,0,1,643.458834893757,400) translate(61.10731336805556 13.041883680555555)"/><use xlink:href="#m" transform="matrix(1,0,0,1,643.458834893757,400) translate(94.45692274305554 13.041883680555555)"/></g><path d="M565.66 511.34v-10.08a4.56 4.56 0 0 1 4.56-4.56 4.56 4.56 0 0 0 4.56-4.56v-1.58M565.66 511.3v1.04" stroke="#3a414a" stroke-width="2" fill="none"/><path d="M574.78 483.07l3.75 6.5h-7.5z" stroke="#3a414a" stroke-width="2" fill="#3a414a"/><defs><path d="M597 218V24C309 5 132-156 116-390h195c13 149 137 227 286 243v-538c-251-59-439-189-439-406 0-230 187-390 439-415v-202h120v199c269 18 452 182 461 395H992c-15-130-125-210-275-225v505l59 16c160 44 422 134 422 412 0 229-174 409-481 430v194H597zm120-365c172-19 296-119 296-262 0-144-136-198-296-242v504zM597-868v-470c-155 21-254 115-254 238 0 142 146 201 254 232" id="n"/><use transform="matrix(0.009765625,0,0,0.009765625,0,0)" xlink:href="#n" id="a"/><path d="M572 22C302 22 117-98 78-306l279-48c29 105 101 156 224 156 114 0 185-48 185-115 0-118-228-130-337-155-215-49-322-150-322-317 0-215 187-347 470-347 265 0 424 116 466 298l-266 47c-24-76-87-130-196-130-98 0-174 46-174 113 0 56 38 95 144 117l201 40c216 44 320 143 320 302 0 220-207 367-500 367" id="o"/><path d="M428-647V0H128v-1490h294v586c65-146 175-228 341-228 232 0 385 159 385 421V0H847v-659c0-139-76-222-202-222-128 0-217 86-217 234" id="p"/><g id="b"><use transform="matrix(0.009765625,0,0,0.009765625,0,0)" xlink:href="#o"/><use transform="matrix(0.009765625,0,0,0.009765625,11.201171875,0)" xlink:href="#o"/><use transform="matrix(0.009765625,0,0,0.009765625,22.40234375,0)" xlink:href="#p"/></g><path d="M798-719v166H144v-166h654" id="q"/><path d="M545 20c-263 0-445-160-445-446v-80h190v80c0 182 102 279 255 279 152 0 254-97 254-279v-1064h190v1064c0 286-181 446-444 446" id="r"/><g id="c"><use transform="matrix(0.009765625,0,0,0.009765625,0,0)" xlink:href="#q"/><use transform="matrix(0.009765625,0,0,0.009765625,8.291015625,0)" xlink:href="#r"/></g><path fill="#3a414a" d="M158 418v-1536h174v179h20c37-59 106-193 324-193 279 0 474 222 474 576 0 356-194 580-473 580-213 0-288-135-325-197h-14v591H158zm492-555c209 0 317-186 317-421 0-232-105-413-317-413-206 0-314 166-314 413 0 249 111 421 314 421" id="s"/><path fill="#3a414a" d="M613 24c-304 0-509-231-509-576 0-350 205-580 509-580 305 0 511 230 511 580 0 345-206 576-511 576zm0-161c226 0 329-195 329-415 0-222-103-419-329-419-223 0-326 196-326 419 0 220 103 415 326 415" id="t"/><path fill="#3a414a" d="M158 0v-1118h175l1 205c55-151 181-225 313-225 147 0 245 90 285 228 53-141 190-228 352-228 194 0 352 125 352 384V0h-181v-749c0-161-105-225-225-225-151 0-243 103-243 244V0H807v-767c0-124-93-207-219-207-131 0-250 92-250 270V0H158" id="u"/><path fill="#3a414a" d="M628 24c-324 0-524-230-524-574 0-343 198-582 503-582 237 0 487 146 487 559v75H286c9 234 145 362 343 362 132 0 231-58 273-172l174 48C1024-91 857 24 628 24zM287-650h624c-17-190-120-322-304-322-192 0-309 151-320 322" id="v"/><path fill="#3a414a" d="M158 0v-1118h174v172h12c41-113 157-188 290-188 26 0 70 2 91 3v181c-11-2-60-10-108-10-161 0-279 109-279 260V0H158" id="w"/><path fill="#3a414a" d="M158 0v-1118h180V0H158zm91-1301c-68 0-125-53-125-119s57-119 125-119c69 0 126 53 126 119s-57 119-126 119" id="x"/><path fill="#3a414a" d="M537 14c-226 0-379-139-379-422v-710h180v695c0 172 97 275 253 275 160 0 281-109 281-300v-670h181V0H879v-209C806-46 684 14 537 14" id="y"/><g id="d"><use transform="matrix(0.009765625,0,0,0.009765625,0,0)" xlink:href="#s"/><use transform="matrix(0.009765625,0,0,0.009765625,12.24609375,0)" xlink:href="#t"/><use transform="matrix(0.009765625,0,0,0.009765625,24.23828125,0)" xlink:href="#u"/><use transform="matrix(0.009765625,0,0,0.009765625,41.7578125,0)" xlink:href="#v"/><use transform="matrix(0.009765625,0,0,0.009765625,53.41796875,0)" xlink:href="#w"/><use transform="matrix(0.009765625,0,0,0.009765625,61.259765625,0)" xlink:href="#x"/><use transform="matrix(0.009765625,0,0,0.009765625,66.103515625,0)" xlink:href="#y"/><use transform="matrix(0.009765625,0,0,0.009765625,77.9296875,0)" xlink:href="#u"/></g><path fill="#cc4e00" d="M537 14c-226 0-379-139-379-422v-710h180v695c0 172 97 275 253 275 160 0 281-109 281-300v-670h181V0H879v-209C806-46 684 14 537 14" id="z"/><path fill="#cc4e00" d="M538 24C308 24 148-78 108-271l171-41c32 123 123 178 257 178 156 0 256-77 256-169 0-77-54-128-164-154l-186-44c-203-48-300-148-300-305 0-192 176-326 414-326 230 0 351 112 402 269l-163 42c-31-80-94-158-238-158-133 0-233 69-233 162 0 83 57 129 188 160l169 40c203 48 298 149 298 302 0 196-179 339-441 339" id="A"/><path fill="#cc4e00" d="M628 24c-324 0-524-230-524-574 0-343 198-582 503-582 237 0 487 146 487 559v75H286c9 234 145 362 343 362 132 0 231-58 273-172l174 48C1024-91 857 24 628 24zM287-650h624c-17-190-120-322-304-322-192 0-309 151-320 322" id="B"/><path fill="#cc4e00" d="M158 0v-1118h174v172h12c41-113 157-188 290-188 26 0 70 2 91 3v181c-11-2-60-10-108-10-161 0-279 109-279 260V0H158" id="C"/><path d="M1044 395c-595 0-922-332-922-920 0-569 336-913 901-913 548 0 833 392 833 798 0 285-36 610-344 610-104 0-258-44-276-168h-8c-35 86-122 161-273 161-266 0-403-216-403-498 0-268 174-469 413-469 128 0 216 57 252 108h10v-84h158v659c0 80 45 150 131 150 146 0 181-145 181-471 0-331-218-652-680-652-458 0-728 289-728 774 0 492 266 770 762 770 159 0 323-57 382-77l43 140c-92 39-281 82-432 82zm-82-585c193 0 271-116 271-353 0-239-92-310-266-310-164 0-260 143-260 310 0 185 69 353 255 353" id="D"/><path fill="#1071e5" d="M158 0v-1118h174v172h12c41-113 157-188 290-188 26 0 70 2 91 3v181c-11-2-60-10-108-10-161 0-279 109-279 260V0H158" id="E"/><path fill="#1071e5" d="M613 24c-304 0-509-231-509-576 0-350 205-580 509-580 305 0 511 230 511 580 0 345-206 576-511 576zm0-161c226 0 329-195 329-415 0-222-103-419-329-419-223 0-326 196-326 419 0 220 103 415 326 415" id="F"/><path fill="#1071e5" d="M537 14c-226 0-379-139-379-422v-710h180v695c0 172 97 275 253 275 160 0 281-109 281-300v-670h181V0H879v-209C806-46 684 14 537 14" id="G"/><path fill="#1071e5" d="M598-1118v154H368v674c0 100 37 144 132 144 23 0 62-6 92-12L629-6c-37 13-88 20-134 20-193 0-307-107-307-290v-688H20v-154h168v-266h180v266h230" id="H"/><path fill="#1071e5" d="M628 24c-324 0-524-230-524-574 0-343 198-582 503-582 237 0 487 146 487 559v75H286c9 234 145 362 343 362 132 0 231-58 273-172l174 48C1024-91 857 24 628 24zM287-650h624c-17-190-120-322-304-322-192 0-309 151-320 322" id="I"/><g id="e"><use transform="matrix(0.009765625,0,0,0.009765625,0,0)" xlink:href="#z"/><use transform="matrix(0.009765625,0,0,0.009765625,11.826171875,0)" xlink:href="#A"/><use transform="matrix(0.009765625,0,0,0.009765625,22.3828125,0)" xlink:href="#B"/><use transform="matrix(0.009765625,0,0,0.009765625,34.04296875,0)" xlink:href="#C"/><use transform="matrix(0.009765625,0,0,0.009765625,41.572265625,0)" xlink:href="#D"/><use transform="matrix(0.009765625,0,0,0.009765625,60.888671875,0)" xlink:href="#E"/><use transform="matrix(0.009765625,0,0,0.009765625,68.0859375,0)" xlink:href="#F"/><use transform="matrix(0.009765625,0,0,0.009765625,80.078125,0)" xlink:href="#G"/><use transform="matrix(0.009765625,0,0,0.009765625,91.904296875,0)" xlink:href="#H"/><use transform="matrix(0.009765625,0,0,0.009765625,98.251953125,0)" xlink:href="#I"/></g><path d="M763 24c-353 0-583-224-583-531v-983h190v968c0 214 149 370 393 370 243 0 391-156 391-370v-968h190v983c0 307-230 531-581 531" id="J"/><path d="M158 418v-1536h174v179h20c37-59 106-193 324-193 279 0 474 222 474 576 0 356-194 580-473 580-213 0-288-135-325-197h-14v591H158zm492-555c209 0 317-186 317-421 0-232-105-413-317-413-206 0-314 166-314 413 0 249 111 421 314 421" id="K"/><path d="M538 24C308 24 148-78 108-271l171-41c32 123 123 178 257 178 156 0 256-77 256-169 0-77-54-128-164-154l-186-44c-203-48-300-148-300-305 0-192 176-326 414-326 230 0 351 112 402 269l-163 42c-31-80-94-158-238-158-133 0-233 69-233 162 0 83 57 129 188 160l169 40c203 48 298 149 298 302 0 196-179 339-441 339" id="L"/><path d="M598-1118v154H368v674c0 100 37 144 132 144 23 0 62-6 92-12L629-6c-37 13-88 20-134 20-193 0-307-107-307-290v-688H20v-154h168v-266h180v266h230" id="M"/><path d="M158 0v-1118h174v172h12c41-113 157-188 290-188 26 0 70 2 91 3v181c-11-2-60-10-108-10-161 0-279 109-279 260V0H158" id="N"/><path d="M628 24c-324 0-524-230-524-574 0-343 198-582 503-582 237 0 487 146 487 559v75H286c9 234 145 362 343 362 132 0 231-58 273-172l174 48C1024-91 857 24 628 24zM287-650h624c-17-190-120-322-304-322-192 0-309 151-320 322" id="O"/><path d="M471 26C259 26 90-98 90-318c0-256 228-303 435-329 202-27 287-16 287-108 0-139-79-219-234-219-161 0-248 86-283 164l-173-57c86-203 278-265 451-265 150 0 419 46 419 395V0H815v-152h-12C765-73 660 26 471 26zm31-159c199 0 310-134 310-271v-155c-30 35-226 55-295 64-131 17-246 59-246 186 0 116 97 176 231 176" id="P"/><path d="M158 0v-1118h175l1 205c55-151 181-225 313-225 147 0 245 90 285 228 53-141 190-228 352-228 194 0 352 125 352 384V0h-181v-749c0-161-105-225-225-225-151 0-243 103-243 244V0H807v-767c0-124-93-207-219-207-131 0-250 92-250 270V0H158" id="Q"/><g id="f"><use transform="matrix(0.005425347222222222,0,0,0.005425347222222222,0,0)" xlink:href="#J"/><use transform="matrix(0.005425347222222222,0,0,0.005425347222222222,8.268229166666666,0)" xlink:href="#K"/><use transform="matrix(0.005425347222222222,0,0,0.005425347222222222,15.071614583333332,0)" xlink:href="#L"/><use transform="matrix(0.005425347222222222,0,0,0.005425347222222222,20.936414930555554,0)" xlink:href="#M"/><use transform="matrix(0.005425347222222222,0,0,0.005425347222222222,24.571397569444443,0)" xlink:href="#N"/><use transform="matrix(0.005425347222222222,0,0,0.005425347222222222,28.569878472222218,0)" xlink:href="#O"/><use transform="matrix(0.005425347222222222,0,0,0.005425347222222222,35.15624999999999,0)" xlink:href="#P"/><use transform="matrix(0.005425347222222222,0,0,0.005425347222222222,41.39539930555555,0)" xlink:href="#Q"/></g><path d="M180 0v-1490h190v1322h690V0H180" id="R"/><path d="M158 0v-1118h180V0H158zm91-1301c-68 0-125-53-125-119s57-119 125-119c69 0 126 53 126 119s-57 119-126 119" id="S"/><path d="M338-670V0H158v-1118h173l1 207c72-158 192-221 342-221 226 0 378 139 378 422V0H872v-695c0-172-96-275-252-275-161 0-282 109-282 300" id="T"/><path d="M537 14c-226 0-379-139-379-422v-710h180v695c0 172 97 275 253 275 160 0 281-109 281-300v-670h181V0H879v-209C806-46 684 14 537 14" id="U"/><path d="M65 0l393-574-370-544h210c88 136 192 297 267 435 67-142 176-302 264-435h206L661-564 1053 0H844c-94-144-206-310-287-458C484-308 366-142 273 0H65" id="V"/><g id="g"><use transform="matrix(0.005425347222222222,0,0,0.005425347222222222,0,0)" xlink:href="#R"/><use transform="matrix(0.005425347222222222,0,0,0.005425347222222222,6.282552083333333,0)" xlink:href="#S"/><use transform="matrix(0.005425347222222222,0,0,0.005425347222222222,8.973524305555555,0)" xlink:href="#T"/><use transform="matrix(0.005425347222222222,0,0,0.005425347222222222,15.538194444444445,0)" xlink:href="#U"/><use transform="matrix(0.005425347222222222,0,0,0.005425347222222222,22.108289930555554,0)" xlink:href="#V"/></g><g id="h"><use transform="matrix(0.005425347222222222,0,0,0.005425347222222222,0,0)" xlink:href="#J"/><use transform="matrix(0.005425347222222222,0,0,0.005425347222222222,8.268229166666666,0)" xlink:href="#L"/><use transform="matrix(0.005425347222222222,0,0,0.005425347222222222,14.133029513888888,0)" xlink:href="#O"/><use transform="matrix(0.005425347222222222,0,0,0.005425347222222222,20.61089409722222,0)" xlink:href="#N"/><use transform="matrix(0.005425347222222222,0,0,0.005425347222222222,24.967447916666664,0)" xlink:href="#T"/><use transform="matrix(0.005425347222222222,0,0,0.005425347222222222,31.532118055555554,0)" xlink:href="#P"/><use transform="matrix(0.005425347222222222,0,0,0.005425347222222222,37.77126736111111,0)" xlink:href="#Q"/><use transform="matrix(0.005425347222222222,0,0,0.005425347222222222,47.50434027777778,0)" xlink:href="#O"/></g><path d="M180 0v-1490h510c348 0 508 209 508 474 0 266-160 477-507 477H370V0H180zm190-706h312c236 0 327-133 327-310 0-176-91-307-329-307H370v617" id="W"/><path d="M613 24c-304 0-509-231-509-576 0-350 205-580 509-580 305 0 511 230 511 580 0 345-206 576-511 576zm0-161c226 0 329-195 329-415 0-222-103-419-329-419-223 0-326 196-326 419 0 220 103 415 326 415" id="X"/><g id="i"><use transform="matrix(0.005425347222222222,0,0,0.005425347222222222,0,0)" xlink:href="#W"/><use transform="matrix(0.005425347222222222,0,0,0.005425347222222222,7.036675347222222,0)" xlink:href="#X"/><use transform="matrix(0.005425347222222222,0,0,0.005425347222222222,13.69900173611111,0)" xlink:href="#Q"/><use transform="matrix(0.005425347222222222,0,0,0.005425347222222222,23.43207465277778,0)" xlink:href="#O"/><use transform="matrix(0.005425347222222222,0,0,0.005425347222222222,29.90993923611111,0)" xlink:href="#N"/><use transform="matrix(0.005425347222222222,0,0,0.005425347222222222,34.26649305555556,0)" xlink:href="#S"/><use transform="matrix(0.005425347222222222,0,0,0.005425347222222222,36.95746527777778,0)" xlink:href="#U"/><use transform="matrix(0.005425347222222222,0,0,0.005425347222222222,43.527560763888886,0)" xlink:href="#Q"/></g><path d="M657 26c-323 0-524-166-541-416h195c15 169 171 246 346 246 202 0 356-106 356-265 5-203-294-238-475-293-239-73-380-191-380-389 0-252 224-419 512-419 294 0 499 171 508 396H992c-17-145-151-228-328-228-193 0-321 102-321 242 0 156 175 211 284 241l149 41c160 44 422 134 422 412 0 244-197 432-541 432" id="Y"/><path d="M481 0L54-1118h197c107 314 236 620 325 951 87-331 217-637 324-951h197L670 0H481" id="Z"/><g id="j"><use transform="matrix(0.005425347222222222,0,0,0.005425347222222222,0,0)" xlink:href="#Y"/><use transform="matrix(0.005425347222222222,0,0,0.005425347222222222,7.12890625,0)" xlink:href="#O"/><use transform="matrix(0.005425347222222222,0,0,0.005425347222222222,13.606770833333332,0)" xlink:href="#N"/><use transform="matrix(0.005425347222222222,0,0,0.005425347222222222,17.963324652777775,0)" xlink:href="#Z"/><use transform="matrix(0.005425347222222222,0,0,0.005425347222222222,23.990885416666664,0)" xlink:href="#O"/><use transform="matrix(0.005425347222222222,0,0,0.005425347222222222,30.468749999999993,0)" xlink:href="#N"/></g><path d="M52 0l541-1490h220L1361 0h-200l-149-416H398L254 0H52zm404-582h497c-103-290-145-390-251-756-108 377-145 460-246 756" id="aa"/><path d="M577 24c-279 0-473-224-473-580 0-354 195-576 474-576 218 0 287 134 324 193h14v-551h180V0H922v-173h-20C865-111 790 24 577 24zm27-161c203 0 314-172 314-421 0-247-108-413-314-413-212 0-317 181-317 413 0 235 108 421 317 421" id="ab"/><g id="k"><use transform="matrix(0.005425347222222222,0,0,0.005425347222222222,0,0)" xlink:href="#aa"/><use transform="matrix(0.005425347222222222,0,0,0.005425347222222222,7.666015625,0)" xlink:href="#ab"/><use transform="matrix(0.005425347222222222,0,0,0.005425347222222222,14.469401041666666,0)" xlink:href="#ab"/><use transform="matrix(0.005425347222222222,0,0,0.005425347222222222,21.272786458333332,0)" xlink:href="#N"/><use transform="matrix(0.005425347222222222,0,0,0.005425347222222222,25.271267361111104,0)" xlink:href="#O"/><use transform="matrix(0.005425347222222222,0,0,0.005425347222222222,31.74913194444444,0)" xlink:href="#L"/><use transform="matrix(0.005425347222222222,0,0,0.005425347222222222,37.613932291666664,0)" xlink:href="#L"/></g><path d="M180 0v-1490h510c348 0 508 194 508 460 0 198-88 351-276 417L1256 0h-220L726-579c-117 2-238 0-356 1V0H180zm190-747h312c235 0 327-108 327-283 0-177-92-293-329-293H370v576" id="ac"/><g id="l"><use transform="matrix(0.005425347222222222,0,0,0.005425347222222222,0,0)" xlink:href="#ac"/><use transform="matrix(0.005425347222222222,0,0,0.005425347222222222,6.987847222222222,0)" xlink:href="#X"/><use transform="matrix(0.005425347222222222,0,0,0.005425347222222222,13.65017361111111,0)" xlink:href="#U"/><use transform="matrix(0.005425347222222222,0,0,0.005425347222222222,20.22026909722222,0)" xlink:href="#M"/><use transform="matrix(0.005425347222222222,0,0,0.005425347222222222,23.746744791666664,0)" xlink:href="#O"/></g><path d="M180 0v-1490h224l606 953c40 63 108 177 176 312-27-437-7-821-13-1265h190V0h-226C860-448 622-778 356-1262c27 476 11 792 15 1262H180" id="ad"/><g id="m"><use transform="matrix(0.005425347222222222,0,0,0.005425347222222222,0,0)" xlink:href="#ad"/><use transform="matrix(0.005425347222222222,0,0,0.005425347222222222,8.37131076388889,0)" xlink:href="#P"/><use transform="matrix(0.005425347222222222,0,0,0.005425347222222222,14.610460069444445,0)" xlink:href="#Q"/><use transform="matrix(0.005425347222222222,0,0,0.005425347222222222,24.34353298611111,0)" xlink:href="#O"/></g></defs></g></svg>