<svg id="mermaid-1570159603826" width="100%" xmlns="http://www.w3.org/2000/svg" height="100%" style="max-width:1450px" viewBox="-50 -10 1450 981"><style>#mermaid-1570159603826 .actor{stroke:#999;fill:#a176ff}#mermaid-1570159603826 text.actor{fill:#333;stroke:none}#mermaid-1570159603826 .actor-line{stroke:#666}#mermaid-1570159603826 .messageLine0{stroke-width:1.5;stroke-dasharray:&apos;2 2&apos;;stroke:#333}#mermaid-1570159603826 #arrowhead,#mermaid-1570159603826 #sequencenumber{fill:#333}#mermaid-1570159603826 #crosshead path{fill:#333!important;stroke:#333!important}#mermaid-1570159603826 .messageText{fill:#333;stroke:none}</style><style>#mermaid-1570159603826{color:rgba(0,0,0,.65098);font:14px/21px &quot;trebuchet ms&quot;,verdana,arial}</style><g><line id="actor28" x1="75" y1="5" x2="75" y2="970" class="actor-line" stroke-width=".5" stroke="#999"/><rect x="0" y="0" fill="#eaeaea" stroke="#666" width="150" height="65" rx="3" ry="3" class="actor"/><text x="75" y="32.5" dominant-baseline="central" alignment-baseline="central" class="actor" text-anchor="middle" font-size="14px" font-family="Open-Sans, sans-serif"><tspan x="75" dy="0">Browser</tspan></text></g><g><line id="actor29" x1="275" y1="5" x2="275" y2="970" class="actor-line" stroke-width=".5" stroke="#999"/><rect x="200" y="0" fill="#eaeaea" stroke="#666" width="150" height="65" rx="3" ry="3" class="actor"/><text x="275" y="32.5" dominant-baseline="central" alignment-baseline="central" class="actor" text-anchor="middle" font-size="14px" font-family="Open-Sans, sans-serif"><tspan x="275" dy="0">Identity Provider</tspan></text></g><g><line id="actor30" x1="475" y1="5" x2="475" y2="970" class="actor-line" stroke-width=".5" stroke="#999"/><rect x="400" y="0" fill="#eaeaea" stroke="#666" width="150" height="65" rx="3" ry="3" class="actor"/><text x="475" y="32.5" dominant-baseline="central" alignment-baseline="central" class="actor" text-anchor="middle" font-size="14px" font-family="Open-Sans, sans-serif"><tspan x="475" dy="0">Ingress</tspan></text></g><g><line id="actor31" x1="675" y1="5" x2="675" y2="970" class="actor-line" stroke-width=".5" stroke="#999"/><rect x="600" y="0" fill="#eaeaea" stroke="#666" width="150" height="65" rx="3" ry="3" class="actor"/><text x="675" y="32.5" dominant-baseline="central" alignment-baseline="central" class="actor" text-anchor="middle" font-size="14px" font-family="Open-Sans, sans-serif"><tspan x="675" dy="0">Pomerium</tspan></text></g><g><line id="actor32" x1="875" y1="5" x2="875" y2="970" class="actor-line" stroke-width=".5" stroke="#999"/><rect x="800" y="0" fill="#eaeaea" stroke="#666" width="150" height="65" rx="3" ry="3" class="actor"/><text x="875" y="32.5" dominant-baseline="central" alignment-baseline="central" class="actor" text-anchor="middle" font-size="14px" font-family="Open-Sans, sans-serif"><tspan x="875" dy="0">Pomerium AuthN</tspan></text></g><g><line id="actor33" x1="1075" y1="5" x2="1075" y2="970" class="actor-line" stroke-width=".5" stroke="#999"/><rect x="1000" y="0" fill="#eaeaea" stroke="#666" width="150" height="65" rx="3" ry="3" class="actor"/><text x="1075" y="32.5" dominant-baseline="central" alignment-baseline="central" class="actor" text-anchor="middle" font-size="14px" font-family="Open-Sans, sans-serif"><tspan x="1075" dy="0">Pomerium AuthZ</tspan></text></g><g><line id="actor34" x1="1275" y1="5" x2="1275" y2="970" class="actor-line" stroke-width=".5" stroke="#999"/><rect x="1200" y="0" fill="#eaeaea" stroke="#666" width="150" height="65" rx="3" ry="3" class="actor"/><text x="1275" y="32.5" dominant-baseline="central" alignment-baseline="central" class="actor" text-anchor="middle" font-size="14px" font-family="Open-Sans, sans-serif"><tspan x="1275" dy="0">app</tspan></text></g><defs><marker id="arrowhead" refX="5" refY="2" markerWidth="6" markerHeight="4" orient="auto"><path d="M 0,0 V 4 L6,2 Z"/></marker></defs><defs><marker id="crosshead" markerWidth="15" markerHeight="8" orient="auto" refX="16" refY="4"><path fill="#000" stroke="#000" stroke-width="1" d="M 9,2 V 6 L16,4 Z" stroke-dasharray="0px, 0px"/><path fill="none" stroke="#000" stroke-width="1" d="M 0,1 L 6,7 M 6,1 L 0,7" stroke-dasharray="0px, 0px"/></marker></defs><defs><marker id="sequencenumber" refX="15" refY="15" markerWidth="60" markerHeight="40" orient="auto"><circle cx="15" cy="15" r="6"/></marker></defs><g><text x="275" y="93" class="messageText" text-anchor="middle">GET /app</text><line x1="75" y1="100" x2="475" y2="100" class="messageLine0" stroke-width="2" stroke="#000" marker-end="url(#arrowhead)" fill="none"/></g><g><text x="575" y="128" class="messageText" text-anchor="middle">/verify/app</text><line x1="475" y1="135" x2="675" y2="135" class="messageLine0" stroke-width="2" stroke="#000" marker-end="url(#arrowhead)" fill="none"/></g><g><text x="675" y="163" class="messageText" text-anchor="middle">Authenticated?</text><path d="M 675,170 C 735,160 735,200 675,190" class="messageLine0" stroke-width="2" stroke="#000" marker-end="url(#arrowhead)" fill="none"/></g><g><text x="675" y="228" class="messageText" text-anchor="middle">No!</text><path d="M 675,235 C 735,225 735,265 675,255" class="messageLine0" stroke-width="2" stroke="#000" marker-end="url(#arrowhead)" fill="none"/></g><g><line x1="675" y1="300" x2="875" y2="300" class="messageLine0" stroke-width="2" stroke="#000" marker-end="url(#arrowhead)" fill="none"/></g><g><text x="475" y="328" class="messageText" text-anchor="middle">HTTP 301 sign in callback url</text><line x1="875" y1="335" x2="75" y2="335" class="messageLine0" stroke-width="2" stroke="#000" marker-end="url(#arrowhead)" fill="none"/></g><g><line x1="75" y1="370" x2="275" y2="370" class="messageLine0" stroke-width="2" stroke="#000" marker-end="url(#arrowhead)" fill="none"/></g><g><line x1="275" y1="405" x2="75" y2="405" class="messageLine0" stroke-width="2" stroke="#000" marker-end="url(#arrowhead)" fill="none"/></g><g><text x="475" y="433" class="messageText" text-anchor="middle">HTTP 301: Oauth2 callback endpoint</text><line x1="75" y1="440" x2="875" y2="440" class="messageLine0" stroke-width="2" stroke="#000" marker-end="url(#arrowhead)" fill="none"/></g><g><text x="475" y="468" class="messageText" text-anchor="middle">Save session</text><line x1="875" y1="475" x2="75" y2="475" class="messageLine0" stroke-width="2" stroke="#000" marker-end="url(#arrowhead)" fill="none"/></g><g><text x="275" y="503" class="messageText" text-anchor="middle">HTTP 301 app</text><line x1="75" y1="510" x2="475" y2="510" class="messageLine0" stroke-width="2" stroke="#000" marker-end="url(#arrowhead)" fill="none"/></g><g><text x="575" y="538" class="messageText" text-anchor="middle">/verify/app</text><line x1="475" y1="545" x2="675" y2="545" class="messageLine0" stroke-width="2" stroke="#000" marker-end="url(#arrowhead)" fill="none"/></g><g><text x="675" y="573" class="messageText" text-anchor="middle">Authenticated?</text><path d="M 675,580 C 735,570 735,610 675,600" class="messageLine0" stroke-width="2" stroke="#000" marker-end="url(#arrowhead)" fill="none"/></g><g><text x="675" y="638" class="messageText" text-anchor="middle">Yes!</text><path d="M 675,645 C 735,635 735,675 675,665" class="messageLine0" stroke-width="2" stroke="#000" marker-end="url(#arrowhead)" fill="none"/></g><g><text x="875" y="703" class="messageText" text-anchor="middle">Authorized?</text><line x1="675" y1="710" x2="1075" y2="710" class="messageLine0" stroke-width="2" stroke="#000" marker-end="url(#arrowhead)" fill="none"/></g><g><text x="875" y="738" class="messageText" text-anchor="middle">Yes?</text><line x1="1075" y1="745" x2="675" y2="745" class="messageLine0" stroke-width="2" stroke="#000" marker-end="url(#arrowhead)" fill="none"/></g><g><text x="575" y="773" class="messageText" text-anchor="middle">HTTP 200</text><line x1="675" y1="780" x2="475" y2="780" class="messageLine0" stroke-width="2" stroke="#000" marker-end="url(#arrowhead)" fill="none"/></g><g><line x1="475" y1="815" x2="1275" y2="815" class="messageLine0" stroke-width="2" stroke="#000" marker-end="url(#arrowhead)" fill="none"/></g><g><line x1="1275" y1="850" x2="475" y2="850" class="messageLine0" stroke-width="2" stroke="#000" marker-end="url(#arrowhead)" fill="none"/></g><g><text x="275" y="878" class="messageText" text-anchor="middle">OK!</text><line x1="475" y1="885" x2="75" y2="885" class="messageLine0" stroke-width="2" stroke="#000" marker-end="url(#arrowhead)" fill="none"/></g><g><rect x="0" y="905" fill="#eaeaea" stroke="#666" width="150" height="65" rx="3" ry="3" class="actor"/><text x="75" y="937.5" dominant-baseline="central" alignment-baseline="central" class="actor" text-anchor="middle" font-size="14px" font-family="Open-Sans, sans-serif"><tspan x="75" dy="0">Browser</tspan></text></g><g><rect x="200" y="905" fill="#eaeaea" stroke="#666" width="150" height="65" rx="3" ry="3" class="actor"/><text x="275" y="937.5" dominant-baseline="central" alignment-baseline="central" class="actor" text-anchor="middle" font-size="14px" font-family="Open-Sans, sans-serif"><tspan x="275" dy="0">Identity Provider</tspan></text></g><g><rect x="400" y="905" fill="#eaeaea" stroke="#666" width="150" height="65" rx="3" ry="3" class="actor"/><text x="475" y="937.5" dominant-baseline="central" alignment-baseline="central" class="actor" text-anchor="middle" font-size="14px" font-family="Open-Sans, sans-serif"><tspan x="475" dy="0">Ingress</tspan></text></g><g><rect x="600" y="905" fill="#eaeaea" stroke="#666" width="150" height="65" rx="3" ry="3" class="actor"/><text x="675" y="937.5" dominant-baseline="central" alignment-baseline="central" class="actor" text-anchor="middle" font-size="14px" font-family="Open-Sans, sans-serif"><tspan x="675" dy="0">Pomerium</tspan></text></g><g><rect x="800" y="905" fill="#eaeaea" stroke="#666" width="150" height="65" rx="3" ry="3" class="actor"/><text x="875" y="937.5" dominant-baseline="central" alignment-baseline="central" class="actor" text-anchor="middle" font-size="14px" font-family="Open-Sans, sans-serif"><tspan x="875" dy="0">Pomerium AuthN</tspan></text></g><g><rect x="1000" y="905" fill="#eaeaea" stroke="#666" width="150" height="65" rx="3" ry="3" class="actor"/><text x="1075" y="937.5" dominant-baseline="central" alignment-baseline="central" class="actor" text-anchor="middle" font-size="14px" font-family="Open-Sans, sans-serif"><tspan x="1075" dy="0">Pomerium AuthZ</tspan></text></g><g><rect x="1200" y="905" fill="#eaeaea" stroke="#666" width="150" height="65" rx="3" ry="3" class="actor"/><text x="1275" y="937.5" dominant-baseline="central" alignment-baseline="central" class="actor" text-anchor="middle" font-size="14px" font-family="Open-Sans, sans-serif"><tspan x="1275" dy="0">app</tspan></text></g></svg>