<svg version="1.1" xmlns="http://www.w3.org/2000/svg" viewBox="0 0 641.44140625 263.44140625" width="641.44140625" height="263.44140625">
  <!-- svg-source:excalidraw -->
  
  <defs>
    <style class="style-fonts">
      @font-face {
        font-family: "Virgil";
        src: url("https://excalidraw.com/Virgil.woff2");
      }
      @font-face {
        font-family: "Cascadia";
        src: url("https://excalidraw.com/Cascadia.woff2");
      }
    </style>
  </defs>
  <rect x="0" y="0" width="641.44140625" height="263.44140625" fill="#ffffff"></rect><g stroke-linecap="round" transform="translate(10 77.41015625) rotate(0 50.515625 20.20703125)"><path d="M10.1 0 L90.93 0 L95.35 0.63 L98.51 2.53 L100.4 5.68 L101.03 10.1 L101.03 30.31 L100.4 34.73 L98.51 37.89 L95.35 39.78 L90.93 40.41 L10.1 40.41 L5.68 39.78 L2.53 37.89 L0.63 34.73 L0 30.31 L0 10.1 L0.63 5.68 L2.53 2.53 L5.68 0.63 L10.1 0" stroke="none" stroke-width="0" fill="#e3f2fd"></path><path d="M10.1 0 M10.1 0 C39.99 0, 69.87 0, 90.93 0 M10.1 0 C41.35 0, 72.59 0, 90.93 0 M90.93 0 C97.66 0, 101.03 3.37, 101.03 10.1 M90.93 0 C97.66 0, 101.03 3.37, 101.03 10.1 M101.03 10.1 C101.03 14.59, 101.03 19.07, 101.03 30.31 M101.03 10.1 C101.03 17.11, 101.03 24.12, 101.03 30.31 M101.03 30.31 C101.03 37.05, 97.66 40.41, 90.93 40.41 M101.03 30.31 C101.03 37.05, 97.66 40.41, 90.93 40.41 M90.93 40.41 C71.86 40.41, 52.79 40.41, 10.1 40.41 M90.93 40.41 C73.93 40.41, 56.93 40.41, 10.1 40.41 M10.1 40.41 C3.37 40.41, 0 37.05, 0 30.31 M10.1 40.41 C3.37 40.41, 0 37.05, 0 30.31 M0 30.31 C0 25.07, 0 19.82, 0 10.1 M0 30.31 C0 23.38, 0 16.44, 0 10.1 M0 10.1 C0 3.37, 3.37 0, 10.1 0 M0 10.1 C0 3.37, 3.37 0, 10.1 0" stroke="#2874a6" stroke-width="1" fill="none"></path></g><g transform="translate(18.8310546875 86.1171875) rotate(0 41.6845703125 11.5)"><text x="41.6845703125" y="0" font-family="Helvetica, Segoe UI Emoji" font-size="20px" fill="#2874a6" text-anchor="middle" style="white-space: pre;" direction="ltr" dominant-baseline="text-before-edge">End User</text></g><g stroke-linecap="round" transform="translate(202.9921875 77.49609375) rotate(0 56 20)"><path d="M10 0 L102 0 L106.38 0.63 L109.5 2.5 L111.38 5.63 L112 10 L112 30 L111.38 34.38 L109.5 37.5 L106.38 39.38 L102 40 L10 40 L5.63 39.38 L2.5 37.5 L0.62 34.38 L0 30 L0 10 L0.63 5.63 L2.5 2.5 L5.63 0.62 L10 0" stroke="none" stroke-width="0" fill="#ede7f6"></path><path d="M10 0 M10 0 C32.71 0, 55.41 0, 102 0 M10 0 C46.05 0, 82.1 0, 102 0 M102 0 C108.67 0, 112 3.33, 112 10 M102 0 C108.67 0, 112 3.33, 112 10 M112 10 C112 14.31, 112 18.61, 112 30 M112 10 C112 17.22, 112 24.44, 112 30 M112 30 C112 36.67, 108.67 40, 102 40 M112 30 C112 36.67, 108.67 40, 102 40 M102 40 C65.28 40, 28.56 40, 10 40 M102 40 C79.47 40, 56.93 40, 10 40 M10 40 C3.33 40, 0 36.67, 0 30 M10 40 C3.33 40, 0 36.67, 0 30 M0 30 C0 23.94, 0 17.88, 0 10 M0 30 C0 23.34, 0 16.69, 0 10 M0 10 C0 3.33, 3.33 0, 10 0 M0 10 C0 3.33, 3.33 0, 10 0" stroke="#4527a0" stroke-width="1" fill="none"></path></g><g transform="translate(213.42578125 85.99609375) rotate(0 45.56640625 11.5)"><text x="45.56640625" y="0" font-family="Helvetica, Segoe UI Emoji" font-size="20px" fill="#4527a0" text-anchor="middle" style="white-space: pre;" direction="ltr" dominant-baseline="text-before-edge">Pomerium</text></g><g stroke-linecap="round" transform="translate(434.64453125 77.14453125) rotate(0 90.5 21)"><path d="M10.5 0 L170.5 0 L175.09 0.66 L178.38 2.63 L180.34 5.91 L181 10.5 L181 31.5 L180.34 36.09 L178.38 39.38 L175.09 41.34 L170.5 42 L10.5 42 L5.91 41.34 L2.63 39.38 L0.66 36.09 L0 31.5 L0 10.5 L0.66 5.91 L2.63 2.63 L5.91 0.66 L10.5 0" stroke="none" stroke-width="0" fill="#e3f2fd"></path><path d="M10.5 0 M10.5 0 C69.73 0, 128.96 0, 170.5 0 M10.5 0 C44.79 0, 79.08 0, 170.5 0 M170.5 0 C177.5 0, 181 3.5, 181 10.5 M170.5 0 C177.5 0, 181 3.5, 181 10.5 M181 10.5 C181 17.8, 181 25.1, 181 31.5 M181 10.5 C181 18.23, 181 25.96, 181 31.5 M181 31.5 C181 38.5, 177.5 42, 170.5 42 M181 31.5 C181 38.5, 177.5 42, 170.5 42 M170.5 42 C135.96 42, 101.43 42, 10.5 42 M170.5 42 C111.47 42, 52.45 42, 10.5 42 M10.5 42 C3.5 42, 0 38.5, 0 31.5 M10.5 42 C3.5 42, 0 38.5, 0 31.5 M0 31.5 C0 25.21, 0 18.92, 0 10.5 M0 31.5 C0 25.88, 0 20.26, 0 10.5 M0 10.5 C0 3.5, 3.5 0, 10.5 0 M0 10.5 C0 3.5, 3.5 0, 10.5 0" stroke="#1864ab" stroke-width="1" fill="none"></path></g><g transform="translate(445.6767578125 86.64453125) rotate(0 79.4677734375 11.5)"><text x="79.4677734375" y="0" font-family="Helvetica, Segoe UI Emoji" font-size="20px" fill="#1864ab" text-anchor="middle" style="white-space: pre;" direction="ltr" dominant-baseline="text-before-edge">Upstream Service</text></g><g stroke-linecap="round" transform="translate(196.4140625 210.44140625) rotate(0 60.5 21.5)"><path d="M10.75 0 L110.25 0 L114.95 0.67 L118.31 2.69 L120.33 6.05 L121 10.75 L121 32.25 L120.33 36.95 L118.31 40.31 L114.95 42.33 L110.25 43 L10.75 43 L6.05 42.33 L2.69 40.31 L0.67 36.95 L0 32.25 L0 10.75 L0.67 6.05 L2.69 2.69 L6.05 0.67 L10.75 0" stroke="none" stroke-width="0" fill="#fbe9e7"></path><path d="M10.75 0 M10.75 0 C32.21 0, 53.67 0, 110.25 0 M10.75 0 C31.31 0, 51.86 0, 110.25 0 M110.25 0 C117.42 0, 121 3.58, 121 10.75 M110.25 0 C117.42 0, 121 3.58, 121 10.75 M121 10.75 C121 17.44, 121 24.14, 121 32.25 M121 10.75 C121 17.94, 121 25.14, 121 32.25 M121 32.25 C121 39.42, 117.42 43, 110.25 43 M121 32.25 C121 39.42, 117.42 43, 110.25 43 M110.25 43 C82.1 43, 53.95 43, 10.75 43 M110.25 43 C82.77 43, 55.28 43, 10.75 43 M10.75 43 C3.58 43, 0 39.42, 0 32.25 M10.75 43 C3.58 43, 0 39.42, 0 32.25 M0 32.25 C0 27.14, 0 22.03, 0 10.75 M0 32.25 C0 26.21, 0 20.16, 0 10.75 M0 10.75 C0 3.58, 3.58 0, 10.75 0 M0 10.75 C0 3.58, 3.58 0, 10.75 0" stroke="#c92a2a" stroke-width="1" fill="none"></path></g><g transform="translate(225.2392578125 220.44140625) rotate(0 31.6748046875 11.5)"><text x="31.6748046875" y="0" font-family="Helvetica, Segoe UI Emoji" font-size="20px" fill="#c92a2a" text-anchor="middle" style="white-space: pre;" direction="ltr" dominant-baseline="text-before-edge">Hacker</text></g><g stroke-opacity="0.1" fill-opacity="0.1" stroke-linecap="round" transform="translate(155.45703125 10) rotate(0 237.9921875 83.994140625)"><path d="M0 0 L475.98 0 L475.98 167.99 L0 167.99" stroke="none" stroke-width="0" fill="#fab005"></path><path d="M0 0 C135.35 0, 270.7 0, 475.98 0 M475.98 0 C475.98 62.14, 475.98 124.29, 475.98 167.99 M475.98 167.99 C363.35 167.99, 250.71 167.99, 0 167.99 M0 167.99 C0 108.46, 0 48.94, 0 0" stroke="#a61e4d" stroke-width="4.5" fill="none" stroke-dasharray="1.5 10"></path></g><g transform="translate(320.6416015625 15) rotate(0 72.8076171875 11.5)"><text x="72.8076171875" y="0" font-family="Helvetica, Segoe UI Emoji" font-size="20px" fill="#000000" text-anchor="middle" style="white-space: pre;" direction="ltr" dominant-baseline="text-before-edge">Internal Network</text></g><g stroke-linecap="round"><g transform="translate(113.328125 96.93167214590676) rotate(0 44.154296875 0.0398324008567954)"><path d="M0 0 C28.73 0.03, 57.46 0.05, 88.31 0.08 M0 0 C34.31 0.03, 68.62 0.06, 88.31 0.08" stroke="#2874a6" stroke-width="4" fill="none"></path></g><g transform="translate(113.328125 96.93167214590676) rotate(0 44.154296875 0.0398324008567954)"><path d="M97.81 0.08 C97.81 0.63, 97.76 1.19, 97.66 1.73 C97.57 2.27, 97.42 2.81, 97.24 3.33 C97.05 3.85, 96.81 4.35, 96.54 4.83 C96.26 5.31, 95.94 5.76, 95.59 6.19 C95.23 6.61, 94.84 7, 94.42 7.36 C93.99 7.71, 93.53 8.03, 93.06 8.31 C92.58 8.58, 92.07 8.82, 91.56 9.01 C91.04 9.19, 90.5 9.34, 89.96 9.44 C89.42 9.53, 88.86 9.58, 88.31 9.58 C87.76 9.58, 87.2 9.53, 86.66 9.44 C86.12 9.34, 85.58 9.19, 85.06 9.01 C84.54 8.82, 84.03 8.58, 83.56 8.31 C83.08 8.03, 82.62 7.71, 82.2 7.36 C81.78 7, 81.38 6.61, 81.03 6.19 C80.68 5.76, 80.36 5.31, 80.08 4.83 C79.81 4.35, 79.57 3.85, 79.38 3.33 C79.19 2.81, 79.05 2.27, 78.95 1.73 C78.86 1.19, 78.81 0.63, 78.81 0.08 C78.81 -0.47, 78.86 -1.03, 78.95 -1.57 C79.05 -2.11, 79.19 -2.65, 79.38 -3.17 C79.57 -3.69, 79.81 -4.19, 80.08 -4.67 C80.36 -5.15, 80.68 -5.61, 81.03 -6.03 C81.38 -6.45, 81.78 -6.84, 82.2 -7.2 C82.62 -7.55, 83.08 -7.87, 83.56 -8.15 C84.03 -8.42, 84.54 -8.66, 85.06 -8.85 C85.58 -9.04, 86.12 -9.18, 86.66 -9.28 C87.2 -9.37, 87.76 -9.42, 88.31 -9.42 C88.86 -9.42, 89.42 -9.37, 89.96 -9.28 C90.5 -9.18, 91.04 -9.04, 91.56 -8.85 C92.07 -8.66, 92.58 -8.42, 93.06 -8.15 C93.53 -7.87, 93.99 -7.55, 94.42 -7.2 C94.84 -6.84, 95.23 -6.45, 95.59 -6.03 C95.94 -5.61, 96.26 -5.15, 96.54 -4.67 C96.81 -4.19, 97.05 -3.69, 97.24 -3.17 C97.42 -2.65, 97.57 -2.11, 97.66 -1.57 C97.76 -1.03, 97.78 -0.2, 97.81 0.08 C97.83 0.35, 97.83 -0.2, 97.81 0.08" stroke="none" stroke-width="0" fill="#2874a6"></path></g></g><mask></mask><g stroke-linecap="round"><g transform="translate(315.79296875 96.8046875) rotate(0 58.626953125 -0.125)"><path d="M0 0 C24.67 -0.05, 49.35 -0.11, 117.25 -0.25 M0 0 C28.19 -0.06, 56.37 -0.12, 117.25 -0.25" stroke="#4527a0" stroke-width="2" fill="none"></path></g></g><mask></mask><g stroke-linecap="round"><g transform="translate(318.65625 230.3046875) rotate(0 58.931640625 -56.615234375)"><path d="M0 0 C28.97 -27.83, 57.94 -55.66, 117.86 -113.23 M0 0 C28.25 -27.14, 56.49 -54.27, 117.86 -113.23" stroke="#c92a2a" stroke-width="2" fill="none"></path></g></g><mask></mask></svg>