<svg version="1.1" xmlns="http://www.w3.org/2000/svg" viewBox="0 0 684.2421875 391.5859375" width="684.2421875" height="391.5859375">
  <!-- svg-source:excalidraw -->
  
  <defs>
    <style class="style-fonts">
      @font-face {
        font-family: "Virgil";
        src: url("https://excalidraw.com/Virgil.woff2");
      }
      @font-face {
        font-family: "Cascadia";
        src: url("https://excalidraw.com/Cascadia.woff2");
      }
    </style>
  </defs>
  <rect x="0" y="0" width="684.2421875" height="391.5859375" fill="#ffffff"></rect><g stroke-linecap="round" transform="translate(33.33984375 102.12890625) rotate(0 50.515624999999986 20.20703125)"><path d="M10.1 0 L90.93 0 L95.35 0.63 L98.51 2.53 L100.4 5.68 L101.03 10.1 L101.03 30.31 L100.4 34.73 L98.51 37.89 L95.35 39.78 L90.93 40.41 L10.1 40.41 L5.68 39.78 L2.53 37.89 L0.63 34.73 L0 30.31 L0 10.1 L0.63 5.68 L2.53 2.53 L5.68 0.63 L10.1 0" stroke="none" stroke-width="0" fill="#e3f2fd"></path><path d="M10.1 0 M10.1 0 C35.27 0, 60.43 0, 90.93 0 M10.1 0 C33.2 0, 56.3 0, 90.93 0 M90.93 0 C97.66 0, 101.03 3.37, 101.03 10.1 M90.93 0 C97.66 0, 101.03 3.37, 101.03 10.1 M101.03 10.1 C101.03 16.68, 101.03 23.26, 101.03 30.31 M101.03 10.1 C101.03 14.15, 101.03 18.2, 101.03 30.31 M101.03 30.31 C101.03 37.05, 97.66 40.41, 90.93 40.41 M101.03 30.31 C101.03 37.05, 97.66 40.41, 90.93 40.41 M90.93 40.41 C59.32 40.41, 27.72 40.41, 10.1 40.41 M90.93 40.41 C66.53 40.41, 42.14 40.41, 10.1 40.41 M10.1 40.41 C3.37 40.41, 0 37.05, 0 30.31 M10.1 40.41 C3.37 40.41, 0 37.05, 0 30.31 M0 30.31 C0 23.92, 0 17.53, 0 10.1 M0 30.31 C0 22.81, 0 15.3, 0 10.1 M0 10.1 C0 3.37, 3.37 0, 10.1 0 M0 10.1 C0 3.37, 3.37 0, 10.1 0" stroke="#2874a6" stroke-width="1" fill="none"></path></g><g transform="translate(42.1708984375 110.8359375) rotate(0 41.6845703125 11.5)"><text x="41.6845703125" y="0" font-family="Helvetica, Segoe UI Emoji" font-size="20px" fill="#2874a6" text-anchor="middle" style="white-space: pre;" direction="ltr" dominant-baseline="text-before-edge">End User</text></g><g stroke-linecap="round" transform="translate(381.82421875 283.75) rotate(0 50.515625 20.20703125)"><path d="M10.1 0 L90.93 0 L95.35 0.63 L98.51 2.53 L100.4 5.68 L101.03 10.1 L101.03 30.31 L100.4 34.73 L98.51 37.89 L95.35 39.78 L90.93 40.41 L10.1 40.41 L5.68 39.78 L2.53 37.89 L0.63 34.73 L0 30.31 L0 10.1 L0.63 5.68 L2.53 2.53 L5.68 0.63 L10.1 0" stroke="none" stroke-width="0" fill="#ced4da"></path><path d="M10.1 0 M10.1 0 C32.18 0, 54.25 0, 90.93 0 M10.1 0 C40.4 0, 70.7 0, 90.93 0 M90.93 0 C97.66 0, 101.03 3.37, 101.03 10.1 M90.93 0 C97.66 0, 101.03 3.37, 101.03 10.1 M101.03 10.1 C101.03 17.81, 101.03 25.51, 101.03 30.31 M101.03 10.1 C101.03 16.03, 101.03 21.95, 101.03 30.31 M101.03 30.31 C101.03 37.05, 97.66 40.41, 90.93 40.41 M101.03 30.31 C101.03 37.05, 97.66 40.41, 90.93 40.41 M90.93 40.41 C74.15 40.41, 57.37 40.41, 10.1 40.41 M90.93 40.41 C69.54 40.41, 48.15 40.41, 10.1 40.41 M10.1 40.41 C3.37 40.41, 0 37.05, 0 30.31 M10.1 40.41 C3.37 40.41, 0 37.05, 0 30.31 M0 30.31 C0 25.69, 0 21.06, 0 10.1 M0 30.31 C0 23.95, 0 17.59, 0 10.1 M0 10.1 C0 3.37, 3.37 0, 10.1 0 M0 10.1 C0 3.37, 3.37 0, 10.1 0" stroke="#000000" stroke-width="1" fill="none"></path></g><g transform="translate(398.43359375 292.45703125) rotate(0 33.90625 11.5)"><text x="33.90625" y="0" font-family="Helvetica, Segoe UI Emoji" font-size="20px" fill="#000000" text-anchor="middle" style="white-space: pre;" direction="ltr" dominant-baseline="text-before-edge">Sidecar</text></g><g stroke-linecap="round" transform="translate(519.6875 285.00390625) rotate(0 34.5 19)"><path d="M9.5 0 L59.5 0 L63.66 0.59 L66.63 2.38 L68.41 5.34 L69 9.5 L68.41 32.66 L66.63 35.63 L63.66 37.41 L59.5 38 L9.5 38 L5.34 37.41 L2.38 35.63 L0.59 32.66 L0 9.5 L0.59 5.34 L2.38 2.38 L5.34 0.59 L9.5 0" stroke="none" stroke-width="0" fill="#ced4da"></path><path d="M9.5 0 M9.5 0 C21.66 0, 33.82 0, 59.5 0 M9.5 0 C29.04 0, 48.57 0, 59.5 0 M59.5 0 C65.83 0, 69 3.17, 69 9.5 M59.5 0 C65.83 0, 69 3.17, 69 9.5 M69 9.5 C69 14.53, 69 19.57, 69 28.5 M69 9.5 C69 15.05, 69 20.61, 69 28.5 M69 28.5 C69 34.83, 65.83 38, 59.5 38 M69 28.5 C69 34.83, 65.83 38, 59.5 38 M59.5 38 C46.69 38, 33.89 38, 9.5 38 M59.5 38 C47.63 38, 35.76 38, 9.5 38 M9.5 38 C3.17 38, 0 34.83, 0 28.5 M9.5 38 C3.17 38, 0 34.83, 0 28.5 M0 28.5 C0 22.59, 0 16.68, 0 9.5 M0 28.5 C0 21.25, 0 14, 0 9.5 M0 9.5 C0 3.17, 3.17 0, 9.5 0 M0 9.5 C0 3.17, 3.17 0, 9.5 0" stroke="#000000" stroke-width="1" fill="none"></path></g><g transform="translate(538.0693359375 292.50390625) rotate(0 16.1181640625 11.5)"><text x="16.1181640625" y="0" font-family="Helvetica, Segoe UI Emoji" font-size="20px" fill="#000000" text-anchor="middle" style="white-space: pre;" direction="ltr" dominant-baseline="text-before-edge">API</text></g><g stroke-linecap="round" transform="translate(428.12109375 39.8984375) rotate(0 50.515625 20.20703125)"><path d="M10.1 0 L90.93 0 L95.35 0.63 L98.51 2.53 L100.4 5.68 L101.03 10.1 L101.03 30.31 L100.4 34.73 L98.51 37.89 L95.35 39.78 L90.93 40.41 L10.1 40.41 L5.68 39.78 L2.53 37.89 L0.63 34.73 L0 30.31 L0 10.1 L0.63 5.68 L2.53 2.53 L5.68 0.63 L10.1 0" stroke="none" stroke-width="0" fill="#e3f2fd"></path><path d="M10.1 0 M10.1 0 C33.46 0, 56.81 0, 90.93 0 M10.1 0 C39.73 0, 69.35 0, 90.93 0 M90.93 0 C97.66 0, 101.03 3.37, 101.03 10.1 M90.93 0 C97.66 0, 101.03 3.37, 101.03 10.1 M101.03 10.1 C101.03 14.25, 101.03 18.41, 101.03 30.31 M101.03 10.1 C101.03 15.35, 101.03 20.59, 101.03 30.31 M101.03 30.31 C101.03 37.05, 97.66 40.41, 90.93 40.41 M101.03 30.31 C101.03 37.05, 97.66 40.41, 90.93 40.41 M90.93 40.41 C74.06 40.41, 57.19 40.41, 10.1 40.41 M90.93 40.41 C67.91 40.41, 44.89 40.41, 10.1 40.41 M10.1 40.41 C3.37 40.41, 0 37.05, 0 30.31 M10.1 40.41 C3.37 40.41, 0 37.05, 0 30.31 M0 30.31 C0 23.83, 0 17.36, 0 10.1 M0 30.31 C0 22.67, 0 15.03, 0 10.1 M0 10.1 C0 3.37, 3.37 0, 10.1 0 M0 10.1 C0 3.37, 3.37 0, 10.1 0" stroke="#2874a6" stroke-width="1" fill="none"></path></g><g transform="translate(436.9521484375 48.60546875) rotate(0 41.6845703125 11.5)"><text x="41.6845703125" y="0" font-family="Helvetica, Segoe UI Emoji" font-size="20px" fill="#2874a6" text-anchor="middle" style="white-space: pre;" direction="ltr" dominant-baseline="text-before-edge">User App</text></g><g stroke-linecap="round" transform="translate(502.125 172.95703125) rotate(0 81 20.5)"><path d="M10.25 0 L151.75 0 L156.23 0.64 L159.44 2.56 L161.36 5.77 L162 10.25 L162 30.75 L161.36 35.23 L159.44 38.44 L156.23 40.36 L151.75 41 L10.25 41 L5.77 40.36 L2.56 38.44 L0.64 35.23 L0 30.75 L0 10.25 L0.64 5.77 L2.56 2.56 L5.77 0.64 L10.25 0" stroke="none" stroke-width="0" fill="#12b886"></path><path d="M10.25 0 M10.25 0 C64.16 0, 118.06 0, 151.75 0 M10.25 0 C41.09 0, 71.93 0, 151.75 0 M151.75 0 C158.58 0, 162 3.42, 162 10.25 M151.75 0 C158.58 0, 162 3.42, 162 10.25 M162 10.25 C162 16.18, 162 22.12, 162 30.75 M162 10.25 C162 17.77, 162 25.3, 162 30.75 M162 30.75 C162 37.58, 158.58 41, 151.75 41 M162 30.75 C162 37.58, 158.58 41, 151.75 41 M151.75 41 C106.89 41, 62.04 41, 10.25 41 M151.75 41 C111.12 41, 70.48 41, 10.25 41 M10.25 41 C3.42 41, 0 37.58, 0 30.75 M10.25 41 C3.42 41, 0 37.58, 0 30.75 M0 30.75 C0 23.07, 0 15.4, 0 10.25 M0 30.75 C0 22.55, 0 14.35, 0 10.25 M0 10.25 C0 3.42, 3.42 0, 10.25 0 M0 10.25 C0 3.42, 3.42 0, 10.25 0" stroke="#000000" stroke-width="1" fill="none"></path></g><g transform="translate(513.6572265625 181.95703125) rotate(0 69.4677734375 11.5)"><text x="69.4677734375" y="0" font-family="Helvetica, Segoe UI Emoji" font-size="20px" fill="#000000" text-anchor="middle" style="white-space: pre;" direction="ltr" dominant-baseline="text-before-edge">Admin Services</text></g><g stroke-linecap="round" transform="translate(10 195.8125) rotate(0 50.515624999999986 20.20703125)"><path d="M10.1 0 L90.93 0 L95.35 0.63 L98.51 2.53 L100.4 5.68 L101.03 10.1 L101.03 30.31 L100.4 34.73 L98.51 37.89 L95.35 39.78 L90.93 40.41 L10.1 40.41 L5.68 39.78 L2.53 37.89 L0.63 34.73 L0 30.31 L0 10.1 L0.63 5.68 L2.53 2.53 L5.68 0.63 L10.1 0" stroke="none" stroke-width="0" fill="#12b886"></path><path d="M10.1 0 M10.1 0 C39.99 0, 69.88 0, 90.93 0 M10.1 0 C28.15 0, 46.2 0, 90.93 0 M90.93 0 C97.66 0, 101.03 3.37, 101.03 10.1 M90.93 0 C97.66 0, 101.03 3.37, 101.03 10.1 M101.03 10.1 C101.03 15.64, 101.03 21.19, 101.03 30.31 M101.03 10.1 C101.03 17.62, 101.03 25.14, 101.03 30.31 M101.03 30.31 C101.03 37.05, 97.66 40.41, 90.93 40.41 M101.03 30.31 C101.03 37.05, 97.66 40.41, 90.93 40.41 M90.93 40.41 C59.17 40.41, 27.42 40.41, 10.1 40.41 M90.93 40.41 C65.95 40.41, 40.97 40.41, 10.1 40.41 M10.1 40.41 C3.37 40.41, 0 37.05, 0 30.31 M10.1 40.41 C3.37 40.41, 0 37.05, 0 30.31 M0 30.31 C0 23.73, 0 17.16, 0 10.1 M0 30.31 C0 22.29, 0 14.27, 0 10.1 M0 10.1 C0 3.37, 3.37 0, 10.1 0 M0 10.1 C0 3.37, 3.37 0, 10.1 0" stroke="#000000" stroke-width="1" fill="none"></path></g><g transform="translate(32.1708984375 204.51953125) rotate(0 28.3447265625 11.5)"><text x="28.3447265625" y="0" font-family="Helvetica, Segoe UI Emoji" font-size="20px" fill="#000000" text-anchor="middle" style="white-space: pre;" direction="ltr" dominant-baseline="text-before-edge">Admin</text></g><g stroke-linecap="round" transform="translate(244.8671875 163.9296875) rotate(0 56 20)"><path d="M10 0 L102 0 L106.38 0.63 L109.5 2.5 L111.38 5.63 L112 10 L112 30 L111.38 34.38 L109.5 37.5 L106.38 39.38 L102 40 L10 40 L5.63 39.38 L2.5 37.5 L0.62 34.38 L0 30 L0 10 L0.63 5.63 L2.5 2.5 L5.63 0.62 L10 0" stroke="none" stroke-width="0" fill="#ede7f6"></path><path d="M10 0 M10 0 C30.63 0, 51.26 0, 102 0 M10 0 C34.63 0, 59.26 0, 102 0 M102 0 C108.67 0, 112 3.33, 112 10 M102 0 C108.67 0, 112 3.33, 112 10 M112 10 C112 16.4, 112 22.81, 112 30 M112 10 C112 15.46, 112 20.93, 112 30 M112 30 C112 36.67, 108.67 40, 102 40 M112 30 C112 36.67, 108.67 40, 102 40 M102 40 C72.41 40, 42.83 40, 10 40 M102 40 C76.88 40, 51.77 40, 10 40 M10 40 C3.33 40, 0 36.67, 0 30 M10 40 C3.33 40, 0 36.67, 0 30 M0 30 C0 22.62, 0 15.23, 0 10 M0 30 C0 24.86, 0 19.72, 0 10 M0 10 C0 3.33, 3.33 0, 10 0 M0 10 C0 3.33, 3.33 0, 10 0" stroke="#4527a0" stroke-width="1" fill="none"></path></g><g transform="translate(255.30078125 172.4296875) rotate(0 45.56640625 11.5)"><text x="45.56640625" y="0" font-family="Helvetica, Segoe UI Emoji" font-size="20px" fill="#4527a0" text-anchor="middle" style="white-space: pre;" direction="ltr" dominant-baseline="text-before-edge">Pomerium</text></g><g stroke-linecap="round" transform="translate(45.72265625 309.90234375) rotate(0 79 16.5)"><path d="M8.25 0 L149.75 0 L153.36 0.52 L155.94 2.06 L157.48 4.64 L158 8.25 L157.48 28.36 L155.94 30.94 L153.36 32.48 L149.75 33 L8.25 33 L4.64 32.48 L2.06 30.94 L0.52 28.36 L0 8.25 L0.52 4.64 L2.06 2.06 L4.64 0.52 L8.25 0" stroke="none" stroke-width="0" fill="#e3f2fd"></path><path d="M8.25 0 M8.25 0 C37.62 0, 66.99 0, 149.75 0 M8.25 0 C54.9 0, 101.55 0, 149.75 0 M149.75 0 C155.25 0, 158 2.75, 158 8.25 M149.75 0 C155.25 0, 158 2.75, 158 8.25 M158 8.25 C158 13.94, 158 19.64, 158 24.75 M158 8.25 C158 12.75, 158 17.25, 158 24.75 M158 24.75 C158 30.25, 155.25 33, 149.75 33 M158 24.75 C158 30.25, 155.25 33, 149.75 33 M149.75 33 C113.13 33, 76.51 33, 8.25 33 M149.75 33 C110.56 33, 71.37 33, 8.25 33 M8.25 33 C2.75 33, 0 30.25, 0 24.75 M8.25 33 C2.75 33, 0 30.25, 0 24.75 M0 24.75 C0 18.98, 0 13.21, 0 8.25 M0 24.75 C0 19.28, 0 13.81, 0 8.25 M0 8.25 C0 2.75, 2.75 0, 8.25 0 M0 8.25 C0 2.75, 2.75 0, 8.25 0" stroke="#1864ab" stroke-width="1" fill="none"></path></g><g transform="translate(52.466796875 314.90234375) rotate(0 72.255859375 11.5)"><text x="72.255859375" y="0" font-family="Helvetica, Segoe UI Emoji" font-size="20px" fill="#1864ab" text-anchor="middle" style="white-space: pre;" direction="ltr" dominant-baseline="text-before-edge">Identity Provider</text></g><g transform="translate(423.875 256.52421875000005) rotate(0 60.5859375 11.5)"><text x="0" y="0" font-family="Helvetica, Segoe UI Emoji" font-size="20px" fill="#495057" text-anchor="start" style="white-space: pre;" direction="ltr" dominant-baseline="text-before-edge">Secure VLAN</text></g><g stroke-linecap="round"><g transform="translate(483.046875 302.73046875) rotate(0 18.185546875 -0.19921875)"><path d="M0 0 C10.51 -0.12, 21.01 -0.23, 36.37 -0.4 M0 0 C11.57 -0.13, 23.15 -0.25, 36.37 -0.4" stroke="#495057" stroke-width="4" fill="none"></path></g></g><mask></mask><g transform="translate(362.14453125 236.12890625) rotate(0 -0.603515625 54.44140625)" stroke="none"><path fill="#495057" d="M 1.61,0.07 Q 1.61,0.07 1.62,1.54 1.64,3.01 1.51,5.05 1.39,7.09 1.28,10.00 1.17,12.90 1.10,16.92 1.04,20.94 1.04,25.85 1.04,30.76 1.10,35.46 1.16,40.15 1.22,44.38 1.27,48.60 1.29,52.63 1.31,56.67 1.32,60.39 1.32,64.12 1.32,67.28 1.32,70.44 1.29,73.10 1.27,75.76 1.22,78.03 1.17,80.30 1.19,82.11 1.21,83.91 1.24,85.36 1.27,86.80 1.31,87.96 1.35,89.11 1.48,90.94 1.60,92.77 1.72,94.26 1.84,95.75 1.90,97.23 1.96,98.70 1.99,100.04 2.03,101.38 2.04,102.80 2.06,104.22 1.93,106.55 1.81,108.88 1.73,109.37 1.65,109.85 1.41,110.28 1.18,110.71 0.82,111.04 0.46,111.38 0.02,111.58 -0.42,111.78 -0.90,111.83 -1.39,111.88 -1.87,111.77 -2.34,111.66 -2.76,111.40 -3.18,111.15 -3.49,110.77 -3.81,110.40 -3.98,109.94 -4.16,109.49 -4.18,109.00 -4.20,108.51 -4.07,108.04 -3.94,107.57 -3.66,107.17 -3.38,106.76 -2.99,106.47 -2.60,106.18 -2.13,106.02 -1.67,105.87 -1.18,105.88 -0.69,105.88 -0.23,106.04 0.23,106.20 0.61,106.50 1.00,106.80 1.27,107.21 1.54,107.61 1.67,108.09 1.80,108.56 1.77,109.05 1.74,109.53 1.55,109.99 1.37,110.44 1.05,110.81 0.73,111.18 0.30,111.43 -0.11,111.68 -0.58,111.78 -1.06,111.88 -1.55,111.82 -2.04,111.77 -2.48,111.56 -2.92,111.35 -3.27,111.01 -3.62,110.67 -3.85,110.24 -4.08,109.80 -4.15,109.32 -4.23,108.83 -4.23,108.84 -4.23,108.84 -4.05,106.45 -3.88,104.07 -3.71,102.62 -3.55,101.16 -3.43,99.84 -3.31,98.52 -3.17,97.13 -3.03,95.74 -2.90,94.23 -2.77,92.71 -2.56,90.82 -2.35,88.92 -2.20,87.78 -2.04,86.65 -1.87,85.24 -1.71,83.83 -1.59,82.04 -1.47,80.25 -1.43,77.99 -1.39,75.74 -1.37,73.09 -1.35,70.45 -1.36,67.29 -1.37,64.13 -1.40,60.41 -1.42,56.69 -1.46,52.66 -1.50,48.64 -1.58,44.42 -1.66,40.20 -1.77,35.49 -1.87,30.77 -1.92,25.85 -1.97,20.92 -1.99,16.88 -2.00,12.84 -1.99,9.90 -1.98,6.96 -1.94,4.90 -1.90,2.85 -1.75,1.39 -1.61,-0.07 -1.58,-0.26 -1.54,-0.45 -1.47,-0.63 -1.39,-0.81 -1.27,-0.96 -1.15,-1.12 -1.00,-1.24 -0.85,-1.36 -0.68,-1.45 -0.50,-1.53 -0.31,-1.57 -0.12,-1.61 0.07,-1.60 0.26,-1.59 0.45,-1.53 0.64,-1.48 0.80,-1.38 0.97,-1.28 1.11,-1.15 1.25,-1.01 1.35,-0.85 1.46,-0.68 1.52,-0.50 1.58,-0.31 1.59,-0.12 1.61,0.07 1.61,0.07 L 1.61,0.07 Z"></path></g><g transform="translate(360.4609375 235.07421875) rotate(0 120.890625 1.216796875)" stroke="none"><path fill="#495057" d="M 0.01,-1.56 Q 0.01,-1.56 2.27,-1.50 4.53,-1.45 7.20,-1.38 9.87,-1.31 13.30,-1.20 16.72,-1.09 20.95,-0.94 25.18,-0.79 29.97,-0.69 34.77,-0.59 39.79,-0.54 44.80,-0.49 49.74,-0.41 54.68,-0.32 59.51,-0.17 64.34,-0.02 69.09,0.08 73.84,0.20 78.67,0.26 83.50,0.33 88.08,0.38 92.67,0.43 96.87,0.42 101.07,0.41 105.07,0.38 109.07,0.35 112.85,0.34 116.62,0.33 119.98,0.32 123.33,0.32 126.31,0.31 129.29,0.31 132.12,0.31 134.95,0.31 137.78,0.31 140.62,0.31 143.66,0.31 146.69,0.31 149.73,0.28 152.78,0.26 155.82,0.22 158.87,0.18 161.67,0.16 164.47,0.14 166.83,0.12 169.19,0.10 171.28,0.06 173.37,0.02 175.25,-0.05 177.14,-0.13 178.96,-0.19 180.77,-0.25 182.69,-0.28 184.61,-0.30 186.62,-0.29 188.64,-0.29 190.61,-0.29 192.58,-0.28 194.44,-0.29 196.31,-0.29 198.02,-0.29 199.74,-0.30 201.46,-0.29 203.18,-0.29 204.84,-0.28 206.51,-0.28 208.10,-0.27 209.70,-0.27 211.20,-0.27 212.70,-0.27 213.99,-0.28 215.29,-0.28 217.22,-0.31 219.15,-0.33 221.12,-0.36 223.09,-0.38 224.38,-0.38 225.67,-0.37 227.21,-0.33 228.74,-0.28 230.18,-0.24 231.61,-0.21 232.76,-0.22 233.90,-0.23 235.53,-0.30 237.16,-0.37 239.41,-0.38 241.66,-0.40 241.99,-0.36 242.33,-0.32 242.65,-0.19 242.96,-0.07 243.24,0.11 243.52,0.30 243.74,0.56 243.97,0.81 244.12,1.11 244.28,1.41 244.36,1.74 244.44,2.07 244.44,2.41 244.44,2.75 244.36,3.08 244.28,3.41 244.12,3.71 243.96,4.01 243.73,4.26 243.51,4.51 243.23,4.70 242.95,4.90 242.63,5.02 242.32,5.13 241.98,5.17 241.64,5.21 240.28,4.14 238.92,3.06 238.88,2.61 238.85,2.15 238.96,1.71 239.08,1.27 239.32,0.89 239.57,0.51 239.93,0.23 240.29,-0.05 240.71,-0.20 241.14,-0.35 241.60,-0.36 242.05,-0.37 242.49,-0.23 242.92,-0.10 243.29,0.16 243.65,0.43 243.92,0.80 244.18,1.18 244.31,1.61 244.44,2.05 244.42,2.50 244.41,2.96 244.25,3.38 244.09,3.81 243.80,4.16 243.51,4.51 243.12,4.75 242.74,5.00 242.30,5.10 241.85,5.21 241.40,5.17 240.95,5.13 240.53,4.94 240.12,4.76 239.78,4.45 239.44,4.15 239.22,3.75 239.00,3.35 238.92,2.90 238.84,2.46 238.90,2.01 238.97,1.55 239.17,1.15 239.38,0.74 239.70,0.42 240.03,0.11 240.44,-0.08 240.85,-0.28 241.30,-0.34 241.75,-0.40 242.20,-0.31 242.64,-0.22 243.04,0.00 243.43,0.23 243.73,0.57 244.03,0.91 242.84,0.25 241.66,-0.40 241.99,-0.36 242.33,-0.32 242.65,-0.19 242.96,-0.07 243.24,0.11 243.52,0.30 243.74,0.56 243.97,0.81 244.12,1.11 244.28,1.41 244.36,1.74 244.44,2.07 244.44,2.41 244.44,2.75 244.36,3.08 244.28,3.41 244.12,3.71 243.96,4.01 243.73,4.26 243.51,4.51 243.23,4.70 242.95,4.90 242.63,5.02 242.32,5.13 241.98,5.17 241.64,5.21 239.39,5.16 237.14,5.10 235.48,5.01 233.83,4.92 232.66,4.87 231.50,4.83 230.08,4.80 228.66,4.78 227.14,4.78 225.63,4.78 224.28,4.76 222.94,4.74 220.94,4.59 218.94,4.44 217.02,4.21 215.09,3.98 213.84,3.87 212.59,3.75 211.09,3.67 209.59,3.58 208.00,3.50 206.41,3.42 204.75,3.34 203.09,3.26 201.37,3.19 199.65,3.11 197.96,3.02 196.26,2.94 194.42,2.89 192.57,2.83 190.60,2.82 188.64,2.81 186.63,2.82 184.61,2.83 182.70,2.82 180.79,2.80 178.99,2.76 177.18,2.72 175.29,2.70 173.41,2.68 171.31,2.70 169.22,2.73 166.85,2.75 164.49,2.77 161.70,2.79 158.91,2.81 155.85,2.85 152.80,2.89 149.75,2.91 146.69,2.94 143.66,2.94 140.62,2.94 137.78,2.94 134.95,2.94 132.12,2.94 129.29,2.94 126.31,2.94 123.33,2.95 119.98,2.95 116.63,2.96 112.86,2.97 109.09,2.99 105.09,3.02 101.08,3.05 96.86,3.06 92.64,3.07 88.05,3.02 83.46,2.97 78.62,2.91 73.78,2.85 69.02,2.74 64.26,2.63 59.45,2.49 54.64,2.35 49.71,2.27 44.78,2.20 39.75,2.16 34.72,2.13 29.90,2.04 25.09,1.96 20.87,1.84 16.65,1.71 13.24,1.64 9.83,1.57 7.16,1.55 4.50,1.53 2.24,1.54 -0.01,1.56 -0.20,1.53 -0.38,1.51 -0.56,1.44 -0.73,1.37 -0.89,1.26 -1.04,1.15 -1.16,1.01 -1.29,0.87 -1.37,0.70 -1.46,0.54 -1.50,0.35 -1.55,0.17 -1.55,-0.01 -1.54,-0.20 -1.50,-0.38 -1.45,-0.56 -1.36,-0.73 -1.27,-0.89 -1.15,-1.03 -1.02,-1.17 -0.86,-1.28 -0.71,-1.38 -0.53,-1.45 -0.36,-1.52 -0.17,-1.54 0.01,-1.56 0.01,-1.56 L 0.01,-1.56 Z"></path></g><g transform="translate(361.46484375 349.7265625) rotate(0 125.4375 1.529296875)" stroke="none"><path fill="#495057" d="M -0.03,-1.59 Q -0.03,-1.59 1.70,-1.67 3.45,-1.75 5.86,-1.69 8.28,-1.62 11.43,-1.55 14.57,-1.47 17.95,-1.44 21.32,-1.41 24.75,-1.42 28.19,-1.42 31.58,-1.44 34.96,-1.45 38.08,-1.45 41.19,-1.45 44.27,-1.45 47.35,-1.45 50.59,-1.44 53.83,-1.44 57.40,-1.44 60.97,-1.43 65.27,-1.43 69.56,-1.43 74.06,-1.36 78.56,-1.30 82.73,-1.17 86.91,-1.04 90.62,-0.88 94.33,-0.71 97.60,-0.51 100.87,-0.30 103.86,-0.10 106.85,0.09 109.87,0.26 112.90,0.43 115.93,0.51 118.96,0.59 122.26,0.65 125.55,0.70 129.00,0.80 132.44,0.89 135.39,0.98 138.34,1.07 141.00,1.15 143.65,1.23 146.23,1.29 148.80,1.35 151.57,1.38 154.34,1.42 157.39,1.46 160.45,1.50 163.83,1.55 167.22,1.59 171.04,1.63 174.85,1.67 178.64,1.72 182.42,1.77 186.40,1.80 190.38,1.83 194.63,1.83 198.88,1.82 202.85,1.73 206.82,1.64 210.42,1.49 214.01,1.34 217.18,1.19 220.36,1.04 223.09,0.92 225.83,0.80 228.33,0.73 230.84,0.67 233.15,0.62 235.46,0.56 237.43,0.48 239.41,0.39 241.06,0.25 242.71,0.11 244.02,-0.06 245.33,-0.23 247.89,-0.51 250.45,-0.79 250.76,-0.79 251.08,-0.79 251.38,-0.69 251.68,-0.60 251.93,-0.41 252.18,-0.22 252.36,0.03 252.54,0.29 252.63,0.60 252.71,0.90 252.70,1.22 252.68,1.53 252.57,1.83 252.45,2.12 252.25,2.36 252.05,2.60 251.78,2.77 251.51,2.93 251.20,3.00 250.89,3.07 250.58,3.04 250.26,3.01 249.98,2.87 249.69,2.74 249.46,2.53 249.23,2.31 249.08,2.03 248.93,1.76 248.88,1.44 248.82,1.13 248.87,0.82 248.92,0.51 249.07,0.23 249.22,-0.04 249.44,-0.26 249.67,-0.48 249.96,-0.61 250.24,-0.74 250.56,-0.78 250.87,-0.82 251.18,-0.75 251.49,-0.68 251.76,-0.52 252.03,-0.36 252.24,-0.12 252.44,0.11 252.56,0.40 252.68,0.69 252.70,1.01 252.72,1.32 252.63,1.63 252.55,1.93 252.37,2.20 252.20,2.46 251.95,2.65 251.70,2.84 251.40,2.94 251.10,3.05 251.10,3.05 251.10,3.05 248.31,3.14 245.52,3.24 244.17,3.21 242.82,3.19 241.15,3.17 239.48,3.15 237.50,3.17 235.52,3.19 233.21,3.24 230.91,3.29 228.43,3.36 225.95,3.42 223.21,3.54 220.48,3.66 217.30,3.81 214.12,3.96 210.50,4.11 206.88,4.27 202.88,4.36 198.89,4.45 194.62,4.46 190.36,4.46 186.37,4.43 182.39,4.40 178.61,4.35 174.82,4.30 171.01,4.25 167.19,4.21 163.80,4.17 160.41,4.13 157.36,4.09 154.31,4.04 151.52,4.01 148.74,3.97 146.16,3.91 143.57,3.85 140.92,3.78 138.26,3.70 135.31,3.61 132.37,3.52 128.94,3.42 125.51,3.33 122.20,3.28 118.89,3.22 115.82,3.14 112.75,3.05 109.71,2.89 106.68,2.72 103.69,2.52 100.70,2.32 97.46,2.12 94.21,1.91 90.52,1.75 86.83,1.59 82.68,1.46 78.52,1.34 74.04,1.28 69.56,1.22 65.27,1.22 60.97,1.22 57.40,1.23 53.83,1.23 50.59,1.24 47.35,1.25 44.28,1.26 41.20,1.27 38.09,1.30 34.99,1.32 31.60,1.36 28.21,1.40 24.76,1.44 21.32,1.49 17.93,1.51 14.54,1.53 11.40,1.53 8.25,1.53 5.89,1.56 3.53,1.59 1.78,1.59 0.03,1.59 -0.15,1.57 -0.34,1.55 -0.52,1.48 -0.70,1.42 -0.86,1.32 -1.02,1.21 -1.15,1.07 -1.28,0.93 -1.38,0.76 -1.47,0.59 -1.52,0.41 -1.57,0.22 -1.58,0.03 -1.58,-0.15 -1.54,-0.34 -1.50,-0.53 -1.41,-0.70 -1.33,-0.87 -1.20,-1.02 -1.08,-1.16 -0.92,-1.28 -0.77,-1.39 -0.59,-1.46 -0.41,-1.53 -0.22,-1.56 -0.03,-1.59 -0.03,-1.59 L -0.03,-1.59 Z"></path></g><g transform="translate(603.578125 239.67578125) rotate(0 1.1484375 53.412109375)" stroke="none"><path fill="#495057" d="M 2.02,0.22 Q 2.02,0.22 1.86,1.82 1.69,3.42 1.61,4.80 1.53,6.17 1.47,7.49 1.41,8.82 1.35,10.17 1.29,11.52 1.24,12.97 1.19,14.41 1.15,15.99 1.11,17.57 1.04,19.42 0.97,21.26 0.87,23.29 0.78,25.32 0.66,27.54 0.54,29.76 0.43,31.99 0.33,34.22 0.27,36.30 0.21,38.37 0.22,40.25 0.23,42.13 0.27,43.84 0.32,45.56 0.37,47.15 0.42,48.75 0.51,50.17 0.60,51.58 0.72,52.86 0.84,54.13 0.98,55.31 1.12,56.49 1.29,57.72 1.45,58.95 1.65,60.13 1.85,61.31 2.07,62.42 2.29,63.53 2.49,64.58 2.70,65.64 3.06,67.52 3.43,69.41 3.70,70.77 3.98,72.12 4.14,73.31 4.31,74.50 4.53,75.97 4.76,77.44 4.94,78.64 5.12,79.85 5.31,80.92 5.49,81.98 5.64,83.31 5.78,84.65 5.85,85.84 5.93,87.03 6.04,88.26 6.15,89.48 6.26,90.67 6.37,91.86 6.42,92.99 6.46,94.11 6.45,95.33 6.44,96.55 6.43,97.67 6.42,98.80 6.54,99.87 6.66,100.93 6.79,102.11 6.91,103.28 7.11,104.77 7.31,106.27 7.32,106.71 7.32,107.16 7.22,107.60 7.12,108.04 6.92,108.44 6.72,108.84 6.43,109.18 6.13,109.52 5.77,109.78 5.41,110.04 4.99,110.21 4.57,110.37 4.13,110.43 3.68,110.49 3.24,110.45 2.79,110.40 2.37,110.25 1.95,110.10 1.57,109.85 1.20,109.60 0.90,109.27 0.60,108.94 0.38,108.54 0.17,108.15 0.05,107.72 -0.05,107.28 0.47,108.35 1.01,109.42 0.65,108.93 0.30,108.45 0.12,107.87 -0.05,107.30 -0.04,106.70 -0.03,106.09 0.17,105.53 0.37,104.96 0.75,104.49 1.12,104.02 1.63,103.69 2.13,103.36 2.72,103.22 3.30,103.07 3.90,103.11 4.50,103.16 5.05,103.39 5.61,103.63 6.06,104.03 6.51,104.43 6.81,104.95 7.11,105.47 7.22,106.06 7.34,106.65 7.26,107.25 7.19,107.84 6.92,108.39 6.66,108.93 6.23,109.35 5.81,109.78 5.27,110.05 4.74,110.32 4.14,110.41 3.54,110.49 2.95,110.38 2.36,110.27 1.83,109.98 1.31,109.69 0.90,109.24 0.50,108.80 0.26,108.24 0.02,107.69 -0.02,107.09 -0.08,106.49 0.05,105.91 0.20,105.32 0.52,104.81 0.84,104.31 1.31,103.93 1.77,103.55 2.34,103.33 2.90,103.12 3.50,103.10 4.10,103.08 4.68,103.26 5.26,103.43 6.28,104.85 7.31,106.26 7.32,106.71 7.32,107.16 7.22,107.60 7.12,108.04 6.92,108.44 6.72,108.84 6.43,109.18 6.14,109.52 5.77,109.78 5.41,110.04 4.99,110.21 4.57,110.37 4.13,110.43 3.68,110.49 3.24,110.45 2.79,110.40 2.37,110.25 1.95,110.10 1.57,109.85 1.20,109.60 0.90,109.27 0.60,108.94 0.38,108.54 0.17,108.15 0.05,107.72 -0.05,107.28 -0.28,105.56 -0.50,103.84 -0.58,102.69 -0.66,101.54 -0.75,100.34 -0.83,99.13 -0.79,97.70 -0.75,96.27 -0.69,95.20 -0.64,94.13 -0.63,93.03 -0.63,91.94 -0.68,90.58 -0.73,89.22 -0.78,87.87 -0.84,86.52 -0.84,85.38 -0.85,84.24 -0.92,83.08 -0.98,81.92 -1.14,80.51 -1.30,79.11 -1.40,77.58 -1.51,76.05 -1.54,74.97 -1.57,73.89 -1.63,72.83 -1.70,71.77 -1.89,70.07 -2.07,68.37 -2.30,66.33 -2.53,64.30 -2.68,63.12 -2.83,61.94 -2.96,60.67 -3.09,59.39 -3.17,58.09 -3.25,56.80 -3.28,55.56 -3.30,54.32 -3.30,52.99 -3.30,51.66 -3.26,50.20 -3.22,48.75 -3.17,47.15 -3.12,45.55 -3.07,43.83 -3.03,42.11 -3.00,40.23 -2.98,38.35 -3.00,36.25 -3.02,34.16 -3.05,31.94 -3.08,29.72 -3.14,27.52 -3.20,25.32 -3.29,23.28 -3.37,21.24 -3.42,19.37 -3.47,17.50 -3.46,15.85 -3.44,14.21 -3.37,12.71 -3.29,11.22 -3.17,9.84 -3.05,8.47 -2.90,7.13 -2.76,5.79 -2.59,4.37 -2.42,2.95 -2.22,1.36 -2.02,-0.22 -1.96,-0.46 -1.91,-0.70 -1.79,-0.92 -1.68,-1.14 -1.52,-1.32 -1.36,-1.51 -1.16,-1.65 -0.96,-1.79 -0.73,-1.88 -0.50,-1.97 -0.25,-2.00 -0.01,-2.03 0.22,-2.00 0.47,-1.98 0.70,-1.89 0.93,-1.81 1.13,-1.67 1.33,-1.53 1.50,-1.35 1.66,-1.17 1.78,-0.95 1.89,-0.73 1.95,-0.49 2.02,-0.26 2.02,-0.01 2.02,0.22 2.02,0.22 L 2.02,0.22 Z"></path></g><g stroke-linecap="round"><g transform="translate(133.8125 121.67578125) rotate(0 52.501953125 23.873122447623246)"><path d="M0 0 C34.27 15.58, 68.54 31.17, 105 47.75 M0 0 C31.93 14.52, 63.86 29.04, 105 47.75" stroke="#2874a6" stroke-width="4" fill="none"></path></g><g transform="translate(133.8125 121.67578125) rotate(0 52.501953125 23.873122447623246)"><path d="M114.5 47.75 C114.5 48.3, 114.46 48.85, 114.36 49.4 C114.26 49.94, 114.12 50.48, 113.93 51 C113.74 51.51, 113.51 52.02, 113.23 52.5 C112.96 52.97, 112.63 53.43, 112.28 53.85 C111.93 54.27, 111.53 54.67, 111.11 55.02 C110.69 55.38, 110.23 55.7, 109.75 55.97 C109.28 56.25, 108.77 56.49, 108.25 56.67 C107.74 56.86, 107.2 57.01, 106.65 57.1 C106.11 57.2, 105.55 57.25, 105 57.25 C104.45 57.25, 103.9 57.2, 103.35 57.1 C102.81 57.01, 102.27 56.86, 101.75 56.67 C101.24 56.49, 100.73 56.25, 100.25 55.97 C99.78 55.7, 99.32 55.38, 98.9 55.02 C98.48 54.67, 98.08 54.27, 97.73 53.85 C97.37 53.43, 97.05 52.97, 96.78 52.5 C96.5 52.02, 96.26 51.51, 96.08 51 C95.89 50.48, 95.74 49.94, 95.65 49.4 C95.55 48.85, 95.5 48.3, 95.5 47.75 C95.5 47.2, 95.55 46.64, 95.65 46.1 C95.74 45.56, 95.89 45.01, 96.08 44.5 C96.26 43.98, 96.5 43.47, 96.78 43 C97.05 42.52, 97.37 42.06, 97.73 41.64 C98.08 41.22, 98.48 40.82, 98.9 40.47 C99.32 40.12, 99.78 39.79, 100.25 39.52 C100.73 39.24, 101.24 39.01, 101.75 38.82 C102.27 38.63, 102.81 38.49, 103.35 38.39 C103.9 38.3, 104.45 38.25, 105 38.25 C105.55 38.25, 106.11 38.3, 106.65 38.39 C107.2 38.49, 107.74 38.63, 108.25 38.82 C108.77 39.01, 109.28 39.24, 109.75 39.52 C110.23 39.79, 110.69 40.12, 111.11 40.47 C111.53 40.82, 111.93 41.22, 112.28 41.64 C112.63 42.06, 112.96 42.52, 113.23 43 C113.51 43.47, 113.74 43.98, 113.93 44.5 C114.12 45.01, 114.26 45.56, 114.36 46.1 C114.46 46.64, 114.48 47.47, 114.5 47.75 C114.53 48.02, 114.53 47.47, 114.5 47.75" stroke="none" stroke-width="0" fill="#2874a6"></path></g></g><mask></mask><g stroke-linecap="round" transform="translate(162.46875 128.66796875) rotate(0 21 15)"><path d="M0 0 L42 0 L42 30 L0 30" stroke="none" stroke-width="0" fill="#e3f2fd"></path><path d="M0 0 C14.45 0, 28.89 0, 42 0 M0 0 C12.22 0, 24.45 0, 42 0 M42 0 C42 6.4, 42 12.79, 42 30 M42 0 C42 6.54, 42 13.07, 42 30 M42 30 C32.4 30, 22.8 30, 0 30 M42 30 C32.69 30, 23.38 30, 0 30 M0 30 C0 19.31, 0 8.62, 0 0 M0 30 C0 21.26, 0 12.53, 0 0" stroke="#2874a6" stroke-width="2" fill="none"></path></g><g transform="translate(168.796875 134.46796875) rotate(0 14.671875 9.200000000000003)"><text x="14.671875" y="0" font-family="Helvetica, Segoe UI Emoji" font-size="16px" fill="#2874a6" text-anchor="middle" style="white-space: pre;" direction="ltr" dominant-baseline="text-before-edge">TLS</text></g><g stroke-linecap="round"><g transform="translate(112.13671874999997 219.91047395451716) rotate(0 63.38476562500003 -10.211488743844285)"><path d="M0 0 C42.61 -6.86, 85.22 -13.73, 126.77 -20.42 M0 0 C26.11 -4.21, 52.21 -8.41, 126.77 -20.42" stroke="#087f5b" stroke-width="4" fill="none"></path></g><g transform="translate(112.13671874999997 219.91047395451716) rotate(0 63.38476562500003 -10.211488743844285)"><path d="M136.27 -20.42 C136.27 -19.87, 136.22 -19.31, 136.13 -18.77 C136.03 -18.23, 135.88 -17.69, 135.7 -17.17 C135.51 -16.66, 135.27 -16.15, 135 -15.67 C134.72 -15.2, 134.4 -14.74, 134.05 -14.32 C133.69 -13.9, 133.3 -13.5, 132.88 -13.15 C132.45 -12.79, 132 -12.47, 131.52 -12.2 C131.04 -11.92, 130.54 -11.68, 130.02 -11.5 C129.5 -11.31, 128.96 -11.16, 128.42 -11.07 C127.88 -10.97, 127.32 -10.92, 126.77 -10.92 C126.22 -10.92, 125.66 -10.97, 125.12 -11.07 C124.58 -11.16, 124.04 -11.31, 123.52 -11.5 C123 -11.68, 122.5 -11.92, 122.02 -12.2 C121.54 -12.47, 121.08 -12.79, 120.66 -13.15 C120.24 -13.5, 119.85 -13.9, 119.49 -14.32 C119.14 -14.74, 118.82 -15.2, 118.54 -15.67 C118.27 -16.15, 118.03 -16.66, 117.84 -17.17 C117.65 -17.69, 117.51 -18.23, 117.41 -18.77 C117.32 -19.31, 117.27 -19.87, 117.27 -20.42 C117.27 -20.97, 117.32 -21.53, 117.41 -22.07 C117.51 -22.61, 117.65 -23.16, 117.84 -23.67 C118.03 -24.19, 118.27 -24.7, 118.54 -25.17 C118.82 -25.65, 119.14 -26.11, 119.49 -26.53 C119.85 -26.95, 120.24 -27.35, 120.66 -27.7 C121.08 -28.05, 121.54 -28.38, 122.02 -28.65 C122.5 -28.93, 123 -29.16, 123.52 -29.35 C124.04 -29.54, 124.58 -29.68, 125.12 -29.78 C125.66 -29.87, 126.22 -29.92, 126.77 -29.92 C127.32 -29.92, 127.88 -29.87, 128.42 -29.78 C128.96 -29.68, 129.5 -29.54, 130.02 -29.35 C130.54 -29.16, 131.04 -28.93, 131.52 -28.65 C132 -28.38, 132.45 -28.05, 132.88 -27.7 C133.3 -27.35, 133.69 -26.95, 134.05 -26.53 C134.4 -26.11, 134.72 -25.65, 135 -25.17 C135.27 -24.7, 135.51 -24.19, 135.7 -23.67 C135.88 -23.16, 136.03 -22.61, 136.13 -22.07 C136.22 -21.53, 136.25 -20.7, 136.27 -20.42 C136.29 -20.15, 136.29 -20.7, 136.27 -20.42" stroke="none" stroke-width="0" fill="#087f5b"></path></g></g><mask></mask><g stroke-linecap="round" transform="translate(139.5625 194.19140625) rotate(0 30.478515625 14.199999999999989)"><path d="M0 0 L60.96 0 L60.96 28.4 L0 28.4" stroke="none" stroke-width="0" fill="#12b886"></path><path d="M0 0 C22.39 0, 44.78 0, 60.96 0 M0 0 C20.48 0, 40.97 0, 60.96 0 M60.96 0 C60.96 10.39, 60.96 20.78, 60.96 28.4 M60.96 0 C60.96 9.09, 60.96 18.18, 60.96 28.4 M60.96 28.4 C45.57 28.4, 30.19 28.4, 0 28.4 M60.96 28.4 C47.4 28.4, 33.84 28.4, 0 28.4 M0 28.4 C0 19.33, 0 10.26, 0 0 M0 28.4 C0 17.53, 0 6.66, 0 0" stroke="#000000" stroke-width="2" fill="none"></path></g><g transform="translate(148.705078125 199.19140625) rotate(0 21.3359375 9.199999999999989)"><text x="21.3359375" y="0" font-family="Helvetica, Segoe UI Emoji" font-size="16px" fill="#000000" text-anchor="middle" style="white-space: pre;" direction="ltr" dominant-baseline="text-before-edge">mTLS</text></g><g stroke-linecap="round"><g transform="translate(426.96484375000006 74.86754861984224) rotate(0 -45.32031250000003 7.1189600650788805)"><path d="M0 0 C-28.06 4.41, -56.12 8.82, -90.64 14.24 M0 0 C-23.58 3.7, -47.16 7.41, -90.64 14.24" stroke="#2874a6" stroke-width="4" fill="none"></path></g></g><mask></mask><g stroke-linecap="round" transform="translate(301.83984375 80.32734375000001) rotate(0 31 14.5)"><path d="M0 0 L62 0 L62 29 L0 29" stroke="none" stroke-width="0" fill="#e3f2fd"></path><path d="M0 0 C14.77 0, 29.55 0, 62 0 M0 0 C21.69 0, 43.39 0, 62 0 M62 0 C62 9.5, 62 19, 62 29 M62 0 C62 10.06, 62 20.11, 62 29 M62 29 C37.26 29, 12.52 29, 0 29 M62 29 C45.88 29, 29.76 29, 0 29 M0 29 C0 22.4, 0 15.8, 0 0 M0 29 C0 23.19, 0 17.37, 0 0" stroke="#2874a6" stroke-width="2" fill="none"></path></g><g transform="translate(311.50390625 85.62734375000002) rotate(0 21.3359375 9.200000000000003)"><text x="21.3359375" y="0" font-family="Helvetica, Segoe UI Emoji" font-size="16px" fill="#2874a6" text-anchor="middle" style="white-space: pre;" direction="ltr" dominant-baseline="text-before-edge">mTLS</text></g><g stroke-linecap="round"><g transform="translate(365.3125 84.65965120872067) rotate(0 29.67773437500003 -5.8407179096523265)"><path d="M0 0 C20.76 -4.09, 41.52 -8.17, 59.36 -11.68 M0 0 C18.55 -3.65, 37.11 -7.3, 59.36 -11.68" stroke="#2874a6" stroke-width="4" fill="none"></path></g><g transform="translate(365.3125 84.65965120872067) rotate(0 29.67773437500003 -5.8407179096523265)"><path d="M68.86 -11.68 C68.86 -11.13, 68.81 -10.57, 68.71 -10.03 C68.62 -9.49, 68.47 -8.95, 68.28 -8.43 C68.09 -7.92, 67.86 -7.41, 67.58 -6.93 C67.31 -6.46, 66.99 -6, 66.63 -5.57 C66.28 -5.15, 65.88 -4.76, 65.46 -4.4 C65.04 -4.05, 64.58 -3.73, 64.11 -3.45 C63.63 -3.18, 63.12 -2.94, 62.6 -2.75 C62.09 -2.57, 61.55 -2.42, 61.01 -2.33 C60.46 -2.23, 59.91 -2.18, 59.36 -2.18 C58.81 -2.18, 58.25 -2.23, 57.71 -2.33 C57.16 -2.42, 56.62 -2.57, 56.11 -2.75 C55.59 -2.94, 55.08 -3.18, 54.61 -3.45 C54.13 -3.73, 53.67 -4.05, 53.25 -4.4 C52.83 -4.76, 52.43 -5.15, 52.08 -5.57 C51.72 -6, 51.4 -6.46, 51.13 -6.93 C50.85 -7.41, 50.62 -7.92, 50.43 -8.43 C50.24 -8.95, 50.1 -9.49, 50 -10.03 C49.9 -10.57, 49.86 -11.13, 49.86 -11.68 C49.86 -12.23, 49.9 -12.79, 50 -13.33 C50.1 -13.87, 50.24 -14.41, 50.43 -14.93 C50.62 -15.45, 50.85 -15.96, 51.13 -16.43 C51.4 -16.91, 51.72 -17.37, 52.08 -17.79 C52.43 -18.21, 52.83 -18.61, 53.25 -18.96 C53.67 -19.31, 54.13 -19.63, 54.61 -19.91 C55.08 -20.18, 55.59 -20.42, 56.11 -20.61 C56.62 -20.8, 57.16 -20.94, 57.71 -21.04 C58.25 -21.13, 58.81 -21.18, 59.36 -21.18 C59.91 -21.18, 60.46 -21.13, 61.01 -21.04 C61.55 -20.94, 62.09 -20.8, 62.6 -20.61 C63.12 -20.42, 63.63 -20.18, 64.11 -19.91 C64.58 -19.63, 65.04 -19.31, 65.46 -18.96 C65.88 -18.61, 66.28 -18.21, 66.63 -17.79 C66.99 -17.37, 67.31 -16.91, 67.58 -16.43 C67.86 -15.96, 68.09 -15.45, 68.28 -14.93 C68.47 -14.41, 68.62 -13.87, 68.71 -13.33 C68.81 -12.79, 68.83 -11.96, 68.86 -11.68 C68.88 -11.41, 68.88 -11.96, 68.86 -11.68" stroke="none" stroke-width="0" fill="#2874a6"></path></g></g><mask></mask><g stroke-linecap="round"><g transform="translate(500.751953125 195.62783983300847) rotate(0 -70.884765625 -0.8420656565380398)"><path d="M0 0 C-35.02 -0.42, -70.05 -0.83, -141.77 -1.68 M0 0 C-34.26 -0.41, -68.52 -0.81, -141.77 -1.68" stroke="#087f5b" stroke-width="4" fill="none"></path></g><g transform="translate(500.751953125 195.62783983300847) rotate(0 -70.884765625 -0.8420656565380398)"><path d="M-132.27 -1.68 C-132.27 -1.13, -132.32 -0.58, -132.41 -0.03 C-132.51 0.51, -132.65 1.05, -132.84 1.57 C-133.03 2.08, -133.27 2.59, -133.54 3.07 C-133.82 3.54, -134.14 4, -134.49 4.42 C-134.85 4.84, -135.24 5.24, -135.66 5.59 C-136.08 5.95, -136.54 6.27, -137.02 6.54 C-137.5 6.82, -138 7.05, -138.52 7.24 C-139.04 7.43, -139.58 7.58, -140.12 7.67 C-140.66 7.77, -141.22 7.82, -141.77 7.82 C-142.32 7.82, -142.88 7.77, -143.42 7.67 C-143.96 7.58, -144.5 7.43, -145.02 7.24 C-145.54 7.05, -146.04 6.82, -146.52 6.54 C-147 6.27, -147.45 5.95, -147.88 5.59 C-148.3 5.24, -148.69 4.84, -149.05 4.42 C-149.4 4, -149.72 3.54, -150 3.07 C-150.27 2.59, -150.51 2.08, -150.7 1.57 C-150.88 1.05, -151.03 0.51, -151.13 -0.03 C-151.22 -0.58, -151.27 -1.13, -151.27 -1.68 C-151.27 -2.23, -151.22 -2.79, -151.13 -3.33 C-151.03 -3.88, -150.88 -4.42, -150.7 -4.93 C-150.51 -5.45, -150.27 -5.96, -150 -6.43 C-149.72 -6.91, -149.4 -7.37, -149.05 -7.79 C-148.69 -8.21, -148.3 -8.61, -147.88 -8.96 C-147.45 -9.32, -147 -9.64, -146.52 -9.91 C-146.04 -10.19, -145.54 -10.42, -145.02 -10.61 C-144.5 -10.8, -143.96 -10.94, -143.42 -11.04 C-142.88 -11.14, -142.32 -11.18, -141.77 -11.18 C-141.22 -11.18, -140.66 -11.14, -140.12 -11.04 C-139.58 -10.94, -139.04 -10.8, -138.52 -10.61 C-138 -10.42, -137.5 -10.19, -137.02 -9.91 C-136.54 -9.64, -136.08 -9.32, -135.66 -8.96 C-135.24 -8.61, -134.85 -8.21, -134.49 -7.79 C-134.14 -7.37, -133.82 -6.91, -133.54 -6.43 C-133.27 -5.96, -133.03 -5.45, -132.84 -4.93 C-132.65 -4.42, -132.51 -3.88, -132.41 -3.33 C-132.32 -2.79, -132.29 -1.96, -132.27 -1.68 C-132.25 -1.41, -132.25 -1.96, -132.27 -1.68" stroke="none" stroke-width="0" fill="#087f5b"></path></g></g><mask></mask><g stroke-linecap="round" transform="translate(398.541015625 182.67890624999995) rotate(0 30.478515625 14.199999999999989)"><path d="M0 0 L60.96 0 L60.96 28.4 L0 28.4" stroke="none" stroke-width="0" fill="#12b886"></path><path d="M0 0 C23.39 0, 46.79 0, 60.96 0 M0 0 C23.49 0, 46.99 0, 60.96 0 M60.96 0 C60.96 11.18, 60.96 22.36, 60.96 28.4 M60.96 0 C60.96 10.67, 60.96 21.35, 60.96 28.4 M60.96 28.4 C46.52 28.4, 32.08 28.4, 0 28.4 M60.96 28.4 C48.46 28.4, 35.97 28.4, 0 28.4 M0 28.4 C0 19.52, 0 10.64, 0 0 M0 28.4 C0 17.38, 0 6.36, 0 0" stroke="#000000" stroke-width="2" fill="none"></path></g><g transform="translate(407.68359375 187.67890624999995) rotate(0 21.3359375 9.199999999999989)"><text x="21.3359375" y="0" font-family="Helvetica, Segoe UI Emoji" font-size="16px" fill="#000000" text-anchor="middle" style="white-space: pre;" direction="ltr" dominant-baseline="text-before-edge">mTLS</text></g><g stroke-linecap="round"><g transform="translate(463.30078125000006 196.08098472387366) rotate(0 18.76367187499997 0.6956562276245677)"><path d="M0 0 C12.04 0.45, 24.08 0.89, 37.53 1.39 M0 0 C14.87 0.55, 29.73 1.1, 37.53 1.39" stroke="#087f5b" stroke-width="4" fill="none"></path></g><g transform="translate(463.30078125000006 196.08098472387366) rotate(0 18.76367187499997 0.6956562276245677)"><path d="M47.03 1.39 C47.03 1.94, 46.98 2.5, 46.88 3.04 C46.79 3.58, 46.64 4.12, 46.45 4.64 C46.27 5.16, 46.03 5.67, 45.75 6.14 C45.48 6.62, 45.16 7.08, 44.8 7.5 C44.45 7.92, 44.06 8.32, 43.63 8.67 C43.21 9.02, 42.75 9.34, 42.28 9.62 C41.8 9.89, 41.29 10.13, 40.78 10.32 C40.26 10.51, 39.72 10.65, 39.18 10.75 C38.64 10.84, 38.08 10.89, 37.53 10.89 C36.98 10.89, 36.42 10.84, 35.88 10.75 C35.34 10.65, 34.79 10.51, 34.28 10.32 C33.76 10.13, 33.25 9.89, 32.78 9.62 C32.3 9.34, 31.84 9.02, 31.42 8.67 C31 8.32, 30.6 7.92, 30.25 7.5 C29.9 7.08, 29.58 6.62, 29.3 6.14 C29.03 5.67, 28.79 5.16, 28.6 4.64 C28.41 4.12, 28.27 3.58, 28.17 3.04 C28.08 2.5, 28.03 1.94, 28.03 1.39 C28.03 0.84, 28.08 0.28, 28.17 -0.26 C28.27 -0.8, 28.41 -1.34, 28.6 -1.86 C28.79 -2.37, 29.03 -2.88, 29.3 -3.36 C29.58 -3.83, 29.9 -4.29, 30.25 -4.72 C30.6 -5.14, 31 -5.53, 31.42 -5.89 C31.84 -6.24, 32.3 -6.56, 32.78 -6.84 C33.25 -7.11, 33.76 -7.35, 34.28 -7.54 C34.79 -7.72, 35.34 -7.87, 35.88 -7.96 C36.42 -8.06, 36.98 -8.11, 37.53 -8.11 C38.08 -8.11, 38.64 -8.06, 39.18 -7.96 C39.72 -7.87, 40.26 -7.72, 40.78 -7.54 C41.29 -7.35, 41.8 -7.11, 42.28 -6.84 C42.75 -6.56, 43.21 -6.24, 43.63 -5.89 C44.06 -5.53, 44.45 -5.14, 44.8 -4.72 C45.16 -4.29, 45.48 -3.83, 45.75 -3.36 C46.03 -2.88, 46.27 -2.37, 46.45 -1.86 C46.64 -1.34, 46.79 -0.8, 46.88 -0.26 C46.98 0.28, 47 1.12, 47.03 1.39 C47.05 1.67, 47.05 1.12, 47.03 1.39" stroke="none" stroke-width="0" fill="#087f5b"></path></g></g><mask></mask><g stroke-linecap="round"><g transform="translate(348.1328125 163.87890625) rotate(0 65.634765625 -42.021484375)"><path d="M0 0 C46.94 -30.06, 93.89 -60.11, 131.27 -84.04" stroke="#2874a6" stroke-width="4.5" fill="none" stroke-dasharray="8 12"></path></g></g><mask></mask><g stroke-linecap="round" transform="translate(388.64453125 108.478125) rotate(0 21.5 14.5)"><path d="M0 0 L43 0 L43 29 L0 29" stroke="none" stroke-width="0" fill="#e3f2fd"></path><path d="M0 0 C14 0, 28 0, 43 0 M0 0 C9.63 0, 19.26 0, 43 0 M43 0 C43 7.8, 43 15.6, 43 29 M43 0 C43 8.26, 43 16.53, 43 29 M43 29 C28.16 29, 13.32 29, 0 29 M43 29 C28.42 29, 13.84 29, 0 29 M0 29 C0 18.96, 0 8.93, 0 0 M0 29 C0 17.79, 0 6.57, 0 0" stroke="#2874a6" stroke-width="2" fill="none"></path></g><g transform="translate(393.70703125 113.77812500000002) rotate(0 16.4375 9.200000000000003)"><text x="16.4375" y="0" font-family="Helvetica, Segoe UI Emoji" font-size="16px" fill="#2874a6" text-anchor="middle" style="white-space: pre;" direction="ltr" dominant-baseline="text-before-edge">JWT</text></g><g stroke-linecap="round"><g transform="translate(308.0158601346441 206.29296875) rotate(0 0.7791793076779641 45.26953125)"><path d="M0 0 C0.56 32.42, 1.12 64.84, 1.56 90.54 M0 0 C0.45 26.43, 0.91 52.85, 1.56 90.54" stroke="#2874a6" stroke-width="4" fill="none"></path></g><g transform="translate(308.0158601346441 206.29296875) rotate(0 0.7791793076779641 45.26953125)"><path d="M11.06 90.54 C11.06 91.09, 11.01 91.65, 10.91 92.19 C10.82 92.73, 10.67 93.27, 10.49 93.79 C10.3 94.3, 10.06 94.81, 9.79 95.29 C9.51 95.77, 9.19 96.22, 8.84 96.65 C8.48 97.07, 8.09 97.46, 7.66 97.82 C7.24 98.17, 6.78 98.49, 6.31 98.77 C5.83 99.04, 5.32 99.28, 4.81 99.47 C4.29 99.65, 3.75 99.8, 3.21 99.89 C2.67 99.99, 2.11 100.04, 1.56 100.04 C1.01 100.04, 0.45 99.99, -0.09 99.89 C-0.63 99.8, -1.17 99.65, -1.69 99.47 C-2.21 99.28, -2.72 99.04, -3.19 98.77 C-3.67 98.49, -4.13 98.17, -4.55 97.82 C-4.97 97.46, -5.37 97.07, -5.72 96.65 C-6.07 96.22, -6.39 95.77, -6.67 95.29 C-6.94 94.81, -7.18 94.3, -7.37 93.79 C-7.56 93.27, -7.7 92.73, -7.8 92.19 C-7.89 91.65, -7.94 91.09, -7.94 90.54 C-7.94 89.99, -7.89 89.43, -7.8 88.89 C-7.7 88.35, -7.56 87.81, -7.37 87.29 C-7.18 86.77, -6.94 86.27, -6.67 85.79 C-6.39 85.31, -6.07 84.85, -5.72 84.43 C-5.37 84.01, -4.97 83.62, -4.55 83.26 C-4.13 82.91, -3.67 82.59, -3.19 82.31 C-2.72 82.04, -2.21 81.8, -1.69 81.61 C-1.17 81.42, -0.63 81.28, -0.09 81.18 C0.45 81.09, 1.01 81.04, 1.56 81.04 C2.11 81.04, 2.67 81.09, 3.21 81.18 C3.75 81.28, 4.29 81.42, 4.81 81.61 C5.32 81.8, 5.83 82.04, 6.31 82.31 C6.78 82.59, 7.24 82.91, 7.66 83.26 C8.09 83.62, 8.48 84.01, 8.84 84.43 C9.19 84.85, 9.51 85.31, 9.79 85.79 C10.06 86.27, 10.3 86.77, 10.49 87.29 C10.67 87.81, 10.82 88.35, 10.91 88.89 C11.01 89.43, 11.03 90.26, 11.06 90.54 C11.08 90.81, 11.08 90.26, 11.06 90.54" stroke="none" stroke-width="0" fill="#2874a6"></path></g></g><mask></mask><g stroke-linecap="round" transform="translate(271.1171875 283.875) rotate(0 30.986328125 14.271484375)"><path d="M0 0 L61.97 0 L61.97 28.54 L0 28.54" stroke="none" stroke-width="0" fill="#ced4da"></path><path d="M0 0 C21.59 0, 43.19 0, 61.97 0 M0 0 C17.04 0, 34.08 0, 61.97 0 M61.97 0 C61.97 7.37, 61.97 14.73, 61.97 28.54 M61.97 0 C61.97 8.03, 61.97 16.05, 61.97 28.54 M61.97 28.54 C46.28 28.54, 30.58 28.54, 0 28.54 M61.97 28.54 C38.8 28.54, 15.63 28.54, 0 28.54 M0 28.54 C0 19.24, 0 9.94, 0 0 M0 28.54 C0 17.29, 0 6.03, 0 0" stroke="#000000" stroke-width="2" fill="none"></path></g><g transform="translate(280.767578125 288.946484375) rotate(0 21.3359375 9.199999999999989)"><text x="21.3359375" y="0" font-family="Helvetica, Segoe UI Emoji" font-size="16px" fill="#000000" text-anchor="middle" style="white-space: pre;" direction="ltr" dominant-baseline="text-before-edge">mTLS</text></g><g stroke-linecap="round"><g transform="translate(336.0078125 300.07815126323203) rotate(0 21.453125 -0.035178932082914116)"><path d="M0 0 C14.61 -0.02, 29.21 -0.05, 42.91 -0.07 M0 0 C15.85 -0.03, 31.71 -0.05, 42.91 -0.07" stroke="#000000" stroke-width="4" fill="none"></path></g><g transform="translate(336.0078125 300.07815126323203) rotate(0 21.453125 -0.035178932082914116)"><path d="M52.41 -0.07 C52.41 0.48, 52.36 1.04, 52.26 1.58 C52.17 2.12, 52.02 2.66, 51.83 3.18 C51.65 3.7, 51.41 4.2, 51.13 4.68 C50.86 5.16, 50.54 5.61, 50.18 6.04 C49.83 6.46, 49.43 6.85, 49.01 7.21 C48.59 7.56, 48.13 7.88, 47.66 8.16 C47.18 8.43, 46.67 8.67, 46.16 8.86 C45.64 9.04, 45.1 9.19, 44.56 9.29 C44.01 9.38, 43.46 9.43, 42.91 9.43 C42.36 9.43, 41.8 9.38, 41.26 9.29 C40.72 9.19, 40.17 9.04, 39.66 8.86 C39.14 8.67, 38.63 8.43, 38.16 8.16 C37.68 7.88, 37.22 7.56, 36.8 7.21 C36.38 6.85, 35.98 6.46, 35.63 6.04 C35.28 5.61, 34.95 5.16, 34.68 4.68 C34.4 4.2, 34.17 3.7, 33.98 3.18 C33.79 2.66, 33.65 2.12, 33.55 1.58 C33.46 1.04, 33.41 0.48, 33.41 -0.07 C33.41 -0.62, 33.46 -1.18, 33.55 -1.72 C33.65 -2.26, 33.79 -2.8, 33.98 -3.32 C34.17 -3.84, 34.4 -4.34, 34.68 -4.82 C34.95 -5.3, 35.28 -5.76, 35.63 -6.18 C35.98 -6.6, 36.38 -6.99, 36.8 -7.35 C37.22 -7.7, 37.68 -8.02, 38.16 -8.3 C38.63 -8.57, 39.14 -8.81, 39.66 -9 C40.17 -9.19, 40.72 -9.33, 41.26 -9.43 C41.8 -9.52, 42.36 -9.57, 42.91 -9.57 C43.46 -9.57, 44.01 -9.52, 44.56 -9.43 C45.1 -9.33, 45.64 -9.19, 46.16 -9 C46.67 -8.81, 47.18 -8.57, 47.66 -8.3 C48.13 -8.02, 48.59 -7.7, 49.01 -7.35 C49.43 -6.99, 49.83 -6.6, 50.18 -6.18 C50.54 -5.76, 50.86 -5.3, 51.13 -4.82 C51.41 -4.34, 51.65 -3.84, 51.83 -3.32 C52.02 -2.8, 52.17 -2.26, 52.26 -1.72 C52.36 -1.18, 52.38 -0.35, 52.41 -0.07 C52.43 0.2, 52.43 -0.35, 52.41 -0.07" stroke="none" stroke-width="0" fill="#000000"></path></g></g><mask></mask><g stroke-linecap="round"><g transform="translate(309.19140748410314 282.08203125) rotate(0 -0.08931298610175986 -37.056640625)"><path d="M0 0 C-0.05 -22.25, -0.11 -44.5, -0.18 -74.11 M0 0 C-0.04 -16.38, -0.08 -32.75, -0.18 -74.11" stroke="#000000" stroke-width="4" fill="none"></path></g><g transform="translate(309.19140748410314 282.08203125) rotate(0 -0.08931298610175986 -37.056640625)"><path d="M9.32 -74.11 C9.32 -73.56, 9.27 -73.01, 9.18 -72.46 C9.08 -71.92, 8.94 -71.38, 8.75 -70.86 C8.56 -70.35, 8.32 -69.84, 8.05 -69.36 C7.77 -68.89, 7.45 -68.43, 7.1 -68.01 C6.75 -67.59, 6.35 -67.19, 5.93 -66.84 C5.51 -66.48, 5.05 -66.16, 4.57 -65.89 C4.1 -65.61, 3.59 -65.37, 3.07 -65.19 C2.55 -65, 2.01 -64.85, 1.47 -64.76 C0.93 -64.66, 0.37 -64.61, -0.18 -64.61 C-0.73 -64.61, -1.29 -64.66, -1.83 -64.76 C-2.37 -64.85, -2.91 -65, -3.43 -65.19 C-3.94 -65.37, -4.45 -65.61, -4.93 -65.89 C-5.4 -66.16, -5.86 -66.48, -6.29 -66.84 C-6.71 -67.19, -7.1 -67.59, -7.46 -68.01 C-7.81 -68.43, -8.13 -68.89, -8.41 -69.36 C-8.68 -69.84, -8.92 -70.35, -9.11 -70.86 C-9.29 -71.38, -9.44 -71.92, -9.53 -72.46 C-9.63 -73.01, -9.68 -73.56, -9.68 -74.11 C-9.68 -74.66, -9.63 -75.22, -9.53 -75.76 C-9.44 -76.3, -9.29 -76.85, -9.11 -77.36 C-8.92 -77.88, -8.68 -78.39, -8.41 -78.86 C-8.13 -79.34, -7.81 -79.8, -7.46 -80.22 C-7.1 -80.64, -6.71 -81.04, -6.29 -81.39 C-5.86 -81.74, -5.4 -82.07, -4.93 -82.34 C-4.45 -82.62, -3.94 -82.85, -3.43 -83.04 C-2.91 -83.23, -2.37 -83.37, -1.83 -83.47 C-1.29 -83.56, -0.73 -83.61, -0.18 -83.61 C0.37 -83.61, 0.93 -83.56, 1.47 -83.47 C2.01 -83.37, 2.55 -83.23, 3.07 -83.04 C3.59 -82.85, 4.1 -82.62, 4.57 -82.34 C5.05 -82.07, 5.51 -81.74, 5.93 -81.39 C6.35 -81.04, 6.75 -80.64, 7.1 -80.22 C7.45 -79.8, 7.77 -79.34, 8.05 -78.86 C8.32 -78.39, 8.56 -77.88, 8.75 -77.36 C8.94 -76.85, 9.08 -76.3, 9.18 -75.76 C9.27 -75.22, 9.3 -74.39, 9.32 -74.11 C9.35 -73.84, 9.35 -74.39, 9.32 -74.11" stroke="none" stroke-width="0" fill="#000000"></path></g></g><mask></mask><g stroke-linecap="round"><g transform="translate(128.53515625 309.1953125) rotate(0 65.5703125 -51.162109375)"><path d="M0 0 C27.88 -21.76, 55.76 -43.51, 131.14 -102.32" stroke="#4527a0" stroke-width="4.5" fill="none" stroke-dasharray="8 12"></path></g></g><mask></mask><g stroke-linecap="round"><g transform="translate(151.625 307.91015625) rotate(0 62.91015625 -51.494140625)"><path d="M0 0 C48.67 -39.84, 97.33 -79.67, 125.82 -102.99" stroke="#1864ab" stroke-width="4.5" fill="none" stroke-dasharray="8 12"></path></g></g><mask></mask><g stroke-opacity="0.1" fill-opacity="0.1" stroke-linecap="round" transform="translate(225.73828125 10) rotate(0 224.251953125 185.79296875)"><path d="M0 0 L448.5 0 L448.5 371.59 L0 371.59" stroke="none" stroke-width="0" fill="#fab005"></path><path d="M0 0 C100.84 0, 201.68 0, 448.5 0 M448.5 0 C448.5 76.33, 448.5 152.67, 448.5 371.59 M448.5 371.59 C338.46 371.59, 228.42 371.59, 0 371.59 M0 371.59 C0 295.34, 0 219.09, 0 0" stroke="#a61e4d" stroke-width="4.5" fill="none" stroke-dasharray="8 12"></path></g><g transform="translate(231.09375 22.172656250000003) rotate(0 72.8076171875 11.5)"><text x="0" y="0" font-family="Helvetica, Segoe UI Emoji" font-size="20px" fill="#000000" text-anchor="start" style="white-space: pre;" direction="ltr" dominant-baseline="text-before-edge">Internal Network</text></g><g stroke-linecap="round"><g transform="translate(137.0625 216.11233983195507) rotate(0 -11.66796875 2.469665445196597)"><path d="M0 0 C-5.62 1.19, -11.24 2.38, -23.34 4.94 M0 0 C-6.1 1.29, -12.19 2.58, -23.34 4.94" stroke="#087f5b" stroke-width="2" fill="none"></path></g><g transform="translate(137.0625 216.11233983195507) rotate(0 -11.66796875 2.469665445196597)"><path d="M-16.37 4.94 C-16.37 5.34, -16.41 5.75, -16.48 6.15 C-16.55 6.55, -16.65 6.94, -16.79 7.32 C-16.93 7.7, -17.1 8.07, -17.31 8.42 C-17.51 8.77, -17.74 9.11, -18 9.42 C-18.26 9.72, -18.55 10.01, -18.86 10.27 C-19.17 10.53, -19.51 10.77, -19.85 10.97 C-20.2 11.17, -20.58 11.34, -20.95 11.48 C-21.33 11.62, -21.73 11.73, -22.13 11.8 C-22.52 11.87, -22.93 11.9, -23.34 11.9 C-23.74 11.9, -24.15 11.87, -24.55 11.8 C-24.94 11.73, -25.34 11.62, -25.72 11.48 C-26.1 11.34, -26.47 11.17, -26.82 10.97 C-27.17 10.77, -27.5 10.53, -27.81 10.27 C-28.12 10.01, -28.41 9.72, -28.67 9.42 C-28.93 9.11, -29.16 8.77, -29.37 8.42 C-29.57 8.07, -29.74 7.7, -29.88 7.32 C-30.02 6.94, -30.12 6.55, -30.19 6.15 C-30.26 5.75, -30.3 5.34, -30.3 4.94 C-30.3 4.54, -30.26 4.13, -30.19 3.73 C-30.12 3.33, -30.02 2.94, -29.88 2.56 C-29.74 2.18, -29.57 1.81, -29.37 1.46 C-29.16 1.11, -28.93 0.77, -28.67 0.46 C-28.41 0.15, -28.12 -0.14, -27.81 -0.39 C-27.5 -0.65, -27.17 -0.89, -26.82 -1.09 C-26.47 -1.29, -26.1 -1.47, -25.72 -1.6 C-25.34 -1.74, -24.94 -1.85, -24.55 -1.92 C-24.15 -1.99, -23.74 -2.02, -23.34 -2.02 C-22.93 -2.02, -22.52 -1.99, -22.13 -1.92 C-21.73 -1.85, -21.33 -1.74, -20.95 -1.6 C-20.58 -1.47, -20.2 -1.29, -19.85 -1.09 C-19.51 -0.89, -19.17 -0.65, -18.86 -0.39 C-18.55 -0.14, -18.26 0.15, -18 0.46 C-17.74 0.77, -17.51 1.11, -17.31 1.46 C-17.1 1.81, -16.93 2.18, -16.79 2.56 C-16.65 2.94, -16.55 3.33, -16.48 3.73 C-16.41 4.13, -16.39 4.74, -16.37 4.94 C-16.36 5.14, -16.36 4.74, -16.37 4.94" stroke="none" stroke-width="0" fill="#087f5b"></path></g></g><mask></mask><g stroke-linecap="round"><g transform="translate(321.9921875 110.484375) rotate(0 -1.857421875 26.33203125)"><path d="M0 0 C-1.18 16.68, -2.35 33.36, -3.71 52.66 M0 0 C-1.31 18.64, -2.63 37.28, -3.71 52.66" stroke="#2874a6" stroke-width="4" fill="none"></path></g><g transform="translate(321.9921875 110.484375) rotate(0 -1.857421875 26.33203125)"><path d="M5.79 52.66 C5.79 53.21, 5.74 53.77, 5.64 54.31 C5.55 54.86, 5.4 55.4, 5.21 55.91 C5.02 56.43, 4.79 56.94, 4.51 57.41 C4.24 57.89, 3.92 58.35, 3.56 58.77 C3.21 59.19, 2.81 59.59, 2.39 59.94 C1.97 60.29, 1.51 60.62, 1.04 60.89 C0.56 61.17, 0.05 61.4, -0.47 61.59 C-0.98 61.78, -1.52 61.92, -2.07 62.02 C-2.61 62.12, -3.16 62.16, -3.71 62.16 C-4.26 62.16, -4.82 62.12, -5.36 62.02 C-5.91 61.92, -6.45 61.78, -6.96 61.59 C-7.48 61.4, -7.99 61.17, -8.46 60.89 C-8.94 60.62, -9.4 60.29, -9.82 59.94 C-10.24 59.59, -10.64 59.19, -10.99 58.77 C-11.35 58.35, -11.67 57.89, -11.94 57.41 C-12.22 56.94, -12.45 56.43, -12.64 55.91 C-12.83 55.4, -12.98 54.86, -13.07 54.31 C-13.17 53.77, -13.21 53.21, -13.21 52.66 C-13.21 52.11, -13.17 51.56, -13.07 51.01 C-12.98 50.47, -12.83 49.93, -12.64 49.41 C-12.45 48.9, -12.22 48.39, -11.94 47.91 C-11.67 47.44, -11.35 46.98, -10.99 46.56 C-10.64 46.14, -10.24 45.74, -9.82 45.39 C-9.4 45.03, -8.94 44.71, -8.46 44.44 C-7.99 44.16, -7.48 43.93, -6.96 43.74 C-6.45 43.55, -5.91 43.4, -5.36 43.31 C-4.82 43.21, -4.26 43.16, -3.71 43.16 C-3.16 43.16, -2.61 43.21, -2.07 43.31 C-1.52 43.4, -0.98 43.55, -0.47 43.74 C0.05 43.93, 0.56 44.16, 1.04 44.44 C1.51 44.71, 1.97 45.03, 2.39 45.39 C2.81 45.74, 3.21 46.14, 3.56 46.56 C3.92 46.98, 4.24 47.44, 4.51 47.91 C4.79 48.39, 5.02 48.9, 5.21 49.41 C5.4 49.93, 5.55 50.47, 5.64 51.01 C5.74 51.56, 5.76 52.39, 5.79 52.66 C5.81 52.94, 5.81 52.39, 5.79 52.66" stroke="none" stroke-width="0" fill="#2874a6"></path></g></g><mask></mask></svg>