<svg version="1.1" xmlns="http://www.w3.org/2000/svg" viewBox="0 0 702.94921875 237" width="702.94921875" height="237">
  <!-- svg-source:excalidraw -->
  
  <defs>
    <style class="style-fonts">
      @font-face {
        font-family: "Virgil";
        src: url("https://excalidraw.com/Virgil.woff2");
      }
      @font-face {
        font-family: "Cascadia";
        src: url("https://excalidraw.com/Cascadia.woff2");
      }
    </style>
  </defs>
  <rect x="0" y="0" width="702.94921875" height="237" fill="#ffffff"></rect><g stroke-linecap="round" transform="translate(10 89.4921875) rotate(0 50.515624999999986 20.20703125)"><path d="M10.1 0 L90.93 0 L95.35 0.63 L98.51 2.53 L100.4 5.68 L101.03 10.1 L101.03 30.31 L100.4 34.73 L98.51 37.89 L95.35 39.78 L90.93 40.41 L10.1 40.41 L5.68 39.78 L2.53 37.89 L0.63 34.73 L0 30.31 L0 10.1 L0.63 5.68 L2.53 2.53 L5.68 0.63 L10.1 0" stroke="none" stroke-width="0" fill="#e3f2fd"></path><path d="M10.1 0 M10.1 0 C39.47 0, 68.84 0, 90.93 0 M10.1 0 C36.75 0, 63.39 0, 90.93 0 M90.93 0 C97.66 0, 101.03 3.37, 101.03 10.1 M90.93 0 C97.66 0, 101.03 3.37, 101.03 10.1 M101.03 10.1 C101.03 14.98, 101.03 19.85, 101.03 30.31 M101.03 10.1 C101.03 15.97, 101.03 21.84, 101.03 30.31 M101.03 30.31 C101.03 37.05, 97.66 40.41, 90.93 40.41 M101.03 30.31 C101.03 37.05, 97.66 40.41, 90.93 40.41 M90.93 40.41 C62.04 40.41, 33.15 40.41, 10.1 40.41 M90.93 40.41 C74.27 40.41, 57.62 40.41, 10.1 40.41 M10.1 40.41 C3.37 40.41, 0 37.05, 0 30.31 M10.1 40.41 C3.37 40.41, 0 37.05, 0 30.31 M0 30.31 C0 22.71, 0 15.1, 0 10.1 M0 30.31 C0 22.82, 0 15.34, 0 10.1 M0 10.1 C0 3.37, 3.37 0, 10.1 0 M0 10.1 C0 3.37, 3.37 0, 10.1 0" stroke="#2874a6" stroke-width="1" fill="none"></path></g><g transform="translate(18.831054687499986 98.19921875) rotate(0 41.6845703125 11.5)"><text x="41.6845703125" y="0" font-family="Helvetica, Segoe UI Emoji" font-size="20px" fill="#2874a6" text-anchor="middle" style="white-space: pre;" direction="ltr" dominant-baseline="text-before-edge">End User</text></g><g stroke-linecap="round" transform="translate(350.8203125 92.1796875) rotate(0 50.515625 20.20703125)"><path d="M10.1 0 L90.93 0 L95.35 0.63 L98.51 2.53 L100.4 5.68 L101.03 10.1 L101.03 30.31 L100.4 34.73 L98.51 37.89 L95.35 39.78 L90.93 40.41 L10.1 40.41 L5.68 39.78 L2.53 37.89 L0.63 34.73 L0 30.31 L0 10.1 L0.63 5.68 L2.53 2.53 L5.68 0.63 L10.1 0" stroke="none" stroke-width="0" fill="#e3f2fd"></path><path d="M10.1 0 M10.1 0 C36.41 0, 62.71 0, 90.93 0 M10.1 0 C39.52 0, 68.93 0, 90.93 0 M90.93 0 C97.66 0, 101.03 3.37, 101.03 10.1 M90.93 0 C97.66 0, 101.03 3.37, 101.03 10.1 M101.03 10.1 C101.03 15.59, 101.03 21.08, 101.03 30.31 M101.03 10.1 C101.03 16.42, 101.03 22.74, 101.03 30.31 M101.03 30.31 C101.03 37.05, 97.66 40.41, 90.93 40.41 M101.03 30.31 C101.03 37.05, 97.66 40.41, 90.93 40.41 M90.93 40.41 C61.28 40.41, 31.64 40.41, 10.1 40.41 M90.93 40.41 C74.35 40.41, 57.77 40.41, 10.1 40.41 M10.1 40.41 C3.37 40.41, 0 37.05, 0 30.31 M10.1 40.41 C3.37 40.41, 0 37.05, 0 30.31 M0 30.31 C0 24.15, 0 18, 0 10.1 M0 30.31 C0 26.06, 0 21.81, 0 10.1 M0 10.1 C0 3.37, 3.37 0, 10.1 0 M0 10.1 C0 3.37, 3.37 0, 10.1 0" stroke="#2874a6" stroke-width="1" fill="none"></path></g><g transform="translate(367.4296875 100.88671875) rotate(0 33.90625 11.5)"><text x="33.90625" y="0" font-family="Helvetica, Segoe UI Emoji" font-size="20px" fill="#2874a6" text-anchor="middle" style="white-space: pre;" direction="ltr" dominant-baseline="text-before-edge">Sidecar</text></g><g stroke-linecap="round" transform="translate(169.38671875 90.34375) rotate(0 56 20)"><path d="M10 0 L102 0 L106.38 0.63 L109.5 2.5 L111.38 5.63 L112 10 L112 30 L111.38 34.38 L109.5 37.5 L106.38 39.38 L102 40 L10 40 L5.63 39.38 L2.5 37.5 L0.62 34.38 L0 30 L0 10 L0.63 5.63 L2.5 2.5 L5.63 0.62 L10 0" stroke="none" stroke-width="0" fill="#ede7f6"></path><path d="M10 0 M10 0 C35.87 0, 61.74 0, 102 0 M10 0 C38.43 0, 66.86 0, 102 0 M102 0 C108.67 0, 112 3.33, 112 10 M102 0 C108.67 0, 112 3.33, 112 10 M112 10 C112 15.71, 112 21.41, 112 30 M112 10 C112 17.96, 112 25.92, 112 30 M112 30 C112 36.67, 108.67 40, 102 40 M112 30 C112 36.67, 108.67 40, 102 40 M102 40 C76.26 40, 50.53 40, 10 40 M102 40 C73.76 40, 45.53 40, 10 40 M10 40 C3.33 40, 0 36.67, 0 30 M10 40 C3.33 40, 0 36.67, 0 30 M0 30 C0 22.28, 0 14.56, 0 10 M0 30 C0 23.47, 0 16.94, 0 10 M0 10 C0 3.33, 3.33 0, 10 0 M0 10 C0 3.33, 3.33 0, 10 0" stroke="#4527a0" stroke-width="1" fill="none"></path></g><g transform="translate(179.8203125 98.84375) rotate(0 45.56640625 11.5)"><text x="45.56640625" y="0" font-family="Helvetica, Segoe UI Emoji" font-size="20px" fill="#4527a0" text-anchor="middle" style="white-space: pre;" direction="ltr" dominant-baseline="text-before-edge">Pomerium</text></g><g stroke-linecap="round" transform="translate(495.703125 90.7890625) rotate(0 90.5 21)"><path d="M10.5 0 L170.5 0 L175.09 0.66 L178.38 2.63 L180.34 5.91 L181 10.5 L181 31.5 L180.34 36.09 L178.38 39.38 L175.09 41.34 L170.5 42 L10.5 42 L5.91 41.34 L2.63 39.38 L0.66 36.09 L0 31.5 L0 10.5 L0.66 5.91 L2.63 2.63 L5.91 0.66 L10.5 0" stroke="none" stroke-width="0" fill="#e3f2fd"></path><path d="M10.5 0 M10.5 0 C51.91 0, 93.32 0, 170.5 0 M10.5 0 C48.81 0, 87.13 0, 170.5 0 M170.5 0 C177.5 0, 181 3.5, 181 10.5 M170.5 0 C177.5 0, 181 3.5, 181 10.5 M181 10.5 C181 16.25, 181 22.01, 181 31.5 M181 10.5 C181 15.82, 181 21.14, 181 31.5 M181 31.5 C181 38.5, 177.5 42, 170.5 42 M181 31.5 C181 38.5, 177.5 42, 170.5 42 M170.5 42 C123.87 42, 77.24 42, 10.5 42 M170.5 42 C129.5 42, 88.51 42, 10.5 42 M10.5 42 C3.5 42, 0 38.5, 0 31.5 M10.5 42 C3.5 42, 0 38.5, 0 31.5 M0 31.5 C0 26.26, 0 21.02, 0 10.5 M0 31.5 C0 26.74, 0 21.99, 0 10.5 M0 10.5 C0 3.5, 3.5 0, 10.5 0 M0 10.5 C0 3.5, 3.5 0, 10.5 0" stroke="#1864ab" stroke-width="1" fill="none"></path></g><g transform="translate(506.7353515625 100.2890625) rotate(0 79.4677734375 11.5)"><text x="79.4677734375" y="0" font-family="Helvetica, Segoe UI Emoji" font-size="20px" fill="#1864ab" text-anchor="middle" style="white-space: pre;" direction="ltr" dominant-baseline="text-before-edge">Upstream Service</text></g><g stroke-opacity="0.1" fill-opacity="0.1" stroke-linecap="round" transform="translate(141.94921875 10) rotate(0 275.5 108.5)"><path d="M0 0 L551 0 L551 217 L0 217" stroke="none" stroke-width="0" fill="#fab005"></path><path d="M0 0 C172.2 0, 344.41 0, 551 0 M551 0 C551 50.1, 551 100.2, 551 217 M551 217 C379.33 217, 207.65 217, 0 217 M0 217 C0 170.29, 0 123.58, 0 0" stroke="#a61e4d" stroke-width="4.5" fill="none" stroke-dasharray="8 12"></path></g><g transform="translate(344.6416015625 15) rotate(0 72.8076171875 11.5)"><text x="72.8076171875" y="0" font-family="Helvetica, Segoe UI Emoji" font-size="20px" fill="#000" text-anchor="middle" style="white-space: pre;" direction="ltr" dominant-baseline="text-before-edge">Internal Network</text></g><g stroke-linecap="round"><g transform="translate(113.203125 109.05380293624961) rotate(0 27.35156250000003 0.15543186343691673)"><path d="M0 0 C12.55 0.07, 25.11 0.14, 54.7 0.31 M0 0 C21.39 0.12, 42.78 0.24, 54.7 0.31" stroke="#2874a6" stroke-width="4" fill="none"></path></g><g transform="translate(113.203125 109.05380293624961) rotate(0 27.35156250000003 0.15543186343691673)"><path d="M64.2 0.31 C64.2 0.86, 64.15 1.42, 64.06 1.96 C63.96 2.5, 63.82 3.04, 63.63 3.56 C63.44 4.08, 63.21 4.58, 62.93 5.06 C62.66 5.54, 62.33 6, 61.98 6.42 C61.63 6.84, 61.23 7.23, 60.81 7.59 C60.39 7.94, 59.93 8.26, 59.45 8.54 C58.98 8.81, 58.47 9.05, 57.95 9.24 C57.44 9.43, 56.89 9.57, 56.35 9.67 C55.81 9.76, 55.25 9.81, 54.7 9.81 C54.15 9.81, 53.59 9.76, 53.05 9.67 C52.51 9.57, 51.97 9.43, 51.45 9.24 C50.94 9.05, 50.43 8.81, 49.95 8.54 C49.48 8.26, 49.02 7.94, 48.6 7.59 C48.18 7.23, 47.78 6.84, 47.43 6.42 C47.07 6, 46.75 5.54, 46.48 5.06 C46.2 4.58, 45.96 4.08, 45.78 3.56 C45.59 3.04, 45.44 2.5, 45.35 1.96 C45.25 1.42, 45.2 0.86, 45.2 0.31 C45.2 -0.24, 45.25 -0.8, 45.35 -1.34 C45.44 -1.88, 45.59 -2.42, 45.78 -2.94 C45.96 -3.46, 46.2 -3.96, 46.48 -4.44 C46.75 -4.92, 47.07 -5.37, 47.43 -5.8 C47.78 -6.22, 48.18 -6.61, 48.6 -6.97 C49.02 -7.32, 49.48 -7.64, 49.95 -7.92 C50.43 -8.19, 50.94 -8.43, 51.45 -8.62 C51.97 -8.8, 52.51 -8.95, 53.05 -9.04 C53.59 -9.14, 54.15 -9.19, 54.7 -9.19 C55.25 -9.19, 55.81 -9.14, 56.35 -9.04 C56.89 -8.95, 57.44 -8.8, 57.95 -8.62 C58.47 -8.43, 58.98 -8.19, 59.45 -7.92 C59.93 -7.64, 60.39 -7.32, 60.81 -6.97 C61.23 -6.61, 61.63 -6.22, 61.98 -5.8 C62.33 -5.37, 62.66 -4.92, 62.93 -4.44 C63.21 -3.96, 63.44 -3.46, 63.63 -2.94 C63.82 -2.42, 63.96 -1.88, 64.06 -1.34 C64.15 -0.8, 64.18 0.04, 64.2 0.31 C64.23 0.59, 64.23 0.04, 64.2 0.31" stroke="none" stroke-width="0" fill="#2874a6"></path></g></g><mask></mask><g stroke-linecap="round"><g transform="translate(347.5576171875 115.96295212201426) rotate(0 -32.873046875 -1.121124498507129)"><path d="M0 0 C-10.96 -0.37, -54.79 -1.87, -65.75 -2.24 M0 0 C-10.96 -0.37, -54.79 -1.87, -65.75 -2.24" stroke="#000" stroke-width="4" fill="none"></path></g><g transform="translate(347.5576171875 115.96295212201426) rotate(0 -32.873046875 -1.121124498507129)"><path d="M-65.75 -2.24 L-51.94 -8.11 L-52.38 4.56 L-65.75 -2.24" stroke="none" stroke-width="0" fill="#000" fill-rule="evenodd"></path><path d="M-65.75 -2.24 C-60.68 -4.4, -55.61 -6.56, -51.94 -8.11 M-65.75 -2.24 C-62.7 -3.54, -59.66 -4.83, -51.94 -8.11 M-51.94 -8.11 C-52.06 -4.75, -52.17 -1.39, -52.38 4.56 M-51.94 -8.11 C-52.11 -3.27, -52.27 1.57, -52.38 4.56 M-52.38 4.56 C-55.66 2.89, -58.94 1.22, -65.75 -2.24 M-52.38 4.56 C-56.93 2.24, -61.49 -0.08, -65.75 -2.24 M-65.75 -2.24 C-65.75 -2.24, -65.75 -2.24, -65.75 -2.24 M-65.75 -2.24 C-65.75 -2.24, -65.75 -2.24, -65.75 -2.24" stroke="#000" stroke-width="4" fill="none"></path></g></g><mask></mask><g stroke-linecap="round"><g transform="translate(282.484375 114.2150906188167) rotate(0 32.92529296875003 0.7551180861358375)"><path d="M0 0 C10.98 0.25, 54.88 1.26, 65.85 1.51 M0 0 C10.98 0.25, 54.88 1.26, 65.85 1.51" stroke="#000" stroke-width="4" fill="none"></path></g><g transform="translate(282.484375 114.2150906188167) rotate(0 32.92529296875003 0.7551180861358375)"><path d="M65.85 1.51 L52.11 7.54 L52.4 -5.14 L65.85 1.51" stroke="none" stroke-width="0" fill="#000" fill-rule="evenodd"></path><path d="M65.85 1.51 C60.6 3.81, 55.35 6.12, 52.11 7.54 M65.85 1.51 C61.74 3.32, 57.62 5.12, 52.11 7.54 M52.11 7.54 C52.19 4.19, 52.27 0.84, 52.4 -5.14 M52.11 7.54 C52.2 3.75, 52.29 -0.04, 52.4 -5.14 M52.4 -5.14 C56.52 -3.11, 60.63 -1.07, 65.85 1.51 M52.4 -5.14 C55.95 -3.39, 59.49 -1.63, 65.85 1.51 M65.85 1.51 C65.85 1.51, 65.85 1.51, 65.85 1.51 M65.85 1.51 C65.85 1.51, 65.85 1.51, 65.85 1.51" stroke="#000" stroke-width="4" fill="none"></path></g></g><mask></mask><g stroke-linecap="round"><g transform="translate(453.3505859375 110.212890625) rotate(0 20.484375 0.193359375)"><path d="M0 0 C6.83 0.06, 34.14 0.32, 40.97 0.39 M0 0 C6.83 0.06, 34.14 0.32, 40.97 0.39" stroke="#000" stroke-width="4" fill="none"></path></g></g><mask></mask><g stroke-opacity="0.4" fill-opacity="0.4" transform="translate(152.9521484375 48.099609375) rotate(0 76.955078125 66.5234375)" stroke="none"><path d="M0 0 L0 0.09 L0 0.66 L0 2.28 L0 4.74 L0 7.71 L0.08 11.5 L0.17 16.22 L0.23 21.62 L0.32 27.2 L0.38 33.21 L0.38 38.51 L0.38 43.02 L0.38 46.96 L0.41 49.9 L0.54 52.54 L0.64 54.77 L0.74 57.23 L0.82 59.88 L0.82 62.44 L0.82 64.96 L0.82 67.26 L0.91 69.74 L1.05 72.12 L1.12 74.05 L1.12 76.19 L1.24 78.77 L1.4 81.11 L1.43 83.59 L1.43 86.18 L1.43 88.42 L1.43 90.58 L1.43 92.41 L1.49 94.07 L1.56 95.76 L1.57 97.32 L1.57 98.75 L1.53 100.23 L1.47 101.58 L1.45 102.87 L1.45 103.98 L1.45 104.91 L1.45 105.86 L1.45 106.66 L1.45 107.41 L1.45 108.26 L1.45 109.29 L1.45 110.24 L1.45 111.01 L1.45 111.77 L1.45 112.63 L1.46 113.62 L1.52 114.57 L1.57 115.75 L1.57 117.15 L1.57 119.05 L1.57 121.43 L1.54 123.82 L1.47 126.03 L1.5 127.68 L1.56 128.55 L1.61 128.82 L1.7 128.86 L1.75 128.86 L2.23 128.91 L3.9 129.11 L7.21 129.36 L11.72 129.74 L17.77 130.5 L25.01 131.36 L30.95 132 L35.29 132.45 L39.54 132.87 L44.02 133.36 L47.77 133.75 L50.93 134.07 L53.41 134.36 L56.24 134.7 L59.62 135.04 L62.4 135.18 L65.06 135.23 L67.4 135.23 L70.08 135.31 L73.01 135.39 L75.77 135.39 L78.66 135.43 L81.66 135.5 L84.6 135.53 L87.92 135.44 L91.84 135.35 L95.55 135.35 L98.98 135.35 L102.34 135.35 L105.98 135.35 L109.45 135.35 L112.47 135.35 L115.47 135.35 L118.71 135.35 L121.87 135.42 L124.58 135.57 L126.99 135.67 L129.4 135.82 L131.85 136.06 L133.86 136.19 L135.74 136.27 L137.7 136.33 L140.05 136.33 L142.95 136.33 L145.84 136.39 L147.99 136.46 L149.38 136.47 L150.67 136.47 L151.77 136.47 L152.48 136.47 L152.82 136.47 L153 136.47 L153.05 136.47 L153 136.47 L153.04 136.47 L153.09 136.47 L153.1 136.41 L153.1 136.07 L153.16 135 L153.4 132.96 L153.76 130.11 L154.05 127.27 L154.31 124.66 L154.64 121.98 L154.94 119.24 L155.16 116.38 L155.44 113.58 L155.82 110.42 L156.19 107.05 L156.43 103.97 L156.49 101.05 L156.49 98.22 L156.57 95.23 L156.64 92.18 L156.58 89.45 L156.52 86.66 L156.52 83.65 L156.52 80.83 L156.43 77.75 L156.25 74.63 L155.99 71.68 L155.7 68.62 L155.43 65.71 L155.21 62.94 L154.98 60.39 L154.79 58.14 L154.6 55.77 L154.37 53.09 L154.2 50.63 L153.98 48.42 L153.81 46.52 L153.74 44.69 L153.69 42.73 L153.64 40.95 L153.58 38.95 L153.55 36.86 L153.48 34.65 L153.4 32.23 L153.34 29.98 L153.24 27.76 L153.01 25.28 L152.8 23.1 L152.76 21.73 L152.71 20.64 L152.66 19.64 L152.65 18.79 L152.65 18.05 L152.65 17.34 L152.65 16.65 L152.65 16.03 L152.61 15.43 L152.57 14.87 L152.57 14.25 L152.54 13.61 L152.5 12.9 L152.48 12.21 L152.48 11.41 L152.48 10.39 L152.48 9.43 L152.48 8.73 L152.48 8.22 L152.48 7.82 L152.48 7.59 L152.48 7.45 L152.48 7.27 L152.48 7.01 L152.48 6.79 L152.48 6.56 L152.5 6.21 L152.54 5.7 L152.61 5.05 L152.66 4.33 L152.75 3.37 L152.86 2.11 L152.94 0.89 L153 -0.1 L153.04 -0.89 L153.04 -1.54 L152.99 -1.54 L152.95 -1.54 L152.87 -1.54 L152.57 -1.55 L151.31 -1.64 L149.38 -1.79 L147.61 -1.94 L145.53 -2.04 L143.22 -2.13 L140.52 -2.29 L137.76 -2.4 L135.27 -2.48 L132.65 -2.59 L129.92 -2.66 L127.65 -2.75 L125.92 -2.88 L124.21 -2.94 L122.54 -2.94 L120.54 -2.94 L118.26 -2.94 L115.75 -3.02 L113.18 -3.1 L110.76 -3.1 L108.34 -3.1 L106.26 -3.1 L104.4 -3.1 L102.38 -3.1 L100.01 -3.19 L97.26 -3.35 L94.02 -3.43 L90.63 -3.43 L87.22 -3.43 L84.05 -3.43 L81.63 -3.39 L79.12 -3.32 L76.31 -3.29 L73.73 -3.2 L71.27 -3.07 L69.07 -2.97 L67.32 -2.91 L65.25 -2.88 L63.23 -2.88 L61.38 -2.88 L59.54 -2.88 L58.05 -2.84 L56.6 -2.79 L55.38 -2.77 L54.36 -2.77 L53.23 -2.8 L51.93 -2.86 L50.39 -2.9 L48.89 -2.96 L47.38 -3.03 L45.81 -3.1 L44.36 -3.15 L42.75 -3.15 L41.05 -3.1 L39.57 -3.04 L38.1 -3.04 L36.54 -3.04 L35.02 -3.04 L33.48 -3.04 L31.82 -3.04 L30.35 -3.03 L28.78 -2.96 L26.97 -2.87 L25.55 -2.81 L24.31 -2.79 L23.13 -2.79 L22.16 -2.79 L21.32 -2.79 L20.64 -2.79 L19.91 -2.79 L19.08 -2.84 L18.41 -2.89 L17.91 -2.89 L17.47 -2.93 L17.09 -2.97 L16.65 -2.99 L16.22 -2.99 L15.7 -2.99 L14.85 -3.05 L13.85 -3.13 L12.82 -3.14 L11.94 -3.13 L11.11 -3.13 L10.43 -3.13 L10.05 -3.13 L9.77 -3.13 L9.34 -3.13 L8.8 -3.13 L8.31 -3.13 L7.8 -3.13 L7.3 -3.16 L6.77 -3.21 L6.21 -3.22 L5.54 -3.22 L4.92 -3.22 L4.48 -3.22 L3.99 -3.22 L3.39 -3.22 L2.82 -3.22 L2.43 -3.22 L2.18 -3.22 L2.04 -3.22 L2 -3.27 L1.86 -3.32 L1.52 -3.27 L1.11 -3.23 L0.58 -3.21 L-0.21 -3.16 L-1.07 -3.13 L-1.71 -3.13 L-2.1 -3.13 L-2.4 -3.13 L-2.63 -3.17 L-2.73 -3.21 L0 0" stroke="none" stroke-width="0" fill="#ffffff" fill-rule="evenodd"></path><path fill="#000" d="M 1.71,0 Q 1.71,0 1.79,1.36 1.87,2.72 1.93,4.15 1.99,5.58 2.02,7.27 2.05,8.95 2.00,11.03 1.96,13.11 1.92,15.55 1.88,17.99 1.86,20.63 1.85,23.27 1.85,26.12 1.84,28.98 1.83,31.72 1.81,34.46 1.80,36.92 1.78,39.38 1.77,41.56 1.76,43.74 1.83,45.50 1.91,47.27 2.04,48.76 2.16,50.25 2.30,51.52 2.43,52.80 2.56,54.04 2.68,55.29 2.78,56.59 2.89,57.89 2.95,59.19 3.02,60.50 3.07,61.78 3.12,63.06 3.16,64.27 3.21,65.47 3.26,66.67 3.32,67.87 3.40,69.05 3.48,70.22 3.56,71.29 3.64,72.37 3.69,73.46 3.73,74.56 3.79,75.73 3.85,76.90 3.92,78.06 4.00,79.21 4.04,80.46 4.09,81.71 4.10,82.99 4.12,84.28 4.14,85.47 4.16,86.66 4.17,87.78 4.19,88.91 4.25,90.79 4.32,92.67 4.41,94.36 4.49,96.05 4.53,97.60 4.58,99.16 4.58,100.55 4.58,101.94 4.61,103.04 4.64,104.15 4.69,105.48 4.73,106.81 4.77,108.17 4.81,109.53 4.84,110.77 4.87,112.01 4.93,113.41 4.99,114.82 5.00,116.32 5.01,117.82 4.95,120.00 4.88,122.17 4.83,123.31 4.79,124.44 4.80,125.97 4.82,127.49 3.86,126.55 2.91,125.61 4.33,125.76 5.75,125.91 7.53,126.21 9.31,126.51 11.83,127.00 14.35,127.49 17.48,128.02 20.62,128.56 23.64,129.02 26.67,129.49 29.19,129.85 31.72,130.22 34.01,130.53 36.31,130.83 38.57,131.12 40.83,131.42 42.87,131.65 44.91,131.89 46.69,132.03 48.47,132.17 49.95,132.25 51.43,132.34 52.88,132.44 54.33,132.55 55.91,132.68 57.48,132.81 58.93,132.88 60.38,132.95 61.74,132.97 63.10,132.98 64.34,132.96 65.57,132.94 66.89,132.93 68.20,132.93 69.60,132.95 71.00,132.97 72.37,132.97 73.74,132.97 75.16,132.97 76.59,132.98 78.06,133.01 79.54,133.04 81.00,133.06 82.46,133.08 84.01,133.08 85.56,133.08 87.35,133.10 89.14,133.13 90.98,133.16 92.82,133.20 94.59,133.22 96.36,133.24 98.08,133.25 99.80,133.26 101.57,133.27 103.35,133.29 105.10,133.30 106.85,133.31 108.47,133.30 110.08,133.28 111.63,133.26 113.18,133.23 114.77,133.22 116.36,133.21 117.95,133.22 119.55,133.23 121.03,133.25 122.51,133.28 123.82,133.29 125.13,133.30 126.40,133.33 127.67,133.36 128.94,133.42 130.21,133.49 131.30,133.53 132.40,133.56 134.37,133.59 136.34,133.61 137.40,133.60 138.47,133.60 139.75,133.61 141.04,133.62 142.43,133.65 143.83,133.68 145.05,133.70 146.27,133.72 147.92,133.68 149.57,133.63 150.67,133.58 151.78,133.52 150.90,134.79 150.03,136.06 150.10,134.89 150.17,133.72 150.32,132.57 150.48,131.41 150.65,130.13 150.82,128.86 150.99,127.57 151.15,126.27 151.33,124.94 151.52,123.60 151.70,122.26 151.87,120.92 152.03,119.55 152.18,118.18 152.34,116.78 152.50,115.38 152.71,113.86 152.91,112.34 153.14,110.74 153.36,109.14 153.54,107.60 153.71,106.06 153.80,104.60 153.89,103.14 153.93,101.72 153.96,100.30 154.01,98.83 154.05,97.35 154.10,95.85 154.14,94.34 154.13,92.95 154.13,91.56 154.10,90.16 154.08,88.77 154.07,87.29 154.07,85.82 154.06,84.39 154.06,82.95 154.04,81.47 154.02,80.00 153.97,78.49 153.92,76.99 153.83,75.52 153.73,74.05 153.62,72.56 153.50,71.06 153.37,69.58 153.24,68.10 153.11,66.67 152.98,65.24 152.85,63.91 152.71,62.58 152.58,61.36 152.45,60.15 152.32,58.94 152.20,57.74 152.08,56.47 151.96,55.19 151.85,53.93 151.74,52.67 151.62,51.52 151.50,50.38 151.29,48.33 151.08,46.29 150.95,44.35 150.83,42.41 150.75,40.41 150.67,38.41 150.60,36.21 150.53,34.02 150.50,32.88 150.47,31.74 150.42,30.63 150.38,29.52 150.31,28.38 150.23,27.23 150.14,26.12 150.04,25.01 149.91,23.41 149.77,21.81 149.67,20.71 149.58,19.61 149.51,18.40 149.45,17.19 149.35,15.98 149.26,14.78 149.17,13.39 149.08,12.01 149.05,10.67 149.02,9.32 148.99,8.25 148.95,7.18 149.00,5.85 149.05,4.53 149.17,3.00 149.29,1.48 149.35,0.20 149.41,-1.07 150.08,0.10 150.76,1.29 149.64,1.51 148.51,1.73 146.57,1.57 144.63,1.40 143.39,1.29 142.15,1.17 140.85,1.06 139.55,0.94 138.29,0.85 137.03,0.76 135.73,0.67 134.44,0.58 133.11,0.50 131.79,0.42 130.57,0.36 129.34,0.29 127.39,0.21 125.44,0.13 123.68,0.13 121.91,0.13 119.66,0.08 117.41,0.03 116.17,-0.01 114.92,-0.06 113.72,-0.09 112.52,-0.12 111.32,-0.14 110.12,-0.15 109.01,-0.16 107.89,-0.16 105.88,-0.14 103.87,-0.13 102.72,-0.15 101.58,-0.18 100.28,-0.26 98.99,-0.34 97.54,-0.43 96.10,-0.52 94.53,-0.60 92.96,-0.68 91.31,-0.75 89.66,-0.82 88.04,-0.86 86.43,-0.91 85.06,-0.90 83.68,-0.88 82.39,-0.85 81.09,-0.81 79.72,-0.79 78.36,-0.77 77.05,-0.73 75.75,-0.68 74.50,-0.62 73.25,-0.55 72.08,-0.48 70.91,-0.41 68.87,-0.29 66.82,-0.17 64.82,-0.11 62.81,-0.05 61.06,0.00 59.30,0.06 57.87,0.14 56.44,0.22 55.24,0.27 54.04,0.31 52.69,0.31 51.34,0.30 49.84,0.26 48.34,0.23 46.83,0.18 45.32,0.13 43.81,0.14 42.30,0.15 40.77,0.19 39.25,0.23 37.70,0.25 36.15,0.26 34.58,0.27 33.00,0.27 31.50,0.30 30.00,0.32 28.41,0.39 26.82,0.46 25.46,0.50 24.10,0.54 22.66,0.58 21.23,0.61 19.98,0.60 18.74,0.59 17.59,0.57 16.44,0.55 15.34,0.51 14.24,0.47 12.99,0.47 11.73,0.46 10.44,0.48 9.15,0.51 8.02,0.49 6.89,0.47 5.62,0.47 4.35,0.47 3.26,0.49 2.18,0.50 0.91,0.54 -0.35,0.59 -0.70,1.43 -1.06,2.28 -1.50,2.23 -1.93,2.19 -2.34,2.03 -2.76,1.88 -3.12,1.64 -3.48,1.39 -3.78,1.07 -4.07,0.74 -4.28,0.35 -4.49,-0.02 -4.60,-0.45 -4.71,-0.87 -4.71,-1.31 -4.72,-1.75 -4.62,-2.18 -4.52,-2.61 -4.32,-3.00 -4.12,-3.39 -3.83,-3.72 -3.54,-4.05 -3.18,-4.30 -2.82,-4.56 -2.42,-4.72 -2.01,-4.88 -1.57,-4.94 -1.14,-4.99 0.58,-3.81 2.30,-2.63 2.42,-2.05 2.53,-1.47 2.46,-0.89 2.38,-0.30 2.12,0.22 1.86,0.75 1.45,1.17 1.04,1.59 0.51,1.85 -0.01,2.12 -0.59,2.20 -1.18,2.28 -1.75,2.17 -2.33,2.07 -2.85,1.78 -3.36,1.49 -3.76,1.06 -4.16,0.62 -4.39,0.08 -4.63,-0.45 -4.68,-1.04 -4.73,-1.62 -4.59,-2.20 -4.45,-2.77 -4.14,-3.27 -3.82,-3.77 -3.37,-4.14 -2.91,-4.51 -2.36,-4.72 -1.80,-4.92 -1.22,-4.94 -0.63,-4.96 -0.06,-4.79 0.49,-4.62 0.97,-4.28 1.45,-3.94 1.80,-3.46 2.15,-2.99 2.32,-2.43 2.50,-1.86 2.49,-1.27 2.47,-0.68 2.27,-0.13 2.07,0.41 1.71,0.88 1.34,1.34 0.85,1.66 0.35,1.98 -0.21,2.12 -0.78,2.27 -1.37,2.22 -1.96,2.18 -2.50,1.95 -3.04,1.72 -3.48,1.33 -3.92,0.94 -2.49,1.61 -1.06,2.28 -1.50,2.23 -1.93,2.19 -2.34,2.03 -2.76,1.88 -3.12,1.64 -3.48,1.39 -3.78,1.07 -4.07,0.74 -4.28,0.35 -4.49,-0.02 -4.60,-0.45 -4.71,-0.87 -4.71,-1.31 -4.72,-1.75 -4.62,-2.18 -4.52,-2.61 -4.32,-3.00 -4.12,-3.39 -3.83,-3.72 -3.54,-4.05 -3.18,-4.30 -2.82,-4.56 -2.42,-4.72 -2.01,-4.88 -1.57,-4.94 -1.14,-4.99 -0.89,-5.94 -0.65,-6.90 0.46,-6.95 1.58,-7.01 2.69,-6.97 3.80,-6.92 4.92,-6.91 6.04,-6.89 7.35,-6.83 8.66,-6.76 9.83,-6.74 10.99,-6.72 12.31,-6.70 13.63,-6.69 14.86,-6.61 16.09,-6.53 17.27,-6.44 18.45,-6.36 19.83,-6.28 21.22,-6.20 22.61,-6.18 24.01,-6.15 25.28,-6.16 26.54,-6.17 28.19,-6.24 29.84,-6.31 31.42,-6.33 33.00,-6.34 34.57,-6.34 36.13,-6.34 37.65,-6.34 39.16,-6.33 40.69,-6.35 42.22,-6.37 43.90,-6.36 45.58,-6.35 47.10,-6.27 48.62,-6.19 50.07,-6.12 51.52,-6.04 52.81,-5.97 54.10,-5.89 55.21,-5.85 56.31,-5.80 57.77,-5.79 59.23,-5.78 61.01,-5.75 62.79,-5.71 64.74,-5.68 66.68,-5.65 68.69,-5.66 70.69,-5.67 71.86,-5.70 73.03,-5.73 74.33,-5.77 75.62,-5.81 76.95,-5.83 78.29,-5.86 79.65,-5.87 81.00,-5.89 82.33,-5.90 83.65,-5.91 85.05,-5.92 86.44,-5.92 88.06,-5.96 89.68,-6.00 91.35,-6.05 93.02,-6.10 94.65,-6.14 96.28,-6.18 97.77,-6.18 99.26,-6.18 100.49,-6.14 101.72,-6.11 102.79,-6.08 103.87,-6.06 105.89,-6.04 107.91,-6.02 109.03,-6.02 110.15,-6.01 111.37,-6.02 112.59,-6.02 113.84,-6.03 115.08,-6.03 116.31,-6.01 117.54,-6.00 118.69,-5.99 119.83,-5.98 120.90,-5.98 121.96,-5.98 123.83,-5.94 125.70,-5.89 127.63,-5.78 129.56,-5.66 130.77,-5.64 131.99,-5.61 133.33,-5.61 134.68,-5.60 135.97,-5.59 137.27,-5.58 138.56,-5.57 139.85,-5.57 141.18,-5.56 142.51,-5.55 143.73,-5.54 144.96,-5.52 147.03,-5.47 149.10,-5.41 150.65,-5.31 152.19,-5.21 153.62,-4.74 155.05,-4.28 155.84,-2.58 156.62,-0.87 156.54,0.56 156.45,2.01 156.36,3.15 156.27,4.29 156.15,5.41 156.03,6.54 155.99,7.61 155.95,8.68 155.92,9.86 155.90,11.04 155.89,12.13 155.87,13.23 155.88,14.50 155.88,15.77 155.83,17.20 155.78,18.62 155.77,20.06 155.75,21.49 155.79,23.01 155.83,24.52 155.93,25.67 156.03,26.83 156.12,28.06 156.21,29.30 156.25,30.43 156.30,31.57 156.33,32.70 156.36,33.83 156.40,34.99 156.44,36.14 156.47,37.22 156.49,38.30 156.51,40.25 156.53,42.21 156.55,44.08 156.57,45.95 156.67,47.93 156.76,49.91 156.84,51.09 156.93,52.28 157.01,53.52 157.09,54.76 157.18,56.04 157.28,57.32 157.35,58.52 157.43,59.71 157.50,60.93 157.58,62.15 157.68,63.50 157.78,64.85 157.89,66.27 158.00,67.69 158.13,69.17 158.26,70.66 158.40,72.19 158.54,73.73 158.65,75.26 158.75,76.79 158.83,78.35 158.91,79.92 158.94,81.43 158.97,82.94 158.97,84.37 158.98,85.79 158.99,87.25 159.00,88.70 159.01,90.12 159.03,91.55 159.02,93.00 159.02,94.46 158.99,95.97 158.97,97.47 158.94,98.95 158.91,100.42 158.88,101.91 158.85,103.40 158.78,104.96 158.71,106.51 158.59,108.11 158.48,109.70 158.35,111.32 158.22,112.93 158.10,114.42 157.97,115.91 157.86,117.30 157.75,118.69 157.65,120.12 157.55,121.55 157.43,122.91 157.30,124.27 157.18,125.58 157.06,126.89 156.95,128.20 156.85,129.51 156.74,130.83 156.63,132.15 156.39,134.26 156.15,136.38 155.06,137.72 153.98,139.05 152.87,139.23 151.77,139.41 150.64,139.35 149.52,139.28 147.83,139.19 146.14,139.11 144.94,139.07 143.75,139.02 142.38,139.02 141.01,139.01 139.69,139.00 138.38,139.00 137.25,138.96 136.11,138.92 134.08,138.74 132.04,138.57 130.94,138.45 129.83,138.34 128.63,138.21 127.42,138.08 126.19,137.98 124.96,137.88 123.65,137.79 122.35,137.70 120.92,137.62 119.50,137.54 117.93,137.51 116.36,137.48 114.77,137.47 113.18,137.46 111.63,137.44 110.08,137.41 108.47,137.40 106.85,137.38 105.10,137.39 103.35,137.40 101.58,137.42 99.80,137.44 98.09,137.46 96.37,137.47 94.62,137.50 92.86,137.53 91.04,137.60 89.22,137.66 87.41,137.75 85.61,137.84 84.00,137.87 82.39,137.91 80.92,137.89 79.44,137.86 77.98,137.83 76.53,137.81 75.11,137.78 73.68,137.75 72.28,137.72 70.88,137.69 69.48,137.63 68.08,137.58 66.78,137.51 65.48,137.44 64.19,137.36 62.90,137.28 61.48,137.18 60.06,137.07 58.56,136.91 57.07,136.75 55.48,136.55 53.89,136.35 52.46,136.12 51.04,135.89 49.59,135.65 48.14,135.42 46.36,135.19 44.59,134.97 42.54,134.77 40.50,134.57 38.23,134.38 35.96,134.19 33.65,134.03 31.33,133.86 28.77,133.68 26.22,133.50 23.15,133.28 20.09,133.06 16.93,132.86 13.77,132.65 11.28,132.58 8.80,132.51 6.98,132.50 5.17,132.49 3.90,132.41 2.63,132.33 1.04,131.55 -0.54,130.77 -1.15,129.22 -1.75,127.66 -1.76,125.99 -1.78,124.32 -1.78,123.22 -1.79,122.12 -1.84,119.99 -1.89,117.86 -1.91,116.47 -1.92,115.08 -1.94,113.55 -1.96,112.01 -1.93,110.77 -1.90,109.53 -1.86,108.17 -1.82,106.81 -1.78,105.46 -1.73,104.12 -1.68,102.96 -1.63,101.80 -1.56,100.45 -1.49,99.09 -1.44,97.62 -1.40,96.16 -1.39,94.47 -1.39,92.78 -1.36,90.85 -1.33,88.92 -1.32,87.81 -1.31,86.69 -1.30,85.52 -1.30,84.35 -1.31,83.11 -1.33,81.87 -1.36,80.69 -1.39,79.50 -1.44,78.30 -1.49,77.09 -1.52,75.87 -1.55,74.65 -1.54,72.55 -1.53,70.44 -1.56,69.21 -1.59,67.98 -1.58,66.73 -1.58,65.49 -1.54,64.29 -1.50,63.09 -1.47,61.83 -1.43,60.56 -1.40,59.30 -1.37,58.03 -1.36,56.74 -1.34,55.45 -1.31,54.19 -1.29,52.94 -1.25,51.64 -1.20,50.34 -1.16,48.82 -1.12,47.29 -1.07,45.51 -1.02,43.74 -1.03,41.56 -1.05,39.38 -1.08,36.93 -1.10,34.47 -1.15,31.74 -1.19,29.01 -1.26,26.16 -1.33,23.31 -1.42,20.67 -1.52,18.03 -1.62,15.60 -1.72,13.17 -1.84,11.09 -1.96,9.01 -1.97,7.30 -1.99,5.58 -1.93,4.15 -1.87,2.72 -1.79,1.36 -1.71,0 -1.69,-0.20 -1.66,-0.41 -1.59,-0.60 -1.52,-0.79 -1.40,-0.96 -1.28,-1.13 -1.13,-1.27 -0.97,-1.41 -0.79,-1.50 -0.60,-1.60 -0.40,-1.65 -0.20,-1.70 0.00,-1.70 0.20,-1.70 0.40,-1.65 0.60,-1.60 0.79,-1.50 0.97,-1.41 1.13,-1.27 1.28,-1.13 1.40,-0.96 1.52,-0.79 1.59,-0.60 1.66,-0.41 1.69,-0.20 1.71,0.00 1.71,0.00 L 1.71,0 Z"></path></g><g stroke-opacity="0.4" fill-opacity="0.4" transform="translate(328.4599609375 47.947265625) rotate(0 177.076171875 69.408203125)" stroke="none"><path d="M0 0 L0 0.08 L0 0.56 L0 1.82 L-0.09 3.88 L-0.32 6.58 L-0.54 9.79 L-0.77 13.46 L-0.95 17.79 L-1.05 22.18 L-1.14 27.25 L-1.14 32.72 L-1.09 37.54 L-1 42.14 L-0.96 46.48 L-0.96 50.86 L-0.87 55.08 L-0.55 59.39 L-0.17 63.25 L0.06 65.82 L0.22 67.76 L0.38 69.49 L0.45 71.02 L0.48 72.34 L0.54 73.71 L0.57 75.06 L0.63 76.55 L0.71 77.95 L0.77 79.22 L0.82 80.67 L0.87 82.17 L0.93 83.73 L1.1 85.79 L1.35 88.38 L1.53 90.78 L1.64 92.86 L1.72 95.02 L1.79 97.59 L1.8 100.01 L1.8 102.11 L1.73 104.09 L1.54 105.91 L1.32 107.45 L1.19 108.84 L1.13 110.35 L1.04 111.73 L0.95 113 L0.86 113.98 L0.85 114.86 L0.79 116.03 L0.72 117.36 L0.66 118.75 L0.54 120.17 L0.42 121.55 L0.34 122.76 L0.29 123.7 L0.26 124.59 L0.22 125.47 L0.16 126.2 L0.02 126.8 L-0.07 127.35 L-0.09 127.79 L-0.17 128.23 L-0.28 128.67 L-0.34 129.09 L-0.41 129.55 L-0.51 130.18 L-0.6 130.89 L-0.66 131.54 L-0.75 132.09 L-0.85 132.51 L-0.91 132.84 L-0.98 133.11 L-1.05 133.34 L-1.07 133.58 L-1.07 133.86 L-1.08 134.29 L-1.15 134.73 L-1.23 135.04 L-1.25 135.26 L-1.25 135.45 L-1.25 135.59 L-1.29 135.63 L-1.33 135.67 L-1.33 135.71 L-1.28 135.71 L-1.19 135.71 L-1 135.77 L-0.65 135.96 L-0.23 136.14 L0.2 136.2 L0.69 136.28 L1.39 136.34 L2.6 136.36 L4.27 136.41 L6.11 136.46 L8.25 136.41 L10.57 136.34 L13.22 136.32 L16.11 136.32 L18.04 136.32 L19.66 136.32 L22.67 136.32 L25.34 136.32 L27.05 136.32 L28.83 136.32 L30.45 136.32 L32.45 136.32 L34.91 136.33 L37.99 136.44 L41.36 136.59 L44.66 136.64 L48.18 136.56 L52.41 136.48 L56.67 136.47 L60.47 136.47 L64.81 136.47 L69.86 136.47 L76.19 136.56 L82.63 136.77 L89.04 137 L96 137.12 L101.78 137.12 L106.09 137.12 L110.09 137.2 L114.03 137.37 L118.42 137.46 L123.27 137.46 L127.29 137.46 L131.16 137.46 L135.51 137.26 L140.28 136.61 L145.21 135.81 L150.75 135.07 L156.38 134.51 L161.13 134.04 L164.84 133.61 L167.83 133.48 L170.88 133.48 L173.73 133.48 L176.37 133.47 L179.2 133.37 L181.77 133.22 L183.76 133.17 L185.98 133.11 L189.01 133.04 L192.48 133.02 L196.66 133.02 L201.19 133.02 L204.34 133.02 L207.65 133.02 L214.02 133.02 L219.86 133.02 L222.95 133.02 L225.18 133.02 L226.66 133.02 L227.82 133.02 L229.07 132.96 L230.32 132.89 L231.6 132.89 L233.41 132.89 L235.78 132.89 L238.24 132.89 L240.97 132.81 L243.72 132.73 L246.33 132.73 L249.59 132.73 L253.09 132.73 L257.25 132.75 L261.71 132.95 L265.23 133.22 L268.21 133.4 L271.38 133.65 L274.51 133.84 L278.04 134 L281.94 134.28 L285.74 134.59 L289.79 134.94 L293.86 135.42 L298.2 135.73 L302.61 135.89 L306.9 136.19 L310.92 136.39 L315.2 136.44 L318.73 136.52 L321.44 136.68 L324.43 136.87 L326.74 137.03 L328.78 137.13 L330.66 137.15 L332.45 137.16 L334.27 137.22 L335.84 137.36 L337.41 137.54 L338.63 137.67 L339.12 137.72 L339.59 137.72 L340.25 137.72 L341.24 137.78 L342.63 137.97 L344.16 138.19 L345.72 138.39 L346.96 138.56 L347.65 138.67 L347.86 138.74 L347.93 138.75 L348.44 138.8 L349.36 138.91 L350.27 138.96 L350.89 138.96 L351.09 138.96 L351.16 138.96 L351.24 138.96 L351.39 138.96 L351.63 138.96 L351.84 138.96 L352.17 138.96 L353.29 139.02 L353.73 139.08 L353.96 139.13 L354.05 139.14 L354.14 139.14 L354.25 139.17 L354.4 139.13 L354.52 138.78 L354.61 138.14 L354.75 137.31 L354.87 136.33 L354.95 135.2 L355.01 133.97 L355.04 132.73 L355.09 131.61 L355.13 130.59 L355.18 129.47 L355.23 128.35 L355.25 127.41 L355.25 126.62 L355.25 125.8 L355.25 124.77 L355.25 123.59 L355.25 122.26 L355.25 120.8 L355.25 119.44 L355.25 118.21 L355.25 116.97 L355.25 115.76 L355.25 114.64 L355.28 113.42 L355.34 112.03 L355.37 110.52 L355.37 109.13 L355.37 107.99 L355.37 106.97 L355.37 105.99 L355.41 105.09 L355.47 104.12 L355.48 103.11 L355.48 102.12 L355.48 101.08 L355.48 99.96 L355.48 98.64 L355.48 97.52 L355.48 95.56 L355.48 94.55 L355.48 93.45 L355.48 92.38 L355.43 91.2 L355.37 89.7 L355.34 87.87 L355.27 86.14 L355.18 84.37 L355.12 82.6 L355.11 80.79 L355.09 78.9 L354.98 77.06 L354.88 74.94 L354.86 72.67 L354.85 70.86 L354.79 69.36 L354.73 67.84 L354.7 66.47 L354.64 65.24 L354.57 64.06 L354.45 62.49 L354.31 60.62 L354.18 58.93 L354 57.16 L353.8 55.36 L353.49 53.46 L353.13 51.52 L352.9 49.9 L352.69 48.55 L352.54 47.41 L352.41 46.27 L352.29 44.83 L352.2 43.27 L352.14 41.8 L352 40.32 L351.81 38.78 L351.67 37.12 L351.55 35.51 L351.38 33.87 L351.2 32.21 L351.07 30.79 L350.8 27.88 L350.69 26.34 L350.61 25.16 L350.56 24.19 L350.5 23.25 L350.39 22.34 L350.34 21.61 L350.34 21.16 L350.34 20.81 L350.34 20.49 L350.34 20.23 L350.34 20.02 L350.34 19.79 L350.34 19.54 L350.34 19.14 L350.39 18.63 L350.44 18.13 L350.49 17.68 L350.59 17.25 L350.63 16.82 L350.67 16.33 L350.72 15.85 L350.75 15.43 L350.79 14.91 L350.82 14.42 L350.82 13.91 L350.84 13.26 L350.89 12.54 L350.97 11.75 L351.07 11.09 L351.13 10.61 L351.14 10.1 L351.2 9.5 L351.23 8.97 L351.23 8.56 L351.23 8.19 L351.28 7.92 L351.33 7.79 L351.29 7.75 L351.08 7.63 L350.27 7.24 L348.22 6.61 L338.16 4.25 L332.71 3.17 L328.06 2.58 L323.4 2.26 L318.98 2.1 L314.93 1.98 L310.92 1.75 L307.9 1.55 L305.97 1.53 L304.56 1.5 L303.48 1.41 L302.26 1.32 L300.88 1.36 L298.63 1.41 L295.6 1.41 L292.2 1.46 L288.74 1.54 L285.91 1.57 L283.35 1.57 L280.44 1.57 L278.13 1.57 L276.8 1.57 L275.48 1.57 L273.82 1.57 L271.89 1.64 L269.39 1.7 L266.56 1.7 L263.97 1.7 L261.33 1.7 L258.91 1.7 L256.16 1.78 L252.49 1.92 L248.46 2.13 L244.55 2.32 L240.77 2.36 L237.2 2.36 L233.88 2.44 L230.43 2.51 L226.47 2.51 L221.53 2.6 L216.25 2.79 L207.09 3.41 L203.28 3.51 L199.76 3.47 L196.11 3.52 L192.47 3.77 L188.64 4.06 L184.41 4.3 L180.58 4.53 L177.04 4.75 L174.24 4.96 L171.76 5.18 L169.25 5.36 L166.86 5.43 L164.17 5.54 L161.07 5.62 L157.86 5.61 L153.99 5.52 L149.54 5.44 L145.34 5.5 L141.34 5.58 L137.46 5.67 L133.59 5.75 L129.88 5.83 L127.3 6 L125.49 6.15 L121.84 6.22 L117.91 6.15 L115.59 6.07 L113.44 6.02 L111.43 5.9 L109.42 5.74 L107.21 5.63 L104.91 5.46 L102.43 5.27 L100.02 5.18 L97.16 5.11 L94.14 5.01 L91.52 4.86 L88.98 4.79 L86.38 4.79 L84.04 4.73 L82.21 4.67 L80.42 4.64 L78.46 4.57 L76.46 4.52 L72.21 4.42 L69.45 4.17 L66.6 3.9 L64.12 3.71 L62.32 3.59 L60.8 3.52 L59.5 3.39 L58.43 3.28 L57.31 3.24 L55.87 3.13 L54.3 2.98 L52.84 2.91 L51.32 2.88 L49.54 2.78 L47.47 2.62 L45.56 2.52 L43.74 2.36 L41.94 2.22 L39.94 2.18 L37.86 2.07 L36.29 1.97 L35.05 1.95 L33.88 1.88 L32.55 1.74 L31.11 1.63 L29.73 1.54 L28.59 1.43 L27.66 1.31 L26.68 1.21 L25.51 1.04 L24.32 0.84 L23.15 0.68 L22.01 0.5 L20.91 0.42 L20 0.37 L19.32 0.33 L18.71 0.3 L18.25 0.25 L17.85 0.23 L17.45 0.18 L16.65 0.14 L16.29 0.14 L15.88 0.09 L15.43 -0.01 L14.83 -0.07 L14.04 -0.12 L13.07 -0.16 L12.02 -0.16 L11.25 -0.16 L10.88 -0.17 L10.64 -0.22 L10.35 -0.25 L10.06 -0.25 L9.88 -0.25 L9.61 -0.25 L9.25 -0.25 L8.95 -0.25 L8.64 -0.25 L8.38 -0.25 L8.03 -0.25 L7.61 -0.25 L7.26 -0.25 L6.97 -0.25 L6.79 -0.25 L6.62 -0.3 L6.4 -0.35 L6.18 -0.35 L5.91 -0.35 L5.39 -0.35 L4.69 -0.35 L3.94 -0.35 L3.23 -0.35 L2.73 -0.33 L2.44 -0.29 L2.27 -0.27 L2.15 -0.27 L2.06 -0.27 L0 0" stroke="none" stroke-width="0" fill="#ffffff" fill-rule="evenodd"></path><path fill="#000" d="M 1.66,0.08 Q 1.66,0.08 1.58,1.97 1.49,3.86 1.43,5.60 1.36,7.34 1.26,9.13 1.17,10.92 1.04,12.91 0.91,14.90 0.78,17.00 0.66,19.11 0.56,21.45 0.47,23.80 0.42,26.36 0.36,28.92 0.35,31.39 0.33,33.86 0.34,36.23 0.35,38.60 0.36,40.86 0.37,43.12 0.37,45.35 0.37,47.57 0.40,49.72 0.43,51.87 0.53,54.00 0.63,56.13 0.80,58.14 0.97,60.14 1.19,61.73 1.41,63.32 1.62,64.55 1.82,65.78 2.15,67.68 2.47,69.58 2.67,71.06 2.87,72.55 3.02,73.97 3.18,75.38 3.33,76.74 3.47,78.10 3.59,79.54 3.71,80.99 3.84,82.61 3.97,84.23 4.06,85.34 4.15,86.45 4.24,87.63 4.32,88.81 4.40,89.93 4.47,91.04 4.53,92.15 4.58,93.26 4.62,94.48 4.65,95.70 4.66,96.93 4.68,98.17 4.69,99.30 4.70,100.43 4.69,101.51 4.68,102.59 4.55,104.55 4.42,106.50 4.34,107.96 4.26,109.43 4.20,110.83 4.14,112.22 4.10,113.80 4.06,115.37 4.02,116.64 3.99,117.91 3.89,119.35 3.80,120.79 3.74,121.94 3.69,123.10 3.65,124.45 3.61,125.81 3.47,127.08 3.33,128.36 3.15,129.62 2.98,130.89 2.82,132.05 2.67,133.21 2.54,134.32 2.40,135.43 1.66,134.18 0.92,132.94 2.16,132.81 3.40,132.69 5.10,132.75 6.80,132.82 9.08,132.87 11.37,132.92 12.73,132.97 14.09,133.03 15.22,133.05 16.36,133.07 18.57,133.12 20.79,133.16 22.10,133.20 23.41,133.24 25.41,133.23 27.41,133.23 29.23,133.22 31.05,133.21 32.16,133.22 33.28,133.24 34.66,133.31 36.05,133.38 37.61,133.51 39.17,133.63 40.76,133.73 42.35,133.84 44.00,133.90 45.66,133.97 47.59,134.05 49.51,134.14 51.57,134.24 53.62,134.34 55.59,134.41 57.56,134.47 59.64,134.54 61.72,134.62 64.06,134.69 66.40,134.76 69.22,134.84 72.04,134.92 75.10,135.03 78.16,135.14 81.30,135.27 84.44,135.39 87.77,135.49 91.10,135.58 94.17,135.63 97.24,135.67 99.78,135.70 102.33,135.72 104.56,135.76 106.80,135.79 108.89,135.85 110.99,135.91 113.13,135.97 115.27,136.03 117.57,136.06 119.86,136.08 122.00,136.10 124.13,136.11 126.15,136.09 128.17,136.07 130.26,136.02 132.35,135.97 134.57,135.77 136.80,135.57 139.15,135.26 141.51,134.95 144.11,134.60 146.72,134.26 149.45,133.95 152.19,133.64 154.72,133.38 157.25,133.11 159.39,132.88 161.52,132.64 163.31,132.43 165.09,132.22 166.75,132.08 168.41,131.94 169.93,131.84 171.46,131.74 172.87,131.66 174.28,131.57 175.67,131.48 177.06,131.39 178.38,131.28 179.70,131.17 180.85,131.07 181.99,130.97 183.12,130.89 184.25,130.80 185.60,130.74 186.95,130.69 188.53,130.68 190.12,130.67 192.00,130.74 193.88,130.80 195.98,130.91 198.08,131.02 199.88,131.03 201.68,131.04 203.39,131.04 205.11,131.03 207.67,131.12 210.23,131.21 213.00,131.28 215.76,131.34 217.83,131.37 219.89,131.41 221.41,131.33 222.93,131.26 224.00,131.16 225.07,131.07 226.53,130.90 227.98,130.73 229.29,130.58 230.60,130.42 232.43,130.33 234.26,130.24 235.41,130.22 236.55,130.20 237.79,130.17 239.04,130.15 240.36,130.12 241.68,130.09 243.02,130.08 244.35,130.07 245.86,130.09 247.36,130.11 249.01,130.16 250.66,130.20 252.55,130.30 254.45,130.40 256.56,130.58 258.68,130.77 260.60,130.92 262.52,131.07 264.19,131.15 265.86,131.24 267.49,131.33 269.12,131.43 270.71,131.51 272.29,131.60 273.97,131.69 275.65,131.78 277.50,131.94 279.35,132.09 281.23,132.26 283.11,132.43 285.07,132.64 287.04,132.84 289.06,133.09 291.07,133.35 293.15,133.58 295.23,133.81 297.37,133.98 299.50,134.14 301.66,134.31 303.81,134.49 305.88,134.62 307.94,134.75 310.03,134.83 312.12,134.91 314.03,134.92 315.93,134.94 317.54,134.93 319.15,134.93 320.70,134.94 322.25,134.96 323.58,134.96 324.91,134.97 326.05,134.95 327.19,134.94 329.14,134.86 331.08,134.78 332.91,134.75 334.74,134.72 336.31,134.78 337.87,134.84 339.31,134.82 340.75,134.80 342.15,134.91 343.54,135.03 344.96,135.18 346.37,135.33 347.44,135.44 348.51,135.55 349.70,135.58 350.88,135.62 352.23,135.62 353.59,135.62 352.52,136.38 351.44,137.15 351.43,135.86 351.42,134.56 351.47,133.43 351.51,132.30 351.55,131.22 351.59,130.13 351.63,128.67 351.66,127.22 351.66,125.80 351.65,124.38 351.66,123.09 351.67,121.80 351.67,120.48 351.68,119.16 351.68,117.91 351.69,116.67 351.69,115.46 351.70,114.25 351.75,112.86 351.80,111.48 351.81,110.18 351.83,108.89 351.83,107.82 351.82,106.75 351.86,105.25 351.89,103.75 351.89,102.25 351.89,100.75 351.90,99.56 351.90,98.37 351.91,96.93 351.93,95.49 351.92,94.34 351.92,93.20 351.89,92.00 351.85,90.81 351.83,89.15 351.81,87.50 351.76,85.76 351.72,84.03 351.71,82.17 351.71,80.31 351.65,78.44 351.60,76.57 351.60,75.45 351.60,74.33 351.57,72.51 351.55,70.70 351.49,69.17 351.43,67.64 351.36,66.39 351.29,65.15 351.18,63.62 351.07,62.09 350.94,60.41 350.81,58.73 350.61,57.00 350.41,55.27 350.14,53.48 349.86,51.68 349.63,50.26 349.41,48.84 349.24,47.50 349.07,46.15 348.96,44.61 348.85,43.06 348.72,41.65 348.58,40.24 348.44,38.60 348.30,36.96 348.15,35.36 348.00,33.76 347.84,31.83 347.69,29.89 347.55,28.19 347.42,26.48 347.32,25.36 347.22,24.24 347.10,23.00 346.97,21.76 346.91,20.57 346.86,19.38 346.95,18.19 347.04,16.99 347.12,15.77 347.20,14.55 347.25,13.27 347.30,12.00 347.40,10.81 347.50,9.62 347.58,8.46 347.66,7.30 348.13,8.84 348.60,10.38 345.36,9.43 342.11,8.49 339.28,7.64 336.44,6.79 333.95,6.18 331.47,5.57 329.11,5.16 326.76,4.76 324.50,4.49 322.25,4.22 320.13,4.05 318.01,3.87 315.94,3.71 313.88,3.56 312.13,3.49 310.37,3.42 309.09,3.45 307.81,3.49 306.11,3.58 304.42,3.67 303.13,3.74 301.85,3.82 299.67,3.90 297.48,3.98 295.97,3.97 294.46,3.96 292.83,3.95 291.20,3.94 289.69,3.96 288.17,3.97 286.79,3.99 285.40,4.01 283.97,4.02 282.54,4.03 281.27,4.05 280.00,4.07 278.31,4.16 276.61,4.25 274.94,4.33 273.27,4.42 272.17,4.45 271.08,4.49 269.78,4.49 268.48,4.49 267.18,4.48 265.88,4.48 264.57,4.47 263.26,4.46 262.01,4.46 260.75,4.46 259.46,4.47 258.16,4.48 256.56,4.48 254.96,4.47 253.13,4.46 251.30,4.44 249.39,4.44 247.48,4.44 245.55,4.43 243.63,4.41 241.78,4.40 239.93,4.38 238.20,4.41 236.47,4.43 234.75,4.46 233.02,4.49 231.14,4.47 229.25,4.45 227.04,4.40 224.83,4.34 222.38,4.34 219.93,4.35 216.27,4.51 212.61,4.66 209.94,4.75 207.27,4.83 205.11,4.84 202.95,4.86 200.99,4.91 199.03,4.96 197.17,5.07 195.31,5.18 193.43,5.32 191.54,5.46 189.51,5.57 187.49,5.68 185.53,5.80 183.57,5.92 181.72,6.06 179.87,6.20 178.29,6.37 176.70,6.54 175.33,6.72 173.96,6.91 172.65,7.07 171.34,7.24 170.07,7.36 168.80,7.48 167.49,7.59 166.19,7.69 164.73,7.76 163.27,7.83 161.71,7.85 160.15,7.87 158.36,7.81 156.57,7.75 154.54,7.63 152.50,7.50 150.45,7.43 148.40,7.35 146.38,7.33 144.35,7.30 142.38,7.32 140.41,7.33 138.46,7.35 136.51,7.38 134.61,7.42 132.71,7.46 131.19,7.59 129.66,7.72 128.50,7.87 127.35,8.03 125.77,8.11 124.19,8.19 122.37,8.17 120.55,8.16 119.11,8.18 117.66,8.20 116.43,8.24 115.20,8.27 114.08,8.28 112.95,8.29 111.88,8.27 110.81,8.26 109.74,8.24 108.67,8.22 107.53,8.18 106.39,8.13 105.19,8.07 103.99,8.00 102.82,7.96 101.65,7.91 100.34,7.86 99.03,7.82 97.60,7.75 96.17,7.69 94.79,7.62 93.41,7.55 92.11,7.51 90.82,7.46 89.54,7.45 88.26,7.43 87.03,7.42 85.80,7.41 83.79,7.42 81.77,7.42 79.80,7.41 77.83,7.40 76.20,7.29 74.57,7.18 73.03,7.06 71.49,6.94 70.01,6.80 68.53,6.66 67.21,6.56 65.88,6.46 64.80,6.40 63.72,6.35 62.06,6.31 60.39,6.27 59.20,6.24 58.00,6.21 56.56,6.15 55.12,6.09 53.72,6.05 52.31,6.02 50.48,5.92 48.66,5.83 46.76,5.70 44.87,5.58 43.05,5.48 41.23,5.37 39.32,5.28 37.41,5.18 36.04,5.15 34.67,5.12 33.27,5.03 31.87,4.94 30.55,4.86 29.23,4.78 28.16,4.69 27.09,4.61 25.87,4.45 24.66,4.30 23.50,4.15 22.35,3.99 21.01,3.90 19.68,3.81 18.56,3.76 17.44,3.71 16.32,3.63 15.20,3.56 13.93,3.50 12.65,3.45 11.44,3.41 10.22,3.38 9.05,3.40 7.88,3.43 6.77,3.40 5.65,3.37 3.51,3.47 1.37,3.57 0.77,3.55 0.17,3.53 -0.38,3.31 -0.95,3.10 -1.41,2.72 -1.88,2.33 -2.19,1.82 -2.51,1.31 -2.65,0.73 -2.79,0.14 -2.73,-0.45 -2.68,-1.05 -2.43,-1.60 -2.19,-2.15 -1.78,-2.59 -1.38,-3.04 -0.85,-3.33 -0.32,-3.62 0.26,-3.72 0.85,-3.83 1.45,-3.74 2.04,-3.65 2.58,-3.38 3.12,-3.11 3.54,-2.67 3.96,-2.24 4.22,-1.70 4.48,-1.16 4.55,-0.56 4.63,0.02 4.51,0.61 4.39,1.20 4.09,1.72 3.78,2.24 3.33,2.64 2.88,3.04 2.32,3.27 1.77,3.50 1.17,3.54 0.57,3.58 -0.01,3.43 -0.59,3.28 -1.09,2.95 -1.59,2.62 -1.97,2.15 -2.34,1.67 -2.54,1.11 -2.74,0.54 -2.75,-0.05 -2.76,-0.65 -2.58,-1.23 -2.39,-1.80 -2.03,-2.29 -1.68,-2.77 -1.19,-3.12 -0.69,-3.46 -0.12,-3.63 0.45,-3.80 0.45,-3.80 0.45,-3.80 2.44,-3.94 4.44,-4.08 5.70,-4.02 6.97,-3.95 8.07,-3.93 9.17,-3.91 10.27,-3.84 11.37,-3.77 12.63,-3.74 13.89,-3.71 15.33,-3.54 16.77,-3.38 18.10,-3.26 19.43,-3.13 20.77,-3.01 22.10,-2.89 23.30,-2.72 24.49,-2.55 25.62,-2.36 26.76,-2.18 28.27,-1.97 29.78,-1.77 31.09,-1.65 32.39,-1.53 33.69,-1.40 34.99,-1.27 36.38,-1.18 37.76,-1.09 39.62,-0.99 41.49,-0.89 43.42,-0.77 45.34,-0.66 47.21,-0.53 49.08,-0.40 50.81,-0.28 52.54,-0.17 54.09,-0.05 55.64,0.06 56.99,0.21 58.35,0.37 59.59,0.52 60.83,0.68 62.47,0.86 64.11,1.04 65.20,1.15 66.28,1.26 67.62,1.36 68.95,1.47 70.38,1.56 71.80,1.66 73.25,1.71 74.70,1.77 76.35,1.74 78.00,1.71 79.94,1.81 81.89,1.91 83.90,2.01 85.90,2.12 87.12,2.15 88.35,2.19 89.68,2.21 91.01,2.24 92.33,2.29 93.66,2.34 95.00,2.40 96.35,2.46 97.78,2.50 99.22,2.53 100.57,2.58 101.92,2.62 103.15,2.70 104.37,2.78 105.55,2.89 106.73,2.99 107.84,3.10 108.94,3.21 111.04,3.42 113.14,3.63 114.22,3.73 115.29,3.84 116.51,3.92 117.72,4.00 119.14,4.06 120.55,4.13 122.31,4.11 124.06,4.09 125.59,4.07 127.11,4.05 128.31,4.07 129.51,4.08 131.07,4.08 132.64,4.07 134.54,4.03 136.44,4.00 138.39,3.95 140.35,3.89 142.33,3.83 144.31,3.77 146.35,3.70 148.39,3.62 150.48,3.54 152.57,3.45 154.59,3.39 156.62,3.33 158.36,3.31 160.10,3.29 161.61,3.27 163.13,3.26 164.56,3.23 165.99,3.21 167.29,3.19 168.59,3.18 169.81,3.18 171.04,3.18 172.35,3.15 173.66,3.12 175.06,3.09 176.47,3.05 178.07,3.00 179.67,2.96 181.53,2.87 183.38,2.78 185.34,2.67 187.30,2.56 189.32,2.43 191.34,2.29 193.26,2.19 195.17,2.09 197.08,2.03 198.98,1.98 200.94,1.97 202.90,1.96 205.02,1.90 207.14,1.83 209.79,1.68 212.43,1.53 216.14,1.28 219.84,1.02 222.31,0.89 224.78,0.75 227.00,0.63 229.22,0.52 231.08,0.47 232.94,0.42 234.67,0.38 236.40,0.34 238.14,0.30 239.88,0.26 241.70,0.20 243.52,0.14 245.39,0.03 247.27,-0.07 249.17,-0.25 251.08,-0.43 252.94,-0.61 254.79,-0.78 256.43,-0.89 258.06,-0.99 259.41,-1.03 260.75,-1.06 262.00,-1.06 263.25,-1.07 264.56,-1.08 265.86,-1.09 267.15,-1.11 268.43,-1.12 269.69,-1.14 270.95,-1.16 272.05,-1.18 273.15,-1.20 274.88,-1.15 276.61,-1.10 278.30,-1.01 280.00,-0.93 281.26,-0.91 282.53,-0.89 283.95,-0.89 285.36,-0.89 286.73,-0.89 288.10,-0.89 289.61,-0.92 291.11,-0.95 292.76,-1.02 294.41,-1.09 295.94,-1.13 297.46,-1.17 299.68,-1.13 301.90,-1.08 303.28,-0.91 304.66,-0.74 306.31,-0.51 307.96,-0.29 309.27,-0.15 310.58,-0.01 312.32,0.12 314.06,0.26 316.12,0.33 318.18,0.40 320.35,0.42 322.52,0.45 324.88,0.52 327.24,0.58 329.75,0.73 332.27,0.88 334.94,1.16 337.61,1.44 340.62,1.87 343.63,2.30 347.04,2.89 350.45,3.47 352.09,4.26 353.73,5.04 354.21,6.01 354.70,6.98 354.78,8.31 354.86,9.64 354.74,10.83 354.62,12.03 354.51,13.20 354.41,14.37 354.29,15.71 354.17,17.05 354.01,18.11 353.85,19.16 353.80,20.31 353.75,21.45 353.81,22.62 353.86,23.79 353.91,24.90 353.96,26.00 354.09,27.64 354.22,29.28 354.43,31.18 354.64,33.08 354.81,34.75 354.98,36.42 355.12,37.98 355.26,39.54 355.40,41.12 355.54,42.70 355.62,44.09 355.70,45.48 355.82,46.69 355.93,47.89 356.13,49.29 356.32,50.68 356.63,52.52 356.93,54.36 357.17,56.25 357.42,58.14 357.57,59.89 357.72,61.63 357.82,63.22 357.93,64.80 357.97,66.13 358.01,67.45 358.05,68.98 358.08,70.52 358.13,72.35 358.18,74.18 358.29,76.23 358.40,78.28 358.48,80.16 358.56,82.04 358.63,83.77 358.70,85.50 358.79,87.24 358.89,88.98 358.94,90.47 359.00,91.95 359.01,93.13 359.03,94.31 359.03,95.53 359.03,96.75 359.04,98.15 359.05,99.54 359.05,100.69 359.05,101.84 359.02,103.41 358.99,104.99 358.95,106.39 358.90,107.80 358.89,109.00 358.89,110.20 358.87,111.66 358.85,113.11 358.83,114.30 358.80,115.50 358.80,116.70 358.80,117.90 358.80,119.17 358.81,120.44 358.81,121.80 358.82,123.16 358.82,124.80 358.82,126.44 358.78,127.89 358.74,129.34 358.69,130.43 358.63,131.52 358.58,132.63 358.53,133.75 358.46,135.02 358.39,136.28 358.25,137.36 358.10,138.44 357.76,139.57 357.41,140.70 356.53,141.32 355.66,141.95 354.12,142.17 352.58,142.40 351.40,142.33 350.23,142.25 348.99,142.11 347.76,141.97 346.66,141.74 345.56,141.52 344.15,141.30 342.74,141.08 341.22,140.84 339.70,140.61 338.51,140.44 337.33,140.28 335.88,140.06 334.44,139.84 332.71,139.66 330.99,139.49 328.98,139.31 326.96,139.12 325.82,138.98 324.67,138.84 323.36,138.69 322.06,138.53 320.53,138.38 319.01,138.23 317.43,138.08 315.86,137.94 313.94,137.86 312.03,137.78 309.90,137.73 307.77,137.68 305.70,137.58 303.62,137.47 301.47,137.37 299.32,137.26 297.14,137.19 294.95,137.11 292.83,136.99 290.71,136.87 288.72,136.71 286.74,136.55 284.78,136.44 282.82,136.32 280.95,136.22 279.09,136.11 277.26,136.03 275.43,135.94 273.72,135.85 272.02,135.77 270.43,135.65 268.84,135.52 267.24,135.40 265.63,135.27 263.97,135.16 262.31,135.06 260.43,135.00 258.56,134.94 256.50,135.01 254.44,135.07 252.55,135.16 250.66,135.25 249.02,135.30 247.38,135.35 245.90,135.38 244.41,135.42 243.11,135.43 241.82,135.45 240.48,135.49 239.14,135.53 237.85,135.55 236.56,135.58 235.42,135.56 234.27,135.54 232.48,135.46 230.68,135.39 229.39,135.31 228.10,135.23 226.59,135.09 225.07,134.96 224.00,134.87 222.93,134.77 221.41,134.70 219.89,134.62 217.83,134.65 215.76,134.69 213.00,134.75 210.23,134.82 207.67,134.91 205.11,135.00 203.40,135.00 201.68,134.99 199.88,135.01 198.09,135.02 195.99,135.14 193.90,135.26 192.04,135.34 190.18,135.41 188.63,135.45 187.08,135.48 185.73,135.49 184.39,135.51 183.27,135.49 182.15,135.47 181.01,135.45 179.88,135.43 178.52,135.43 177.16,135.43 175.74,135.41 174.31,135.39 172.91,135.33 171.52,135.27 170.02,135.22 168.52,135.17 166.92,135.15 165.32,135.13 163.57,135.20 161.82,135.27 159.67,135.51 157.53,135.75 155.01,136.01 152.49,136.28 149.78,136.59 147.07,136.90 144.47,137.25 141.86,137.61 139.45,137.93 137.05,138.26 134.74,138.48 132.42,138.70 130.30,138.76 128.17,138.82 126.14,138.80 124.12,138.77 121.98,138.77 119.84,138.76 117.52,138.74 115.21,138.73 113.06,138.68 110.91,138.64 108.84,138.57 106.76,138.50 104.54,138.48 102.31,138.46 99.76,138.46 97.21,138.46 94.12,138.44 91.03,138.42 87.69,138.37 84.35,138.32 81.22,138.25 78.09,138.18 75.05,138.15 72.01,138.11 69.21,138.14 66.40,138.17 64.07,138.24 61.73,138.31 59.65,138.40 57.57,138.48 55.61,138.55 53.65,138.63 51.61,138.76 49.57,138.89 47.62,139.02 45.67,139.16 43.94,139.24 42.21,139.31 40.59,139.34 38.96,139.37 37.43,139.37 35.91,139.38 34.58,139.39 33.26,139.40 32.15,139.41 31.05,139.42 29.23,139.40 27.41,139.39 25.41,139.39 23.41,139.39 22.10,139.43 20.79,139.47 18.58,139.51 16.37,139.56 15.25,139.59 14.12,139.61 12.79,139.68 11.46,139.75 10.25,139.82 9.05,139.88 6.92,139.98 4.78,140.07 3.26,140.05 1.74,140.02 0.36,139.86 -1.00,139.70 -2.26,139.07 -3.52,138.45 -4.18,136.50 -4.83,134.55 -4.64,133.32 -4.44,132.09 -4.24,131.01 -4.05,129.94 -3.84,128.79 -3.64,127.64 -3.42,126.51 -3.20,125.38 -3.10,124.03 -3.00,122.68 -2.90,121.47 -2.80,120.27 -2.69,118.94 -2.57,117.62 -2.49,116.34 -2.40,115.07 -2.32,113.98 -2.23,112.90 -2.11,111.68 -1.98,110.47 -1.85,108.94 -1.71,107.41 -1.51,105.85 -1.31,104.29 -1.21,102.39 -1.12,100.48 -1.13,99.38 -1.13,98.27 -1.16,97.09 -1.19,95.91 -1.25,94.73 -1.30,93.55 -1.35,92.49 -1.40,91.42 -1.47,90.35 -1.54,89.27 -1.64,88.11 -1.74,86.96 -1.85,85.79 -1.95,84.63 -2.00,82.91 -2.05,81.19 -2.04,79.78 -2.03,78.36 -2.01,76.97 -1.99,75.58 -1.94,74.17 -1.89,72.76 -1.82,71.31 -1.74,69.86 -1.71,67.96 -1.68,66.07 -1.68,64.82 -1.68,63.58 -1.72,61.96 -1.76,60.35 -1.90,58.31 -2.03,56.26 -2.14,54.09 -2.25,51.91 -2.29,49.75 -2.33,47.58 -2.35,45.37 -2.37,43.15 -2.40,40.89 -2.43,38.63 -2.47,36.25 -2.52,33.87 -2.54,31.38 -2.57,28.90 -2.58,26.31 -2.58,23.72 -2.57,21.36 -2.55,18.99 -2.53,16.86 -2.51,14.73 -2.45,12.72 -2.39,10.70 -2.26,8.91 -2.13,7.13 -1.99,5.41 -1.86,3.70 -1.76,1.81 -1.66,-0.08 -1.63,-0.27 -1.59,-0.47 -1.51,-0.66 -1.43,-0.84 -1.31,-1.00 -1.19,-1.16 -1.03,-1.29 -0.88,-1.41 -0.69,-1.50 -0.51,-1.58 -0.31,-1.62 -0.12,-1.66 0.07,-1.65 0.28,-1.64 0.47,-1.58 0.66,-1.53 0.83,-1.42 1.01,-1.32 1.15,-1.18 1.30,-1.04 1.40,-0.87 1.51,-0.70 1.57,-0.51 1.63,-0.32 1.65,-0.12 1.66,0.08 1.66,0.08 L 1.66,0.08 Z"></path></g><g transform="translate(166.1748046875 64.896484375) rotate(0 59.58203125 9.199999999999989)"><text x="0" y="0" font-family="Helvetica, Segoe UI Emoji" font-size="16px" fill="#000" text-anchor="start" style="white-space: pre;" direction="ltr" dominant-baseline="text-before-edge">Docker Frontend</text></g><g transform="translate(435.2021484375 64.615234375) rotate(0 58.6953125 9.199999999999989)"><text x="0" y="0" font-family="Helvetica, Segoe UI Emoji" font-size="16px" fill="#000" text-anchor="start" style="white-space: pre;" direction="ltr" dominant-baseline="text-before-edge">Docker Backend</text></g></svg>